<?xml version="1.0" encoding="UTF-8" standalone="no"?>
<!-- Created with Inkscape (http://www.inkscape.org/) -->

<svg
   xmlns:dc="http://purl.org/dc/elements/1.1/"
   xmlns:cc="http://creativecommons.org/ns#"
   xmlns:rdf="http://www.w3.org/1999/02/22-rdf-syntax-ns#"
   xmlns:svg="http://www.w3.org/2000/svg"
   xmlns="http://www.w3.org/2000/svg"
   xmlns:xlink="http://www.w3.org/1999/xlink"
   xmlns:sodipodi="http://sodipodi.sourceforge.net/DTD/sodipodi-0.dtd"
   xmlns:inkscape="http://www.inkscape.org/namespaces/inkscape"
   sodipodi:docname="Androminion.svg"
   inkscape:version="0.91 r13725"
   version="1.1"
   id="svg2"
   viewBox="0 0 20 20"
   height="5.6444445mm"
   width="5.6444445mm"
   inkscape:export-filename="/home/juergen/Projekte/Android/Android_Studio/Baumann_Theme/theme/src/main/assets/icons/res/drawable-xxhdpi/a023.png"
   inkscape:export-xdpi="648"
   inkscape:export-ydpi="648">
  <sodipodi:namedview
     inkscape:snap-to-guides="true"
     inkscape:snap-grids="true"
     inkscape:window-maximized="1"
     inkscape:window-y="24"
     inkscape:window-x="0"
     inkscape:window-height="744"
     inkscape:window-width="1366"
     inkscape:guide-bbox="true"
     showguides="true"
     fit-margin-bottom="0"
     fit-margin-right="0"
     fit-margin-left="0"
     fit-margin-top="0"
     showgrid="true"
     inkscape:current-layer="layer2"
     inkscape:document-units="px"
     inkscape:cy="6.4417604"
     inkscape:cx="1.7945791"
     inkscape:zoom="15.839192"
     inkscape:pageshadow="2"
     inkscape:pageopacity="0.0"
     borderopacity="1.0"
     bordercolor="#666666"
     pagecolor="#ffffff"
     id="base">
    <inkscape:grid
       type="xygrid"
       id="grid4138" />
    <sodipodi:guide
       position="24,18"
       orientation="0,1"
       id="guide4140" />
    <sodipodi:guide
       position="10,2"
       orientation="0,1"
       id="guide4142" />
    <sodipodi:guide
       position="2,10"
       orientation="1,0"
       id="guide4144" />
    <sodipodi:guide
       position="0,0"
       orientation="0,20"
       id="guide4146" />
    <sodipodi:guide
       position="20,0"
       orientation="-20,0"
       id="guide4148" />
    <sodipodi:guide
       position="20,20"
       orientation="0,-20"
       id="guide4150" />
    <sodipodi:guide
       position="0,20"
       orientation="20,0"
       id="guide4152" />
    <sodipodi:guide
       position="18,10"
       orientation="1,0"
       id="guide4154" />
    <sodipodi:guide
       position="10,10"
       orientation="-0.70710678,0.70710678"
       id="guide4156" />
    <sodipodi:guide
       position="10,10"
       orientation="0.70710678,0.70710678"
       id="guide4158" />
    <sodipodi:guide
       position="4,10"
       orientation="1,0"
       id="guide4160" />
    <sodipodi:guide
       position="16,10"
       orientation="1,0"
       id="guide4162" />
    <sodipodi:guide
       position="10,16"
       orientation="0,1"
       id="guide4164" />
    <sodipodi:guide
       position="10,4"
       orientation="0,1"
       id="guide4166" />
    <sodipodi:guide
       position="10,15"
       orientation="0,1"
       id="guide4168" />
    <sodipodi:guide
       position="10,5"
       orientation="0,1"
       id="guide4170" />
    <sodipodi:guide
       position="5,10"
       orientation="1,0"
       id="guide4172" />
    <sodipodi:guide
       position="15,10"
       orientation="1,0"
       id="guide4174" />
  </sodipodi:namedview>
  <defs
     id="defs4">
    <linearGradient
       inkscape:collect="always"
       id="linearGradient5116">
      <stop
         style="stop-color:#000000;stop-opacity:1;"
         offset="0"
         id="stop5118" />
      <stop
         style="stop-color:#000000;stop-opacity:0;"
         offset="1"
         id="stop5120" />
    </linearGradient>
    <clipPath
       id="clipPath12478"
       clipPathUnits="userSpaceOnUse">
      <circle
         r="10"
         cy="10.000005"
         cx="9.9999781"
         id="circle12480"
         style="opacity:1;fill:#2196f3;fill-opacity:1;stroke:none;stroke-width:0.05069799;stroke-miterlimit:4;stroke-dasharray:none;stroke-opacity:1" />
    </clipPath>
    <clipPath
       clipPathUnits="userSpaceOnUse"
       id="clipPath5790">
      <circle
         r="10"
         cy="10.000005"
         cx="9.9999781"
         id="circle5792"
         style="opacity:1;fill:#2196f3;fill-opacity:1;stroke:none;stroke-width:0.05069799;stroke-miterlimit:4;stroke-dasharray:none;stroke-opacity:1"
         inkscape:export-filename="/home/juergen/path4136.png"
         inkscape:export-xdpi="648"
         inkscape:export-ydpi="648" />
    </clipPath>
    <clipPath
       id="clipPath7690"
       clipPathUnits="userSpaceOnUse">
      <circle
         r="10"
         cy="10.000005"
         cx="9.9999781"
         id="circle7692"
         style="opacity:1;fill:#2196f3;fill-opacity:1;stroke:none;stroke-width:0.05069799;stroke-miterlimit:4;stroke-dasharray:none;stroke-opacity:1"
         inkscape:export-filename="/home/juergen/Schreibtisch/path4136.png"
         inkscape:export-xdpi="648"
         inkscape:export-ydpi="648" />
    </clipPath>
    <clipPath
       clipPathUnits="userSpaceOnUse"
       id="clipPath5119">
      <circle
         r="10"
         cy="10.000005"
         cx="9.9999781"
         id="circle5121"
         style="opacity:1;fill:#ff9800;fill-opacity:1;stroke:none;stroke-width:0.05069799;stroke-miterlimit:4;stroke-dasharray:none;stroke-opacity:1"
         inkscape:export-filename="/home/juergen/Schreibtisch/path4136.png"
         inkscape:export-xdpi="648"
         inkscape:export-ydpi="648" />
    </clipPath>
    <clipPath
       id="clipPath6101"
       clipPathUnits="userSpaceOnUse">
      <circle
         r="10"
         cy="10.000005"
         cx="9.9999781"
         id="circle6103"
         style="opacity:1;fill:#8bc34a;fill-opacity:1;stroke:none;stroke-width:0.05069799;stroke-miterlimit:4;stroke-dasharray:none;stroke-opacity:1"
         inkscape:export-filename="/home/juergen/Schreibtisch/path4136.png"
         inkscape:export-xdpi="648"
         inkscape:export-ydpi="648" />
    </clipPath>
    <linearGradient
       inkscape:collect="always"
       xlink:href="#linearGradient5116"
       id="linearGradient5122"
       x1="10"
       y1="10"
       x2="20"
       y2="20"
       gradientUnits="userSpaceOnUse" />
    <clipPath
       clipPathUnits="userSpaceOnUse"
       id="clipPath5127">
      <circle
         r="10"
         cy="10.000005"
         cx="9.9999781"
         id="circle5129"
         style="opacity:1;fill:#8bc34a;fill-opacity:1;stroke:none;stroke-width:0.05069799;stroke-miterlimit:4;stroke-dasharray:none;stroke-opacity:1"
         inkscape:export-filename="/home/juergen/Schreibtisch/path4136.png"
         inkscape:export-xdpi="648"
         inkscape:export-ydpi="648" />
    </clipPath>
  </defs>
  <metadata
     id="metadata7">
    <rdf:RDF>
      <cc:Work
         rdf:about="">
        <dc:format>image/svg+xml</dc:format>
        <dc:type
           rdf:resource="http://purl.org/dc/dcmitype/StillImage" />
        <dc:title />
      </cc:Work>
    </rdf:RDF>
  </metadata>
  <g
     inkscape:label="Hintergrund"
     inkscape:groupmode="layer"
     id="layer1"
     transform="translate(1058.1428,-861.93365)">
    <circle
       inkscape:export-ydpi="648"
       inkscape:export-xdpi="648"
       inkscape:export-filename="/home/juergen/Schreibtisch/path4136.png"
       style="opacity:1;fill:#8bc34a;fill-opacity:1;stroke:none;stroke-width:0.05069799;stroke-miterlimit:4;stroke-dasharray:none;stroke-opacity:1"
       id="path4136"
       cx="-1048.1428"
       cy="871.93365"
       r="10" />
  </g>
  <g
     style="display:inline"
     inkscape:groupmode="layer"
     id="layer2"
     inkscape:label="Icon">
    <path
       d="M 12.142578 5 L 12.142578 7.8574219 L 10.714844 9.2851562 L 10.714844 9.2871094 L 10.714844 11.667969 L 10.689453 11.667969 L 10.689453 11.642578 L 10.654297 11.642578 L 10.654297 11.605469 L 10.617188 11.605469 L 10.617188 11.570312 L 10.582031 11.570312 L 10.582031 11.535156 L 10.546875 11.535156 L 10.546875 11.5 L 10.513672 11.5 L 10.513672 11.466797 L 10.480469 11.466797 L 10.480469 11.433594 L 10.449219 11.433594 L 10.449219 11.400391 L 10.416016 11.400391 L 10.416016 11.369141 L 10.386719 11.369141 L 10.386719 11.337891 L 10.355469 11.337891 L 10.355469 11.308594 L 10.326172 11.308594 L 10.326172 11.279297 L 10.298828 11.279297 L 10.298828 11.25 L 10.269531 11.25 L 10.269531 11.222656 L 10.242188 11.222656 L 10.242188 11.195312 L 10.216797 11.195312 L 10.216797 11.169922 L 10.191406 11.169922 L 10.191406 11.142578 L 10.166016 11.142578 L 10.166016 11.119141 L 10.142578 11.119141 L 10.142578 11.09375 L 10.119141 11.09375 L 10.119141 11.070312 L 10.095703 11.070312 L 10.095703 11.048828 L 10.074219 11.048828 L 10.074219 11.027344 L 10.052734 11.027344 L 10.052734 11.005859 L 10.033203 11.005859 L 10.033203 10.984375 L 10.013672 10.984375 L 10.013672 10.964844 L 9.9941406 10.964844 L 9.9941406 10.947266 L 9.9765625 10.947266 L 9.9765625 10.927734 L 9.9589844 10.927734 L 9.9589844 10.910156 L 9.9414062 10.910156 L 9.9414062 10.894531 L 9.9257812 10.894531 L 9.9257812 10.878906 L 9.9101562 10.878906 L 9.9101562 10.863281 L 9.8964844 10.863281 L 9.8964844 10.847656 L 9.8828125 10.847656 L 9.8828125 10.833984 L 9.8691406 10.833984 L 9.8691406 10.822266 L 9.8574219 10.822266 L 9.8574219 10.808594 L 9.8457031 10.808594 L 9.8457031 10.796875 L 9.8339844 10.796875 L 9.8339844 10.787109 L 9.8242188 10.787109 L 9.8242188 10.777344 L 9.8144531 10.777344 L 9.8144531 10.767578 L 9.8066406 10.767578 L 9.8066406 10.759766 L 9.7988281 10.759766 L 9.7988281 10.751953 L 9.7910156 10.751953 L 9.7910156 10.744141 L 9.7851562 10.744141 L 9.7851562 10.738281 L 9.7792969 10.738281 L 9.7792969 10.732422 L 9.7753906 10.732422 L 9.7753906 10.728516 L 9.7714844 10.728516 L 9.7714844 10.722656 L 9.7675781 10.722656 L 9.7675781 10.720703 L 9.765625 10.720703 L 9.765625 10.716797 L 9.7636719 10.716797 L 9.7636719 10.714844 L 9.7617188 10.714844 L 8.8105469 10.714844 L 8.8105469 11.667969 L 8.7851562 11.667969 L 8.7851562 11.642578 L 8.7480469 11.642578 L 8.7480469 11.605469 L 8.7128906 11.605469 L 8.7128906 11.570312 L 8.6777344 11.570312 L 8.6777344 11.535156 L 8.6425781 11.535156 L 8.6425781 11.5 L 8.609375 11.5 L 8.609375 11.466797 L 8.5761719 11.466797 L 8.5761719 11.433594 L 8.5429688 11.433594 L 8.5429688 11.400391 L 8.5117188 11.400391 L 8.5117188 11.369141 L 8.4804688 11.369141 L 8.4804688 11.337891 L 8.4511719 11.337891 L 8.4511719 11.308594 L 8.421875 11.308594 L 8.421875 11.279297 L 8.3925781 11.279297 L 8.3925781 11.25 L 8.3652344 11.25 L 8.3652344 11.222656 L 8.3378906 11.222656 L 8.3378906 11.195312 L 8.3125 11.195312 L 8.3125 11.169922 L 8.2871094 11.169922 L 8.2871094 11.142578 L 8.2617188 11.142578 L 8.2617188 11.119141 L 8.2382812 11.119141 L 8.2382812 11.09375 L 8.2148438 11.09375 L 8.2148438 11.070312 L 8.1914062 11.070312 L 8.1914062 11.048828 L 8.1699219 11.048828 L 8.1699219 11.027344 L 8.1484375 11.027344 L 8.1484375 11.005859 L 8.1269531 11.005859 L 8.1269531 10.984375 L 8.1074219 10.984375 L 8.1074219 10.964844 L 8.0898438 10.964844 L 8.0898438 10.947266 L 8.0703125 10.947266 L 8.0703125 10.927734 L 8.0527344 10.927734 L 8.0527344 10.910156 L 8.0371094 10.910156 L 8.0371094 10.894531 L 8.0214844 10.894531 L 8.0214844 10.878906 L 8.0058594 10.878906 L 8.0058594 10.863281 L 7.9902344 10.863281 L 7.9902344 10.847656 L 7.9765625 10.847656 L 7.9765625 10.833984 L 7.9648438 10.833984 L 7.9648438 10.822266 L 7.953125 10.822266 L 7.953125 10.808594 L 7.9414062 10.808594 L 7.9414062 10.796875 L 7.9296875 10.796875 L 7.9296875 10.787109 L 7.9199219 10.787109 L 7.9199219 10.777344 L 7.9101562 10.777344 L 7.9101562 10.767578 L 7.9023438 10.767578 L 7.9023438 10.759766 L 7.8945312 10.759766 L 7.8945312 10.751953 L 7.8867188 10.751953 L 7.8867188 10.744141 L 7.8808594 10.744141 L 7.8808594 10.738281 L 7.875 10.738281 L 7.875 10.732422 L 7.8710938 10.732422 L 7.8710938 10.728516 L 7.8671875 10.728516 L 7.8671875 10.722656 L 7.8632812 10.722656 L 7.8632812 10.720703 L 7.8613281 10.720703 L 7.8613281 10.716797 L 7.859375 10.716797 L 7.859375 10.714844 L 7.8574219 10.714844 L 6.90625 10.714844 L 6.9042969 10.714844 L 6.9042969 11.667969 L 6.8808594 11.667969 L 6.8808594 11.642578 L 6.84375 11.642578 L 6.84375 11.605469 L 6.8085938 11.605469 L 6.8085938 11.570312 L 6.7734375 11.570312 L 6.7734375 11.535156 L 6.7382812 11.535156 L 6.7382812 11.5 L 6.7050781 11.5 L 6.7050781 11.466797 L 6.671875 11.466797 L 6.671875 11.433594 L 6.6386719 11.433594 L 6.6386719 11.400391 L 6.6074219 11.400391 L 6.6074219 11.369141 L 6.5761719 11.369141 L 6.5761719 11.337891 L 6.546875 11.337891 L 6.546875 11.308594 L 6.5175781 11.308594 L 6.5175781 11.279297 L 6.4882812 11.279297 L 6.4882812 11.25 L 6.4609375 11.25 L 6.4609375 11.222656 L 6.4335938 11.222656 L 6.4335938 11.195312 L 6.40625 11.195312 L 6.40625 11.169922 L 6.3808594 11.169922 L 6.3808594 11.142578 L 6.3574219 11.142578 L 6.3574219 11.119141 L 6.3320312 11.119141 L 6.3320312 11.09375 L 6.3085938 11.09375 L 6.3085938 11.070312 L 6.2871094 11.070312 L 6.2871094 11.048828 L 6.2636719 11.048828 L 6.2636719 11.027344 L 6.2441406 11.027344 L 6.2441406 11.005859 L 6.2226562 11.005859 L 6.2226562 10.984375 L 6.203125 10.984375 L 6.203125 10.964844 L 6.1835938 10.964844 L 6.1835938 10.947266 L 6.1660156 10.947266 L 6.1660156 10.927734 L 6.1484375 10.927734 L 6.1484375 10.910156 L 6.1328125 10.910156 L 6.1328125 10.894531 L 6.1152344 10.894531 L 6.1152344 10.878906 L 6.1015625 10.878906 L 6.1015625 10.863281 L 6.0859375 10.863281 L 6.0859375 10.847656 L 6.0722656 10.847656 L 6.0722656 10.833984 L 6.0605469 10.833984 L 6.0605469 10.822266 L 6.046875 10.822266 L 6.046875 10.808594 L 6.0351562 10.808594 L 6.0351562 10.796875 L 6.0253906 10.796875 L 6.0253906 10.787109 L 6.015625 10.787109 L 6.015625 10.777344 L 6.0058594 10.777344 L 6.0058594 10.767578 L 5.9980469 10.767578 L 5.9980469 10.759766 L 5.9902344 10.759766 L 5.9902344 10.751953 L 5.9824219 10.751953 L 5.9824219 10.744141 L 5.9765625 10.744141 L 5.9765625 10.738281 L 5.9707031 10.738281 L 5.9707031 10.732422 L 5.9648438 10.732422 L 5.9648438 10.728516 L 5.9609375 10.728516 L 5.9609375 10.722656 L 5.9589844 10.722656 L 5.9589844 10.720703 L 5.9550781 10.720703 L 5.9550781 10.716797 L 5.953125 10.716797 L 5.953125 10.714844 L 5.0019531 10.714844 L 5 10.714844 L 5 15 L 5.0019531 15 L 5.0019531 15.001953 L 5.0039062 15.001953 L 5.0039062 15.003906 L 5.0058594 15.003906 L 5.0058594 15.005859 L 5.0097656 15.005859 L 5.0097656 15.009766 L 5.0136719 15.009766 L 5.0136719 15.013672 L 5.0175781 15.013672 L 5.0175781 15.017578 L 5.0234375 15.017578 L 5.0234375 15.023438 L 5.0292969 15.023438 L 5.0292969 15.029297 L 5.0371094 15.029297 L 5.0371094 15.037109 L 5.0449219 15.037109 L 5.0449219 15.044922 L 5.0527344 15.044922 L 5.0527344 15.052734 L 5.0625 15.052734 L 5.0625 15.0625 L 5.0722656 15.0625 L 5.0722656 15.072266 L 5.0839844 15.072266 L 5.0839844 15.083984 L 5.0957031 15.083984 L 5.0957031 15.095703 L 5.1074219 15.095703 L 5.1074219 15.107422 L 5.1210938 15.107422 L 5.1210938 15.121094 L 5.1347656 15.121094 L 5.1347656 15.134766 L 5.1484375 15.134766 L 5.1484375 15.148438 L 5.1640625 15.148438 L 5.1640625 15.164062 L 5.1796875 15.164062 L 5.1796875 15.179688 L 5.1972656 15.179688 L 5.1972656 15.197266 L 5.2128906 15.197266 L 5.2128906 15.212891 L 5.2324219 15.212891 L 5.2324219 15.232422 L 5.25 15.232422 L 5.25 15.251953 L 5.2714844 15.251953 L 5.2714844 15.271484 L 5.2910156 15.271484 L 5.2910156 15.291016 L 5.3125 15.291016 L 5.3125 15.3125 L 5.3339844 15.3125 L 5.3339844 15.333984 L 5.3574219 15.333984 L 5.3574219 15.357422 L 5.3808594 15.357422 L 5.3808594 15.380859 L 5.4042969 15.380859 L 5.4042969 15.404297 L 5.4296875 15.404297 L 5.4296875 15.429688 L 5.4550781 15.429688 L 5.4550781 15.455078 L 5.4804688 15.455078 L 5.4804688 15.480469 L 5.5078125 15.480469 L 5.5078125 15.507812 L 5.5351562 15.507812 L 5.5351562 15.535156 L 5.5644531 15.535156 L 5.5644531 15.564453 L 5.59375 15.564453 L 5.59375 15.59375 L 5.625 15.59375 L 5.625 15.625 L 5.6542969 15.625 L 5.6542969 15.654297 L 5.6855469 15.654297 L 5.6855469 15.685547 L 5.71875 15.685547 L 5.71875 15.71875 L 5.7519531 15.71875 L 5.7519531 15.751953 L 5.7851562 15.751953 L 5.7851562 15.785156 L 5.8203125 15.785156 L 5.8203125 15.820312 L 5.8554688 15.820312 L 5.8554688 15.855469 L 5.890625 15.855469 L 5.890625 15.890625 L 5.9277344 15.890625 L 5.9277344 15.927734 L 5.9648438 15.927734 L 5.9648438 15.964844 L 6.0039062 15.964844 L 6.0039062 16.003906 L 6.0429688 16.003906 L 6.0429688 16.042969 L 6.0820312 16.042969 L 6.0820312 16.082031 L 6.1230469 16.082031 L 6.1230469 16.123047 L 6.1640625 16.123047 L 6.1640625 16.164062 L 6.2070312 16.164062 L 6.2070312 16.207031 L 6.2480469 16.207031 L 6.2480469 16.248047 L 6.2929688 16.248047 L 6.2929688 16.292969 L 6.3359375 16.292969 L 6.3359375 16.335938 L 6.3808594 16.335938 L 6.3808594 16.380859 L 6.4277344 16.380859 L 6.4277344 16.427734 L 6.4726562 16.427734 L 6.4726562 16.472656 L 6.5214844 16.472656 L 6.5214844 16.521484 L 6.5683594 16.521484 L 6.5683594 16.568359 L 6.6171875 16.568359 L 6.6171875 16.617188 L 6.6660156 16.617188 L 6.6660156 16.666016 L 6.7167969 16.666016 L 6.7167969 16.716797 L 6.7675781 16.716797 L 6.7675781 16.767578 L 6.8183594 16.767578 L 6.8183594 16.818359 L 6.8710938 16.818359 L 6.8710938 16.871094 L 6.9238281 16.871094 L 6.9238281 16.923828 L 6.9785156 16.923828 L 6.9785156 16.978516 L 7.0332031 16.978516 L 7.0332031 17.033203 L 7.0878906 17.033203 L 7.0878906 17.087891 L 7.1445312 17.087891 L 7.1445312 17.144531 L 7.2011719 17.144531 L 7.2011719 17.201172 L 7.2597656 17.201172 L 7.2597656 17.259766 L 7.3164062 17.259766 L 7.3164062 17.316406 L 7.3769531 17.316406 L 7.3769531 17.376953 L 7.4355469 17.376953 L 7.4355469 17.435547 L 7.4960938 17.435547 L 7.4960938 17.496094 L 7.5585938 17.496094 L 7.5585938 17.558594 L 7.6191406 17.558594 L 7.6191406 17.619141 L 7.6816406 17.619141 L 7.6816406 17.681641 L 7.7460938 17.681641 L 7.7460938 17.746094 L 7.8105469 17.746094 L 7.8105469 17.810547 L 7.875 17.810547 L 7.875 17.875 L 7.9414062 17.875 L 7.9414062 17.941406 L 8.0078125 17.941406 L 8.0078125 18.007812 L 8.0742188 18.007812 L 8.0742188 18.074219 L 8.1425781 18.074219 L 8.1425781 18.142578 L 8.2109375 18.142578 L 8.2109375 18.210938 L 8.28125 18.210938 L 8.28125 18.28125 L 8.3515625 18.28125 L 8.3515625 18.351562 L 8.421875 18.351562 L 8.421875 18.421875 L 8.4941406 18.421875 L 8.4941406 18.494141 L 8.5664062 18.494141 L 8.5664062 18.566406 L 8.6386719 18.566406 L 8.6386719 18.638672 L 8.7128906 18.638672 L 8.7128906 18.712891 L 8.7871094 18.712891 L 8.7871094 18.787109 L 8.8632812 18.787109 L 8.8632812 18.863281 L 8.9394531 18.863281 L 8.9394531 18.939453 L 9.015625 18.939453 L 9.015625 19.015625 L 9.09375 19.015625 L 9.09375 19.09375 L 9.171875 19.09375 L 9.171875 19.171875 L 9.25 19.171875 L 9.25 19.25 L 9.3300781 19.25 L 9.3300781 19.330078 L 9.4101562 19.330078 L 9.4101562 19.412109 L 9.4921875 19.412109 L 9.4921875 19.492188 L 9.5742188 19.492188 L 9.5742188 19.574219 L 9.6582031 19.574219 L 9.6582031 19.658203 L 9.7402344 19.658203 L 9.7402344 19.740234 L 9.8242188 19.740234 L 9.8242188 19.824219 L 9.9101562 19.824219 L 9.9101562 19.910156 L 9.9960938 19.910156 L 9.9960938 19.996094 L 10.082031 19.996094 L 10.082031 20.082031 L 10.169922 20.082031 L 10.169922 20.169922 L 10.257812 20.169922 L 10.257812 20.257812 L 10.345703 20.257812 L 10.345703 20.345703 L 10.435547 20.345703 L 10.435547 20.435547 L 10.525391 20.435547 L 10.525391 20.525391 L 10.617188 20.525391 L 10.617188 20.617188 L 10.708984 20.617188 L 10.708984 20.708984 L 10.800781 20.708984 L 10.800781 20.800781 L 10.894531 20.800781 L 10.894531 20.894531 L 10.988281 20.894531 L 10.988281 20.988281 L 11.082031 20.988281 L 11.082031 21.083984 L 11.177734 21.083984 L 11.177734 21.177734 L 11.275391 21.177734 L 11.275391 21.275391 L 11.371094 21.275391 L 11.371094 21.371094 L 11.46875 21.371094 L 11.46875 21.46875 L 11.568359 21.46875 L 11.568359 21.568359 L 11.666016 21.568359 L 11.666016 21.666016 L 11.765625 21.666016 L 11.765625 21.765625 L 11.867188 21.765625 L 11.867188 21.867188 L 11.96875 21.867188 L 11.96875 21.96875 L 12.070312 21.96875 L 12.070312 22.070312 L 12.173828 22.070312 L 12.173828 22.173828 L 12.277344 22.173828 L 12.277344 22.277344 L 12.380859 22.277344 L 12.380859 22.380859 L 12.486328 22.380859 L 12.486328 22.486328 L 12.591797 22.486328 L 12.591797 22.591797 L 12.699219 22.591797 L 12.699219 22.699219 L 12.806641 22.699219 L 12.806641 22.806641 L 12.914062 22.806641 L 12.914062 22.914062 L 13.023438 22.914062 L 13.023438 23.023438 L 13.132812 23.023438 L 13.132812 23.132812 L 13.242188 23.132812 L 13.242188 23.242188 L 13.353516 23.242188 L 13.353516 23.353516 L 13.464844 23.353516 L 13.464844 23.464844 L 13.578125 23.464844 L 13.578125 23.578125 L 13.691406 23.578125 L 13.691406 23.691406 L 13.804688 23.691406 L 13.804688 23.804688 L 13.919922 23.804688 L 13.919922 23.919922 L 14.035156 23.919922 L 14.035156 24.035156 L 14.152344 24.035156 L 14.152344 24.152344 L 14.269531 24.152344 L 14.269531 24.269531 L 14.386719 24.269531 L 14.386719 24.386719 L 14.503906 24.386719 L 14.503906 24.503906 L 14.623047 24.503906 L 14.623047 24.623047 L 14.744141 24.623047 L 14.744141 24.744141 L 14.865234 24.744141 L 14.865234 24.865234 L 14.986328 24.865234 L 14.986328 24.986328 L 15.107422 24.986328 L 15.107422 25.107422 L 15.230469 25.107422 L 15.230469 25.230469 L 15.355469 25.230469 L 15.355469 25.355469 L 15.478516 25.355469 L 15.478516 25.478516 L 15.603516 25.478516 L 15.603516 25.603516 L 15.730469 25.603516 L 15.730469 25.730469 L 15.857422 25.730469 L 15.857422 25.857422 L 15.984375 25.857422 L 15.984375 25.984375 L 16.111328 25.984375 L 16.111328 26.111328 L 16.240234 26.111328 L 16.240234 26.240234 L 16.371094 26.240234 L 16.371094 26.371094 L 16.5 26.371094 L 16.5 26.5 L 16.630859 26.5 L 16.630859 26.630859 L 16.763672 26.630859 L 16.763672 26.763672 L 16.896484 26.763672 L 16.896484 26.896484 L 17.029297 26.896484 L 17.029297 27.029297 L 17.164062 27.029297 L 17.164062 27.164062 L 17.298828 27.164062 L 17.298828 27.298828 L 17.433594 27.298828 L 17.433594 27.433594 L 17.570312 27.433594 L 17.570312 27.570312 L 17.707031 27.570312 L 17.707031 27.707031 L 17.84375 27.707031 L 17.84375 27.845703 L 17.982422 27.845703 L 17.982422 27.982422 L 18.123047 27.982422 L 18.123047 28.123047 L 18.261719 28.123047 L 18.261719 28.261719 L 18.402344 28.261719 L 18.402344 28.402344 L 18.544922 28.402344 L 18.544922 28.544922 L 18.6875 28.544922 L 18.6875 28.6875 L 18.830078 28.6875 L 18.830078 28.830078 L 18.972656 28.830078 L 18.972656 28.972656 L 19.117188 28.972656 L 19.117188 29.117188 L 19.263672 29.117188 L 19.263672 29.263672 L 19.408203 29.263672 L 19.408203 29.408203 L 19.554688 29.408203 L 19.554688 29.554688 L 19.703125 29.554688 L 19.703125 29.703125 L 19.851562 29.703125 L 19.851562 29.851562 L 22.232422 29.851562 L 22.232422 28.421875 C 22.232422 28.264468 22.282877 28.118896 22.355469 27.982422 L 22.408203 27.982422 L 22.408203 28.123047 L 22.548828 28.123047 L 22.548828 28.261719 L 22.689453 28.261719 L 22.689453 28.402344 L 22.830078 28.402344 L 22.830078 28.544922 L 22.972656 28.544922 L 22.972656 28.6875 L 23.115234 28.6875 L 23.115234 28.830078 L 23.259766 28.830078 L 23.259766 28.972656 L 23.404297 28.972656 L 23.404297 29.117188 L 23.548828 29.117188 L 23.548828 29.263672 L 23.695312 29.263672 L 23.695312 29.408203 L 23.841797 29.408203 L 23.841797 29.554688 L 23.988281 29.554688 L 23.988281 29.703125 L 24.136719 29.703125 L 24.136719 29.851562 L 29.375 29.851562 L 29.375 24.136719 L 29.226562 23.988281 L 29.080078 23.841797 L 28.933594 23.695312 L 28.787109 23.548828 L 28.642578 23.404297 L 28.498047 23.259766 L 28.353516 23.115234 L 28.210938 22.972656 L 28.068359 22.830078 L 27.947266 22.708984 L 27.947266 21.755859 L 29.851562 20.802734 L 29.630859 20.693359 L 29.703125 20.65625 L 29.480469 20.544922 L 29.554688 20.507812 L 29.335938 20.398438 L 29.408203 20.361328 L 29.189453 20.251953 L 29.263672 20.214844 L 29.044922 20.105469 L 29.117188 20.070312 L 28.900391 19.960938 L 28.972656 19.925781 L 28.757812 19.818359 L 28.830078 19.78125 L 28.615234 19.673828 L 28.6875 19.638672 L 28.472656 19.53125 L 28.544922 19.496094 L 28.332031 19.390625 L 28.402344 19.355469 L 28.191406 19.25 L 28.261719 19.214844 L 28.052734 19.109375 L 28.123047 19.074219 L 27.914062 18.970703 L 27.982422 18.935547 L 27.775391 18.832031 L 27.84375 18.796875 L 27.638672 18.695312 L 27.707031 18.660156 L 27.5 18.556641 L 27.570312 18.521484 L 27.367188 18.419922 L 27.433594 18.386719 L 27.230469 18.285156 L 27.298828 18.25 L 27.095703 18.148438 L 27.164062 18.115234 L 26.962891 18.015625 L 27.029297 17.982422 L 26.828125 17.880859 L 26.896484 17.847656 L 26.699219 17.75 L 26.763672 17.716797 L 26.564453 17.617188 L 26.630859 17.583984 L 26.435547 17.486328 L 26.5 17.453125 L 26.304688 17.355469 L 26.371094 17.322266 L 26.175781 17.224609 L 26.240234 17.193359 L 26.046875 17.095703 L 26.111328 17.064453 L 25.919922 16.96875 L 25.984375 16.935547 L 25.792969 16.839844 L 25.857422 16.808594 L 25.666016 16.712891 L 25.730469 16.681641 L 25.541016 16.587891 L 25.603516 16.556641 L 25.416016 16.462891 L 25.478516 16.431641 L 25.292969 16.337891 L 25.355469 16.306641 L 25.169922 16.214844 L 25.230469 16.183594 L 25.046875 16.091797 L 25.107422 16.060547 L 24.923828 15.96875 L 24.986328 15.9375 L 24.804688 15.847656 L 24.865234 15.816406 L 24.683594 15.726562 L 24.744141 15.695312 L 24.564453 15.605469 L 24.623047 15.576172 L 24.445312 15.486328 L 24.503906 15.457031 L 24.326172 15.367188 L 24.386719 15.337891 L 24.210938 15.25 L 24.269531 15.220703 L 24.09375 15.132812 L 24.152344 15.103516 L 23.978516 15.017578 L 24.035156 14.988281 L 23.863281 14.902344 L 23.919922 14.873047 L 23.748047 14.787109 L 23.804688 14.757812 L 23.634766 14.671875 L 23.691406 14.644531 L 23.521484 14.558594 L 23.578125 14.53125 L 23.408203 14.445312 L 23.464844 14.417969 L 23.298828 14.333984 L 23.353516 14.306641 L 23.1875 14.222656 L 23.242188 14.195312 L 23.076172 14.111328 L 23.132812 14.083984 L 22.96875 14.001953 L 23.023438 13.974609 L 22.861328 13.894531 L 22.914062 13.867188 L 22.751953 13.785156 L 22.806641 13.757812 L 22.644531 13.677734 L 22.699219 13.650391 L 22.539062 13.570312 L 22.591797 13.544922 L 22.433594 13.464844 L 22.486328 13.439453 L 22.328125 13.359375 L 22.380859 13.333984 L 22.224609 13.255859 L 22.277344 13.228516 L 22.121094 13.150391 L 22.173828 13.125 L 22.019531 13.048828 L 22.070312 13.023438 L 21.917969 12.947266 L 21.96875 12.921875 L 21.816406 12.845703 L 21.867188 12.820312 L 21.714844 12.744141 L 21.765625 12.71875 L 21.617188 12.644531 L 21.666016 12.619141 L 21.517578 12.544922 L 21.568359 12.519531 L 21.419922 12.445312 L 21.46875 12.421875 L 21.322266 12.347656 L 21.371094 12.324219 L 21.226562 12.251953 L 21.275391 12.226562 L 21.130859 12.154297 L 21.177734 12.130859 L 21.035156 12.058594 L 21.082031 12.035156 L 20.941406 11.964844 L 20.988281 11.941406 L 20.847656 11.871094 L 20.894531 11.847656 L 20.753906 11.777344 L 20.800781 11.753906 L 20.664062 11.685547 L 20.708984 11.662109 L 20.572266 11.59375 L 20.617188 11.570312 L 20.480469 11.501953 L 20.525391 11.478516 L 20.390625 11.410156 L 20.435547 11.388672 L 20.300781 11.320312 L 20.345703 11.298828 L 20.214844 11.232422 L 20.257812 11.210938 L 20.125 11.144531 L 20.169922 11.121094 L 20.039062 11.056641 L 20.082031 11.035156 L 19.953125 10.970703 L 19.996094 10.949219 L 19.867188 10.884766 L 19.910156 10.863281 L 19.78125 10.798828 L 19.824219 10.777344 L 19.699219 10.714844 L 19.740234 10.693359 L 19.615234 10.630859 L 19.658203 10.609375 L 19.533203 10.546875 L 19.574219 10.527344 L 19.451172 10.464844 L 19.492188 10.445312 L 19.369141 10.382812 L 19.410156 10.363281 L 19.289062 10.302734 L 19.330078 10.283203 L 19.210938 10.222656 L 19.25 10.203125 L 19.132812 10.144531 L 19.171875 10.125 L 19.052734 10.064453 L 19.09375 10.044922 L 18.978516 9.9882812 L 19.015625 9.96875 L 18.900391 9.9101562 L 18.939453 9.890625 L 18.824219 9.8339844 L 18.863281 9.8144531 L 18.75 9.7578125 L 18.787109 9.7402344 L 18.675781 9.6835938 L 18.712891 9.6660156 L 18.601562 9.609375 L 18.638672 9.5917969 L 18.529297 9.5371094 L 18.566406 9.5175781 L 18.457031 9.4628906 L 18.494141 9.4453125 L 18.386719 9.3925781 L 18.421875 9.375 L 18.314453 9.3203125 L 18.351562 9.3027344 L 18.246094 9.25 L 18.28125 9.2324219 L 18.177734 9.1816406 L 18.210938 9.1640625 L 18.109375 9.1132812 L 18.142578 9.0957031 L 18.041016 9.0449219 L 18.074219 9.0273438 L 17.972656 8.9765625 L 18.007812 8.9589844 L 17.908203 8.9101562 L 17.941406 8.8925781 L 17.84375 8.84375 L 17.875 8.828125 L 17.777344 8.7792969 L 17.810547 8.7617188 L 17.714844 8.7148438 L 17.746094 8.6992188 L 17.650391 8.6503906 L 17.681641 8.6347656 L 17.587891 8.5878906 L 17.619141 8.5722656 L 17.527344 8.5253906 L 17.558594 8.5097656 L 17.466797 8.4648438 L 17.496094 8.4492188 L 17.40625 8.4042969 L 17.435547 8.3886719 L 17.345703 8.34375 L 17.376953 8.328125 L 17.287109 8.2832031 L 17.316406 8.2695312 L 17.230469 8.2265625 L 17.259766 8.2109375 L 17.173828 8.1679688 L 17.201172 8.1542969 L 17.117188 8.1113281 L 17.144531 8.0976562 L 17.060547 8.0546875 L 17.087891 8.0410156 L 17.005859 8 L 17.033203 7.9863281 L 16.951172 7.9453125 L 16.978516 7.9316406 L 16.896484 7.890625 L 16.923828 7.8769531 L 16.845703 7.8378906 L 16.871094 7.8242188 L 16.792969 7.7851562 L 16.818359 7.7714844 L 16.742188 7.7324219 L 16.767578 7.7207031 L 16.691406 7.6816406 L 16.716797 7.6699219 L 16.640625 7.6308594 L 16.666016 7.6191406 L 16.59375 7.5820312 L 16.617188 7.5703125 L 16.544922 7.5332031 L 16.568359 7.5214844 L 16.496094 7.484375 L 16.521484 7.4726562 L 16.449219 7.4375 L 16.472656 7.4257812 L 16.404297 7.390625 L 16.427734 7.3789062 L 16.359375 7.3457031 L 16.380859 7.3339844 L 16.314453 7.3007812 L 16.335938 7.2890625 L 16.269531 7.2558594 L 16.292969 7.2441406 L 16.226562 7.2109375 L 16.248047 7.2011719 L 16.185547 7.1699219 L 16.207031 7.1582031 L 16.144531 7.1269531 L 16.164062 7.1171875 L 16.103516 7.0859375 L 16.123047 7.0761719 L 16.0625 7.0449219 L 16.082031 7.0351562 L 16.023438 7.0058594 L 16.042969 6.9960938 L 15.984375 6.9667969 L 16.003906 6.9570312 L 15.945312 6.9277344 L 15.964844 6.9179688 L 15.910156 6.890625 L 15.927734 6.8808594 L 15.873047 6.8535156 L 15.890625 6.84375 L 15.837891 6.8164062 L 15.855469 6.8085938 L 15.802734 6.78125 L 15.820312 6.7734375 L 15.767578 6.7460938 L 15.785156 6.7382812 L 15.736328 6.7128906 L 15.751953 6.7050781 L 15.703125 6.6796875 L 15.71875 6.671875 L 15.669922 6.6464844 L 15.685547 6.6386719 L 15.638672 6.6152344 L 15.654297 6.6074219 L 15.609375 6.5839844 L 15.625 6.5761719 L 15.580078 6.5546875 L 15.59375 6.546875 L 15.550781 6.5253906 L 15.564453 6.5175781 L 15.521484 6.4960938 L 15.535156 6.4882812 L 15.494141 6.4667969 L 15.507812 6.4609375 L 15.466797 6.4394531 L 15.480469 6.4335938 L 15.441406 6.4140625 L 15.455078 6.40625 L 15.416016 6.3867188 L 15.429688 6.3808594 L 15.392578 6.3632812 L 15.404297 6.3574219 L 15.367188 6.3378906 L 15.380859 6.3320312 L 15.345703 6.3144531 L 15.357422 6.3085938 L 15.324219 6.2929688 L 15.333984 6.2871094 L 15.300781 6.2695312 L 15.3125 6.2636719 L 15.28125 6.2480469 L 15.291016 6.2441406 L 15.259766 6.2285156 L 15.271484 6.2226562 L 15.240234 6.2070312 L 15.25 6.203125 L 15.220703 6.1894531 L 15.232422 6.1835938 L 15.205078 6.1699219 L 15.212891 6.1660156 L 15.1875 6.1523438 L 15.197266 6.1484375 L 15.171875 6.1367188 L 15.179688 6.1328125 L 15.154297 6.1191406 L 15.164062 6.1152344 L 15.142578 6.1054688 L 15.148438 6.1015625 L 15.126953 6.0898438 L 15.134766 6.0859375 L 15.113281 6.0761719 L 15.121094 6.0722656 L 15.101562 6.0625 L 15.107422 6.0605469 L 15.087891 6.0507812 L 15.095703 6.046875 L 15.078125 6.0390625 L 15.083984 6.0351562 L 15.068359 6.0273438 L 15.072266 6.0253906 L 15.058594 6.0175781 L 15.0625 6.015625 L 15.048828 6.0078125 L 15.052734 6.0058594 L 15.041016 6 L 15.044922 5.9980469 L 15.033203 5.9921875 L 15.037109 5.9902344 L 15.025391 5.984375 L 15.029297 5.9824219 L 15.021484 5.9785156 L 15.023438 5.9765625 L 15.015625 5.9726562 L 15.017578 5.9707031 L 15.009766 5.9667969 L 15.013672 5.9648438 L 15.007812 5.9628906 L 15.009766 5.9609375 L 15.005859 5.9589844 L 15.001953 5.9570312 L 15.003906 5.9550781 L 15.001953 5.953125 L 15 5.953125 L 13.097656 5.0019531 L 13.095703 5 L 12.142578 5 z "
       id="path4276"
       style="fill-opacity:1;fill:url(#linearGradient5122);opacity:0.2"
       clip-path="url(#clipPath5127)" />
    <path
       d="m 3.9999777,4.0333382 12.0000003,0 0,11.9333328 -12.0000003,0 z"
       id="path4"
       inkscape:connector-curvature="0"
       style="fill:none" />
    <path
       style="fill:none"
       inkscape:connector-curvature="0"
       id="path9754"
       d="m 18.999978,19.033339 12,0 0,11.933333 -12,0 z" />
    <path
       inkscape:connector-curvature="0"
       d="m 4.9999779,10.714291 0.9523809,0 0,0.952381 0.952381,0 0,-0.952381 0.9523809,0 0,0.952381 0.9523809,0 0,-0.952381 0.9523809,0 0,0.952381 0.9523815,0 0,-2.3809532 1.428571,-1.4285712 0,-2.8571428 0.952381,0 1.904762,0.9523809 -1.904762,0.952381 0,0.9523809 1.428571,1.4285712 0,5.7142862 -5.2380949,0 0,-1.428571 a 0.95238093,0.95238093 0 0 0 -0.9523809,-0.952381 0.95238093,0.95238093 0 0 0 -0.952381,0.952381 l 0,1.428571 -2.3809523,0 0,-4.285714 M 12.619025,9.2857188 c -0.261904,0 -0.47619,0.257143 -0.47619,0.571429 l 0,0.8571432 0.952381,0 0,-0.8571432 c 0,-0.314286 -0.214286,-0.571429 -0.476191,-0.571429 z"
       id="path4223"
       style="fill:#ffeb3b" />
  </g>
</svg>
