<?xml version="1.0" encoding="UTF-8" standalone="no"?>
<!-- Created with Inkscape (http://www.inkscape.org/) -->

<svg
   xmlns:dc="http://purl.org/dc/elements/1.1/"
   xmlns:cc="http://creativecommons.org/ns#"
   xmlns:rdf="http://www.w3.org/1999/02/22-rdf-syntax-ns#"
   xmlns:svg="http://www.w3.org/2000/svg"
   xmlns="http://www.w3.org/2000/svg"
   xmlns:xlink="http://www.w3.org/1999/xlink"
   xmlns:sodipodi="http://sodipodi.sourceforge.net/DTD/sodipodi-0.dtd"
   xmlns:inkscape="http://www.inkscape.org/namespaces/inkscape"
   sodipodi:docname="Barcode.svg"
   inkscape:version="0.91 r13725"
   version="1.1"
   id="svg2"
   viewBox="0 0 20 20"
   height="5.6444445mm"
   width="5.6444445mm">
  <sodipodi:namedview
     inkscape:snap-to-guides="true"
     inkscape:snap-grids="true"
     inkscape:window-maximized="1"
     inkscape:window-y="0"
     inkscape:window-x="0"
     inkscape:window-height="726"
     inkscape:window-width="1366"
     inkscape:guide-bbox="true"
     showguides="true"
     fit-margin-bottom="0"
     fit-margin-right="0"
     fit-margin-left="0"
     fit-margin-top="0"
     showgrid="true"
     inkscape:current-layer="layer2"
     inkscape:document-units="px"
     inkscape:cy="3.9634248"
     inkscape:cx="9.5448121"
     inkscape:zoom="15.839192"
     inkscape:pageshadow="2"
     inkscape:pageopacity="0.0"
     borderopacity="1.0"
     bordercolor="#666666"
     pagecolor="#ffffff"
     id="base">
    <inkscape:grid
       id="grid4138"
       type="xygrid" />
    <sodipodi:guide
       id="guide4140"
       orientation="0,1"
       position="10,18" />
    <sodipodi:guide
       id="guide4142"
       orientation="0,1"
       position="10,2" />
    <sodipodi:guide
       id="guide4144"
       orientation="1,0"
       position="2,10" />
    <sodipodi:guide
       id="guide4146"
       orientation="0,20"
       position="0,0" />
    <sodipodi:guide
       id="guide4148"
       orientation="-20,0"
       position="20,0" />
    <sodipodi:guide
       id="guide4150"
       orientation="0,-20"
       position="20,20" />
    <sodipodi:guide
       id="guide4152"
       orientation="20,0"
       position="0,20" />
    <sodipodi:guide
       id="guide4154"
       orientation="1,0"
       position="18,10" />
    <sodipodi:guide
       id="guide4156"
       orientation="-0.70710678,0.70710678"
       position="10,10" />
    <sodipodi:guide
       id="guide4158"
       orientation="0.70710678,0.70710678"
       position="10,10" />
    <sodipodi:guide
       id="guide4160"
       orientation="1,0"
       position="4,10" />
    <sodipodi:guide
       id="guide4162"
       orientation="1,0"
       position="16,10" />
    <sodipodi:guide
       id="guide4164"
       orientation="0,1"
       position="10,16" />
    <sodipodi:guide
       id="guide4166"
       orientation="0,1"
       position="10,4" />
    <sodipodi:guide
       id="guide4168"
       orientation="0,1"
       position="10,15" />
    <sodipodi:guide
       id="guide4170"
       orientation="0,1"
       position="10,5" />
    <sodipodi:guide
       id="guide4172"
       orientation="1,0"
       position="5,10" />
    <sodipodi:guide
       id="guide4174"
       orientation="1,0"
       position="15,10" />
  </sodipodi:namedview>
  <defs
     id="defs4">
    <linearGradient
       inkscape:collect="always"
       id="linearGradient5114">
      <stop
         style="stop-color:#000000;stop-opacity:1;"
         offset="0"
         id="stop5116" />
      <stop
         style="stop-color:#000000;stop-opacity:0;"
         offset="1"
         id="stop5118" />
    </linearGradient>
    <clipPath
       clipPathUnits="userSpaceOnUse"
       id="clipPath12478">
      <circle
         style="opacity:1;fill:#2196f3;fill-opacity:1;stroke:none;stroke-width:0.05069799;stroke-miterlimit:4;stroke-dasharray:none;stroke-opacity:1"
         id="circle12480"
         cx="9.9999781"
         cy="10.000005"
         r="10" />
    </clipPath>
    <clipPath
       id="clipPath5790"
       clipPathUnits="userSpaceOnUse">
      <circle
         inkscape:export-ydpi="648"
         inkscape:export-xdpi="648"
         inkscape:export-filename="/home/juergen/path4136.png"
         style="opacity:1;fill:#2196f3;fill-opacity:1;stroke:none;stroke-width:0.05069799;stroke-miterlimit:4;stroke-dasharray:none;stroke-opacity:1"
         id="circle5792"
         cx="9.9999781"
         cy="10.000005"
         r="10" />
    </clipPath>
    <clipPath
       clipPathUnits="userSpaceOnUse"
       id="clipPath7690">
      <circle
         inkscape:export-ydpi="648"
         inkscape:export-xdpi="648"
         inkscape:export-filename="/home/juergen/Schreibtisch/path4136.png"
         style="opacity:1;fill:#2196f3;fill-opacity:1;stroke:none;stroke-width:0.05069799;stroke-miterlimit:4;stroke-dasharray:none;stroke-opacity:1"
         id="circle7692"
         cx="9.9999781"
         cy="10.000005"
         r="10" />
    </clipPath>
    <clipPath
       id="clipPath5119"
       clipPathUnits="userSpaceOnUse">
      <circle
         inkscape:export-ydpi="648"
         inkscape:export-xdpi="648"
         inkscape:export-filename="/home/juergen/Schreibtisch/path4136.png"
         style="opacity:1;fill:#ff9800;fill-opacity:1;stroke:none;stroke-width:0.05069799;stroke-miterlimit:4;stroke-dasharray:none;stroke-opacity:1"
         id="circle5121"
         cx="9.9999781"
         cy="10.000005"
         r="10" />
    </clipPath>
    <linearGradient
       inkscape:collect="always"
       xlink:href="#linearGradient5114"
       id="linearGradient5120"
       x1="10"
       y1="10"
       x2="20"
       y2="20"
       gradientUnits="userSpaceOnUse" />
    <clipPath
       clipPathUnits="userSpaceOnUse"
       id="clipPath5125">
      <circle
         inkscape:export-ydpi="648"
         inkscape:export-xdpi="648"
         inkscape:export-filename="/home/juergen/Schreibtisch/path4136.png"
         style="opacity:1;fill:#e91e63;fill-opacity:1;stroke:none;stroke-width:0.05069799;stroke-miterlimit:4;stroke-dasharray:none;stroke-opacity:1"
         id="circle5127"
         cx="9.9999781"
         cy="10.000005"
         r="10" />
    </clipPath>
  </defs>
  <metadata
     id="metadata7">
    <rdf:RDF>
      <cc:Work
         rdf:about="">
        <dc:format>image/svg+xml</dc:format>
        <dc:type
           rdf:resource="http://purl.org/dc/dcmitype/StillImage" />
        <dc:title></dc:title>
      </cc:Work>
    </rdf:RDF>
  </metadata>
  <g
     transform="translate(1058.1428,-861.93365)"
     id="layer1"
     inkscape:groupmode="layer"
     inkscape:label="Hintergrund">
    <circle
       r="10"
       cy="871.93365"
       cx="-1048.1428"
       id="path4136"
       style="opacity:1;fill:#e91e63;fill-opacity:1;stroke:none;stroke-width:0.05069799;stroke-miterlimit:4;stroke-dasharray:none;stroke-opacity:1"
       inkscape:export-filename="/home/juergen/Schreibtisch/path4136.png"
       inkscape:export-xdpi="648"
       inkscape:export-ydpi="648" />
  </g>
  <g
     inkscape:label="Icon"
     id="layer2"
     inkscape:groupmode="layer"
     style="display:inline">
    <path
       style="fill:none"
       inkscape:connector-curvature="0"
       id="path4"
       d="m 3.9999777,4.0333382 12.0000003,0 0,11.9333328 -12.0000003,0 z" />
    <path
       d="m 18.999978,19.033339 12,0 0,11.933333 -12,0 z"
       id="path9754"
       inkscape:connector-curvature="0"
       style="fill:none" />
    <path
       inkscape:connector-curvature="0"
       d="m 4.9999777,7.0000048 1,0 0,6.0000002 -1,0 0,-6.0000002 m 1.5,0 0.5,0 0,6.0000002 -0.5,0 0,-6.0000002 m 1,0 1.5,0 0,6.0000002 -1.5,0 0,-6.0000002 m 2,0 0.5,0 0,6.0000002 -0.5,0 0,-6.0000002 m 1.5000003,0 1,0 0,6.0000002 -1,0 0,-6.0000002 m 1.5,0 1.5,0 0,6.0000002 -1.5,0 0,-6.0000002 m 2,0 0.5,0 0,6.0000002 -0.5,0 0,-6.0000002 z"
       id="path4221" />
    <path
       d="M 5.1484375 7.1484375 L 5.1484375 13.148438 L 5.296875 13.148438 L 5.296875 13.296875 L 5.4453125 13.296875 L 5.4453125 13.445312 L 5.5917969 13.445312 L 5.5917969 13.591797 L 5.7363281 13.591797 L 5.7363281 13.736328 L 5.8828125 13.736328 L 5.8828125 13.882812 L 6.0273438 13.882812 L 6.0273438 14.027344 L 6.1699219 14.027344 L 6.1699219 14.169922 L 6.3125 14.169922 L 6.3125 14.3125 L 6.4550781 14.3125 L 6.4550781 14.455078 L 6.5976562 14.455078 L 6.5976562 14.597656 L 6.7382812 14.597656 L 6.7382812 14.738281 L 6.8769531 14.738281 L 6.8769531 14.876953 L 7.0175781 14.876953 L 7.0175781 15.017578 L 7.1542969 15.017578 L 7.1542969 15.154297 L 7.2929688 15.154297 L 7.2929688 15.292969 L 7.4296875 15.292969 L 7.4296875 15.429688 L 7.5664062 15.429688 L 7.5664062 15.566406 L 7.7011719 15.566406 L 7.7011719 15.701172 L 7.8359375 15.701172 L 7.8359375 15.835938 L 7.9707031 15.835938 L 7.9707031 15.970703 L 8.1035156 15.970703 L 8.1035156 16.103516 L 8.2363281 16.103516 L 8.2363281 16.236328 L 8.3691406 16.236328 L 8.3691406 16.369141 L 8.5 16.369141 L 8.5 16.5 L 8.6289062 16.5 L 8.6289062 16.628906 L 8.7597656 16.628906 L 8.7597656 16.759766 L 8.8886719 16.759766 L 8.8886719 16.888672 L 9.015625 16.888672 L 9.015625 17.015625 L 9.1425781 17.015625 L 9.1425781 17.142578 L 9.2695312 17.142578 L 9.2695312 17.269531 L 9.3964844 17.269531 L 9.3964844 17.396484 L 9.5214844 17.396484 L 9.5214844 17.521484 L 9.6445312 17.521484 L 9.6445312 17.644531 L 9.7695312 17.644531 L 9.7695312 17.769531 L 9.8925781 17.769531 L 9.8925781 17.892578 L 10.013672 17.892578 L 10.013672 18.013672 L 10.134766 18.013672 L 10.134766 18.134766 L 10.255859 18.134766 L 10.255859 18.255859 L 10.376953 18.255859 L 10.376953 18.376953 L 10.496094 18.376953 L 10.496094 18.496094 L 10.613281 18.496094 L 10.613281 18.613281 L 10.730469 18.613281 L 10.730469 18.730469 L 10.847656 18.730469 L 10.847656 18.847656 L 10.964844 18.847656 L 10.964844 18.964844 L 11.080078 18.964844 L 11.080078 19.080078 L 11.195312 19.080078 L 11.195312 19.195312 L 11.308594 19.195312 L 11.308594 19.308594 L 11.421875 19.308594 L 11.421875 19.421875 L 11.535156 19.421875 L 11.535156 19.535156 L 11.646484 19.535156 L 11.646484 19.646484 L 11.757812 19.646484 L 11.757812 19.757812 L 11.867188 19.757812 L 11.867188 19.867188 L 11.976562 19.867188 L 11.976562 19.976562 L 12.085938 19.976562 L 12.085938 20.085938 L 12.193359 20.085938 L 12.193359 20.193359 L 12.300781 20.193359 L 12.300781 20.300781 L 12.408203 20.300781 L 12.408203 20.408203 L 12.513672 20.408203 L 12.513672 20.513672 L 12.619141 20.513672 L 12.619141 20.619141 L 12.722656 20.619141 L 12.722656 20.722656 L 12.826172 20.722656 L 12.826172 20.826172 L 12.929688 20.826172 L 12.929688 20.929688 L 13.03125 20.929688 L 13.03125 21.03125 L 13.132812 21.03125 L 13.132812 21.132812 L 13.234375 21.132812 L 13.234375 21.234375 L 13.333984 21.234375 L 13.333984 21.333984 L 13.431641 21.333984 L 13.431641 21.431641 L 13.53125 21.431641 L 13.53125 21.53125 L 13.628906 21.53125 L 13.628906 21.628906 L 13.724609 21.628906 L 13.724609 21.724609 L 13.822266 21.724609 L 13.822266 21.822266 L 13.916016 21.822266 L 13.916016 21.916016 L 14.011719 21.916016 L 14.011719 22.011719 L 14.105469 22.011719 L 14.105469 22.105469 L 14.199219 22.105469 L 14.199219 22.199219 L 14.291016 22.199219 L 14.291016 22.291016 L 14.382812 22.291016 L 14.382812 22.382812 L 14.474609 22.382812 L 14.474609 22.474609 L 14.564453 22.474609 L 14.564453 22.564453 L 14.654297 22.564453 L 14.654297 22.654297 L 14.742188 22.654297 L 14.742188 22.742188 L 14.830078 22.742188 L 14.830078 22.830078 L 14.917969 22.830078 L 14.917969 22.917969 L 15.003906 22.917969 L 15.003906 23.003906 L 15.089844 23.003906 L 15.089844 23.089844 L 15.175781 23.089844 L 15.175781 23.175781 L 15.259766 23.175781 L 15.259766 23.259766 L 15.341797 23.259766 L 15.341797 23.341797 L 15.425781 23.341797 L 15.425781 23.425781 L 15.507812 23.425781 L 15.507812 23.507812 L 15.587891 23.507812 L 15.587891 23.587891 L 15.669922 23.587891 L 15.669922 23.669922 L 15.75 23.669922 L 15.75 23.75 L 15.828125 23.75 L 15.828125 23.828125 L 15.90625 23.828125 L 15.90625 23.90625 L 15.984375 23.90625 L 15.984375 23.984375 L 16.060547 23.984375 L 16.060547 24.060547 L 16.136719 24.060547 L 16.136719 24.136719 L 16.212891 24.136719 L 16.212891 24.212891 L 16.287109 24.212891 L 16.287109 24.287109 L 16.361328 24.287109 L 16.361328 24.361328 L 16.433594 24.361328 L 16.433594 24.433594 L 16.505859 24.433594 L 16.505859 24.505859 L 16.578125 24.505859 L 16.578125 24.578125 L 16.648438 24.578125 L 16.648438 24.648438 L 16.71875 24.648438 L 16.71875 24.71875 L 16.789062 24.71875 L 16.789062 24.789062 L 16.857422 24.789062 L 16.857422 24.857422 L 16.925781 24.857422 L 16.925781 24.925781 L 16.992188 24.925781 L 16.992188 24.992188 L 17.058594 24.992188 L 17.058594 25.058594 L 17.125 25.058594 L 17.125 25.125 L 17.189453 25.125 L 17.189453 25.189453 L 17.253906 25.189453 L 17.253906 25.253906 L 17.318359 25.253906 L 17.318359 25.318359 L 17.380859 25.318359 L 17.380859 25.380859 L 17.441406 25.380859 L 17.441406 25.441406 L 17.503906 25.441406 L 17.503906 25.503906 L 17.564453 25.503906 L 17.564453 25.564453 L 17.623047 25.564453 L 17.623047 25.623047 L 17.683594 25.623047 L 17.683594 25.683594 L 17.740234 25.683594 L 17.740234 25.740234 L 17.798828 25.740234 L 17.798828 25.798828 L 17.855469 25.798828 L 17.855469 25.855469 L 17.912109 25.855469 L 17.912109 25.912109 L 17.966797 25.912109 L 17.966797 25.966797 L 18.021484 25.966797 L 18.021484 26.021484 L 18.076172 26.021484 L 18.076172 26.076172 L 18.128906 26.076172 L 18.128906 26.128906 L 18.181641 26.128906 L 18.181641 26.181641 L 18.232422 26.181641 L 18.232422 26.232422 L 18.283203 26.232422 L 18.283203 26.283203 L 18.333984 26.283203 L 18.333984 26.333984 L 18.382812 26.333984 L 18.382812 26.382812 L 18.431641 26.382812 L 18.431641 26.431641 L 18.478516 26.431641 L 18.478516 26.478516 L 18.527344 26.478516 L 18.527344 26.527344 L 18.572266 26.527344 L 18.572266 26.572266 L 18.619141 26.572266 L 18.619141 26.619141 L 18.664062 26.619141 L 18.664062 26.664062 L 18.707031 26.664062 L 18.707031 26.707031 L 18.751953 26.707031 L 18.751953 26.751953 L 18.792969 26.751953 L 18.792969 26.792969 L 18.835938 26.792969 L 18.835938 26.835938 L 18.876953 26.835938 L 18.876953 26.876953 L 18.917969 26.876953 L 18.917969 26.917969 L 18.957031 26.917969 L 18.957031 26.957031 L 18.996094 26.957031 L 18.996094 26.996094 L 19.035156 26.996094 L 19.035156 27.035156 L 19.072266 27.035156 L 19.072266 27.072266 L 19.109375 27.072266 L 19.109375 27.109375 L 19.144531 27.109375 L 19.144531 27.144531 L 19.179688 27.144531 L 19.179688 27.179688 L 19.214844 27.179688 L 19.214844 27.214844 L 19.248047 27.214844 L 19.248047 27.248047 L 19.28125 27.248047 L 19.28125 27.28125 L 19.314453 27.28125 L 19.314453 27.314453 L 19.345703 27.314453 L 19.345703 27.345703 L 19.375 27.345703 L 19.375 27.375 L 19.40625 27.375 L 19.40625 27.40625 L 19.435547 27.40625 L 19.435547 27.435547 L 19.462891 27.435547 L 19.462891 27.464844 L 19.492188 27.464844 L 19.492188 27.492188 L 19.519531 27.492188 L 19.519531 27.519531 L 19.544922 27.519531 L 19.544922 27.544922 L 19.570312 27.544922 L 19.570312 27.570312 L 19.595703 27.570312 L 19.595703 27.595703 L 19.619141 27.595703 L 19.619141 27.619141 L 19.642578 27.619141 L 19.642578 27.642578 L 19.666016 27.642578 L 19.666016 27.666016 L 19.6875 27.666016 L 19.6875 27.6875 L 19.708984 27.6875 L 19.708984 27.708984 L 19.728516 27.708984 L 19.728516 27.728516 L 19.748047 27.728516 L 19.748047 27.748047 L 19.767578 27.748047 L 19.767578 27.767578 L 19.785156 27.767578 L 19.785156 27.787109 L 19.802734 27.787109 L 19.802734 27.802734 L 19.820312 27.802734 L 19.820312 27.820312 L 19.835938 27.820312 L 19.835938 27.835938 L 19.851562 27.835938 L 19.851562 27.851562 L 19.865234 27.851562 L 19.865234 27.865234 L 19.878906 27.865234 L 19.878906 27.878906 L 19.892578 27.878906 L 19.892578 27.892578 L 19.904297 27.892578 L 19.904297 27.904297 L 19.916016 27.904297 L 19.916016 27.916016 L 19.927734 27.916016 L 19.927734 27.927734 L 19.9375 27.927734 L 19.9375 27.9375 L 19.947266 27.9375 L 19.947266 27.947266 L 19.955078 27.947266 L 19.955078 27.955078 L 19.962891 27.955078 L 19.962891 27.962891 L 19.970703 27.962891 L 19.970703 27.970703 L 19.976562 27.970703 L 19.976562 27.976562 L 19.982422 27.976562 L 19.982422 27.982422 L 19.986328 27.982422 L 19.986328 27.986328 L 19.990234 27.986328 L 19.990234 27.990234 L 19.994141 27.990234 L 19.994141 27.994141 L 19.996094 27.994141 L 19.996094 27.996094 L 19.998047 27.996094 L 19.998047 27.998047 L 20 27.998047 L 20 28 L 21 28 L 21 27.492188 L 21.019531 27.492188 L 21.019531 27.519531 L 21.044922 27.519531 L 21.044922 27.544922 L 21.070312 27.544922 L 21.070312 27.570312 L 21.095703 27.570312 L 21.095703 27.595703 L 21.119141 27.595703 L 21.119141 27.619141 L 21.142578 27.619141 L 21.142578 27.642578 L 21.166016 27.642578 L 21.166016 27.666016 L 21.1875 27.666016 L 21.1875 27.6875 L 21.208984 27.6875 L 21.208984 27.708984 L 21.228516 27.708984 L 21.228516 27.728516 L 21.248047 27.728516 L 21.248047 27.748047 L 21.267578 27.748047 L 21.267578 27.767578 L 21.285156 27.767578 L 21.285156 27.787109 L 21.302734 27.787109 L 21.302734 27.802734 L 21.320312 27.802734 L 21.320312 27.820312 L 21.335938 27.820312 L 21.335938 27.835938 L 21.351562 27.835938 L 21.351562 27.851562 L 21.365234 27.851562 L 21.365234 27.865234 L 21.378906 27.865234 L 21.378906 27.878906 L 21.392578 27.878906 L 21.392578 27.892578 L 21.404297 27.892578 L 21.404297 27.904297 L 21.416016 27.904297 L 21.416016 27.916016 L 21.427734 27.916016 L 21.427734 27.927734 L 21.4375 27.927734 L 21.4375 27.9375 L 21.447266 27.9375 L 21.447266 27.947266 L 21.455078 27.947266 L 21.455078 27.955078 L 21.462891 27.955078 L 21.462891 27.962891 L 21.470703 27.962891 L 21.470703 27.970703 L 21.476562 27.970703 L 21.476562 27.976562 L 21.482422 27.976562 L 21.482422 27.982422 L 21.486328 27.982422 L 21.486328 27.986328 L 21.490234 27.986328 L 21.490234 27.990234 L 21.494141 27.990234 L 21.494141 27.994141 L 21.496094 27.994141 L 21.496094 27.996094 L 21.498047 27.996094 L 21.498047 27.998047 L 21.5 27.998047 L 21.5 28 L 22 28 L 22 27.492188 L 22.019531 27.492188 L 22.019531 27.519531 L 22.044922 27.519531 L 22.044922 27.544922 L 22.070312 27.544922 L 22.070312 27.570312 L 22.095703 27.570312 L 22.095703 27.595703 L 22.119141 27.595703 L 22.119141 27.619141 L 22.142578 27.619141 L 22.142578 27.642578 L 22.166016 27.642578 L 22.166016 27.666016 L 22.1875 27.666016 L 22.1875 27.6875 L 22.208984 27.6875 L 22.208984 27.708984 L 22.228516 27.708984 L 22.228516 27.728516 L 22.248047 27.728516 L 22.248047 27.748047 L 22.267578 27.748047 L 22.267578 27.767578 L 22.285156 27.767578 L 22.285156 27.787109 L 22.302734 27.787109 L 22.302734 27.802734 L 22.320312 27.802734 L 22.320312 27.820312 L 22.335938 27.820312 L 22.335938 27.835938 L 22.351562 27.835938 L 22.351562 27.851562 L 22.365234 27.851562 L 22.365234 27.865234 L 22.378906 27.865234 L 22.378906 27.878906 L 22.392578 27.878906 L 22.392578 27.892578 L 22.404297 27.892578 L 22.404297 27.904297 L 22.416016 27.904297 L 22.416016 27.916016 L 22.427734 27.916016 L 22.427734 27.927734 L 22.4375 27.927734 L 22.4375 27.9375 L 22.447266 27.9375 L 22.447266 27.947266 L 22.455078 27.947266 L 22.455078 27.955078 L 22.462891 27.955078 L 22.462891 27.962891 L 22.470703 27.962891 L 22.470703 27.970703 L 22.476562 27.970703 L 22.476562 27.976562 L 22.482422 27.976562 L 22.482422 27.982422 L 22.486328 27.982422 L 22.486328 27.986328 L 22.490234 27.986328 L 22.490234 27.990234 L 22.494141 27.990234 L 22.494141 27.994141 L 22.496094 27.994141 L 22.496094 27.996094 L 22.498047 27.996094 L 22.498047 27.998047 L 22.5 27.998047 L 22.5 28 L 24 28 L 24 27.492188 L 24.019531 27.492188 L 24.019531 27.519531 L 24.044922 27.519531 L 24.044922 27.544922 L 24.070312 27.544922 L 24.070312 27.570312 L 24.095703 27.570312 L 24.095703 27.595703 L 24.119141 27.595703 L 24.119141 27.619141 L 24.142578 27.619141 L 24.142578 27.642578 L 24.166016 27.642578 L 24.166016 27.666016 L 24.1875 27.666016 L 24.1875 27.6875 L 24.208984 27.6875 L 24.208984 27.708984 L 24.228516 27.708984 L 24.228516 27.728516 L 24.248047 27.728516 L 24.248047 27.748047 L 24.267578 27.748047 L 24.267578 27.767578 L 24.285156 27.767578 L 24.285156 27.787109 L 24.302734 27.787109 L 24.302734 27.802734 L 24.320312 27.802734 L 24.320312 27.820312 L 24.335938 27.820312 L 24.335938 27.835938 L 24.351562 27.835938 L 24.351562 27.851562 L 24.365234 27.851562 L 24.365234 27.865234 L 24.378906 27.865234 L 24.378906 27.878906 L 24.392578 27.878906 L 24.392578 27.892578 L 24.404297 27.892578 L 24.404297 27.904297 L 24.416016 27.904297 L 24.416016 27.916016 L 24.427734 27.916016 L 24.427734 27.927734 L 24.4375 27.927734 L 24.4375 27.9375 L 24.447266 27.9375 L 24.447266 27.947266 L 24.455078 27.947266 L 24.455078 27.955078 L 24.462891 27.955078 L 24.462891 27.962891 L 24.470703 27.962891 L 24.470703 27.970703 L 24.476562 27.970703 L 24.476562 27.976562 L 24.482422 27.976562 L 24.482422 27.982422 L 24.486328 27.982422 L 24.486328 27.986328 L 24.490234 27.986328 L 24.490234 27.990234 L 24.494141 27.990234 L 24.494141 27.994141 L 24.496094 27.994141 L 24.496094 27.996094 L 24.498047 27.996094 L 24.498047 27.998047 L 24.5 27.998047 L 24.5 28 L 25 28 L 25 26.996094 L 25.035156 26.996094 L 25.035156 27.035156 L 25.072266 27.035156 L 25.072266 27.072266 L 25.109375 27.072266 L 25.109375 27.109375 L 25.144531 27.109375 L 25.144531 27.144531 L 25.179688 27.144531 L 25.179688 27.179688 L 25.214844 27.179688 L 25.214844 27.214844 L 25.248047 27.214844 L 25.248047 27.248047 L 25.28125 27.248047 L 25.28125 27.28125 L 25.314453 27.28125 L 25.314453 27.314453 L 25.345703 27.314453 L 25.345703 27.345703 L 25.375 27.345703 L 25.375 27.375 L 25.40625 27.375 L 25.40625 27.40625 L 25.435547 27.40625 L 25.435547 27.435547 L 25.462891 27.435547 L 25.462891 27.464844 L 25.492188 27.464844 L 25.492188 27.492188 L 25.519531 27.492188 L 25.519531 27.519531 L 25.544922 27.519531 L 25.544922 27.544922 L 25.570312 27.544922 L 25.570312 27.570312 L 25.595703 27.570312 L 25.595703 27.595703 L 25.619141 27.595703 L 25.619141 27.619141 L 25.642578 27.619141 L 25.642578 27.642578 L 25.666016 27.642578 L 25.666016 27.666016 L 25.6875 27.666016 L 25.6875 27.6875 L 25.708984 27.6875 L 25.708984 27.708984 L 25.728516 27.708984 L 25.728516 27.728516 L 25.748047 27.728516 L 25.748047 27.748047 L 25.767578 27.748047 L 25.767578 27.767578 L 25.785156 27.767578 L 25.785156 27.787109 L 25.802734 27.787109 L 25.802734 27.802734 L 25.820312 27.802734 L 25.820312 27.820312 L 25.835938 27.820312 L 25.835938 27.835938 L 25.851562 27.835938 L 25.851562 27.851562 L 25.865234 27.851562 L 25.865234 27.865234 L 25.878906 27.865234 L 25.878906 27.878906 L 25.892578 27.878906 L 25.892578 27.892578 L 25.904297 27.892578 L 25.904297 27.904297 L 25.916016 27.904297 L 25.916016 27.916016 L 25.927734 27.916016 L 25.927734 27.927734 L 25.9375 27.927734 L 25.9375 27.9375 L 25.947266 27.9375 L 25.947266 27.947266 L 25.955078 27.947266 L 25.955078 27.955078 L 25.962891 27.955078 L 25.962891 27.962891 L 25.970703 27.962891 L 25.970703 27.970703 L 25.976562 27.970703 L 25.976562 27.976562 L 25.982422 27.976562 L 25.982422 27.982422 L 25.986328 27.982422 L 25.986328 27.986328 L 25.990234 27.986328 L 25.990234 27.990234 L 25.994141 27.990234 L 25.994141 27.994141 L 25.996094 27.994141 L 25.996094 27.996094 L 25.998047 27.996094 L 25.998047 27.998047 L 26 27.998047 L 26 28 L 27 28 L 27 27.492188 L 27.019531 27.492188 L 27.019531 27.519531 L 27.044922 27.519531 L 27.044922 27.544922 L 27.070312 27.544922 L 27.070312 27.570312 L 27.095703 27.570312 L 27.095703 27.595703 L 27.119141 27.595703 L 27.119141 27.619141 L 27.142578 27.619141 L 27.142578 27.642578 L 27.166016 27.642578 L 27.166016 27.666016 L 27.1875 27.666016 L 27.1875 27.6875 L 27.208984 27.6875 L 27.208984 27.708984 L 27.228516 27.708984 L 27.228516 27.728516 L 27.248047 27.728516 L 27.248047 27.748047 L 27.267578 27.748047 L 27.267578 27.767578 L 27.285156 27.767578 L 27.285156 27.787109 L 27.302734 27.787109 L 27.302734 27.802734 L 27.320312 27.802734 L 27.320312 27.820312 L 27.335938 27.820312 L 27.335938 27.835938 L 27.351562 27.835938 L 27.351562 27.851562 L 27.365234 27.851562 L 27.365234 27.865234 L 27.378906 27.865234 L 27.378906 27.878906 L 27.392578 27.878906 L 27.392578 27.892578 L 27.404297 27.892578 L 27.404297 27.904297 L 27.416016 27.904297 L 27.416016 27.916016 L 27.427734 27.916016 L 27.427734 27.927734 L 27.4375 27.927734 L 27.4375 27.9375 L 27.447266 27.9375 L 27.447266 27.947266 L 27.455078 27.947266 L 27.455078 27.955078 L 27.462891 27.955078 L 27.462891 27.962891 L 27.470703 27.962891 L 27.470703 27.970703 L 27.476562 27.970703 L 27.476562 27.976562 L 27.482422 27.976562 L 27.482422 27.982422 L 27.486328 27.982422 L 27.486328 27.986328 L 27.490234 27.986328 L 27.490234 27.990234 L 27.494141 27.990234 L 27.494141 27.994141 L 27.496094 27.994141 L 27.496094 27.996094 L 27.498047 27.996094 L 27.498047 27.998047 L 27.5 27.998047 L 27.5 28 L 29 28 L 29 27.492188 L 29.019531 27.492188 L 29.019531 27.519531 L 29.044922 27.519531 L 29.044922 27.544922 L 29.070312 27.544922 L 29.070312 27.570312 L 29.095703 27.570312 L 29.095703 27.595703 L 29.119141 27.595703 L 29.119141 27.619141 L 29.142578 27.619141 L 29.142578 27.642578 L 29.166016 27.642578 L 29.166016 27.666016 L 29.1875 27.666016 L 29.1875 27.6875 L 29.208984 27.6875 L 29.208984 27.708984 L 29.228516 27.708984 L 29.228516 27.728516 L 29.248047 27.728516 L 29.248047 27.748047 L 29.267578 27.748047 L 29.267578 27.767578 L 29.285156 27.767578 L 29.285156 27.787109 L 29.302734 27.787109 L 29.302734 27.802734 L 29.320312 27.802734 L 29.320312 27.820312 L 29.335938 27.820312 L 29.335938 27.835938 L 29.351562 27.835938 L 29.351562 27.851562 L 29.365234 27.851562 L 29.365234 27.865234 L 29.378906 27.865234 L 29.378906 27.878906 L 29.392578 27.878906 L 29.392578 27.892578 L 29.404297 27.892578 L 29.404297 27.904297 L 29.416016 27.904297 L 29.416016 27.916016 L 29.427734 27.916016 L 29.427734 27.927734 L 29.4375 27.927734 L 29.4375 27.9375 L 29.447266 27.9375 L 29.447266 27.947266 L 29.455078 27.947266 L 29.455078 27.955078 L 29.462891 27.955078 L 29.462891 27.962891 L 29.470703 27.962891 L 29.470703 27.970703 L 29.476562 27.970703 L 29.476562 27.976562 L 29.482422 27.976562 L 29.482422 27.982422 L 29.486328 27.982422 L 29.486328 27.986328 L 29.490234 27.986328 L 29.490234 27.990234 L 29.494141 27.990234 L 29.494141 27.994141 L 29.496094 27.994141 L 29.496094 27.996094 L 29.498047 27.996094 L 29.498047 27.998047 L 29.5 27.998047 L 29.5 28 L 30 28 L 30 22 L 29.998047 22 L 29.998047 21.998047 L 29.996094 21.998047 L 29.996094 21.996094 L 29.994141 21.996094 L 29.994141 21.994141 L 29.990234 21.994141 L 29.990234 21.990234 L 29.986328 21.990234 L 29.986328 21.986328 L 29.982422 21.986328 L 29.982422 21.982422 L 29.976562 21.982422 L 29.976562 21.976562 L 29.970703 21.976562 L 29.970703 21.970703 L 29.962891 21.970703 L 29.962891 21.962891 L 29.955078 21.962891 L 29.955078 21.955078 L 29.947266 21.955078 L 29.947266 21.947266 L 29.9375 21.947266 L 29.9375 21.9375 L 29.927734 21.9375 L 29.927734 21.927734 L 29.916016 21.927734 L 29.916016 21.916016 L 29.904297 21.916016 L 29.904297 21.904297 L 29.892578 21.904297 L 29.892578 21.892578 L 29.878906 21.892578 L 29.878906 21.878906 L 29.865234 21.878906 L 29.865234 21.865234 L 29.851562 21.865234 L 29.851562 21.851562 L 29.835938 21.851562 L 29.835938 21.835938 L 29.820312 21.835938 L 29.820312 21.820312 L 29.802734 21.820312 L 29.802734 21.802734 L 29.785156 21.802734 L 29.785156 21.787109 L 29.767578 21.787109 L 29.767578 21.767578 L 29.748047 21.767578 L 29.748047 21.748047 L 29.728516 21.748047 L 29.728516 21.728516 L 29.708984 21.728516 L 29.708984 21.708984 L 29.6875 21.708984 L 29.6875 21.6875 L 29.666016 21.6875 L 29.666016 21.666016 L 29.642578 21.666016 L 29.642578 21.642578 L 29.619141 21.642578 L 29.619141 21.619141 L 29.595703 21.619141 L 29.595703 21.595703 L 29.570312 21.595703 L 29.570312 21.570312 L 29.544922 21.570312 L 29.544922 21.544922 L 29.519531 21.544922 L 29.519531 21.519531 L 29.492188 21.519531 L 29.492188 21.492188 L 29.462891 21.492188 L 29.462891 21.464844 L 29.435547 21.464844 L 29.435547 21.435547 L 29.40625 21.435547 L 29.40625 21.40625 L 29.375 21.40625 L 29.375 21.375 L 29.345703 21.375 L 29.345703 21.345703 L 29.314453 21.345703 L 29.314453 21.314453 L 29.28125 21.314453 L 29.28125 21.28125 L 29.248047 21.28125 L 29.248047 21.248047 L 29.214844 21.248047 L 29.214844 21.214844 L 29.179688 21.214844 L 29.179688 21.179688 L 29.144531 21.179688 L 29.144531 21.144531 L 29.109375 21.144531 L 29.109375 21.109375 L 29.072266 21.109375 L 29.072266 21.072266 L 29.035156 21.072266 L 29.035156 21.035156 L 28.996094 21.035156 L 28.996094 20.996094 L 28.957031 20.996094 L 28.957031 20.957031 L 28.917969 20.957031 L 28.917969 20.917969 L 28.876953 20.917969 L 28.876953 20.876953 L 28.835938 20.876953 L 28.835938 20.835938 L 28.792969 20.835938 L 28.792969 20.792969 L 28.751953 20.792969 L 28.751953 20.751953 L 28.707031 20.751953 L 28.707031 20.707031 L 28.664062 20.707031 L 28.664062 20.664062 L 28.619141 20.664062 L 28.619141 20.619141 L 28.572266 20.619141 L 28.572266 20.572266 L 28.527344 20.572266 L 28.527344 20.527344 L 28.478516 20.527344 L 28.478516 20.478516 L 28.431641 20.478516 L 28.431641 20.431641 L 28.382812 20.431641 L 28.382812 20.382812 L 28.333984 20.382812 L 28.333984 20.333984 L 28.283203 20.333984 L 28.283203 20.283203 L 28.232422 20.283203 L 28.232422 20.232422 L 28.181641 20.232422 L 28.181641 20.181641 L 28.128906 20.181641 L 28.128906 20.128906 L 28.076172 20.128906 L 28.076172 20.076172 L 28.021484 20.076172 L 28.021484 20.021484 L 27.966797 20.021484 L 27.966797 19.966797 L 27.912109 19.966797 L 27.912109 19.912109 L 27.855469 19.912109 L 27.855469 19.855469 L 27.798828 19.855469 L 27.798828 19.798828 L 27.740234 19.798828 L 27.740234 19.740234 L 27.683594 19.740234 L 27.683594 19.683594 L 27.623047 19.683594 L 27.623047 19.623047 L 27.564453 19.623047 L 27.564453 19.564453 L 27.503906 19.564453 L 27.503906 19.503906 L 27.441406 19.503906 L 27.441406 19.441406 L 27.380859 19.441406 L 27.380859 19.380859 L 27.318359 19.380859 L 27.318359 19.318359 L 27.253906 19.318359 L 27.253906 19.253906 L 27.189453 19.253906 L 27.189453 19.189453 L 27.125 19.189453 L 27.125 19.125 L 27.058594 19.125 L 27.058594 19.058594 L 26.992188 19.058594 L 26.992188 18.992188 L 26.925781 18.992188 L 26.925781 18.925781 L 26.857422 18.925781 L 26.857422 18.857422 L 26.789062 18.857422 L 26.789062 18.789062 L 26.71875 18.789062 L 26.71875 18.71875 L 26.648438 18.71875 L 26.648438 18.648438 L 26.578125 18.648438 L 26.578125 18.578125 L 26.505859 18.578125 L 26.505859 18.505859 L 26.433594 18.505859 L 26.433594 18.433594 L 26.361328 18.433594 L 26.361328 18.361328 L 26.287109 18.361328 L 26.287109 18.287109 L 26.212891 18.287109 L 26.212891 18.212891 L 26.136719 18.212891 L 26.136719 18.136719 L 26.060547 18.136719 L 26.060547 18.060547 L 25.984375 18.060547 L 25.984375 17.984375 L 25.90625 17.984375 L 25.90625 17.90625 L 25.828125 17.90625 L 25.828125 17.828125 L 25.75 17.828125 L 25.75 17.75 L 25.669922 17.75 L 25.669922 17.669922 L 25.587891 17.669922 L 25.587891 17.587891 L 25.507812 17.587891 L 25.507812 17.507812 L 25.425781 17.507812 L 25.425781 17.425781 L 25.341797 17.425781 L 25.341797 17.341797 L 25.259766 17.341797 L 25.259766 17.259766 L 25.175781 17.259766 L 25.175781 17.175781 L 25.089844 17.175781 L 25.089844 17.089844 L 25.003906 17.089844 L 25.003906 17.003906 L 24.917969 17.003906 L 24.917969 16.917969 L 24.830078 16.917969 L 24.830078 16.830078 L 24.742188 16.830078 L 24.742188 16.742188 L 24.654297 16.742188 L 24.654297 16.654297 L 24.564453 16.654297 L 24.564453 16.564453 L 24.474609 16.564453 L 24.474609 16.474609 L 24.382812 16.474609 L 24.382812 16.382812 L 24.291016 16.382812 L 24.291016 16.291016 L 24.199219 16.291016 L 24.199219 16.199219 L 24.105469 16.199219 L 24.105469 16.105469 L 24.011719 16.105469 L 24.011719 16.011719 L 23.916016 16.011719 L 23.916016 15.916016 L 23.822266 15.916016 L 23.822266 15.822266 L 23.724609 15.822266 L 23.724609 15.724609 L 23.628906 15.724609 L 23.628906 15.628906 L 23.53125 15.628906 L 23.53125 15.53125 L 23.431641 15.53125 L 23.431641 15.431641 L 23.333984 15.431641 L 23.333984 15.333984 L 23.234375 15.333984 L 23.234375 15.234375 L 23.132812 15.234375 L 23.132812 15.132812 L 23.03125 15.132812 L 23.03125 15.03125 L 22.929688 15.03125 L 22.929688 14.929688 L 22.826172 14.929688 L 22.826172 14.826172 L 22.722656 14.826172 L 22.722656 14.722656 L 22.619141 14.722656 L 22.619141 14.619141 L 22.513672 14.619141 L 22.513672 14.513672 L 22.408203 14.513672 L 22.408203 14.408203 L 22.300781 14.408203 L 22.300781 14.300781 L 22.193359 14.300781 L 22.193359 14.193359 L 22.085938 14.193359 L 22.085938 14.085938 L 21.976562 14.085938 L 21.976562 13.976562 L 21.867188 13.976562 L 21.867188 13.867188 L 21.757812 13.867188 L 21.757812 13.757812 L 21.646484 13.757812 L 21.646484 13.646484 L 21.535156 13.646484 L 21.535156 13.535156 L 21.421875 13.535156 L 21.421875 13.421875 L 21.308594 13.421875 L 21.308594 13.308594 L 21.195312 13.308594 L 21.195312 13.195312 L 21.080078 13.195312 L 21.080078 13.080078 L 20.964844 13.080078 L 20.964844 12.964844 L 20.847656 12.964844 L 20.847656 12.847656 L 20.730469 12.847656 L 20.730469 12.730469 L 20.613281 12.730469 L 20.613281 12.613281 L 20.496094 12.613281 L 20.496094 12.496094 L 20.376953 12.496094 L 20.376953 12.376953 L 20.255859 12.376953 L 20.255859 12.255859 L 20.134766 12.255859 L 20.134766 12.134766 L 20.013672 12.134766 L 20.013672 12.013672 L 19.892578 12.013672 L 19.892578 11.892578 L 19.769531 11.892578 L 19.769531 11.769531 L 19.644531 11.769531 L 19.644531 11.644531 L 19.521484 11.644531 L 19.521484 11.521484 L 19.396484 11.521484 L 19.396484 11.396484 L 19.269531 11.396484 L 19.269531 11.269531 L 19.142578 11.269531 L 19.142578 11.142578 L 19.015625 11.142578 L 19.015625 11.015625 L 18.888672 11.015625 L 18.888672 10.888672 L 18.759766 10.888672 L 18.759766 10.759766 L 18.628906 10.759766 L 18.628906 10.628906 L 18.5 10.628906 L 18.5 10.5 L 18.369141 10.5 L 18.369141 10.369141 L 18.236328 10.369141 L 18.236328 10.236328 L 18.103516 10.236328 L 18.103516 10.103516 L 17.970703 10.103516 L 17.970703 9.9707031 L 17.835938 9.9707031 L 17.835938 9.8359375 L 17.701172 9.8359375 L 17.701172 9.7011719 L 17.566406 9.7011719 L 17.566406 9.5664062 L 17.429688 9.5664062 L 17.429688 9.4296875 L 17.292969 9.4296875 L 17.292969 9.2929688 L 17.154297 9.2929688 L 17.154297 9.1542969 L 17.017578 9.1542969 L 17.017578 9.0175781 L 16.876953 9.0175781 L 16.876953 8.8769531 L 16.738281 8.8769531 L 16.738281 8.7382812 L 16.597656 8.7382812 L 16.597656 8.5976562 L 16.455078 8.5976562 L 16.455078 8.4550781 L 16.3125 8.4550781 L 16.3125 8.3125 L 16.169922 8.3125 L 16.169922 8.1699219 L 16.027344 8.1699219 L 16.027344 8.0273438 L 15.882812 8.0273438 L 15.882812 7.8828125 L 15.736328 7.8828125 L 15.736328 7.7363281 L 15.591797 7.7363281 L 15.591797 7.5917969 L 15.445312 7.5917969 L 15.445312 7.4453125 L 15.296875 7.4453125 L 15.296875 7.296875 L 15.148438 7.296875 L 15.148438 7.1484375 L 14.648438 7.1484375 L 14.648438 7.7363281 L 14.591797 7.7363281 L 14.591797 7.5917969 L 14.445312 7.5917969 L 14.445312 7.4453125 L 14.296875 7.4453125 L 14.296875 7.296875 L 14.148438 7.296875 L 14.148438 7.1484375 L 12.648438 7.1484375 L 12.648438 7.7363281 L 12.591797 7.7363281 L 12.591797 7.5917969 L 12.445312 7.5917969 L 12.445312 7.4453125 L 12.296875 7.4453125 L 12.296875 7.296875 L 12.148438 7.296875 L 12.148438 7.1484375 L 11.148438 7.1484375 L 11.148438 8.1699219 L 11.027344 8.1699219 L 11.027344 8.0273438 L 10.882812 8.0273438 L 10.882812 7.8828125 L 10.736328 7.8828125 L 10.736328 7.7363281 L 10.591797 7.7363281 L 10.591797 7.5917969 L 10.445312 7.5917969 L 10.445312 7.4453125 L 10.296875 7.4453125 L 10.296875 7.296875 L 10.148438 7.296875 L 10.148438 7.1484375 L 9.6484375 7.1484375 L 9.6484375 7.7363281 L 9.5917969 7.7363281 L 9.5917969 7.5917969 L 9.4453125 7.5917969 L 9.4453125 7.4453125 L 9.296875 7.4453125 L 9.296875 7.296875 L 9.1484375 7.296875 L 9.1484375 7.1484375 L 7.6484375 7.1484375 L 7.6484375 7.7363281 L 7.5917969 7.7363281 L 7.5917969 7.5917969 L 7.4453125 7.5917969 L 7.4453125 7.4453125 L 7.296875 7.4453125 L 7.296875 7.296875 L 7.1484375 7.296875 L 7.1484375 7.1484375 L 6.6484375 7.1484375 L 6.6484375 7.7363281 L 6.5917969 7.7363281 L 6.5917969 7.5917969 L 6.4453125 7.5917969 L 6.4453125 7.4453125 L 6.296875 7.4453125 L 6.296875 7.296875 L 6.1484375 7.296875 L 6.1484375 7.1484375 L 5.1484375 7.1484375 z "
       id="path4275"
       style="fill-opacity:1;fill:url(#linearGradient5120);opacity:0.2"
       clip-path="url(#clipPath5125)" />
    <path
       style="fill:#cddc39"
       id="path4230"
       d="m 4.9999776,7.0000047 1,0 0,6.0000003 -1,0 0,-6.0000003 m 1.5,0 0.5,0 0,6.0000003 -0.5,0 0,-6.0000003 m 1,0 1.5,0 0,6.0000003 -1.5,0 0,-6.0000003 m 2,0 0.5,0 0,6.0000003 -0.5,0 0,-6.0000003 m 1.5000004,0 1,0 0,6.0000003 -1,0 0,-6.0000003 m 1.5,0 1.5,0 0,6.0000003 -1.5,0 0,-6.0000003 m 2,0 0.5,0 0,6.0000003 -0.5,0 0,-6.0000003 z"
       inkscape:connector-curvature="0" />
  </g>
</svg>
