<?xml version="1.0" encoding="UTF-8" standalone="no"?>
<!-- Created with Inkscape (http://www.inkscape.org/) -->

<svg
   xmlns:dc="http://purl.org/dc/elements/1.1/"
   xmlns:cc="http://creativecommons.org/ns#"
   xmlns:rdf="http://www.w3.org/1999/02/22-rdf-syntax-ns#"
   xmlns:svg="http://www.w3.org/2000/svg"
   xmlns="http://www.w3.org/2000/svg"
   xmlns:xlink="http://www.w3.org/1999/xlink"
   xmlns:sodipodi="http://sodipodi.sourceforge.net/DTD/sodipodi-0.dtd"
   xmlns:inkscape="http://www.inkscape.org/namespaces/inkscape"
   sodipodi:docname="ClipStack.svg"
   inkscape:version="0.91 r13725"
   version="1.1"
   id="svg2"
   viewBox="0 0 20 20"
   height="5.6444445mm"
   width="5.6444445mm">
  <sodipodi:namedview
     inkscape:snap-to-guides="true"
     inkscape:snap-grids="true"
     inkscape:window-maximized="1"
     inkscape:window-y="0"
     inkscape:window-x="0"
     inkscape:window-height="726"
     inkscape:window-width="1366"
     inkscape:guide-bbox="true"
     showguides="true"
     fit-margin-bottom="0"
     fit-margin-right="0"
     fit-margin-left="0"
     fit-margin-top="0"
     showgrid="true"
     inkscape:current-layer="layer2"
     inkscape:document-units="px"
     inkscape:cy="3.9634248"
     inkscape:cx="9.5448121"
     inkscape:zoom="15.839192"
     inkscape:pageshadow="2"
     inkscape:pageopacity="0.0"
     borderopacity="1.0"
     bordercolor="#666666"
     pagecolor="#ffffff"
     id="base">
    <inkscape:grid
       type="xygrid"
       id="grid4138" />
    <sodipodi:guide
       position="10,18"
       orientation="0,1"
       id="guide4140" />
    <sodipodi:guide
       position="10,2"
       orientation="0,1"
       id="guide4142" />
    <sodipodi:guide
       position="2,10"
       orientation="1,0"
       id="guide4144" />
    <sodipodi:guide
       position="0,0"
       orientation="0,20"
       id="guide4146" />
    <sodipodi:guide
       position="20,0"
       orientation="-20,0"
       id="guide4148" />
    <sodipodi:guide
       position="20,20"
       orientation="0,-20"
       id="guide4150" />
    <sodipodi:guide
       position="0,20"
       orientation="20,0"
       id="guide4152" />
    <sodipodi:guide
       position="18,10"
       orientation="1,0"
       id="guide4154" />
    <sodipodi:guide
       position="10,10"
       orientation="-0.70710678,0.70710678"
       id="guide4156" />
    <sodipodi:guide
       position="10,10"
       orientation="0.70710678,0.70710678"
       id="guide4158" />
    <sodipodi:guide
       position="4,10"
       orientation="1,0"
       id="guide4160" />
    <sodipodi:guide
       position="16,10"
       orientation="1,0"
       id="guide4162" />
    <sodipodi:guide
       position="10,16"
       orientation="0,1"
       id="guide4164" />
    <sodipodi:guide
       position="10,4"
       orientation="0,1"
       id="guide4166" />
    <sodipodi:guide
       position="10,15"
       orientation="0,1"
       id="guide4168" />
    <sodipodi:guide
       position="10,5"
       orientation="0,1"
       id="guide4170" />
    <sodipodi:guide
       position="5,10"
       orientation="1,0"
       id="guide4172" />
    <sodipodi:guide
       position="15,10"
       orientation="1,0"
       id="guide4174" />
  </sodipodi:namedview>
  <defs
     id="defs4">
    <linearGradient
       inkscape:collect="always"
       id="linearGradient8103">
      <stop
         style="stop-color:#000000;stop-opacity:1;"
         offset="0"
         id="stop8105" />
      <stop
         style="stop-color:#000000;stop-opacity:0;"
         offset="1"
         id="stop8107" />
    </linearGradient>
    <clipPath
       id="clipPath12478"
       clipPathUnits="userSpaceOnUse">
      <circle
         r="10"
         cy="10.000005"
         cx="9.9999781"
         id="circle12480"
         style="opacity:1;fill:#2196f3;fill-opacity:1;stroke:none;stroke-width:0.05069799;stroke-miterlimit:4;stroke-dasharray:none;stroke-opacity:1" />
    </clipPath>
    <clipPath
       clipPathUnits="userSpaceOnUse"
       id="clipPath5790">
      <circle
         r="10"
         cy="10.000005"
         cx="9.9999781"
         id="circle5792"
         style="opacity:1;fill:#2196f3;fill-opacity:1;stroke:none;stroke-width:0.05069799;stroke-miterlimit:4;stroke-dasharray:none;stroke-opacity:1"
         inkscape:export-filename="/home/juergen/path4136.png"
         inkscape:export-xdpi="648"
         inkscape:export-ydpi="648" />
    </clipPath>
    <clipPath
       id="clipPath7690"
       clipPathUnits="userSpaceOnUse">
      <circle
         r="10"
         cy="10.000005"
         cx="9.9999781"
         id="circle7692"
         style="opacity:1;fill:#2196f3;fill-opacity:1;stroke:none;stroke-width:0.05069799;stroke-miterlimit:4;stroke-dasharray:none;stroke-opacity:1"
         inkscape:export-filename="/home/juergen/Schreibtisch/path4136.png"
         inkscape:export-xdpi="648"
         inkscape:export-ydpi="648" />
    </clipPath>
    <clipPath
       clipPathUnits="userSpaceOnUse"
       id="clipPath5119">
      <circle
         r="10"
         cy="10.000005"
         cx="9.9999781"
         id="circle5121"
         style="opacity:1;fill:#ff9800;fill-opacity:1;stroke:none;stroke-width:0.05069799;stroke-miterlimit:4;stroke-dasharray:none;stroke-opacity:1"
         inkscape:export-filename="/home/juergen/Schreibtisch/path4136.png"
         inkscape:export-xdpi="648"
         inkscape:export-ydpi="648" />
    </clipPath>
    <clipPath
       id="clipPath5125"
       clipPathUnits="userSpaceOnUse">
      <circle
         r="10"
         cy="10.000005"
         cx="9.9999781"
         id="circle5127"
         style="opacity:1;fill:#e91e63;fill-opacity:1;stroke:none;stroke-width:0.05069799;stroke-miterlimit:4;stroke-dasharray:none;stroke-opacity:1"
         inkscape:export-filename="/home/juergen/Schreibtisch/path4136.png"
         inkscape:export-xdpi="648"
         inkscape:export-ydpi="648" />
    </clipPath>
    <clipPath
       clipPathUnits="userSpaceOnUse"
       id="clipPath6122">
      <circle
         r="10"
         cy="10.000005"
         cx="9.9999781"
         id="circle6124"
         style="opacity:1;fill:#ffc107;fill-opacity:1;stroke:none;stroke-width:0.05069799;stroke-miterlimit:4;stroke-dasharray:none;stroke-opacity:1"
         inkscape:export-filename="/home/juergen/Schreibtisch/path4136.png"
         inkscape:export-xdpi="648"
         inkscape:export-ydpi="648" />
    </clipPath>
    <clipPath
       id="clipPath7115"
       clipPathUnits="userSpaceOnUse">
      <circle
         r="10"
         cy="10.000005"
         cx="9.9999781"
         id="circle7117"
         style="opacity:1;fill:#9c27b0;fill-opacity:1;stroke:none;stroke-width:0.05069799;stroke-miterlimit:4;stroke-dasharray:none;stroke-opacity:1"
         inkscape:export-filename="/home/juergen/Schreibtisch/path4136.png"
         inkscape:export-xdpi="648"
         inkscape:export-ydpi="648" />
    </clipPath>
    <linearGradient
       inkscape:collect="always"
       xlink:href="#linearGradient8103"
       id="linearGradient8109"
       x1="10"
       y1="10"
       x2="20"
       y2="20"
       gradientUnits="userSpaceOnUse" />
    <clipPath
       clipPathUnits="userSpaceOnUse"
       id="clipPath8114">
      <circle
         r="10"
         cy="10.000005"
         cx="9.9999781"
         id="circle8116"
         style="opacity:1;fill:#009688;fill-opacity:1;stroke:none;stroke-width:0.05069799;stroke-miterlimit:4;stroke-dasharray:none;stroke-opacity:1"
         inkscape:export-filename="/home/juergen/Schreibtisch/path4136.png"
         inkscape:export-xdpi="648"
         inkscape:export-ydpi="648" />
    </clipPath>
  </defs>
  <metadata
     id="metadata7">
    <rdf:RDF>
      <cc:Work
         rdf:about="">
        <dc:format>image/svg+xml</dc:format>
        <dc:type
           rdf:resource="http://purl.org/dc/dcmitype/StillImage" />
        <dc:title></dc:title>
      </cc:Work>
    </rdf:RDF>
  </metadata>
  <g
     inkscape:label="Hintergrund"
     inkscape:groupmode="layer"
     id="layer1"
     transform="translate(1058.1428,-861.93365)">
    <circle
       inkscape:export-ydpi="648"
       inkscape:export-xdpi="648"
       inkscape:export-filename="/home/juergen/Schreibtisch/path4136.png"
       style="opacity:1;fill:#009688;fill-opacity:1;stroke:none;stroke-width:0.05069799;stroke-miterlimit:4;stroke-dasharray:none;stroke-opacity:1"
       id="path4136"
       cx="-1048.1428"
       cy="871.93365"
       r="10" />
  </g>
  <g
     style="display:inline"
     inkscape:groupmode="layer"
     id="layer2"
     inkscape:label="Icon">
    <path
       d="m 3.9999777,4.0333382 12.0000003,0 0,11.9333328 -12.0000003,0 z"
       id="path4"
       inkscape:connector-curvature="0"
       style="fill:none" />
    <path
       style="fill:none"
       inkscape:connector-curvature="0"
       id="path9754"
       d="m 18.999978,19.033339 12,0 0,11.933333 -12,0 z" />
    <path
       inkscape:connector-curvature="0"
       d="m 7.4999774,8.5000047 0,-1 -1,0 0,6.5000003 7.0000006,0 0,-6.5000003 -1,0 0,1 -5.0000006,0 m 1.0000001,-2 a 1.5,1.5 0 0 1 1.5,-1.4999999 1.5,1.5 0 0 1 1.5000005,1.4999999 l 2,0 a 1,1 0 0 1 1,1 l 0,6.5000003 a 1,1 0 0 1 -1,1 l -7.0000006,0 a 1,1 0 0 1 -1,-1 l 0,-6.5000003 a 1,1 0 0 1 1,-1 l 2.0000001,0 m 1.5,-0.5 a 0.5,0.5 0 0 0 -0.5,0.5 0.5,0.5 0 0 0 0.5,0.5 0.5,0.5 0 0 0 0.5000005,-0.5 0.5,0.5 0 0 0 -0.5000005,-0.5 z"
       id="path7188" />
    <path
       d="M 10.138672 5.1523438 C 9.3156756 5.1551358 8.6484376 5.8242843 8.6484375 6.6484375 L 6.6484375 6.6484375 C 6.3832211 6.6484375 6.1289425 6.7538699 5.9414062 6.9414062 C 5.7538698 7.1289427 5.6484375 7.383221 5.6484375 7.6484375 L 5.6484375 14.148438 C 5.6484375 14.413654 5.7538699 14.667933 5.9414062 14.855469 C 5.9671921 14.881255 6.0030832 14.891444 6.03125 14.914062 C 6.0538683 14.942229 6.0640579 14.97812 6.0898438 15.003906 C 6.1158906 15.029953 6.1512127 15.041639 6.1796875 15.064453 C 6.2019318 15.092036 6.2129911 15.127054 6.2382812 15.152344 C 6.2636768 15.177739 6.2984648 15.188613 6.3261719 15.210938 C 6.3484959 15.238645 6.3593701 15.273433 6.3847656 15.298828 C 6.4097708 15.323833 6.4434548 15.335394 6.4707031 15.357422 C 6.4927313 15.38467 6.5042917 15.418354 6.5292969 15.443359 C 6.5546924 15.468755 6.5894804 15.479629 6.6171875 15.501953 C 6.6395115 15.52966 6.6503857 15.564448 6.6757812 15.589844 C 6.7007864 15.614849 6.7344704 15.626409 6.7617188 15.648438 C 6.783747 15.675686 6.7953073 15.70937 6.8203125 15.734375 C 6.8450567 15.759119 6.8793079 15.769186 6.90625 15.791016 C 6.9280796 15.817958 6.9381465 15.852209 6.9628906 15.876953 C 6.9876348 15.901697 7.0218861 15.911764 7.0488281 15.933594 C 7.0706577 15.960536 7.0807246 15.994787 7.1054688 16.019531 C 7.1302129 16.044275 7.1644642 16.054342 7.1914062 16.076172 C 7.2132358 16.103114 7.2233027 16.137365 7.2480469 16.162109 C 7.272791 16.186854 7.3070423 16.19692 7.3339844 16.21875 C 7.355814 16.245692 7.3658808 16.279943 7.390625 16.304688 C 7.4149788 16.329041 7.4481245 16.339797 7.4746094 16.361328 C 7.4961407 16.387813 7.5068962 16.420959 7.53125 16.445312 C 7.5553428 16.469405 7.5890546 16.478669 7.6152344 16.5 C 7.6365654 16.52618 7.6458291 16.559892 7.6699219 16.583984 C 7.6942757 16.608338 7.7274213 16.619094 7.7539062 16.640625 C 7.7754375 16.66711 7.7861931 16.700255 7.8105469 16.724609 C 7.833598 16.74766 7.8656588 16.756819 7.890625 16.777344 C 7.9123765 16.804166 7.9226238 16.838639 7.9472656 16.863281 C 7.9719075 16.887923 8.006381 16.89817 8.0332031 16.919922 C 8.053728 16.944888 8.0628864 16.976949 8.0859375 17 C 8.10964 17.023703 8.1422446 17.033657 8.1679688 17.054688 C 8.1889989 17.080412 8.1989538 17.113016 8.2226562 17.136719 C 8.2463587 17.160421 8.2789633 17.170376 8.3046875 17.191406 C 8.3257177 17.21713 8.3356725 17.249735 8.359375 17.273438 C 8.3826871 17.29675 8.4141835 17.307397 8.4394531 17.328125 C 8.460181 17.353395 8.4708285 17.384891 8.4941406 17.408203 C 8.5174528 17.431515 8.5489491 17.442163 8.5742188 17.462891 C 8.5949466 17.48816 8.6055941 17.519657 8.6289062 17.542969 C 8.6522184 17.566281 8.6837148 17.576928 8.7089844 17.597656 C 8.7297127 17.622926 8.7403591 17.654422 8.7636719 17.677734 C 8.786723 17.700785 8.8187838 17.709944 8.84375 17.730469 C 8.8642749 17.755435 8.8734333 17.787496 8.8964844 17.810547 C 8.9195355 17.833598 8.9515963 17.842756 8.9765625 17.863281 C 8.9970874 17.888248 9.0062458 17.920308 9.0292969 17.943359 C 9.0513063 17.965369 9.0817091 17.974432 9.1054688 17.994141 C 9.1264229 18.01975 9.1365521 18.052568 9.1601562 18.076172 C 9.1837604 18.099776 9.2165779 18.109905 9.2421875 18.130859 C 9.2618958 18.154619 9.2709591 18.185022 9.2929688 18.207031 C 9.3153685 18.229431 9.3468828 18.237797 9.3710938 18.257812 C 9.3911092 18.282023 9.3994752 18.313538 9.421875 18.335938 C 9.4445358 18.358598 9.4754868 18.368452 9.5 18.388672 C 9.5202201 18.413185 9.5300736 18.444136 9.5527344 18.466797 C 9.5751342 18.489197 9.6066484 18.497563 9.6308594 18.517578 C 9.6508748 18.541789 9.6592408 18.573303 9.6816406 18.595703 C 9.7036501 18.617713 9.7340529 18.626776 9.7578125 18.646484 C 9.7775207 18.670244 9.7865843 18.700647 9.8085938 18.722656 C 9.8306032 18.744666 9.861006 18.753729 9.8847656 18.773438 C 9.9044738 18.797197 9.9135374 18.8276 9.9355469 18.849609 C 9.957465 18.871527 9.9880645 18.880755 10.011719 18.900391 C 10.031427 18.92415 10.040491 18.954553 10.0625 18.976562 C 10.084509 18.998572 10.114912 19.007636 10.138672 19.027344 C 10.15838 19.051103 10.167444 19.081506 10.189453 19.103516 C 10.211072 19.125135 10.240363 19.134898 10.263672 19.154297 C 10.283071 19.177606 10.292834 19.206897 10.314453 19.228516 C 10.335421 19.249483 10.364159 19.258463 10.386719 19.277344 C 10.406355 19.300998 10.415582 19.331598 10.4375 19.353516 C 10.459478 19.375494 10.489948 19.384613 10.513672 19.404297 C 10.532553 19.426857 10.541532 19.455595 10.5625 19.476562 C 10.583858 19.497921 10.61371 19.506199 10.636719 19.525391 C 10.655911 19.548399 10.664189 19.578251 10.685547 19.599609 C 10.706515 19.620577 10.735252 19.629557 10.757812 19.648438 C 10.776693 19.670998 10.785673 19.699735 10.806641 19.720703 C 10.827608 19.741671 10.856346 19.75065 10.878906 19.769531 C 10.897787 19.792091 10.906767 19.820829 10.927734 19.841797 C 10.948702 19.862765 10.97744 19.871744 11 19.890625 C 11.018881 19.913185 11.02786 19.941923 11.048828 19.962891 C 11.069796 19.983858 11.098534 19.992838 11.121094 20.011719 C 11.139974 20.034279 11.148954 20.063017 11.169922 20.083984 C 11.190629 20.104691 11.219927 20.112188 11.242188 20.130859 C 11.260859 20.15312 11.268356 20.182418 11.289062 20.203125 C 11.309379 20.223441 11.337561 20.231642 11.359375 20.25 C 11.377733 20.271814 11.385934 20.299996 11.40625 20.320312 C 11.425915 20.339978 11.453539 20.347403 11.474609 20.365234 C 11.493731 20.388142 11.502168 20.418183 11.523438 20.439453 C 11.544318 20.460334 11.573243 20.46947 11.595703 20.488281 C 11.613217 20.508907 11.62135 20.535413 11.640625 20.554688 C 11.660941 20.575004 11.689124 20.583205 11.710938 20.601562 C 11.729296 20.623376 11.737496 20.651559 11.757812 20.671875 C 11.777739 20.691801 11.804804 20.700707 11.826172 20.71875 C 11.844215 20.740118 11.853121 20.767183 11.873047 20.787109 C 11.892973 20.807036 11.920039 20.815942 11.941406 20.833984 C 11.959449 20.855352 11.968355 20.882418 11.988281 20.902344 C 12.007946 20.922009 12.035571 20.929434 12.056641 20.947266 C 12.074472 20.968336 12.081897 20.99596 12.101562 21.015625 C 12.121228 21.03529 12.148852 21.042716 12.169922 21.060547 C 12.187753 21.081617 12.195179 21.109241 12.214844 21.128906 C 12.234509 21.148571 12.262133 21.155997 12.283203 21.173828 C 12.301034 21.194898 12.30846 21.222522 12.328125 21.242188 C 12.3474 21.261462 12.373906 21.269596 12.394531 21.287109 C 12.412045 21.307735 12.420178 21.334241 12.439453 21.353516 C 12.458728 21.37279 12.485234 21.380924 12.505859 21.398438 C 12.523373 21.419063 12.531507 21.445569 12.550781 21.464844 C 12.569795 21.483858 12.596858 21.490512 12.617188 21.507812 C 12.634488 21.528142 12.641143 21.555205 12.660156 21.574219 C 12.67917 21.593232 12.706233 21.599887 12.726562 21.617188 C 12.743863 21.637517 12.750518 21.66458 12.769531 21.683594 C 12.788545 21.702607 12.815608 21.709262 12.835938 21.726562 C 12.853238 21.746892 12.859893 21.773955 12.878906 21.792969 C 12.89753 21.811592 12.923473 21.818958 12.943359 21.835938 C 12.960339 21.855824 12.967705 21.881767 12.986328 21.900391 C 13.004951 21.919014 13.030895 21.92638 13.050781 21.943359 C 13.067761 21.963246 13.075127 21.989189 13.09375 22.007812 C 13.112373 22.026436 13.138317 22.033801 13.158203 22.050781 C 13.175183 22.070668 13.182548 22.096611 13.201172 22.115234 C 13.219405 22.133467 13.244227 22.141545 13.263672 22.158203 C 13.28033 22.177648 13.288408 22.20247 13.306641 22.220703 C 13.324874 22.238936 13.349696 22.247014 13.369141 22.263672 C 13.385799 22.283117 13.393876 22.307939 13.412109 22.326172 C 13.430081 22.344144 13.455459 22.350745 13.474609 22.367188 C 13.491052 22.386338 13.497653 22.411716 13.515625 22.429688 C 13.533597 22.44766 13.558975 22.454261 13.578125 22.470703 C 13.594567 22.489853 13.601169 22.515231 13.619141 22.533203 C 13.637113 22.551175 13.662491 22.557777 13.681641 22.574219 C 13.698083 22.593369 13.704684 22.618747 13.722656 22.636719 C 13.740238 22.6543 13.764493 22.661616 13.783203 22.677734 C 13.799321 22.696444 13.806637 22.7207 13.824219 22.738281 C 13.8418 22.755863 13.866056 22.763179 13.884766 22.779297 C 13.900884 22.798007 13.9082 22.822262 13.925781 22.839844 C 13.942712 22.856774 13.966397 22.863333 13.984375 22.878906 C 14.000756 22.897973 14.007493 22.923508 14.025391 22.941406 C 14.043288 22.959304 14.068824 22.966041 14.087891 22.982422 C 14.103464 23.0004 14.110023 23.024085 14.126953 23.041016 C 14.143883 23.057946 14.167569 23.064504 14.185547 23.080078 C 14.201121 23.098056 14.207679 23.121742 14.224609 23.138672 C 14.24193 23.155993 14.26674 23.161834 14.285156 23.177734 C 14.301057 23.196151 14.306898 23.220961 14.324219 23.238281 C 14.341149 23.255212 14.364834 23.26177 14.382812 23.277344 C 14.398386 23.295322 14.404945 23.319007 14.421875 23.335938 C 14.438415 23.352477 14.460975 23.359754 14.478516 23.375 C 14.493761 23.392541 14.501038 23.415101 14.517578 23.431641 C 14.534509 23.448571 14.558194 23.455129 14.576172 23.470703 C 14.591746 23.488681 14.598304 23.512366 14.615234 23.529297 C 14.631123 23.545185 14.653108 23.551711 14.669922 23.566406 C 14.685437 23.584306 14.692124 23.60814 14.708984 23.625 C 14.725844 23.64186 14.749679 23.648548 14.767578 23.664062 C 14.782273 23.680876 14.788799 23.702861 14.804688 23.71875 C 14.820966 23.735029 14.844079 23.740834 14.861328 23.755859 C 14.876354 23.773109 14.882158 23.796221 14.898438 23.8125 C 14.914716 23.828779 14.937829 23.834584 14.955078 23.849609 C 14.970104 23.866859 14.975908 23.889971 14.992188 23.90625 C 15.008076 23.922139 15.030061 23.928665 15.046875 23.943359 C 15.06157 23.960173 15.068096 23.982158 15.083984 23.998047 C 15.099873 24.013936 15.121858 24.020461 15.138672 24.035156 C 15.153367 24.05197 15.159893 24.073955 15.175781 24.089844 C 15.19167 24.105732 15.213655 24.112258 15.230469 24.126953 C 15.245164 24.143767 15.251689 24.165752 15.267578 24.181641 C 15.283206 24.197268 15.305742 24.202324 15.322266 24.216797 C 15.336739 24.23332 15.341794 24.255857 15.357422 24.271484 C 15.373049 24.287112 15.395586 24.292168 15.412109 24.306641 C 15.426582 24.323164 15.431638 24.345701 15.447266 24.361328 C 15.462503 24.376565 15.483911 24.382344 15.5 24.396484 C 15.51414 24.412574 15.519919 24.433981 15.535156 24.449219 C 15.550394 24.464456 15.571801 24.470235 15.587891 24.484375 C 15.60203 24.500465 15.60781 24.521872 15.623047 24.537109 C 15.638284 24.552347 15.659692 24.558126 15.675781 24.572266 C 15.689921 24.588355 15.6957 24.609763 15.710938 24.625 C 15.725784 24.639847 15.746062 24.646351 15.761719 24.660156 C 15.775524 24.675813 15.782028 24.69609 15.796875 24.710938 C 15.811722 24.725784 15.831999 24.732288 15.847656 24.746094 C 15.861462 24.761751 15.867965 24.782028 15.882812 24.796875 C 15.897008 24.811071 15.916704 24.816834 15.931641 24.830078 C 15.945726 24.846097 15.951623 24.867638 15.966797 24.882812 C 15.981971 24.897987 16.003512 24.903883 16.019531 24.917969 C 16.032775 24.932906 16.038539 24.952601 16.052734 24.966797 C 16.06693 24.980992 16.086625 24.986756 16.101562 25 C 16.114806 25.014937 16.12057 25.034633 16.134766 25.048828 C 16.149291 25.063354 16.170245 25.068502 16.185547 25.082031 C 16.199128 25.097399 16.204164 25.118227 16.21875 25.132812 C 16.232946 25.147008 16.252641 25.152772 16.267578 25.166016 C 16.280822 25.180953 16.286586 25.200648 16.300781 25.214844 C 16.314326 25.228388 16.333436 25.233416 16.347656 25.246094 C 16.361185 25.261395 16.366334 25.282349 16.380859 25.296875 C 16.395385 25.311401 16.416339 25.316549 16.431641 25.330078 C 16.444319 25.344298 16.449346 25.363409 16.462891 25.376953 C 16.476825 25.390888 16.497069 25.395185 16.511719 25.408203 C 16.524736 25.422853 16.529034 25.443097 16.542969 25.457031 C 16.556513 25.470575 16.575623 25.475603 16.589844 25.488281 C 16.602522 25.502502 16.60755 25.521612 16.621094 25.535156 C 16.634638 25.5487 16.653748 25.553728 16.667969 25.566406 C 16.680647 25.580627 16.685675 25.599737 16.699219 25.613281 C 16.712763 25.626825 16.731874 25.631853 16.746094 25.644531 C 16.758772 25.658752 16.7638 25.677862 16.777344 25.691406 C 16.790498 25.70456 16.808474 25.710319 16.822266 25.722656 C 16.834603 25.736448 16.840362 25.754424 16.853516 25.767578 C 16.86667 25.780732 16.884645 25.786491 16.898438 25.798828 C 16.910775 25.81262 16.916534 25.830596 16.929688 25.84375 C 16.942841 25.856904 16.960817 25.862663 16.974609 25.875 C 16.986947 25.888792 16.992705 25.906768 17.005859 25.919922 C 17.018752 25.932815 17.037275 25.93711 17.050781 25.949219 C 17.06289 25.962725 17.067185 25.981248 17.080078 25.994141 C 17.092971 26.007034 17.111494 26.011329 17.125 26.023438 C 17.137109 26.036944 17.141404 26.055466 17.154297 26.068359 C 17.166799 26.080862 17.184186 26.085891 17.197266 26.097656 C 17.209031 26.110736 17.21406 26.128122 17.226562 26.140625 C 17.239065 26.153128 17.256451 26.158157 17.269531 26.169922 C 17.281296 26.183002 17.286326 26.200388 17.298828 26.212891 C 17.311331 26.225393 17.328717 26.230422 17.341797 26.242188 C 17.353562 26.255267 17.358591 26.272654 17.371094 26.285156 C 17.383335 26.297398 17.401267 26.300965 17.414062 26.3125 C 17.425597 26.325295 17.429165 26.343227 17.441406 26.355469 C 17.453648 26.36771 17.47158 26.371278 17.484375 26.382812 C 17.49591 26.395608 17.499477 26.41354 17.511719 26.425781 C 17.52396 26.438023 17.541892 26.44159 17.554688 26.453125 C 17.566222 26.46592 17.56979 26.483852 17.582031 26.496094 C 17.593883 26.507945 17.610676 26.512249 17.623047 26.523438 C 17.634236 26.535808 17.638539 26.552602 17.650391 26.564453 C 17.662242 26.576304 17.679035 26.580608 17.691406 26.591797 C 17.702595 26.604168 17.706899 26.620961 17.71875 26.632812 C 17.730211 26.644273 17.745865 26.649314 17.757812 26.660156 C 17.768654 26.672103 17.773695 26.687758 17.785156 26.699219 C 17.796617 26.71068 17.812272 26.715721 17.824219 26.726562 C 17.835061 26.73851 17.840102 26.754164 17.851562 26.765625 C 17.863023 26.777086 17.878678 26.782127 17.890625 26.792969 C 17.901467 26.804916 17.906508 26.82057 17.917969 26.832031 C 17.929169 26.843231 17.945367 26.846813 17.957031 26.857422 C 17.96764 26.869086 17.971222 26.885285 17.982422 26.896484 C 17.993622 26.907684 18.00982 26.911266 18.021484 26.921875 C 18.032093 26.93354 18.035675 26.949738 18.046875 26.960938 C 18.058075 26.972137 18.074273 26.975719 18.085938 26.986328 C 18.096546 26.997993 18.100128 27.014191 18.111328 27.025391 C 18.122138 27.0362 18.137195 27.040522 18.148438 27.050781 C 18.158697 27.062024 18.163019 27.077081 18.173828 27.087891 C 18.184377 27.098439 18.199976 27.101304 18.210938 27.111328 C 18.220962 27.122289 18.223826 27.137889 18.234375 27.148438 C 18.245185 27.159247 18.260242 27.163569 18.271484 27.173828 C 18.281743 27.185071 18.286065 27.200128 18.296875 27.210938 C 18.307424 27.221486 18.323023 27.224351 18.333984 27.234375 C 18.344009 27.245336 18.346873 27.260936 18.357422 27.271484 C 18.36758 27.281643 18.382037 27.28525 18.392578 27.294922 C 18.40225 27.305463 18.405857 27.31992 18.416016 27.330078 C 18.426564 27.340627 18.442164 27.343491 18.453125 27.353516 C 18.463149 27.364477 18.466014 27.380076 18.476562 27.390625 C 18.485679 27.399742 18.498387 27.403384 18.507812 27.412109 C 18.518031 27.423303 18.522439 27.438454 18.533203 27.449219 C 18.543739 27.459754 18.559365 27.462644 18.570312 27.472656 C 18.579394 27.482499 18.58229 27.496353 18.591797 27.505859 C 18.601565 27.515627 18.614877 27.519978 18.625 27.529297 C 18.634319 27.539419 18.63867 27.552732 18.648438 27.5625 C 18.658205 27.572268 18.671518 27.576619 18.681641 27.585938 C 18.690959 27.59606 18.69531 27.609373 18.705078 27.619141 C 18.714585 27.628648 18.728438 27.631544 18.738281 27.640625 C 18.747363 27.650468 18.750259 27.664321 18.759766 27.673828 C 18.769273 27.683335 18.783126 27.686231 18.792969 27.695312 C 18.80205 27.705156 18.804946 27.719009 18.814453 27.728516 C 18.82396 27.738022 18.837813 27.740919 18.847656 27.75 C 18.856702 27.759801 18.859673 27.773735 18.869141 27.783203 C 18.878257 27.79232 18.890965 27.795962 18.900391 27.804688 C 18.909116 27.814113 18.912759 27.826821 18.921875 27.835938 C 18.93034 27.844403 18.94244 27.847341 18.951172 27.855469 C 18.960242 27.865298 18.963162 27.879178 18.972656 27.888672 C 18.982383 27.898398 18.995781 27.902828 19.005859 27.912109 C 19.013628 27.920428 19.017316 27.931378 19.025391 27.939453 C 19.034246 27.948309 19.047493 27.950498 19.056641 27.958984 C 19.065127 27.968132 19.067316 27.981379 19.076172 27.990234 C 19.085027 27.99909 19.098274 28.001279 19.107422 28.009766 C 19.115908 28.018913 19.118098 28.03216 19.126953 28.041016 C 19.135418 28.049481 19.147518 28.052419 19.15625 28.060547 C 19.164378 28.069279 19.167316 28.081379 19.175781 28.089844 C 19.184246 28.098309 19.196346 28.101247 19.205078 28.109375 C 19.213206 28.118107 19.216144 28.130207 19.224609 28.138672 C 19.232684 28.146747 19.243635 28.150435 19.251953 28.158203 C 19.259721 28.166521 19.26341 28.177472 19.271484 28.185547 C 19.278908 28.19297 19.289246 28.19596 19.296875 28.203125 C 19.305566 28.21251 19.309281 28.225297 19.318359 28.234375 C 19.327179 28.243194 19.3405 28.245453 19.349609 28.253906 C 19.356531 28.261261 19.358072 28.272134 19.365234 28.279297 C 19.373309 28.287372 19.38426 28.29106 19.392578 28.298828 C 19.400346 28.307146 19.404035 28.318097 19.412109 28.326172 C 19.419923 28.333986 19.431411 28.336223 19.439453 28.34375 C 19.44698 28.351792 19.449217 28.36328 19.457031 28.371094 C 19.464455 28.378517 19.474792 28.381507 19.482422 28.388672 C 19.489586 28.396301 19.492576 28.406639 19.5 28.414062 C 19.506772 28.420835 19.516494 28.423131 19.523438 28.429688 C 19.531533 28.438383 19.534539 28.450554 19.542969 28.458984 C 19.551009 28.467025 19.562031 28.470779 19.570312 28.478516 C 19.576503 28.48505 19.579556 28.493618 19.585938 28.5 C 19.593361 28.507423 19.603699 28.510414 19.611328 28.517578 C 19.618493 28.525208 19.621483 28.535545 19.628906 28.542969 C 19.636069 28.550131 19.646943 28.551672 19.654297 28.558594 C 19.661218 28.565948 19.662759 28.576822 19.669922 28.583984 C 19.677084 28.591147 19.687958 28.592688 19.695312 28.599609 C 19.702234 28.606964 19.703775 28.617838 19.710938 28.625 C 19.71771 28.631772 19.727431 28.634068 19.734375 28.640625 C 19.740932 28.647569 19.743228 28.65729 19.75 28.664062 C 19.756772 28.670835 19.766494 28.673131 19.773438 28.679688 C 19.779994 28.686631 19.78229 28.696353 19.789062 28.703125 C 19.795835 28.709897 19.805556 28.712193 19.8125 28.71875 C 19.819057 28.725694 19.821353 28.735415 19.828125 28.742188 C 19.834507 28.748569 19.843075 28.751622 19.849609 28.757812 C 19.8558 28.764347 19.858853 28.772915 19.865234 28.779297 C 19.871616 28.785679 19.880184 28.788731 19.886719 28.794922 C 19.892909 28.801456 19.895962 28.810024 19.902344 28.816406 C 19.908465 28.822527 19.917567 28.824133 19.923828 28.830078 C 19.929773 28.836339 19.931379 28.845442 19.9375 28.851562 C 19.943621 28.857683 19.952723 28.859289 19.958984 28.865234 C 19.964929 28.871496 19.966535 28.880598 19.972656 28.886719 C 19.978777 28.89284 19.987879 28.894446 19.994141 28.900391 C 20.000086 28.906652 20.001692 28.915754 20.007812 28.921875 C 20.013543 28.927605 20.02149 28.929971 20.027344 28.935547 C 20.03292 28.9414 20.035285 28.949348 20.041016 28.955078 C 20.046746 28.960809 20.054693 28.963174 20.060547 28.96875 C 20.066123 28.974604 20.068488 28.982551 20.074219 28.988281 C 20.078908 28.99297 20.085072 28.995414 20.089844 29 C 20.096009 29.006506 20.099114 29.01513 20.105469 29.021484 C 20.111823 29.027839 20.120447 29.030944 20.126953 29.037109 C 20.131539 29.041881 20.133983 29.048046 20.138672 29.052734 C 20.143751 29.057813 20.151074 29.059495 20.15625 29.064453 C 20.161208 29.069629 20.16289 29.076952 20.167969 29.082031 C 20.173416 29.087479 20.181941 29.088442 20.1875 29.09375 C 20.192829 29.099332 20.193749 29.107812 20.199219 29.113281 C 20.204298 29.11836 20.211621 29.120042 20.216797 29.125 C 20.221755 29.130176 20.223437 29.137499 20.228516 29.142578 C 20.232553 29.146616 20.238089 29.148383 20.242188 29.152344 C 20.247741 29.158172 20.250153 29.166169 20.255859 29.171875 C 20.261566 29.177581 20.269562 29.179993 20.275391 29.185547 C 20.279352 29.189646 20.281119 29.195181 20.285156 29.199219 C 20.289845 29.203908 20.29601 29.206352 20.300781 29.210938 C 20.305367 29.215709 20.307811 29.221874 20.3125 29.226562 C 20.316928 29.23099 20.323623 29.231992 20.328125 29.236328 C 20.332461 29.24083 20.333463 29.247525 20.337891 29.251953 C 20.342318 29.256381 20.349014 29.257383 20.353516 29.261719 C 20.357851 29.26622 20.358854 29.272916 20.363281 29.277344 C 20.367709 29.281772 20.374405 29.282774 20.378906 29.287109 C 20.383242 29.291611 20.384244 29.298307 20.388672 29.302734 C 20.392709 29.306772 20.398245 29.308539 20.402344 29.3125 C 20.406305 29.316599 20.408072 29.322134 20.412109 29.326172 C 20.416147 29.330209 20.421682 29.331976 20.425781 29.335938 C 20.429742 29.340036 20.431509 29.345572 20.435547 29.349609 C 20.439584 29.353647 20.44512 29.355414 20.449219 29.359375 C 20.45318 29.363474 20.454947 29.369009 20.458984 29.373047 C 20.462761 29.376823 20.468826 29.37715 20.472656 29.380859 C 20.476366 29.38469 20.476692 29.390755 20.480469 29.394531 C 20.484245 29.398308 20.49031 29.398634 20.494141 29.402344 C 20.49785 29.406174 20.498177 29.412239 20.501953 29.416016 C 20.505339 29.419402 20.510243 29.420496 20.513672 29.423828 C 20.517004 29.427257 20.518098 29.432161 20.521484 29.435547 C 20.524219 29.438282 20.528487 29.438707 20.53125 29.441406 C 20.535569 29.445889 20.536606 29.452622 20.541016 29.457031 C 20.545036 29.461052 20.550606 29.462852 20.554688 29.466797 C 20.557006 29.469162 20.558202 29.472265 20.560547 29.474609 C 20.562891 29.476954 20.565994 29.47815 20.568359 29.480469 C 20.572304 29.48455 20.574105 29.49012 20.578125 29.494141 C 20.581886 29.497902 20.587982 29.498258 20.591797 29.501953 C 20.59386 29.504053 20.59362 29.507682 20.595703 29.509766 C 20.598686 29.512748 20.602453 29.514637 20.605469 29.517578 C 20.608422 29.520608 20.610286 29.524348 20.613281 29.527344 C 20.616016 29.530078 20.620284 29.530503 20.623047 29.533203 C 20.625747 29.535966 20.626172 29.540234 20.628906 29.542969 C 20.631641 29.545703 20.635909 29.546128 20.638672 29.548828 C 20.641372 29.551591 20.641797 29.555859 20.644531 29.558594 C 20.646876 29.560938 20.649979 29.562134 20.652344 29.564453 C 20.654662 29.566818 20.655859 29.569921 20.658203 29.572266 C 20.660548 29.57461 20.66365 29.575806 20.666016 29.578125 C 20.668334 29.58049 20.669531 29.583593 20.671875 29.585938 C 20.674219 29.588282 20.677322 29.589478 20.679688 29.591797 C 20.682006 29.594162 20.683202 29.597265 20.685547 29.599609 C 20.68763 29.601693 20.69126 29.601453 20.693359 29.603516 C 20.695422 29.605615 20.695182 29.609245 20.697266 29.611328 C 20.699349 29.613411 20.702978 29.613171 20.705078 29.615234 C 20.707141 29.617334 20.706901 29.620964 20.708984 29.623047 C 20.711068 29.62513 20.714697 29.62489 20.716797 29.626953 C 20.71886 29.629053 20.71862 29.632682 20.720703 29.634766 C 20.722396 29.636459 20.724859 29.636992 20.726562 29.638672 C 20.728242 29.640376 20.728776 29.642838 20.730469 29.644531 C 20.732162 29.646224 20.734624 29.646758 20.736328 29.648438 C 20.738008 29.650141 20.738541 29.652604 20.740234 29.654297 C 20.741537 29.6556 20.742831 29.656908 20.744141 29.658203 C 20.745435 29.659512 20.746744 29.660807 20.748047 29.662109 C 20.74935 29.663412 20.750644 29.664721 20.751953 29.666016 C 20.753248 29.667325 20.754557 29.668619 20.755859 29.669922 C 20.757162 29.671225 20.758456 29.672533 20.759766 29.673828 C 20.76106 29.675137 20.762369 29.676432 20.763672 29.677734 C 20.764714 29.678776 20.766532 29.678651 20.767578 29.679688 C 20.768615 29.680733 20.76849 29.682552 20.769531 29.683594 C 20.770573 29.684635 20.772392 29.68451 20.773438 29.685547 C 20.774474 29.686593 20.774349 29.688411 20.775391 29.689453 C 20.775391 29.689453 20.777344 29.691406 20.777344 29.691406 C 20.777344 29.691406 20.779297 29.693359 20.779297 29.693359 C 20.779297 29.693359 20.78125 29.695312 20.78125 29.695312 C 20.78125 29.695312 20.783203 29.697266 20.783203 29.697266 C 20.783203 29.697266 20.785156 29.699219 20.785156 29.699219 C 20.785156 29.699219 20.787109 29.701172 20.787109 29.701172 C 20.787109 29.701172 20.789062 29.701172 20.789062 29.701172 C 20.789062 29.701172 20.789062 29.703125 20.789062 29.703125 C 20.790357 29.704434 20.791666 29.705729 20.792969 29.707031 C 20.885434 29.799497 20.995036 29.87019 21.113281 29.919922 C 21.113281 29.919922 21.115234 29.921875 21.115234 29.921875 C 21.236116 29.97233 21.36647 30 21.5 30 L 28.5 30 C 28.765253 30 29.019499 29.894562 29.207031 29.707031 C 29.394569 29.519499 29.499996 29.265215 29.5 29 L 29.5 22.5 C 29.5 22.366474 29.472329 22.236153 29.421875 22.115234 C 29.372444 21.995739 29.299855 21.886309 29.207031 21.792969 C 29.205338 21.791276 29.202876 21.790742 29.201172 21.789062 C 29.201172 21.789062 29.201172 21.787109 29.201172 21.787109 C 29.201172 21.787109 29.199219 21.785156 29.199219 21.785156 C 29.199219 21.785156 29.197266 21.783203 29.197266 21.783203 C 29.197266 21.783203 29.195312 21.78125 29.195312 21.78125 C 29.195312 21.78125 29.193359 21.779297 29.193359 21.779297 C 29.193359 21.779297 29.191406 21.777344 29.191406 21.777344 C 29.191406 21.777344 29.189453 21.775391 29.189453 21.775391 C 29.188413 21.774348 29.186591 21.774475 29.185547 21.773438 C 29.184524 21.772405 29.184622 21.770559 29.183594 21.769531 C 29.182554 21.768489 29.180732 21.768615 29.179688 21.767578 C 29.178665 21.766546 29.178762 21.7647 29.177734 21.763672 C 29.175655 21.761587 29.172018 21.759877 29.169922 21.757812 C 29.168616 21.756502 29.167328 21.755208 29.166016 21.753906 C 29.164755 21.75263 29.163378 21.751269 29.162109 21.75 C 29.160804 21.74869 29.159515 21.747396 29.158203 21.746094 C 29.156943 21.744818 29.155565 21.743455 29.154297 21.742188 C 29.154297 21.742188 29.152344 21.740234 29.152344 21.740234 C 29.150097 21.737936 29.148755 21.734692 29.146484 21.732422 C 29.143761 21.729682 29.13947 21.729267 29.136719 21.726562 C 29.135718 21.725551 29.135771 21.723662 29.134766 21.722656 C 29.133074 21.720953 29.130609 21.72044 29.128906 21.71875 C 29.127293 21.717109 29.126626 21.714517 29.125 21.712891 C 29.12227 21.710139 29.117993 21.709748 29.115234 21.707031 C 29.114239 21.706025 29.114281 21.704125 29.113281 21.703125 C 29.110948 21.70077 29.107823 21.699595 29.105469 21.697266 C 29.103864 21.695632 29.103179 21.693023 29.101562 21.691406 C 29.099879 21.689706 29.097397 21.689187 29.095703 21.6875 C 29.093143 21.684863 29.092436 21.680326 29.089844 21.677734 C 29.086471 21.674323 29.081542 21.67328 29.078125 21.669922 C 29.077144 21.66893 29.077157 21.667001 29.076172 21.666016 C 29.072812 21.662613 29.067857 21.661553 29.064453 21.658203 C 29.062879 21.656599 29.062132 21.653929 29.060547 21.652344 C 29.058212 21.649976 29.055091 21.648827 29.052734 21.646484 C 29.050232 21.643901 29.049408 21.639252 29.046875 21.636719 C 29.043906 21.633704 29.040112 21.63188 29.037109 21.628906 C 29.034979 21.626715 29.033403 21.623246 29.03125 21.621094 C 29.027255 21.61703 29.021635 21.615316 29.017578 21.611328 C 29.016047 21.609765 29.015214 21.607011 29.013672 21.605469 C 29.010312 21.602046 29.005357 21.601026 29.001953 21.597656 C 29.000065 21.595718 28.999952 21.591749 28.998047 21.589844 C 28.995357 21.587099 28.991 21.586695 28.988281 21.583984 C 28.985168 21.580727 28.98363 21.575427 28.980469 21.572266 C 28.976499 21.568207 28.970829 21.566483 28.966797 21.5625 C 28.964641 21.560273 28.963116 21.556866 28.960938 21.554688 C 28.957981 21.55166 28.954163 21.549861 28.951172 21.546875 C 28.94786 21.543388 28.944773 21.538523 28.941406 21.535156 C 28.938073 21.531736 28.933065 21.530711 28.929688 21.527344 C 28.926649 21.524153 28.924959 21.518709 28.921875 21.515625 C 28.917524 21.511152 28.910676 21.510242 28.90625 21.505859 C 28.903797 21.503304 28.902873 21.498577 28.900391 21.496094 C 28.897053 21.492656 28.892054 21.491666 28.888672 21.488281 C 28.885092 21.484474 28.88255 21.478253 28.878906 21.474609 C 28.875574 21.471169 28.870565 21.470184 28.867188 21.466797 C 28.863594 21.462967 28.861079 21.456782 28.857422 21.453125 C 28.853452 21.449018 28.847783 21.44739 28.84375 21.443359 C 28.840216 21.439588 28.837581 21.433284 28.833984 21.429688 C 28.82938 21.424914 28.823049 21.42264 28.818359 21.417969 C 28.815728 21.415201 28.813213 21.410869 28.810547 21.408203 C 28.806601 21.404103 28.800884 21.402462 28.796875 21.398438 C 28.793353 21.394662 28.790694 21.38835 28.787109 21.384766 C 28.782533 21.379998 28.776146 21.377713 28.771484 21.373047 C 28.767995 21.3693 28.76527 21.362926 28.761719 21.359375 C 28.756123 21.353532 28.74791 21.351394 28.742188 21.345703 C 28.73928 21.342611 28.737325 21.336934 28.734375 21.333984 C 28.729783 21.329177 28.723429 21.326971 28.71875 21.322266 C 28.715325 21.318574 28.712469 21.312078 28.708984 21.308594 C 28.704039 21.303403 28.696452 21.301946 28.691406 21.296875 C 28.68769 21.292833 28.685427 21.285036 28.681641 21.28125 C 28.676705 21.276056 28.669099 21.274606 28.664062 21.269531 C 28.660362 21.265497 28.658067 21.257676 28.654297 21.253906 C 28.648102 21.247368 28.639166 21.244631 28.632812 21.238281 C 28.629998 21.235268 28.627854 21.229417 28.625 21.226562 C 28.619428 21.220665 28.61117 21.218635 28.605469 21.212891 C 28.601836 21.208913 28.599403 21.200965 28.595703 21.197266 C 28.589136 21.190295 28.579013 21.188398 28.572266 21.181641 C 28.569184 21.178303 28.567582 21.171098 28.564453 21.167969 C 28.557608 21.160682 28.548057 21.157446 28.541016 21.150391 C 28.53826 21.147424 28.535997 21.141465 28.533203 21.138672 C 28.527027 21.132077 28.518056 21.129453 28.511719 21.123047 C 28.508162 21.119123 28.505574 21.111043 28.501953 21.107422 C 28.495791 21.100821 28.486793 21.098209 28.480469 21.091797 C 28.476931 21.087882 28.474305 21.079774 28.470703 21.076172 C 28.463557 21.068492 28.452676 21.066019 28.445312 21.058594 C 28.44231 21.055311 28.440549 21.04797 28.4375 21.044922 C 28.429765 21.036582 28.418148 21.033431 28.410156 21.025391 C 28.407195 21.022148 28.40535 21.014725 28.402344 21.011719 C 28.395589 21.004411 28.385858 21.00122 28.378906 20.994141 C 28.37547 20.99031 28.372638 20.982013 28.369141 20.978516 C 28.361775 20.97052 28.351352 20.966707 28.34375 20.958984 C 28.340347 20.955182 28.337447 20.946822 28.333984 20.943359 C 28.325649 20.934279 28.313326 20.930604 28.304688 20.921875 C 28.301798 20.918688 28.299807 20.911135 28.296875 20.908203 C 28.288527 20.899077 28.276232 20.895492 28.267578 20.886719 C 28.264717 20.883556 28.262669 20.87595 28.259766 20.873047 C 28.251824 20.864332 28.240643 20.859957 28.232422 20.851562 C 28.229142 20.847871 28.225992 20.839273 28.222656 20.835938 C 28.213729 20.826105 28.200687 20.821926 28.191406 20.8125 C 28.18862 20.809408 28.18642 20.801655 28.183594 20.798828 C 28.175305 20.789664 28.162893 20.786157 28.154297 20.777344 C 28.15123 20.773893 28.1496 20.764834 28.146484 20.761719 C 28.136976 20.751164 28.123196 20.746418 28.113281 20.736328 C 28.11054 20.73327 28.108249 20.725437 28.105469 20.722656 C 28.096572 20.712741 28.083475 20.708727 28.074219 20.699219 C 28.071211 20.695817 28.069461 20.686649 28.066406 20.683594 C 28.056366 20.672358 28.041751 20.666964 28.03125 20.65625 C 28.028582 20.653261 28.026143 20.645284 28.023438 20.642578 C 28.013935 20.631901 28.000152 20.627396 27.990234 20.617188 C 27.987574 20.614198 27.985119 20.606213 27.982422 20.603516 C 27.972627 20.592463 27.957505 20.588678 27.947266 20.578125 C 27.944102 20.574479 27.94267 20.563763 27.939453 20.560547 C 27.929073 20.548783 27.913227 20.544404 27.902344 20.533203 C 27.899889 20.530449 27.898971 20.522018 27.896484 20.519531 C 27.885558 20.507093 27.868909 20.502045 27.857422 20.490234 C 27.855016 20.487531 27.853999 20.478999 27.851562 20.476562 C 27.841588 20.465157 27.826853 20.4601 27.816406 20.449219 C 27.813593 20.445985 27.811449 20.436449 27.808594 20.433594 C 27.797084 20.420373 27.77972 20.414863 27.767578 20.402344 C 27.765211 20.399669 27.764116 20.391069 27.761719 20.388672 C 27.751159 20.376485 27.735707 20.370969 27.724609 20.359375 C 27.721871 20.356212 27.719575 20.346528 27.716797 20.34375 C 27.705403 20.330538 27.687805 20.325018 27.675781 20.3125 C 27.673468 20.309874 27.672264 20.30117 27.669922 20.298828 C 27.657917 20.28484 27.639663 20.278839 27.626953 20.265625 C 27.624678 20.263038 27.623397 20.254256 27.621094 20.251953 C 27.609084 20.237891 27.590847 20.232035 27.578125 20.21875 C 27.575873 20.216182 27.574545 20.207358 27.572266 20.205078 C 27.560339 20.191043 27.541932 20.18514 27.529297 20.171875 C 27.526819 20.169002 27.525949 20.158761 27.523438 20.15625 C 27.511201 20.141777 27.493458 20.134752 27.480469 20.121094 C 27.478532 20.118909 27.476566 20.111332 27.474609 20.109375 C 27.462125 20.094532 27.442962 20.08821 27.429688 20.074219 C 27.427267 20.071396 27.426281 20.061046 27.423828 20.058594 C 27.410195 20.0423 27.389582 20.034803 27.375 20.019531 C 27.373482 20.01785 27.372625 20.011297 27.371094 20.009766 C 27.358431 19.99455 27.339663 19.986987 27.326172 19.972656 C 27.324067 19.970228 27.322442 19.961114 27.320312 19.958984 C 27.306779 19.942633 27.285973 19.935257 27.271484 19.919922 C 27.26975 19.917961 27.269329 19.909954 27.267578 19.908203 C 27.253834 19.891506 27.233488 19.882831 27.21875 19.867188 C 27.216948 19.865133 27.214711 19.857289 27.212891 19.855469 C 27.199688 19.839338 27.180146 19.83156 27.166016 19.816406 C 27.163996 19.81406 27.162199 19.804777 27.160156 19.802734 C 27.145607 19.784857 27.123106 19.776449 27.107422 19.759766 C 27.106003 19.758181 27.104945 19.75143 27.103516 19.75 C 27.089827 19.733082 27.069394 19.724841 27.054688 19.708984 C 27.052722 19.706689 27.050815 19.6973 27.048828 19.695312 C 27.034024 19.676907 27.012099 19.667546 26.996094 19.650391 C 26.99471 19.648839 26.993582 19.642019 26.992188 19.640625 C 26.977498 19.622253 26.955337 19.612838 26.939453 19.595703 C 26.938093 19.594175 26.936918 19.587308 26.935547 19.585938 C 26.920395 19.56687 26.897296 19.556805 26.880859 19.539062 C 26.879521 19.537557 26.878301 19.530645 26.876953 19.529297 C 26.861812 19.510125 26.838705 19.500264 26.822266 19.482422 C 26.820942 19.480929 26.819693 19.47399 26.818359 19.472656 C 26.80323 19.453378 26.780112 19.443724 26.763672 19.425781 C 26.76215 19.424029 26.761301 19.415598 26.759766 19.414062 C 26.744133 19.394016 26.720172 19.383846 26.703125 19.365234 C 26.701842 19.363783 26.700511 19.356761 26.699219 19.355469 C 26.683334 19.334966 26.65994 19.323699 26.642578 19.304688 C 26.641537 19.303532 26.639719 19.297922 26.638672 19.296875 C 26.622044 19.275272 26.596388 19.264099 26.578125 19.244141 C 26.577175 19.243093 26.577127 19.237283 26.576172 19.236328 C 26.560437 19.215747 26.536752 19.204647 26.519531 19.185547 C 26.51831 19.184157 26.516855 19.177012 26.515625 19.175781 C 26.498535 19.153276 26.471984 19.141839 26.453125 19.121094 C 26.452416 19.120326 26.451884 19.115946 26.451172 19.115234 C 26.43473 19.093432 26.408728 19.082664 26.390625 19.0625 C 26.389507 19.061233 26.389797 19.053859 26.388672 19.052734 C 26.37149 19.029791 26.345187 19.017234 26.326172 18.996094 C 26.325485 18.995348 26.324909 18.990924 26.324219 18.990234 C 26.306502 18.966407 26.279456 18.953536 26.259766 18.931641 C 26.259291 18.931137 26.258289 18.92821 26.257812 18.927734 C 26.240745 18.904615 26.214239 18.892411 26.195312 18.871094 C 26.194446 18.870128 26.194231 18.864152 26.193359 18.863281 C 26.174722 18.837849 26.145876 18.824044 26.125 18.800781 C 26.125 18.800781 26.125 18.798828 26.125 18.798828 C 26.107303 18.774498 26.080295 18.760644 26.060547 18.738281 C 26.059903 18.737579 26.05924 18.733068 26.058594 18.732422 C 26.04045 18.707289 26.012515 18.692971 25.992188 18.669922 C 25.991746 18.669453 25.990677 18.666458 25.990234 18.666016 C 25.971844 18.640345 25.94254 18.627029 25.921875 18.603516 C 25.921495 18.603114 25.922256 18.59999 25.921875 18.599609 C 25.902855 18.572853 25.873047 18.557632 25.851562 18.533203 C 25.832655 18.506394 25.802629 18.489336 25.78125 18.464844 C 25.762388 18.437884 25.732296 18.423073 25.710938 18.398438 C 25.710574 18.398052 25.711302 18.394896 25.710938 18.394531 C 25.691659 18.366751 25.660595 18.351504 25.638672 18.326172 C 25.619254 18.297958 25.588549 18.281569 25.566406 18.255859 C 25.551285 18.233704 25.526581 18.221807 25.509766 18.201172 C 25.503969 18.196612 25.50004 18.189967 25.494141 18.185547 C 25.494141 18.185547 25.494141 18.183594 25.494141 18.183594 C 25.474377 18.154389 25.442595 18.137894 25.419922 18.111328 C 25.400217 18.081958 25.368347 18.065787 25.345703 18.039062 C 25.276558 17.935095 25.18568 17.847566 25.083984 17.779297 C 25.057672 17.756893 25.038339 17.722476 25.009766 17.703125 C 24.982697 17.679933 24.963076 17.648852 24.933594 17.628906 C 24.906408 17.605366 24.887081 17.57298 24.857422 17.552734 C 24.829823 17.528611 24.80948 17.497269 24.779297 17.476562 C 24.751402 17.452021 24.731734 17.419474 24.701172 17.398438 C 24.673482 17.373884 24.653399 17.341397 24.623047 17.320312 C 24.594963 17.29517 24.57383 17.263739 24.542969 17.242188 C 24.514137 17.216087 24.492742 17.182442 24.460938 17.160156 C 24.432844 17.134649 24.411798 17.101961 24.380859 17.080078 C 24.352392 17.053976 24.330259 17.022356 24.298828 17 C 24.270511 16.973851 24.250035 16.940396 24.21875 16.917969 C 24.189341 16.890461 24.165478 16.859393 24.132812 16.835938 C 24.104097 16.808865 24.082647 16.775147 24.050781 16.751953 C 24.021339 16.723975 23.997636 16.691844 23.964844 16.667969 C 23.935824 16.64021 23.913173 16.607744 23.880859 16.583984 C 23.850842 16.554848 23.826582 16.520905 23.792969 16.496094 C 23.763262 16.467154 23.738334 16.434852 23.705078 16.410156 C 23.675323 16.380944 23.650549 16.349152 23.617188 16.324219 C 23.587176 16.294523 23.563022 16.261648 23.529297 16.236328 C 23.498416 16.205471 23.472368 16.172673 23.4375 16.146484 C 23.408362 16.117249 23.384291 16.085626 23.351562 16.060547 C 23.320502 16.02878 23.295009 15.993767 23.259766 15.966797 C 23.22969 15.935984 23.203945 15.903271 23.169922 15.876953 C 23.13897 15.844893 23.11137 15.812415 23.076172 15.785156 C 23.045026 15.752649 23.017921 15.719026 22.982422 15.691406 C 22.951603 15.659101 22.92379 15.62712 22.888672 15.599609 C 22.857539 15.566544 22.830531 15.532032 22.794922 15.503906 C 22.763715 15.470546 22.734974 15.43658 22.699219 15.408203 C 22.668263 15.37491 22.638996 15.342826 22.603516 15.314453 C 22.572347 15.28063 22.543634 15.247553 22.507812 15.21875 C 22.475856 15.183698 22.445128 15.150824 22.408203 15.121094 C 22.377913 15.087698 22.349264 15.055957 22.314453 15.027344 C 22.282011 14.990841 22.250661 14.956696 22.212891 14.925781 C 22.18105 14.889957 22.150269 14.856624 22.113281 14.826172 C 22.08165 14.790205 22.050473 14.757191 22.013672 14.726562 C 21.981782 14.690062 21.949312 14.658003 21.912109 14.626953 C 21.88004 14.589919 21.848067 14.556878 21.810547 14.525391 C 21.778098 14.487508 21.745156 14.454031 21.707031 14.421875 C 21.675039 14.384316 21.643038 14.350338 21.605469 14.318359 C 21.573056 14.279971 21.538217 14.247465 21.5 14.214844 C 21.467412 14.175886 21.433076 14.142465 21.394531 14.109375 C 21.362048 14.070314 21.327526 14.037118 21.289062 14.003906 C 21.256711 13.964744 21.221947 13.931775 21.183594 13.898438 C 21.150894 13.858375 21.11512 13.825072 21.076172 13.791016 C 21.043644 13.750909 21.007531 13.717737 20.96875 13.683594 C 20.936058 13.643015 20.900407 13.608747 20.861328 13.574219 C 20.828861 13.533545 20.79082 13.501468 20.751953 13.466797 C 20.719081 13.425196 20.682116 13.390868 20.642578 13.355469 C 20.610177 13.314117 20.572178 13.281393 20.533203 13.246094 C 20.500128 13.203562 20.459926 13.170951 20.419922 13.134766 C 20.386957 13.09194 20.348561 13.057963 20.308594 13.021484 C 20.275874 12.97881 20.236937 12.944617 20.197266 12.908203 C 20.164203 12.864689 20.122295 12.832 20.082031 12.794922 C 20.049063 12.751068 20.009006 12.717096 19.96875 12.679688 C 19.936043 12.636004 19.895405 12.601787 19.855469 12.564453 C 19.822191 12.519592 19.779151 12.485504 19.738281 12.447266 C 19.705589 12.402877 19.663162 12.37001 19.623047 12.332031 C 19.589827 12.286316 19.546907 12.251913 19.505859 12.212891 C 19.473339 12.167955 19.428756 12.136179 19.388672 12.097656 C 19.355397 12.051113 19.310875 12.016319 19.269531 11.976562 C 19.236382 11.930018 19.191604 11.895273 19.150391 11.855469 C 19.117333 11.808613 19.072454 11.774488 19.03125 11.734375 C 18.998219 11.687348 18.951385 11.653566 18.910156 11.613281 C 18.877344 11.566172 18.83008 11.532613 18.789062 11.492188 C 18.756078 11.444169 18.709432 11.410331 18.667969 11.369141 C 18.634515 11.320214 18.585206 11.286024 18.542969 11.244141 C 18.51031 11.195972 18.463032 11.16253 18.421875 11.121094 C 18.388685 11.071619 18.338989 11.036601 18.296875 10.994141 C 18.263541 10.944222 18.214278 10.908065 18.171875 10.865234 C 18.139139 10.816183 18.088378 10.782479 18.046875 10.740234 C 18.014432 10.690895 17.963142 10.657819 17.921875 10.615234 C 17.889722 10.565599 17.839865 10.531212 17.798828 10.488281 C 17.794983 10.485586 17.792953 10.481157 17.789062 10.478516 C 17.747368 10.436165 17.71566 10.385766 17.666016 10.351562 C 17.664995 10.350542 17.661232 10.350624 17.660156 10.349609 C 17.61959 10.308259 17.589161 10.25827 17.541016 10.224609 C 17.539981 10.223575 17.536244 10.223685 17.535156 10.222656 C 17.494554 10.18057 17.464389 10.130022 17.416016 10.095703 C 17.414514 10.094201 17.409811 10.093285 17.408203 10.091797 C 17.368347 10.050157 17.338453 10.000947 17.291016 9.9667969 C 17.288737 9.9645185 17.281804 9.9631849 17.279297 9.9609375 C 17.240153 9.9197036 17.210612 9.8699406 17.164062 9.8359375 C 17.160979 9.8328544 17.151914 9.8311519 17.148438 9.828125 C 17.110275 9.7877165 17.082374 9.7386266 17.037109 9.7050781 C 17.033181 9.7011496 17.022105 9.6991508 17.017578 9.6953125 C 16.980392 9.6557329 16.954145 9.6072977 16.910156 9.5742188 C 16.905241 9.5693034 16.89251 9.5653224 16.886719 9.5605469 C 16.850265 9.5214356 16.824321 9.4742678 16.78125 9.4414062 C 16.775748 9.4359043 16.762389 9.4311098 16.755859 9.4257812 C 16.720351 9.3874709 16.69419 9.340985 16.652344 9.3085938 C 16.645942 9.3021919 16.630746 9.2971851 16.623047 9.2910156 C 16.58829 9.2532257 16.564337 9.2079001 16.523438 9.1757812 C 16.516174 9.1685173 16.499053 9.1632178 16.490234 9.15625 C 16.456132 9.1188418 16.432673 9.0729589 16.392578 9.0410156 C 16.384338 9.0327757 16.365566 9.0273939 16.355469 9.0195312 C 16.322315 8.9829648 16.300586 8.937663 16.261719 8.90625 C 16.252318 8.8968492 16.232341 8.8897739 16.220703 8.8808594 C 16.188264 8.8447891 16.166882 8.8006672 16.128906 8.7695312 C 16.118463 8.7590877 16.096977 8.7520368 16.083984 8.7421875 C 16.052674 8.7072532 16.032593 8.6631696 15.996094 8.6328125 C 15.984908 8.6216264 15.963102 8.6140269 15.949219 8.6035156 C 15.918611 8.5690852 15.898907 8.5261504 15.863281 8.4960938 C 15.850053 8.4828653 15.825263 8.4732306 15.808594 8.4609375 C 15.779611 8.4284042 15.761992 8.3880245 15.728516 8.359375 C 15.714625 8.3454848 15.68924 8.335135 15.671875 8.3222656 C 15.643301 8.2898225 15.626762 8.2493607 15.59375 8.2207031 C 15.579373 8.2063265 15.554885 8.1949348 15.537109 8.1816406 C 15.508817 8.1491002 15.491708 8.1088917 15.458984 8.0800781 C 15.442497 8.0635909 15.415043 8.0521855 15.394531 8.0371094 C 15.36782 8.0064404 15.352922 7.9668325 15.322266 7.9394531 C 15.304396 7.9215833 15.276024 7.9088057 15.253906 7.8925781 C 15.228387 7.8631999 15.214682 7.8252211 15.185547 7.7988281 C 15.166306 7.7795872 15.136917 7.7654017 15.113281 7.7480469 C 15.088649 7.7195182 15.074906 7.6839579 15.046875 7.6582031 C 15.026983 7.638311 14.998675 7.6233649 14.974609 7.6054688 C 14.950441 7.5771765 14.937646 7.5412423 14.910156 7.515625 C 14.893804 7.4992726 14.862631 7.4935368 14.84375 7.4785156 C 14.81648 7.4449045 14.801335 7.4031066 14.769531 7.3730469 C 14.752865 7.3563805 14.724025 7.3492818 14.705078 7.3339844 C 14.677934 7.3000259 14.662591 7.2589335 14.630859 7.2285156 C 14.612345 7.2100014 14.581448 7.2023866 14.560547 7.1855469 C 14.534693 7.1531734 14.520256 7.1131717 14.490234 7.0839844 C 14.469652 7.0634016 14.437092 7.0556404 14.414062 7.0371094 C 14.389476 7.0062836 14.377973 6.9674199 14.349609 6.9394531 C 14.163934 6.7537781 13.891491 6.6484375 13.628906 6.6484375 C 13.628906 6.6456047 12.782511 6.6410309 12.205078 6.6386719 C 12.185123 6.6186578 12.169632 6.5951013 12.148438 6.5761719 C 12.142484 6.5708545 12.134936 6.5677112 12.128906 6.5625 C 12.091378 6.5195333 12.056376 6.4742319 12.013672 6.4355469 C 12.007026 6.4295264 11.99893 6.4258093 11.992188 6.4199219 C 11.955645 6.3777236 11.92237 6.3330616 11.880859 6.2949219 C 11.870485 6.2853899 11.858269 6.2787369 11.847656 6.2695312 C 11.813942 6.2307839 11.784014 6.1896344 11.746094 6.1542969 C 11.732723 6.1418365 11.716898 6.1330085 11.703125 6.1210938 C 11.671854 6.085221 11.644257 6.0466416 11.609375 6.0136719 C 11.596094 6.0011192 11.580091 5.9924803 11.566406 5.9804688 C 11.53516 5.9440726 11.507583 5.9045748 11.472656 5.8710938 C 11.457034 5.8561182 11.438066 5.8462532 11.421875 5.8320312 C 11.39264 5.7979381 11.368401 5.7600769 11.335938 5.7285156 C 11.320148 5.7131651 11.301538 5.7020764 11.285156 5.6875 C 11.256101 5.6531343 11.231524 5.6158379 11.199219 5.5839844 C 10.916758 5.3054719 10.535341 5.1495537 10.138672 5.1523438 z "
       id="path7256"
       style="fill-opacity:1;fill:url(#linearGradient8109);opacity:0.2"
       clip-path="url(#clipPath8114)" />
    <g
       id="g7201"
       transform="translate(11.806158,0.18940369)">
      <rect
         style="opacity:1;fill:#ffc107;fill-opacity:1;stroke:none;stroke-width:2;stroke-miterlimit:4;stroke-dasharray:none;stroke-opacity:1"
         id="rect7199"
         width="7.5761442"
         height="7.1342025"
         x="-5.6189733"
         y="6.8680172" />
      <path
         inkscape:connector-curvature="0"
         d="m -4.3061803,8.3106012 0,-1 -1,0 0,6.4999998 7.0000005,0 0,-6.4999998 -0.99999999,0 0,1 -5.00000051,0 m 1.0000001,-2 a 1.5,1.5 0 0 1 1.5,-1.5 1.5,1.5 0 0 1 1.50000041,1.5 l 1.99999999,0 a 1,1 0 0 1 1,1 l 0,6.4999998 a 1,1 0 0 1 -1,1 l -7.0000005,0 a 1,1 0 0 1 -1,-1 l 0,-6.4999998 a 1,1 0 0 1 1,-1 l 2.0000001,0 m 1.5,-0.5 a 0.5,0.5 0 0 0 -0.5,0.5 0.5,0.5 0 0 0 0.5,0.5 0.5,0.5 0 0 0 0.5000004,-0.5 0.5,0.5 0 0 0 -0.5000004,-0.5 z"
         id="path7197"
         style="fill:#ffffff" />
    </g>
  </g>
</svg>
