<?xml version="1.0" encoding="UTF-8" standalone="no"?>
<!-- Created with Inkscape (http://www.inkscape.org/) -->

<svg
   xmlns:dc="http://purl.org/dc/elements/1.1/"
   xmlns:cc="http://creativecommons.org/ns#"
   xmlns:rdf="http://www.w3.org/1999/02/22-rdf-syntax-ns#"
   xmlns:svg="http://www.w3.org/2000/svg"
   xmlns="http://www.w3.org/2000/svg"
   xmlns:xlink="http://www.w3.org/1999/xlink"
   xmlns:sodipodi="http://sodipodi.sourceforge.net/DTD/sodipodi-0.dtd"
   xmlns:inkscape="http://www.inkscape.org/namespaces/inkscape"
   inkscape:export-ydpi="648"
   inkscape:export-xdpi="648"
   inkscape:export-filename="/home/juergen/Projekte/Android/Android_Studio/Baumann_Theme/theme/src/main/assets/icons/res/drawable-xxhdpi/a139.png"
   width="5.6444445mm"
   height="5.6444445mm"
   viewBox="0 0 20 20"
   id="svg2"
   version="1.1"
   inkscape:version="0.91 r13725"
   sodipodi:docname="cONNECT.svg">
  <sodipodi:namedview
     id="base"
     pagecolor="#ffffff"
     bordercolor="#666666"
     borderopacity="1.0"
     inkscape:pageopacity="0.0"
     inkscape:pageshadow="2"
     inkscape:zoom="15.839192"
     inkscape:cx="16.520678"
     inkscape:cy="10.40722"
     inkscape:document-units="px"
     inkscape:current-layer="layer2"
     showgrid="true"
     fit-margin-top="0"
     fit-margin-left="0"
     fit-margin-right="0"
     fit-margin-bottom="0"
     showguides="true"
     inkscape:guide-bbox="true"
     inkscape:window-width="1366"
     inkscape:window-height="744"
     inkscape:window-x="0"
     inkscape:window-y="24"
     inkscape:window-maximized="1"
     inkscape:snap-grids="true"
     inkscape:snap-to-guides="true">
    <inkscape:grid
       id="grid4138"
       type="xygrid" />
    <sodipodi:guide
       id="guide4140"
       orientation="0,1"
       position="10,18" />
    <sodipodi:guide
       id="guide4142"
       orientation="0,1"
       position="10,2" />
    <sodipodi:guide
       id="guide4144"
       orientation="1,0"
       position="2,10" />
    <sodipodi:guide
       id="guide4146"
       orientation="0,20"
       position="0,0" />
    <sodipodi:guide
       id="guide4150"
       orientation="0,-20"
       position="20,20" />
    <sodipodi:guide
       id="guide4152"
       orientation="20,0"
       position="0,20" />
    <sodipodi:guide
       id="guide4154"
       orientation="1,0"
       position="18,10" />
    <sodipodi:guide
       id="guide4156"
       orientation="-0.70710678,0.70710678"
       position="10,10" />
    <sodipodi:guide
       id="guide4158"
       orientation="0.70710678,0.70710678"
       position="10,10" />
    <sodipodi:guide
       id="guide4160"
       orientation="1,0"
       position="4,10" />
    <sodipodi:guide
       id="guide4162"
       orientation="1,0"
       position="16,10" />
    <sodipodi:guide
       id="guide4164"
       orientation="0,1"
       position="10,16" />
    <sodipodi:guide
       id="guide4166"
       orientation="0,1"
       position="10,4" />
    <sodipodi:guide
       id="guide4168"
       orientation="0,1"
       position="10,15" />
    <sodipodi:guide
       id="guide4170"
       orientation="0,1"
       position="10,5" />
    <sodipodi:guide
       id="guide4172"
       orientation="1,0"
       position="5,10" />
    <sodipodi:guide
       id="guide4174"
       orientation="1,0"
       position="15,10" />
  </sodipodi:namedview>
  <defs
     id="defs4">
    <linearGradient
       inkscape:collect="always"
       id="linearGradient26362">
      <stop
         style="stop-color:#030104;stop-opacity:1;"
         offset="0"
         id="stop26364" />
      <stop
         style="stop-color:#030104;stop-opacity:0;"
         offset="1"
         id="stop26366" />
    </linearGradient>
    <clipPath
       clipPathUnits="userSpaceOnUse"
       id="clipPath12478">
      <circle
         style="opacity:1;fill:#2196f3;fill-opacity:1;stroke:none;stroke-width:0.05069799;stroke-miterlimit:4;stroke-dasharray:none;stroke-opacity:1"
         id="circle12480"
         cx="9.9999781"
         cy="10.000005"
         r="10" />
    </clipPath>
    <clipPath
       id="clipPath13251"
       clipPathUnits="userSpaceOnUse">
      <circle
         inkscape:export-ydpi="648"
         inkscape:export-xdpi="648"
         inkscape:export-filename="/home/juergen/path4136.png"
         style="opacity:1;fill:#2196f3;fill-opacity:1;stroke:none;stroke-width:0.05069799;stroke-miterlimit:4;stroke-dasharray:none;stroke-opacity:1"
         id="circle13253"
         cx="9.9999781"
         cy="10.000005"
         r="10" />
    </clipPath>
    <clipPath
       clipPathUnits="userSpaceOnUse"
       id="clipPath5054">
      <circle
         inkscape:export-ydpi="648"
         inkscape:export-xdpi="648"
         inkscape:export-filename="/home/juergen/path4136.png"
         style="opacity:1;fill:#2196f3;fill-opacity:1;stroke:none;stroke-width:0.05069799;stroke-miterlimit:4;stroke-dasharray:none;stroke-opacity:1"
         id="circle5056"
         cx="9.9999781"
         cy="10.000005"
         r="10" />
    </clipPath>
    <clipPath
       id="clipPath5838"
       clipPathUnits="userSpaceOnUse">
      <circle
         inkscape:export-ydpi="648"
         inkscape:export-xdpi="648"
         inkscape:export-filename="/home/juergen/path4136.png"
         style="opacity:1;fill:#f44336;fill-opacity:1;stroke:none;stroke-width:0.05069799;stroke-miterlimit:4;stroke-dasharray:none;stroke-opacity:1"
         id="circle5840"
         cx="9.9999781"
         cy="10.000005"
         r="10" />
    </clipPath>
    <clipPath
       id="clipPath5850"
       clipPathUnits="userSpaceOnUse">
      <rect
         y="3.9638286"
         x="7.0710678"
         height="4.0406103"
         width="5.7452426"
         id="rect5852"
         style="opacity:0.96300001;fill:#fdd835;fill-opacity:1;stroke:none;stroke-width:1.25;stroke-linecap:round;stroke-linejoin:round;stroke-miterlimit:4;stroke-dasharray:none;stroke-opacity:1" />
    </clipPath>
    <clipPath
       clipPathUnits="userSpaceOnUse"
       id="clipPath22302">
      <circle
         inkscape:export-ydpi="648"
         inkscape:export-xdpi="648"
         inkscape:export-filename="/home/juergen/path4136.png"
         style="opacity:1;fill:#9c27b0;fill-opacity:1;stroke:none;stroke-width:0.05069799;stroke-miterlimit:4;stroke-dasharray:none;stroke-opacity:1"
         id="circle22304"
         cx="9.9999781"
         cy="10.000005"
         r="10" />
    </clipPath>
    <clipPath
       id="clipPath24318"
       clipPathUnits="userSpaceOnUse">
      <circle
         inkscape:export-ydpi="648"
         inkscape:export-xdpi="648"
         inkscape:export-filename="/home/juergen/path4136.png"
         style="opacity:1;fill:#ff9800;fill-opacity:1;stroke:none;stroke-width:0.05069799;stroke-miterlimit:4;stroke-dasharray:none;stroke-opacity:1"
         id="circle24320"
         cx="9.9999781"
         cy="10.000005"
         r="10" />
    </clipPath>
    <linearGradient
       inkscape:collect="always"
       xlink:href="#linearGradient26362"
       id="linearGradient26368"
       x1="10"
       y1="10"
       x2="20"
       y2="20"
       gradientUnits="userSpaceOnUse" />
    <clipPath
       clipPathUnits="userSpaceOnUse"
       id="clipPath26373">
      <circle
         inkscape:export-ydpi="648"
         inkscape:export-xdpi="648"
         inkscape:export-filename="/home/juergen/path4136.png"
         style="opacity:1;fill:#ff9800;fill-opacity:1;stroke:none;stroke-width:0.05069799;stroke-miterlimit:4;stroke-dasharray:none;stroke-opacity:1"
         id="circle26375"
         cx="9.9999781"
         cy="10.000005"
         r="10" />
    </clipPath>
  </defs>
  <metadata
     id="metadata7">
    <rdf:RDF>
      <cc:Work
         rdf:about="">
        <dc:format>image/svg+xml</dc:format>
        <dc:type
           rdf:resource="http://purl.org/dc/dcmitype/StillImage" />
        <dc:title></dc:title>
      </cc:Work>
    </rdf:RDF>
  </metadata>
  <g
     transform="translate(1058.1428,-861.93365)"
     id="layer1"
     inkscape:groupmode="layer"
     inkscape:label="Hintergrund">
    <circle
       r="10"
       cy="871.93365"
       cx="-1048.1428"
       id="path4136"
       style="opacity:1;fill:#607d8b;fill-opacity:1;stroke:none;stroke-width:0.05069799;stroke-miterlimit:4;stroke-dasharray:none;stroke-opacity:1"
       inkscape:export-filename="/home/juergen/path4136.png"
       inkscape:export-xdpi="648"
       inkscape:export-ydpi="648" />
  </g>
  <g
     inkscape:label="Icon"
     id="layer2"
     inkscape:groupmode="layer"
     style="display:inline">
    <path
       style="fill:url(#linearGradient26368);fill-opacity:1;opacity:0.2"
       d="M 12.822266 5.1503906 C 12.251924 5.1284844 11.691389 5.3375013 11.244141 5.78125 L 10.613281 6.4082031 C 10.370407 6.6493274 10.368101 7.0403288 10.609375 7.2832031 C 10.635886 7.3098926 10.669459 7.3228945 10.699219 7.34375 C 10.719562 7.3729685 10.731849 7.4055046 10.757812 7.4316406 C 10.784721 7.4587305 10.81936 7.471108 10.849609 7.4921875 C 10.869507 7.5204541 10.881062 7.55277 10.90625 7.578125 C 10.932269 7.6043194 10.964985 7.6161438 10.994141 7.6367188 C 11.014548 7.6660768 11.026657 7.7003123 11.052734 7.7265625 C 11.079022 7.7530274 11.11114 7.7663806 11.140625 7.7871094 C 11.160354 7.8150209 11.172368 7.8460309 11.197266 7.8710938 C 11.223512 7.8975163 11.257676 7.9089827 11.287109 7.9296875 C 11.307141 7.9582375 11.318331 7.9919902 11.34375 8.0175781 C 11.370437 8.0444448 11.403618 8.05717 11.433594 8.078125 C 11.452867 8.1050972 11.464154 8.1358688 11.488281 8.1601562 C 11.513788 8.1858344 11.545692 8.198472 11.574219 8.21875 C 11.594181 8.2471525 11.60556 8.2792208 11.630859 8.3046875 C 11.656708 8.3307097 11.689804 8.3428049 11.71875 8.3632812 C 11.738324 8.3908708 11.748803 8.4224682 11.773438 8.4472656 C 11.799286 8.4732879 11.832383 8.485383 11.861328 8.5058594 C 11.880902 8.5334489 11.891382 8.5650463 11.916016 8.5898438 C 11.941864 8.615866 11.974961 8.6279611 12.003906 8.6484375 C 12.02318 8.6754097 12.034466 8.7061813 12.058594 8.7304688 C 12.083705 8.7557487 12.114534 8.7690165 12.142578 8.7890625 C 12.162148 8.8166432 12.174592 8.8482567 12.199219 8.8730469 C 12.22457 8.8985691 12.256818 8.9095 12.285156 8.9296875 C 12.304335 8.9564673 12.313921 8.9875906 12.337891 9.0117188 C 12.363341 9.0373406 12.395369 9.0500671 12.423828 9.0703125 C 12.442862 9.0968013 12.454786 9.1265035 12.478516 9.1503906 C 12.504022 9.1760683 12.535927 9.1887067 12.564453 9.2089844 C 12.583327 9.2351516 12.593723 9.2654423 12.617188 9.2890625 C 12.620657 9.2925551 12.625375 9.2934823 12.628906 9.296875 L 12.064453 9.8554688 C 12.046815 9.8389386 12.027712 9.8262909 12.009766 9.8105469 C 11.994409 9.7911285 11.986763 9.7678756 11.96875 9.75 C 11.935857 9.7173583 11.899248 9.6958328 11.865234 9.6660156 C 11.849877 9.6465964 11.842232 9.6233451 11.824219 9.6054688 C 11.791627 9.5731263 11.754395 9.5530069 11.720703 9.5234375 C 11.704981 9.5034138 11.698223 9.4793314 11.679688 9.4609375 C 11.646419 9.4279227 11.608633 9.4070785 11.574219 9.3769531 C 11.558581 9.3570702 11.551617 9.3327267 11.533203 9.3144531 C 11.499934 9.2814384 11.462149 9.2605941 11.427734 9.2304688 C 11.412096 9.2105858 11.405133 9.1862423 11.386719 9.1679688 C 11.354503 9.1359994 11.318447 9.1151974 11.285156 9.0859375 C 11.268601 9.0644996 11.259983 9.039129 11.240234 9.0195312 C 11.206401 8.9859565 11.16783 8.9641803 11.132812 8.9335938 C 11.117371 8.9140359 11.10993 8.8910421 11.091797 8.8730469 C 10.192175 7.9802994 8.8630749 8.1439719 7.7050781 9.2929688 L 5.8417969 11.140625 C 5.3949231 11.584249 5.1484375 12.174736 5.1484375 12.802734 C 5.1484375 13.430733 5.3947981 14.02122 5.8417969 14.464844 C 5.8660155 14.488871 5.8949255 14.504582 5.9199219 14.527344 C 5.9451058 14.554776 5.9636153 14.586863 5.9902344 14.613281 C 6.013788 14.636649 6.0421164 14.651658 6.0664062 14.673828 C 6.0916666 14.701352 6.110014 14.733262 6.1367188 14.759766 C 6.1604328 14.783293 6.1884305 14.799952 6.2128906 14.822266 C 6.2378286 14.849404 6.2568597 14.880105 6.2832031 14.90625 C 6.3069172 14.929777 6.3349148 14.946437 6.359375 14.96875 C 6.3842367 14.995797 6.4034295 15.026675 6.4296875 15.052734 C 6.4528737 15.075738 6.4800064 15.091438 6.5039062 15.113281 C 6.5288442 15.14042 6.5478753 15.171121 6.5742188 15.197266 C 6.5972716 15.220137 6.624679 15.236088 6.6484375 15.257812 C 6.6733755 15.284951 6.6924066 15.315652 6.71875 15.341797 C 6.7424641 15.365324 6.7704617 15.381984 6.7949219 15.404297 C 6.8191938 15.430641 6.8376824 15.460923 6.8632812 15.486328 C 6.8864674 15.509331 6.9136001 15.525032 6.9375 15.546875 C 6.9618464 15.573308 6.9801775 15.603418 7.0058594 15.628906 C 7.0290455 15.65191 7.0561783 15.66761 7.0800781 15.689453 C 7.1043501 15.715798 7.1228387 15.746079 7.1484375 15.771484 C 7.1709587 15.793828 7.1975081 15.808829 7.2207031 15.830078 C 7.2450495 15.856511 7.2633806 15.886621 7.2890625 15.912109 C 7.3114542 15.934325 7.3382702 15.94957 7.3613281 15.970703 C 7.3856745 15.997136 7.4040056 16.027246 7.4296875 16.052734 C 7.4527404 16.075606 7.4801478 16.091557 7.5039062 16.113281 C 7.5275867 16.138924 7.5453729 16.168608 7.5703125 16.193359 C 7.5928337 16.215703 7.6193831 16.230704 7.6425781 16.251953 C 7.6663311 16.277682 7.683964 16.3072 7.7089844 16.332031 C 7.7313761 16.354246 7.7581921 16.369492 7.78125 16.390625 C 7.805003 16.416354 7.8226358 16.445872 7.8476562 16.470703 C 7.8701055 16.492975 7.896803 16.508112 7.9199219 16.529297 C 7.9436023 16.55494 7.9613885 16.584624 7.9863281 16.609375 C 8.0088493 16.631719 8.0353987 16.64672 8.0585938 16.667969 C 8.0816809 16.692912 8.0987664 16.721997 8.1230469 16.746094 C 8.1455681 16.768437 8.1721175 16.783439 8.1953125 16.804688 C 8.2183996 16.82963 8.2354852 16.858715 8.2597656 16.882812 C 8.2816219 16.904496 8.3075868 16.9188 8.3300781 16.939453 C 8.3531652 16.964396 8.3702508 16.993481 8.3945312 17.017578 C 8.4163875 17.039262 8.4423524 17.053566 8.4648438 17.074219 C 8.4879309 17.099162 8.5050164 17.128247 8.5292969 17.152344 C 8.5511531 17.174028 8.577118 17.188332 8.5996094 17.208984 C 8.6226965 17.233927 8.639782 17.263012 8.6640625 17.287109 C 8.6859188 17.308793 8.7118837 17.323097 8.734375 17.34375 C 8.756867 17.367994 8.7732537 17.396479 8.796875 17.419922 C 8.8187313 17.441606 8.8446962 17.45591 8.8671875 17.476562 C 8.8896795 17.500806 8.9060663 17.529291 8.9296875 17.552734 C 8.9508788 17.573759 8.9762581 17.587367 8.9980469 17.607422 C 9.0206078 17.631746 9.0368495 17.660075 9.0605469 17.683594 C 9.0816162 17.704497 9.1072462 17.718336 9.1289062 17.738281 C 9.1514671 17.762606 9.1677088 17.790935 9.1914062 17.814453 C 9.2124756 17.835356 9.2381056 17.849196 9.2597656 17.869141 C 9.2823265 17.893465 9.2985682 17.921794 9.3222656 17.945312 C 9.3447868 17.967656 9.3713362 17.982657 9.3945312 18.003906 C 9.415564 18.02645 9.4311119 18.052372 9.453125 18.074219 C 9.4722029 18.093146 9.4941086 18.106858 9.5136719 18.125 C 9.5371 18.150345 9.5554191 18.178652 9.5800781 18.203125 C 9.6011475 18.224028 9.6267774 18.237867 9.6484375 18.257812 C 9.6703327 18.281358 9.6860223 18.309243 9.7089844 18.332031 C 9.7295107 18.352396 9.7543033 18.365311 9.7753906 18.384766 C 9.7973528 18.40839 9.8129016 18.436122 9.8359375 18.458984 C 9.8563988 18.479284 9.881325 18.492322 9.9023438 18.511719 C 9.9242389 18.535265 9.9399286 18.563149 9.9628906 18.585938 C 9.9847469 18.607621 10.010712 18.621925 10.033203 18.642578 C 10.053633 18.664424 10.068492 18.689747 10.089844 18.710938 C 10.110316 18.731249 10.135219 18.744265 10.15625 18.763672 C 10.177612 18.786597 10.192469 18.813732 10.214844 18.835938 C 10.233258 18.854207 10.25457 18.867228 10.273438 18.884766 C 10.296269 18.909408 10.313893 18.937121 10.337891 18.960938 C 10.359015 18.981895 10.384532 18.995631 10.40625 19.015625 C 10.426679 19.037471 10.441539 19.062794 10.462891 19.083984 C 10.482998 19.103933 10.506698 19.117643 10.527344 19.136719 C 10.548377 19.159262 10.563924 19.185184 10.585938 19.207031 C 10.604352 19.225301 10.625664 19.238322 10.644531 19.255859 C 10.666697 19.279721 10.683771 19.306993 10.707031 19.330078 C 10.726525 19.349418 10.749531 19.362339 10.769531 19.380859 C 10.790564 19.403403 10.806112 19.429325 10.828125 19.451172 C 10.847986 19.470877 10.872191 19.4831 10.892578 19.501953 C 10.913274 19.524107 10.927575 19.550785 10.949219 19.572266 C 10.968713 19.591606 10.991718 19.604527 11.011719 19.623047 C 11.032148 19.644893 11.047008 19.670216 11.068359 19.691406 C 11.087741 19.710635 11.110977 19.723769 11.130859 19.742188 C 11.151289 19.764033 11.166148 19.789357 11.1875 19.810547 C 11.206882 19.829776 11.230117 19.84291 11.25 19.861328 C 11.270367 19.883102 11.285358 19.908566 11.306641 19.929688 C 11.32547 19.948368 11.347886 19.9606 11.367188 19.978516 C 11.387617 20.000362 11.402477 20.025685 11.423828 20.046875 C 11.442597 20.065496 11.465136 20.077843 11.484375 20.095703 C 11.504804 20.117549 11.519664 20.142872 11.541016 20.164062 C 11.560142 20.183038 11.581948 20.196658 11.601562 20.214844 C 11.621599 20.236237 11.637281 20.260486 11.658203 20.28125 C 11.677032 20.29993 11.699448 20.312163 11.71875 20.330078 C 11.738513 20.351158 11.752814 20.376017 11.773438 20.396484 C 11.793596 20.416484 11.817191 20.430096 11.837891 20.449219 C 11.856166 20.468601 11.869666 20.490903 11.888672 20.509766 C 11.905759 20.526718 11.925882 20.538365 11.943359 20.554688 C 11.964327 20.577156 11.980011 20.603224 12.001953 20.625 C 12.020415 20.643316 12.041631 20.656248 12.060547 20.673828 C 12.079979 20.694529 12.094972 20.718172 12.115234 20.738281 C 12.133031 20.755937 12.153656 20.768184 12.171875 20.785156 C 12.191368 20.805926 12.206234 20.829434 12.226562 20.849609 C 12.245283 20.868182 12.267921 20.880621 12.287109 20.898438 C 12.306268 20.918825 12.319879 20.943077 12.339844 20.962891 C 12.359338 20.982231 12.382343 20.995152 12.402344 21.013672 C 12.420008 21.032363 12.432828 21.05406 12.451172 21.072266 C 12.467596 21.08856 12.487121 21.099522 12.503906 21.115234 C 12.524273 21.137008 12.539264 21.162472 12.560547 21.183594 C 12.578343 21.20125 12.598968 21.213496 12.617188 21.230469 C 12.636014 21.250477 12.650319 21.273513 12.669922 21.292969 C 12.687718 21.310625 12.708343 21.322871 12.726562 21.339844 C 12.745389 21.359852 12.759694 21.382888 12.779297 21.402344 C 12.796796 21.419705 12.818029 21.430566 12.835938 21.447266 C 12.854489 21.466962 12.867414 21.490606 12.886719 21.509766 C 12.904218 21.527127 12.925451 21.537987 12.943359 21.554688 C 12.961911 21.574384 12.974836 21.598028 12.994141 21.617188 C 13.01297 21.635868 13.035386 21.6481 13.054688 21.666016 C 13.071738 21.684016 13.08388 21.705107 13.101562 21.722656 C 13.117323 21.738293 13.136251 21.748572 13.152344 21.763672 C 13.172107 21.784752 13.186408 21.80961 13.207031 21.830078 C 13.225493 21.848394 13.246709 21.861326 13.265625 21.878906 C 13.28234 21.89653 13.295179 21.916403 13.3125 21.933594 C 13.328261 21.94923 13.347188 21.959509 13.363281 21.974609 C 13.38244 21.994997 13.396051 22.019249 13.416016 22.039062 C 13.433147 22.056059 13.453179 22.067621 13.470703 22.083984 C 13.488312 22.102613 13.501246 22.124431 13.519531 22.142578 C 13.536663 22.159575 13.556695 22.171137 13.574219 22.1875 C 13.591828 22.206129 13.604762 22.227947 13.623047 22.246094 C 13.639513 22.262431 13.658952 22.273311 13.675781 22.289062 C 13.69339 22.307691 13.706324 22.329509 13.724609 22.347656 C 13.741076 22.363993 13.760515 22.374874 13.777344 22.390625 C 13.794953 22.409254 13.807887 22.431072 13.826172 22.449219 C 13.841973 22.464896 13.860817 22.475096 13.876953 22.490234 C 13.894617 22.508925 13.907437 22.530622 13.925781 22.548828 C 13.941492 22.564415 13.960521 22.57479 13.976562 22.589844 C 13.994227 22.608535 14.007046 22.630232 14.025391 22.648438 C 14.041101 22.664024 14.060131 22.674399 14.076172 22.689453 C 14.093836 22.708144 14.106656 22.729841 14.125 22.748047 C 14.142444 22.765353 14.163791 22.776319 14.181641 22.792969 C 14.19746 22.809591 14.20825 22.829467 14.224609 22.845703 C 14.24037 22.861339 14.259298 22.871619 14.275391 22.886719 C 14.292441 22.904719 14.304583 22.92581 14.322266 22.943359 C 14.336334 22.957317 14.352854 22.966939 14.367188 22.980469 C 14.385463 22.999851 14.398963 23.022153 14.417969 23.041016 C 14.433403 23.056328 14.451044 23.067233 14.466797 23.082031 C 14.483512 23.099655 14.496351 23.119528 14.513672 23.136719 C 14.529017 23.151943 14.546839 23.163018 14.5625 23.177734 C 14.579215 23.195358 14.592054 23.215231 14.609375 23.232422 C 14.624464 23.247391 14.64281 23.257006 14.658203 23.271484 C 14.675201 23.289425 14.687452 23.310632 14.705078 23.328125 C 14.720215 23.343142 14.738463 23.352665 14.753906 23.367188 C 14.770291 23.384441 14.781862 23.405037 14.798828 23.421875 C 14.815295 23.438212 14.834733 23.449092 14.851562 23.464844 C 14.866424 23.480405 14.877241 23.498451 14.892578 23.513672 C 14.905983 23.526971 14.921901 23.535917 14.935547 23.548828 C 14.953156 23.567457 14.96609 23.589275 14.984375 23.607422 C 14.999512 23.622439 15.01776 23.631962 15.033203 23.646484 C 15.048973 23.663053 15.059865 23.683035 15.076172 23.699219 C 15.090644 23.713576 15.108294 23.722423 15.123047 23.736328 C 15.138866 23.752951 15.149656 23.772826 15.166016 23.789062 C 15.181065 23.803993 15.199491 23.813683 15.214844 23.828125 C 15.230614 23.844693 15.241505 23.864675 15.257812 23.880859 C 15.271917 23.894852 15.288363 23.904405 15.302734 23.917969 C 15.318216 23.934216 15.329705 23.952872 15.345703 23.96875 C 15.360387 23.983319 15.377605 23.993709 15.392578 24.007812 C 15.408011 24.024006 15.419601 24.042768 15.435547 24.058594 C 15.450019 24.072951 15.467669 24.081798 15.482422 24.095703 C 15.497575 24.111587 15.507789 24.130954 15.523438 24.146484 C 15.539239 24.162161 15.558083 24.172362 15.574219 24.1875 C 15.587836 24.201692 15.597314 24.218514 15.611328 24.232422 C 15.624069 24.245063 15.639385 24.253335 15.652344 24.265625 C 15.668729 24.282879 15.680299 24.303474 15.697266 24.320312 C 15.71137 24.334305 15.727817 24.343858 15.742188 24.357422 C 15.757003 24.372931 15.767916 24.391078 15.783203 24.40625 C 15.796642 24.419583 15.81249 24.428463 15.826172 24.441406 C 15.841034 24.456967 15.851851 24.475013 15.867188 24.490234 C 15.882533 24.505459 15.900355 24.516534 15.916016 24.53125 C 15.929292 24.545069 15.939472 24.560669 15.953125 24.574219 C 15.964837 24.585839 15.978338 24.594145 15.990234 24.605469 C 16.006334 24.622404 16.018496 24.641669 16.035156 24.658203 C 16.048552 24.671494 16.064488 24.680456 16.078125 24.693359 C 16.09294 24.708869 16.103854 24.727016 16.119141 24.742188 C 16.13258 24.755521 16.148428 24.7644 16.162109 24.777344 C 16.176305 24.792171 16.186544 24.809701 16.201172 24.824219 C 16.213946 24.836892 16.229194 24.845101 16.242188 24.857422 C 16.256428 24.872298 16.266575 24.889732 16.28125 24.904297 C 16.295676 24.918609 16.31342 24.927543 16.328125 24.941406 C 16.341117 24.954916 16.349929 24.971123 16.363281 24.984375 C 16.37433 24.995337 16.387225 25.002974 16.398438 25.013672 C 16.413919 25.029919 16.425408 25.048576 16.441406 25.064453 C 16.454472 25.077416 16.47108 25.085062 16.484375 25.097656 C 16.49829 25.112175 16.507155 25.13031 16.521484 25.144531 C 16.534259 25.157205 16.549507 25.165413 16.5625 25.177734 C 16.576075 25.19188 16.585641 25.208793 16.599609 25.222656 C 16.612384 25.23533 16.627632 25.243538 16.640625 25.255859 C 16.6542 25.270005 16.663766 25.286918 16.677734 25.300781 C 16.690141 25.31309 16.704183 25.322008 16.716797 25.333984 C 16.730031 25.347757 16.740299 25.363448 16.753906 25.376953 C 16.766313 25.389262 16.780355 25.39818 16.792969 25.410156 C 16.806203 25.423929 16.81647 25.43962 16.830078 25.453125 C 16.842485 25.465434 16.856527 25.474351 16.869141 25.486328 C 16.882375 25.500101 16.892642 25.515792 16.90625 25.529297 C 16.918359 25.541311 16.933006 25.54885 16.945312 25.560547 C 16.958264 25.574012 16.967159 25.590307 16.980469 25.603516 C 16.992578 25.615529 17.007225 25.623068 17.019531 25.634766 C 17.032483 25.648231 17.041378 25.664525 17.054688 25.677734 C 17.066429 25.689384 17.07987 25.697633 17.091797 25.708984 C 17.104407 25.722078 17.114005 25.737149 17.126953 25.75 C 17.138397 25.761354 17.152442 25.768225 17.164062 25.779297 C 17.177055 25.792807 17.185866 25.809014 17.199219 25.822266 C 17.210961 25.833915 17.224401 25.842164 17.236328 25.853516 C 17.248938 25.866609 17.258536 25.88168 17.271484 25.894531 C 17.282929 25.905885 17.296973 25.912757 17.308594 25.923828 C 17.32096 25.936656 17.329106 25.952249 17.341797 25.964844 C 17.353241 25.976198 17.367286 25.983069 17.378906 25.994141 C 17.391234 26.006927 17.399459 26.022601 17.412109 26.035156 C 17.423554 26.04651 17.437598 26.053382 17.449219 26.064453 C 17.461546 26.07724 17.469772 26.092914 17.482422 26.105469 C 17.493499 26.116458 17.506336 26.124041 17.517578 26.134766 C 17.529563 26.147181 17.538492 26.161632 17.550781 26.173828 C 17.561858 26.184818 17.574696 26.1924 17.585938 26.203125 C 17.597922 26.21554 17.606851 26.229991 17.619141 26.242188 C 17.62992 26.252882 17.643361 26.259088 17.654297 26.269531 C 17.665998 26.28164 17.673556 26.296693 17.685547 26.308594 C 17.696326 26.319288 17.709767 26.325494 17.720703 26.335938 C 17.732404 26.348046 17.739962 26.363099 17.751953 26.375 C 17.762732 26.385694 17.776174 26.3919 17.787109 26.402344 C 17.79881 26.414453 17.806368 26.429506 17.818359 26.441406 C 17.828771 26.451736 17.841005 26.458654 17.851562 26.46875 C 17.86292 26.480488 17.871182 26.494317 17.882812 26.505859 C 17.893224 26.516189 17.905458 26.523107 17.916016 26.533203 C 17.927373 26.544942 17.935635 26.55877 17.947266 26.570312 C 17.95738 26.580347 17.970217 26.585889 17.980469 26.595703 C 17.991576 26.607173 17.998398 26.62153 18.009766 26.632812 C 18.021805 26.644757 18.036594 26.652431 18.048828 26.664062 C 18.058323 26.673809 18.064535 26.685702 18.074219 26.695312 C 18.082614 26.703641 18.093073 26.70862 18.101562 26.716797 C 18.113928 26.729625 18.122075 26.745217 18.134766 26.757812 C 18.146174 26.769131 18.160292 26.776072 18.171875 26.787109 C 18.181369 26.796856 18.187582 26.808749 18.197266 26.818359 C 18.206987 26.828004 18.218667 26.834309 18.228516 26.84375 C 18.239278 26.854849 18.246806 26.867983 18.257812 26.878906 C 18.265842 26.886872 18.275087 26.892564 18.283203 26.900391 C 18.295226 26.912847 18.304077 26.927217 18.316406 26.939453 C 18.326153 26.949123 18.337781 26.955379 18.347656 26.964844 C 18.357785 26.975266 18.364655 26.98778 18.375 26.998047 C 18.384691 27.007661 18.396433 27.014026 18.40625 27.023438 C 18.416379 27.03386 18.423249 27.046374 18.433594 27.056641 C 18.44331 27.06628 18.455001 27.072596 18.464844 27.082031 C 18.474941 27.092419 18.481876 27.105 18.492188 27.115234 C 18.501269 27.124245 18.512291 27.12984 18.521484 27.138672 C 18.531582 27.14906 18.538516 27.161641 18.548828 27.171875 C 18.559608 27.182569 18.573049 27.188775 18.583984 27.199219 C 18.592204 27.207618 18.597108 27.218265 18.605469 27.226562 C 18.612835 27.23387 18.621467 27.238903 18.628906 27.246094 C 18.640263 27.257832 18.648526 27.271661 18.660156 27.283203 C 18.669238 27.292214 18.68026 27.297808 18.689453 27.306641 C 18.698918 27.316356 18.705191 27.328311 18.714844 27.337891 C 18.723261 27.346241 18.733675 27.351177 18.742188 27.359375 C 18.751682 27.369122 18.757895 27.381015 18.767578 27.390625 C 18.77793 27.400895 18.790285 27.40793 18.800781 27.417969 C 18.808651 27.426001 18.814266 27.435421 18.822266 27.443359 C 18.828968 27.450009 18.836987 27.454385 18.84375 27.460938 C 18.854512 27.472037 18.86204 27.48517 18.873047 27.496094 C 18.881711 27.50469 18.891625 27.511097 18.900391 27.519531 C 18.909508 27.528878 18.91649 27.539607 18.925781 27.548828 C 18.934198 27.557179 18.944612 27.562115 18.953125 27.570312 C 18.961955 27.579355 18.967569 27.590684 18.976562 27.599609 C 18.984315 27.6073 18.99412 27.611579 19.001953 27.619141 C 19.010811 27.628213 19.016369 27.639484 19.025391 27.648438 C 19.033759 27.65674 19.044271 27.66177 19.052734 27.669922 C 19.061565 27.678965 19.067179 27.690293 19.076172 27.699219 C 19.084221 27.707205 19.093425 27.712857 19.101562 27.720703 C 19.110045 27.729379 19.116368 27.73948 19.125 27.748047 C 19.132385 27.755373 19.140979 27.760369 19.148438 27.767578 C 19.156947 27.776282 19.163214 27.786327 19.171875 27.794922 C 19.17926 27.802248 19.187854 27.807244 19.195312 27.814453 C 19.203822 27.823157 19.210089 27.833202 19.21875 27.841797 C 19.226111 27.8491 19.234754 27.854142 19.242188 27.861328 C 19.25067 27.870004 19.256993 27.880105 19.265625 27.888672 C 19.27301 27.895998 19.281604 27.900994 19.289062 27.908203 C 19.296933 27.916235 19.302548 27.925655 19.310547 27.933594 C 19.317889 27.940878 19.326569 27.945957 19.333984 27.953125 C 19.341855 27.961157 19.34747 27.970577 19.355469 27.978516 C 19.362811 27.9858 19.371491 27.990879 19.378906 27.998047 C 19.386751 28.006052 19.392417 28.015525 19.400391 28.023438 C 19.40711 28.030104 19.415094 28.034446 19.421875 28.041016 C 19.429745 28.049047 19.43536 28.058467 19.443359 28.066406 C 19.450057 28.073052 19.458085 28.077436 19.464844 28.083984 C 19.472714 28.092016 19.478329 28.101436 19.486328 28.109375 C 19.493415 28.116406 19.502611 28.12003 19.509766 28.126953 C 19.517322 28.134656 19.521622 28.144727 19.529297 28.152344 C 19.536016 28.15901 19.544001 28.163353 19.550781 28.169922 C 19.557987 28.177258 19.562999 28.186101 19.570312 28.193359 C 19.578362 28.201345 19.587566 28.206998 19.595703 28.214844 C 19.601292 28.220501 19.605675 28.226811 19.611328 28.232422 C 19.616338 28.237392 19.621909 28.241178 19.626953 28.246094 C 19.635435 28.254769 19.641758 28.26487 19.650391 28.273438 C 19.656813 28.279809 19.665397 28.28278 19.671875 28.289062 C 19.678792 28.296097 19.682437 28.305537 19.689453 28.3125 C 19.695508 28.318507 19.70288 28.322197 19.708984 28.328125 C 19.715571 28.334816 19.719886 28.342984 19.726562 28.349609 C 19.73427 28.357256 19.744166 28.361622 19.751953 28.369141 C 19.757249 28.374495 19.760272 28.381406 19.765625 28.386719 C 19.769971 28.391031 19.774925 28.394166 19.779297 28.398438 C 19.787167 28.406469 19.792782 28.415889 19.800781 28.423828 C 19.806801 28.4298 19.814244 28.433559 19.820312 28.439453 C 19.826878 28.446122 19.831236 28.454333 19.837891 28.460938 C 19.843578 28.46658 19.849738 28.47099 19.855469 28.476562 C 19.861683 28.482866 19.866753 28.489847 19.873047 28.496094 C 19.880431 28.50342 19.889026 28.508416 19.896484 28.515625 C 19.900777 28.51995 19.903873 28.524999 19.908203 28.529297 C 19.912252 28.533313 19.917804 28.535081 19.921875 28.539062 C 19.929431 28.546765 19.933731 28.556836 19.941406 28.564453 C 19.946796 28.5698 19.953555 28.57284 19.958984 28.578125 C 19.964908 28.584128 19.968614 28.591706 19.974609 28.597656 C 19.979632 28.602639 19.985178 28.6064 19.990234 28.611328 C 19.995823 28.616985 20.000206 28.623296 20.005859 28.628906 C 20.010865 28.633872 20.016445 28.637666 20.021484 28.642578 C 20.027088 28.64825 20.031441 28.654531 20.037109 28.660156 C 20.042103 28.66511 20.047707 28.668928 20.052734 28.673828 C 20.058323 28.679485 20.062706 28.685796 20.068359 28.691406 C 20.073365 28.696372 20.078945 28.700166 20.083984 28.705078 C 20.089555 28.710716 20.093975 28.717064 20.099609 28.722656 C 20.104334 28.727344 20.110479 28.729736 20.115234 28.734375 C 20.120513 28.739713 20.12357 28.746657 20.128906 28.751953 C 20.133264 28.756276 20.138195 28.75939 20.142578 28.763672 C 20.14752 28.768662 20.151258 28.774343 20.15625 28.779297 C 20.162285 28.785285 20.169697 28.789013 20.175781 28.794922 C 20.179423 28.798583 20.181878 28.802999 20.185547 28.806641 C 20.187903 28.808978 20.190996 28.810175 20.193359 28.8125 C 20.199946 28.819191 20.204261 28.827359 20.210938 28.833984 C 20.21527 28.838282 20.220252 28.841446 20.224609 28.845703 C 20.229535 28.850677 20.233306 28.85639 20.238281 28.861328 C 20.242639 28.865651 20.24757 28.868765 20.251953 28.873047 C 20.256232 28.877358 20.259356 28.882435 20.263672 28.886719 C 20.268029 28.891042 20.272961 28.894156 20.277344 28.898438 C 20.281622 28.902748 20.284746 28.907826 20.289062 28.912109 C 20.292755 28.915773 20.29707 28.918241 20.300781 28.921875 C 20.30506 28.926186 20.308184 28.931263 20.3125 28.935547 C 20.316192 28.93921 20.320508 28.941679 20.324219 28.945312 C 20.328497 28.949623 20.331621 28.954701 20.335938 28.958984 C 20.33963 28.962648 20.343945 28.965116 20.347656 28.96875 C 20.351935 28.973061 20.355059 28.978138 20.359375 28.982422 C 20.363067 28.986085 20.367383 28.988554 20.371094 28.992188 C 20.374724 28.995836 20.377202 29.000277 20.380859 29.003906 C 20.384552 29.007569 20.388867 29.010038 20.392578 29.013672 C 20.396208 29.017321 20.398687 29.021761 20.402344 29.025391 C 20.405371 29.028394 20.40907 29.030219 20.412109 29.033203 C 20.415751 29.036864 20.418206 29.041281 20.421875 29.044922 C 20.424893 29.047916 20.428611 29.04976 20.431641 29.052734 C 20.435282 29.056395 20.437737 29.060812 20.441406 29.064453 C 20.444424 29.067447 20.448142 29.069291 20.451172 29.072266 C 20.454802 29.075915 20.457281 29.080355 20.460938 29.083984 C 20.463965 29.086988 20.467663 29.088813 20.470703 29.091797 C 20.473692 29.094795 20.475508 29.098578 20.478516 29.101562 C 20.481533 29.104556 20.485251 29.106401 20.488281 29.109375 C 20.49127 29.112373 20.493086 29.116156 20.496094 29.119141 C 20.499111 29.122135 20.502829 29.123979 20.505859 29.126953 C 20.508839 29.129941 20.510674 29.133744 20.513672 29.136719 C 20.516034 29.139062 20.519114 29.140246 20.521484 29.142578 C 20.524464 29.145566 20.526299 29.149369 20.529297 29.152344 C 20.531659 29.154687 20.534739 29.155871 20.537109 29.158203 C 20.540089 29.161191 20.541924 29.164994 20.544922 29.167969 C 20.547284 29.170312 20.550364 29.171496 20.552734 29.173828 C 20.555069 29.176164 20.556248 29.179312 20.558594 29.181641 C 20.560956 29.183984 20.564036 29.185168 20.566406 29.1875 C 20.568741 29.189836 20.56992 29.192984 20.572266 29.195312 C 20.574628 29.197656 20.577708 29.19884 20.580078 29.201172 C 20.582406 29.203501 20.583599 29.206663 20.585938 29.208984 C 20.587932 29.210964 20.589797 29.212873 20.591797 29.214844 C 20.593767 29.216812 20.595679 29.21874 20.597656 29.220703 C 20.599651 29.222682 20.601515 29.224592 20.603516 29.226562 C 20.605485 29.228531 20.607397 29.230459 20.609375 29.232422 C 20.613067 29.236085 20.617383 29.238554 20.621094 29.242188 C 20.624724 29.245836 20.627202 29.250277 20.630859 29.253906 C 20.632189 29.255226 20.633433 29.256497 20.634766 29.257812 C 20.636085 29.259128 20.637349 29.260406 20.638672 29.261719 C 20.640359 29.263393 20.64284 29.263957 20.644531 29.265625 C 20.646205 29.267296 20.646758 29.269818 20.648438 29.271484 C 20.649767 29.272803 20.651012 29.274075 20.652344 29.275391 C 20.653659 29.276702 20.654932 29.277988 20.65625 29.279297 C 20.657283 29.280322 20.659122 29.280227 20.660156 29.28125 C 20.661177 29.282267 20.661087 29.284141 20.662109 29.285156 C 20.663431 29.286468 20.664691 29.287755 20.666016 29.289062 C 20.667331 29.290373 20.668603 29.29166 20.669922 29.292969 C 20.670967 29.294005 20.674735 29.295841 20.675781 29.296875 C 20.675781 29.296875 20.677734 29.298828 20.677734 29.298828 C 20.678766 29.299855 20.678654 29.301709 20.679688 29.302734 C 20.679688 29.302734 20.681641 29.304688 20.681641 29.304688 C 20.681641 29.304688 20.683594 29.306641 20.683594 29.306641 C 20.683594 29.306641 20.685547 29.308594 20.685547 29.308594 C 20.685547 29.308594 20.6875 29.310547 20.6875 29.310547 C 20.6875 29.310547 20.689453 29.310547 20.689453 29.310547 C 20.689453 29.310547 20.689453 29.3125 20.689453 29.3125 C 20.689753 29.312798 20.691107 29.312202 20.691406 29.3125 C 20.691406 29.3125 20.691406 29.314453 20.691406 29.314453 C 20.691706 29.314751 20.693059 29.314155 20.693359 29.314453 C 20.745859 29.366349 20.805306 29.405208 20.861328 29.451172 C 20.926091 29.50453 20.987762 29.563964 21.056641 29.609375 C 21.056641 29.609375 21.058594 29.611328 21.058594 29.611328 C 21.058594 29.611328 21.060547 29.613281 21.060547 29.613281 C 21.181324 29.692508 21.308884 29.755694 21.439453 29.810547 C 21.449587 29.814782 21.458569 29.822083 21.46875 29.826172 C 21.46875 29.826172 21.470703 29.828125 21.470703 29.828125 C 21.471236 29.828339 21.472124 29.827911 21.472656 29.828125 C 21.513891 29.844645 21.557671 29.851118 21.599609 29.865234 C 21.84655 29.948591 22.103065 30 22.361328 30 C 22.663453 30 22.96397 29.942187 23.248047 29.828125 C 23.531673 29.714244 23.797533 29.542159 24.027344 29.314453 L 24.029297 29.314453 L 24.535156 28.8125 C 24.535556 28.812103 24.534757 28.810945 24.535156 28.810547 C 24.595844 28.750297 24.641379 28.681881 24.671875 28.607422 C 24.733202 28.45769 24.73287 28.290623 24.671875 28.140625 C 24.671875 28.140625 24.669922 28.138672 24.669922 28.138672 C 24.63993 28.065814 24.598049 27.994937 24.539062 27.935547 C 24.538665 27.935147 24.537507 27.935945 24.537109 27.935547 C 24.536712 27.935148 24.535555 27.935944 24.535156 27.935547 C 24.535156 27.935547 24.535156 27.933594 24.535156 27.933594 C 24.534757 27.933197 24.533603 27.933989 24.533203 27.933594 C 24.533203 27.933594 24.533203 27.931641 24.533203 27.931641 C 24.533203 27.931641 24.53125 27.929688 24.53125 27.929688 C 24.53125 27.929688 24.529297 27.927734 24.529297 27.927734 C 24.529297 27.927734 24.527344 27.925781 24.527344 27.925781 C 24.527344 27.925781 24.525391 27.923828 24.525391 27.923828 C 24.524325 27.922773 24.522556 27.922921 24.521484 27.921875 C 24.52044 27.920808 24.520585 27.91903 24.519531 27.917969 C 24.517837 27.916223 24.517344 27.91384 24.515625 27.912109 C 24.513507 27.909976 24.509953 27.908346 24.507812 27.90625 C 24.506747 27.905177 24.504977 27.90536 24.503906 27.904297 C 24.50285 27.903218 24.503019 27.901464 24.501953 27.900391 C 24.50063 27.899058 24.499379 27.897803 24.498047 27.896484 C 24.496734 27.895138 24.495469 27.893915 24.494141 27.892578 C 24.49242 27.890845 24.490017 27.89038 24.488281 27.888672 C 24.486583 27.886922 24.486098 27.884547 24.484375 27.882812 C 24.483042 27.881469 24.481811 27.880235 24.480469 27.878906 C 24.479154 27.877559 24.477892 27.876339 24.476562 27.875 C 24.475504 27.873934 24.473721 27.874104 24.472656 27.873047 C 24.469942 27.87021 24.469575 27.866079 24.466797 27.863281 C 24.464018 27.860482 24.459851 27.860157 24.457031 27.857422 C 24.455975 27.856343 24.456144 27.854589 24.455078 27.853516 C 24.452961 27.851383 24.449406 27.851705 24.447266 27.849609 C 24.445172 27.84744 24.445491 27.843943 24.443359 27.841797 C 24.441242 27.839664 24.437688 27.839986 24.435547 27.837891 C 24.433453 27.835721 24.433772 27.832224 24.431641 27.830078 C 24.429258 27.827679 24.42624 27.826571 24.423828 27.824219 C 24.42149 27.821788 24.420354 27.818808 24.417969 27.816406 C 24.41557 27.81399 24.412585 27.812915 24.410156 27.810547 C 24.407818 27.808116 24.406683 27.805136 24.404297 27.802734 C 24.401898 27.800318 24.398913 27.799243 24.396484 27.796875 C 24.394137 27.794434 24.39302 27.791474 24.390625 27.789062 C 24.387846 27.786263 24.383679 27.785938 24.380859 27.783203 C 24.378128 27.780348 24.377796 27.776253 24.375 27.773438 C 24.372221 27.770638 24.368054 27.770313 24.365234 27.767578 C 24.362503 27.764723 24.362171 27.760628 24.359375 27.757812 C 24.356331 27.754746 24.352701 27.752989 24.349609 27.75 C 24.346638 27.746884 24.344845 27.743304 24.341797 27.740234 C 24.338732 27.737147 24.335145 27.735431 24.332031 27.732422 C 24.32906 27.729305 24.327267 27.725726 24.324219 27.722656 C 24.320755 27.719167 24.316026 27.718233 24.3125 27.714844 C 24.309769 27.711989 24.309437 27.707894 24.306641 27.705078 C 24.3032 27.701612 24.298424 27.700633 24.294922 27.697266 C 24.291575 27.693736 24.290555 27.689017 24.287109 27.685547 C 24.283646 27.682058 24.278916 27.681124 24.275391 27.677734 C 24.272044 27.674205 24.271024 27.669485 24.267578 27.666016 C 24.264114 27.662527 24.259385 27.661592 24.255859 27.658203 C 24.252498 27.654658 24.251508 27.649969 24.248047 27.646484 C 24.244209 27.642618 24.238289 27.642415 24.234375 27.638672 C 24.230637 27.634708 24.230425 27.628889 24.226562 27.625 C 24.222724 27.621134 24.216805 27.620931 24.212891 27.617188 C 24.209153 27.613223 24.20894 27.607404 24.205078 27.603516 C 24.200975 27.599383 24.195596 27.597743 24.191406 27.59375 C 24.187422 27.58951 24.185766 27.584232 24.181641 27.580078 C 24.177538 27.575946 24.172158 27.574305 24.167969 27.570312 C 24.163985 27.566073 24.162329 27.560795 24.158203 27.556641 C 24.1541 27.552508 24.148721 27.550868 24.144531 27.546875 C 24.140547 27.542635 24.138891 27.537357 24.134766 27.533203 C 24.130266 27.528671 24.123744 27.527802 24.119141 27.523438 C 24.114785 27.518776 24.113902 27.51237 24.109375 27.507812 C 24.104875 27.50328 24.098354 27.502411 24.09375 27.498047 C 24.089394 27.493386 24.088511 27.48698 24.083984 27.482422 C 24.07922 27.477623 24.07324 27.475314 24.068359 27.470703 C 24.063778 27.465784 24.061412 27.459882 24.056641 27.455078 C 24.05251 27.450918 24.047187 27.449331 24.042969 27.445312 C 24.038033 27.439986 24.036407 27.432927 24.03125 27.427734 C 24.025427 27.421869 24.017715 27.419646 24.011719 27.414062 C 24.007751 27.40984 24.006062 27.404527 24.001953 27.400391 C 23.996757 27.395157 23.989709 27.393681 23.984375 27.388672 C 23.980019 27.384011 23.979136 27.377605 23.974609 27.373047 C 23.97011 27.368514 23.963588 27.367645 23.958984 27.363281 C 23.95309 27.356829 23.951529 27.348056 23.945312 27.341797 C 23.939092 27.335531 23.930246 27.334069 23.923828 27.328125 C 23.919491 27.323485 23.918569 27.317037 23.914062 27.3125 C 23.9082 27.306595 23.900569 27.304447 23.894531 27.298828 C 23.889616 27.293525 23.887948 27.28642 23.882812 27.28125 C 23.87695 27.275345 23.869319 27.273197 23.863281 27.267578 C 23.858335 27.262239 23.856732 27.255204 23.851562 27.25 C 23.8457 27.244095 23.838069 27.241947 23.832031 27.236328 C 23.827064 27.230966 23.825504 27.223977 23.820312 27.21875 C 23.814489 27.212884 23.806778 27.210662 23.800781 27.205078 C 23.795211 27.19901 23.792966 27.191443 23.787109 27.185547 C 23.781948 27.180348 23.774829 27.178806 23.769531 27.173828 C 23.763049 27.166669 23.760782 27.157314 23.753906 27.150391 C 23.747024 27.143458 23.737592 27.141304 23.730469 27.134766 C 23.725502 27.129403 23.723942 27.122415 23.71875 27.117188 C 23.71253 27.110922 23.703683 27.109459 23.697266 27.103516 C 23.691335 27.09702 23.689851 27.088332 23.683594 27.082031 C 23.677109 27.075499 23.668809 27.072589 23.662109 27.066406 C 23.655967 27.059657 23.652979 27.051461 23.646484 27.044922 C 23.640622 27.039017 23.632991 27.036869 23.626953 27.03125 C 23.620471 27.024091 23.618204 27.014736 23.611328 27.007812 C 23.603784 27.000214 23.59377 26.99736 23.585938 26.990234 C 23.580389 26.984192 23.578097 26.976575 23.572266 26.970703 C 23.565338 26.963725 23.556 26.961657 23.548828 26.955078 C 23.542897 26.948582 23.541414 26.939894 23.535156 26.933594 C 23.528274 26.926662 23.518842 26.924507 23.511719 26.917969 C 23.505196 26.91076 23.503016 26.901501 23.496094 26.894531 C 23.488815 26.887199 23.478251 26.885798 23.470703 26.878906 C 23.463898 26.871353 23.462321 26.860808 23.455078 26.853516 C 23.44815 26.846538 23.438812 26.84447 23.431641 26.837891 C 23.425118 26.830682 23.422938 26.821423 23.416016 26.814453 C 23.409134 26.807521 23.399701 26.805366 23.392578 26.798828 C 23.385168 26.790526 23.382936 26.779474 23.375 26.771484 C 23.367023 26.76345 23.355955 26.761412 23.347656 26.753906 C 23.34116 26.74673 23.338923 26.737408 23.332031 26.730469 C 23.324437 26.722819 23.314527 26.720061 23.306641 26.712891 C 23.299562 26.705 23.296617 26.695106 23.289062 26.6875 C 23.28107 26.679449 23.270035 26.677442 23.261719 26.669922 C 23.254843 26.662281 23.253417 26.651905 23.246094 26.644531 C 23.238153 26.636533 23.22701 26.634427 23.21875 26.626953 C 23.211325 26.618632 23.209124 26.607616 23.201172 26.599609 C 23.193179 26.591558 23.182144 26.589551 23.173828 26.582031 C 23.166403 26.57371 23.164202 26.562694 23.15625 26.554688 C 23.147989 26.546366 23.137512 26.54291 23.128906 26.535156 C 23.121799 26.527231 23.118915 26.517404 23.111328 26.509766 C 23.103123 26.5015 23.09253 26.49794 23.083984 26.490234 C 23.07633 26.481626 23.072671 26.471164 23.064453 26.462891 C 23.055794 26.454168 23.044194 26.451458 23.035156 26.443359 C 23.027731 26.435039 23.025531 26.424022 23.017578 26.416016 C 23.009585 26.407965 22.99855 26.405957 22.990234 26.398438 C 22.981914 26.388981 22.979698 26.376244 22.970703 26.367188 C 22.961439 26.357856 22.949149 26.354321 22.939453 26.345703 C 22.932346 26.337778 22.929462 26.327951 22.921875 26.320312 C 22.912875 26.311247 22.900033 26.309173 22.890625 26.300781 C 22.882289 26.291305 22.880107 26.278606 22.871094 26.269531 C 22.862434 26.260809 22.850835 26.258099 22.841797 26.25 C 22.833768 26.240917 22.830918 26.229415 22.822266 26.220703 C 22.813001 26.211371 22.800712 26.207837 22.791016 26.199219 C 22.782987 26.190136 22.780137 26.178634 22.771484 26.169922 C 22.76222 26.16059 22.749931 26.157055 22.740234 26.148438 C 22.731674 26.138671 22.728028 26.126529 22.71875 26.117188 C 22.71009 26.108465 22.698491 26.105755 22.689453 26.097656 C 22.680576 26.087476 22.677623 26.074174 22.667969 26.064453 C 22.657646 26.054055 22.643669 26.050528 22.632812 26.041016 C 22.624816 26.031974 22.621896 26.020393 22.613281 26.011719 C 22.603556 26.001923 22.590278 25.999243 22.580078 25.990234 C 22.571708 25.980714 22.569601 25.9681 22.560547 25.958984 C 22.550885 25.949253 22.537474 25.946455 22.527344 25.9375 C 22.523795 25.933427 22.523205 25.92783 22.519531 25.923828 L 23.080078 25.369141 C 23.080504 25.369551 23.081606 25.36873 23.082031 25.369141 C 23.086028 25.373332 23.08766 25.378708 23.091797 25.382812 C 23.100709 25.391658 23.110175 25.397595 23.119141 25.40625 C 23.123137 25.410441 23.12477 25.415817 23.128906 25.419922 C 23.137787 25.428736 23.147316 25.434735 23.15625 25.443359 C 23.160246 25.447551 23.161879 25.452926 23.166016 25.457031 C 23.174616 25.465568 23.184709 25.470157 23.193359 25.478516 C 23.197129 25.482457 23.197278 25.488323 23.201172 25.492188 C 23.209374 25.500328 23.218315 25.505693 23.226562 25.513672 C 23.230585 25.517892 23.232164 25.523211 23.236328 25.527344 C 23.244899 25.535851 23.255051 25.540497 23.263672 25.548828 C 23.267419 25.552744 23.267615 25.55866 23.271484 25.5625 C 23.279686 25.570641 23.288628 25.576005 23.296875 25.583984 C 23.300267 25.587512 23.301195 25.592237 23.304688 25.595703 C 23.312889 25.603844 23.321831 25.609208 23.330078 25.617188 C 23.333471 25.620715 23.334398 25.625441 23.337891 25.628906 C 23.346093 25.637047 23.355034 25.642411 23.363281 25.650391 C 23.366652 25.653894 23.367624 25.658667 23.371094 25.662109 C 23.378644 25.669603 23.386943 25.674284 23.394531 25.681641 C 23.397902 25.685144 23.398874 25.689917 23.402344 25.693359 C 23.409894 25.700853 23.418193 25.705534 23.425781 25.712891 C 23.429152 25.716394 23.430124 25.721167 23.433594 25.724609 C 23.440774 25.731736 23.447863 25.737138 23.455078 25.744141 C 23.45807 25.747234 23.459822 25.750861 23.462891 25.753906 C 23.469736 25.7607 23.477498 25.764803 23.484375 25.771484 C 23.487746 25.774988 23.488718 25.77976 23.492188 25.783203 C 23.499032 25.789997 23.506795 25.7941 23.513672 25.800781 C 23.517043 25.804285 23.518015 25.809057 23.521484 25.8125 C 23.528353 25.819318 23.536068 25.823374 23.542969 25.830078 C 23.545707 25.832899 23.546026 25.837063 23.548828 25.839844 C 23.555673 25.846637 23.563436 25.850741 23.570312 25.857422 C 23.57305 25.860242 23.57337 25.864407 23.576172 25.867188 C 23.58236 25.873329 23.589489 25.876763 23.595703 25.882812 C 23.598458 25.885651 23.598742 25.88978 23.601562 25.892578 C 23.607729 25.898698 23.614902 25.902174 23.621094 25.908203 C 23.623849 25.911042 23.624133 25.91517 23.626953 25.917969 C 23.63312 25.924089 23.640292 25.927565 23.646484 25.933594 C 23.649239 25.936433 23.649524 25.940561 23.652344 25.943359 C 23.65851 25.94948 23.665683 25.952955 23.671875 25.958984 C 23.674613 25.961805 23.674932 25.965969 23.677734 25.96875 C 23.683553 25.974525 23.689471 25.978682 23.695312 25.984375 C 23.697658 25.986778 23.69878 25.989814 23.701172 25.992188 C 23.706309 25.997286 23.711642 26.000824 23.716797 26.005859 C 23.719151 26.008272 23.720254 26.011288 23.722656 26.013672 C 23.727775 26.018752 23.733145 26.022326 23.738281 26.027344 C 23.740652 26.029773 23.741722 26.032756 23.744141 26.035156 C 23.749259 26.040237 23.754629 26.043811 23.759766 26.048828 C 23.762136 26.051258 23.763207 26.054241 23.765625 26.056641 C 23.770744 26.061721 23.776114 26.065295 23.78125 26.070312 C 23.783605 26.072725 23.784708 26.075741 23.787109 26.078125 C 23.791935 26.082915 23.797893 26.08511 23.802734 26.089844 C 23.804832 26.091986 23.804506 26.095538 23.806641 26.097656 C 23.811097 26.102079 23.815843 26.105 23.820312 26.109375 C 23.822034 26.111123 23.822473 26.113502 23.824219 26.115234 C 23.829029 26.120008 23.835018 26.122235 23.839844 26.126953 C 23.841941 26.129095 23.841615 26.132647 23.84375 26.134766 C 23.848206 26.139188 23.852952 26.142109 23.857422 26.146484 C 23.859132 26.148221 23.859593 26.150622 23.861328 26.152344 C 23.865103 26.156091 23.869262 26.158397 23.873047 26.162109 C 23.874768 26.163858 23.875207 26.166236 23.876953 26.167969 C 23.880715 26.171702 23.884901 26.174035 23.888672 26.177734 C 23.890393 26.179483 23.890832 26.181861 23.892578 26.183594 C 23.89634 26.187327 23.900526 26.18966 23.904297 26.193359 C 23.906018 26.195108 23.906457 26.197486 23.908203 26.199219 C 23.911965 26.202952 23.916151 26.205285 23.919922 26.208984 C 23.921632 26.210721 23.922093 26.213122 23.923828 26.214844 C 23.926922 26.217915 23.930493 26.219608 23.933594 26.222656 C 23.935304 26.224393 23.935765 26.226794 23.9375 26.228516 C 23.940594 26.231586 23.944165 26.23328 23.947266 26.236328 C 23.94833 26.2374 23.948145 26.239169 23.949219 26.240234 C 23.952302 26.243295 23.955895 26.24501 23.958984 26.248047 C 23.960694 26.249784 23.961156 26.252185 23.962891 26.253906 C 23.965304 26.256301 23.968286 26.257385 23.970703 26.259766 C 23.971768 26.260837 23.971582 26.262606 23.972656 26.263672 C 23.975739 26.266732 23.979332 26.268447 23.982422 26.271484 C 23.98348 26.27255 23.983308 26.274331 23.984375 26.275391 C 23.98678 26.277778 23.989778 26.278877 23.992188 26.28125 C 23.993246 26.282315 23.993073 26.284097 23.994141 26.285156 C 23.996546 26.287543 23.999544 26.288642 24.001953 26.291016 C 24.003011 26.292081 24.002839 26.293863 24.003906 26.294922 C 24.005949 26.29695 24.00772 26.298763 24.009766 26.300781 C 24.009766 26.300781 24.011719 26.302734 24.011719 26.302734 C 24.013754 26.304755 24.01554 26.306583 24.017578 26.308594 C 24.017578 26.308594 24.019531 26.310547 24.019531 26.310547 C 24.02157 26.312553 24.023349 26.31441 24.025391 26.316406 C 24.025391 26.316406 24.027344 26.318359 24.027344 26.318359 C 24.028706 26.319711 24.029887 26.320918 24.03125 26.322266 C 24.03125 26.322266 24.033203 26.324219 24.033203 26.324219 C 24.03456 26.325566 24.035751 26.326783 24.037109 26.328125 C 24.037109 26.328125 24.039062 26.330078 24.039062 26.330078 C 24.039062 26.330078 24.041016 26.332031 24.041016 26.332031 C 24.041016 26.332031 24.042969 26.333984 24.042969 26.333984 C 24.042969 26.333984 24.044922 26.335938 24.044922 26.335938 C 24.044922 26.335938 24.046875 26.337891 24.046875 26.337891 C 24.046875 26.337891 24.048828 26.339844 24.048828 26.339844 C 24.048828 26.339844 24.050781 26.341797 24.050781 26.341797 C 24.050781 26.341797 24.052734 26.34375 24.052734 26.34375 C 24.052734 26.34375 24.054688 26.345703 24.054688 26.345703 C 24.055366 26.346376 24.055962 26.346984 24.056641 26.347656 C 24.153767 26.444055 24.256305 26.525802 24.359375 26.599609 C 24.359375 26.599609 24.361328 26.601562 24.361328 26.601562 C 24.364602 26.603895 24.367814 26.607065 24.371094 26.609375 C 24.372538 26.610387 24.373554 26.612273 24.375 26.613281 C 24.375 26.613281 24.376953 26.615234 24.376953 26.615234 C 24.376953 26.615234 24.378906 26.617188 24.378906 26.617188 C 24.379629 26.617693 24.380137 26.618637 24.380859 26.619141 C 24.482291 26.689864 24.587146 26.745818 24.693359 26.794922 C 24.70217 26.798971 24.70991 26.806646 24.71875 26.810547 C 24.719255 26.810771 24.720198 26.810323 24.720703 26.810547 C 24.812703 26.851293 24.907041 26.877639 25.001953 26.902344 C 25.027667 26.909007 25.052223 26.922246 25.078125 26.927734 C 25.200049 26.953701 25.32382 26.966797 25.449219 26.966797 C 25.75478 26.966797 26.068329 26.889437 26.382812 26.736328 C 26.697296 26.583219 27.013438 26.355468 27.320312 26.050781 L 29.304688 24.078125 L 29.306641 24.078125 C 29.530015 23.856313 29.702907 23.59789 29.820312 23.316406 C 29.937718 23.034923 30 22.730015 30 22.416016 C 30 22.149794 29.946435 21.894793 29.861328 21.650391 C 29.845906 21.606103 29.838394 21.558874 29.820312 21.515625 C 29.820312 21.515625 29.818359 21.513672 29.818359 21.513672 C 29.815781 21.507492 29.811226 21.502251 29.808594 21.496094 C 29.750886 21.361786 29.682288 21.231464 29.599609 21.109375 C 29.599609 21.109375 29.597656 21.107422 29.597656 21.107422 C 29.563797 21.05717 29.5184 21.014634 29.480469 20.966797 C 29.434742 20.909448 29.391302 20.850401 29.339844 20.796875 C 29.327478 20.78404 29.319332 20.768462 29.306641 20.755859 C 29.305969 20.755193 29.305359 20.754572 29.304688 20.753906 C 29.304688 20.753906 29.302734 20.751953 29.302734 20.751953 C 29.302369 20.751592 29.301147 20.752314 29.300781 20.751953 C 29.300781 20.751953 29.300781 20.75 29.300781 20.75 C 29.300781 20.75 29.298828 20.748047 29.298828 20.748047 C 29.298828 20.748047 29.296875 20.746094 29.296875 20.746094 C 29.296875 20.746094 29.294922 20.744141 29.294922 20.744141 C 29.294922 20.744141 29.292969 20.742188 29.292969 20.742188 C 29.292969 20.742188 29.291016 20.740234 29.291016 20.740234 C 29.291016 20.740234 29.289062 20.738281 29.289062 20.738281 C 29.289062 20.738281 29.287109 20.738281 29.287109 20.738281 C 29.287109 20.738281 29.285156 20.736328 29.285156 20.736328 C 29.285156 20.736328 29.285156 20.734375 29.285156 20.734375 C 29.285156 20.734375 29.283203 20.732422 29.283203 20.732422 C 29.280875 20.730091 29.279683 20.726932 29.277344 20.724609 C 29.274958 20.722242 29.271922 20.721107 29.269531 20.71875 C 29.268185 20.717414 29.266973 20.716176 29.265625 20.714844 C 29.264275 20.713518 29.263071 20.71226 29.261719 20.710938 C 29.258739 20.707947 29.256904 20.704149 29.253906 20.701172 C 29.250847 20.698136 29.247208 20.696377 29.244141 20.693359 C 29.241417 20.690657 29.239058 20.688235 29.236328 20.685547 C 29.236328 20.685547 29.234375 20.683594 29.234375 20.683594 C 29.23236 20.681595 29.230534 20.679726 29.228516 20.677734 C 29.226546 20.675765 29.224634 20.673839 29.222656 20.671875 C 29.220637 20.669871 29.21882 20.668011 29.216797 20.666016 C 29.214827 20.664046 29.212915 20.66212 29.210938 20.660156 C 29.208918 20.658153 29.207101 20.656293 29.205078 20.654297 C 29.203102 20.65232 29.201203 20.650408 29.199219 20.648438 C 29.196833 20.64607 29.193797 20.644935 29.191406 20.642578 C 29.189079 20.640248 29.187885 20.637088 29.185547 20.634766 C 29.183154 20.632391 29.180132 20.63127 29.177734 20.628906 C 29.175407 20.626576 29.174214 20.623416 29.171875 20.621094 C 29.169482 20.618719 29.16646 20.617598 29.164062 20.615234 C 29.161728 20.612897 29.160549 20.609751 29.158203 20.607422 C 29.155144 20.604386 29.151504 20.602627 29.148438 20.599609 C 29.14611 20.597279 29.144917 20.594119 29.142578 20.591797 C 29.139886 20.589125 29.137464 20.586642 29.134766 20.583984 C 29.132134 20.581347 29.129599 20.578799 29.126953 20.576172 C 29.123894 20.573136 29.120254 20.571377 29.117188 20.568359 C 29.114242 20.565345 29.112339 20.561595 29.109375 20.558594 C 29.108024 20.557254 29.106821 20.556024 29.105469 20.554688 C 29.10119 20.550374 29.098066 20.545302 29.09375 20.541016 C 29.087325 20.534641 29.080677 20.529732 29.074219 20.523438 C 29.072873 20.522102 29.07166 20.520863 29.070312 20.519531 C 29.065387 20.514555 29.061616 20.508847 29.056641 20.503906 C 29.049543 20.496863 29.042295 20.49132 29.035156 20.484375 C 29.031413 20.48066 29.027193 20.478297 29.023438 20.474609 C 29.020448 20.47161 29.018632 20.46783 29.015625 20.464844 C 29.011893 20.46114 29.00765 20.458754 29.003906 20.455078 C 29.000276 20.451427 28.997798 20.446991 28.994141 20.443359 C 28.990408 20.439656 28.986166 20.43727 28.982422 20.433594 C 28.97878 20.429931 28.976325 20.425518 28.972656 20.421875 C 28.968262 20.417515 28.963395 20.414479 28.958984 20.410156 C 28.955354 20.406505 28.952876 20.402069 28.949219 20.398438 C 28.944813 20.394066 28.939968 20.391052 28.935547 20.386719 C 28.931917 20.383068 28.929438 20.378631 28.925781 20.375 C 28.921376 20.370629 28.916531 20.367615 28.912109 20.363281 C 28.908468 20.359618 28.906013 20.355206 28.902344 20.351562 C 28.897938 20.347191 28.893093 20.344177 28.888672 20.339844 C 28.884393 20.335531 28.881269 20.330458 28.876953 20.326172 C 28.872548 20.321801 28.867703 20.318787 28.863281 20.314453 C 28.859003 20.31014 28.855879 20.305067 28.851562 20.300781 C 28.848503 20.297746 28.844864 20.295986 28.841797 20.292969 C 28.835874 20.286963 28.832167 20.279391 28.826172 20.273438 C 28.819747 20.267063 28.813099 20.262154 28.806641 20.255859 C 28.804009 20.253222 28.801474 20.250674 28.798828 20.248047 C 28.795777 20.245019 28.792121 20.243244 28.789062 20.240234 C 28.782497 20.233562 28.778139 20.225358 28.771484 20.21875 C 28.764693 20.212011 28.756829 20.207821 28.75 20.201172 C 28.747011 20.198172 28.745195 20.194393 28.742188 20.191406 C 28.737121 20.18638 28.73165 20.182711 28.726562 20.177734 C 28.721621 20.172741 28.717882 20.167066 28.712891 20.162109 C 28.707153 20.156416 28.701077 20.152113 28.695312 20.146484 C 28.6904 20.141521 28.686603 20.135787 28.681641 20.130859 C 28.676546 20.125805 28.671131 20.122192 28.666016 20.117188 C 28.661093 20.112208 28.657316 20.106506 28.652344 20.101562 C 28.648621 20.097869 28.644359 20.095464 28.640625 20.091797 C 28.633419 20.084456 28.628408 20.075622 28.621094 20.068359 C 28.613629 20.060953 28.605166 20.056127 28.597656 20.048828 C 28.594014 20.045165 28.591559 20.040753 28.587891 20.037109 C 28.582139 20.031402 28.576091 20.027127 28.570312 20.021484 C 28.564723 20.015824 28.560341 20.00952 28.554688 20.003906 C 28.548936 19.998199 28.542888 19.993924 28.537109 19.988281 C 28.53152 19.982621 28.527138 19.976317 28.521484 19.970703 C 28.515075 19.964344 28.508396 19.959405 28.501953 19.953125 C 28.496382 19.947484 28.491963 19.941142 28.486328 19.935547 C 28.48021 19.929476 28.472946 19.92592 28.466797 19.919922 C 28.460855 19.913897 28.457187 19.906363 28.451172 19.900391 C 28.446766 19.896019 28.441921 19.893005 28.4375 19.888672 C 28.429655 19.880662 28.423989 19.871199 28.416016 19.863281 C 28.407878 19.855207 28.398817 19.849743 28.390625 19.841797 C 28.386332 19.837469 28.383237 19.832425 28.378906 19.828125 C 28.37384 19.823098 28.368368 19.81943 28.363281 19.814453 C 28.355436 19.806443 28.34977 19.79698 28.341797 19.789062 C 28.333292 19.780624 28.323017 19.775876 28.314453 19.767578 C 28.309806 19.762887 28.307426 19.756612 28.302734 19.751953 C 28.295943 19.745214 28.288079 19.741024 28.28125 19.734375 C 28.274664 19.727681 28.270348 19.71952 28.263672 19.712891 C 28.25688 19.706152 28.249017 19.701962 28.242188 19.695312 C 28.235627 19.688636 28.231259 19.68044 28.224609 19.673828 C 28.217164 19.66644 28.208663 19.661577 28.201172 19.654297 C 28.194585 19.647602 28.19027 19.639442 28.183594 19.632812 C 28.176129 19.625406 28.167666 19.62058 28.160156 19.613281 C 28.15357 19.606587 28.149254 19.598426 28.142578 19.591797 C 28.134461 19.583743 28.125359 19.578239 28.117188 19.570312 C 28.110622 19.56364 28.106264 19.555436 28.099609 19.548828 C 28.09384 19.543103 28.087828 19.538863 28.082031 19.533203 C 28.073549 19.524523 28.067226 19.514431 28.058594 19.505859 C 28.048743 19.496085 28.037274 19.490055 28.027344 19.480469 C 28.022065 19.475128 28.019008 19.46819 28.013672 19.462891 C 28.007553 19.45682 28.00029 19.453264 27.994141 19.447266 C 27.98531 19.438218 27.979696 19.426899 27.970703 19.417969 C 27.962565 19.409894 27.953504 19.40443 27.945312 19.396484 C 27.938106 19.389144 27.933095 19.38031 27.925781 19.373047 C 27.91593 19.363273 27.904461 19.357242 27.894531 19.347656 C 27.888608 19.34165 27.884902 19.334079 27.878906 19.328125 C 27.872481 19.32175 27.865834 19.316842 27.859375 19.310547 C 27.850257 19.301195 27.843276 19.290477 27.833984 19.28125 C 27.82346 19.270808 27.811395 19.264133 27.800781 19.253906 C 27.794858 19.2479 27.791152 19.240329 27.785156 19.234375 C 27.776994 19.226276 27.767983 19.22086 27.759766 19.212891 C 27.751895 19.204854 27.74628 19.195443 27.738281 19.1875 C 27.729492 19.178779 27.719789 19.172633 27.710938 19.164062 C 27.703067 19.156026 27.697452 19.146615 27.689453 19.138672 C 27.682007 19.131284 27.673507 19.126421 27.666016 19.119141 C 27.656551 19.10942 27.650278 19.097476 27.640625 19.087891 C 27.630101 19.077448 27.618036 19.070774 27.607422 19.060547 C 27.600835 19.053852 27.59652 19.045692 27.589844 19.039062 C 27.581033 19.03032 27.571374 19.024217 27.5625 19.015625 C 27.55399 19.006916 27.547723 18.996881 27.539062 18.988281 C 27.531598 18.980875 27.523135 18.976048 27.515625 18.96875 C 27.505527 18.958356 27.498593 18.945787 27.488281 18.935547 C 27.477084 18.924437 27.464424 18.917117 27.453125 18.90625 C 27.446539 18.899556 27.442223 18.891395 27.435547 18.884766 C 27.42743 18.876711 27.418327 18.871208 27.410156 18.863281 C 27.400059 18.852887 27.393124 18.840318 27.382812 18.830078 C 27.371616 18.818968 27.358955 18.811648 27.347656 18.800781 C 27.340427 18.793417 27.335463 18.78463 27.328125 18.777344 C 27.318641 18.767933 27.308385 18.761189 27.298828 18.751953 C 27.289681 18.74257 27.28276 18.731913 27.273438 18.722656 C 27.263954 18.713246 27.253698 18.706501 27.244141 18.697266 C 27.234993 18.687882 27.228072 18.677226 27.21875 18.667969 C 27.208618 18.657915 27.197716 18.650479 27.1875 18.640625 C 27.178353 18.631242 27.171432 18.620585 27.162109 18.611328 C 27.152259 18.601554 27.140789 18.595523 27.130859 18.585938 C 27.121365 18.576185 27.115152 18.564303 27.105469 18.554688 C 27.09668 18.545967 27.086977 18.539821 27.078125 18.53125 C 27.067397 18.520181 27.059799 18.506988 27.048828 18.496094 C 27.038304 18.485652 27.026239 18.478977 27.015625 18.46875 C 27.00616 18.45903 26.999887 18.447085 26.990234 18.4375 C 26.977691 18.425054 26.963843 18.416437 26.951172 18.404297 C 26.943327 18.396287 26.937661 18.386824 26.929688 18.378906 C 26.919132 18.368432 26.907131 18.36182 26.896484 18.351562 C 26.88699 18.34181 26.880777 18.329928 26.871094 18.320312 C 26.86029 18.309593 26.848789 18.301509 26.837891 18.291016 C 26.828108 18.280957 26.820531 18.26968 26.810547 18.259766 C 26.799378 18.248684 26.786661 18.241308 26.775391 18.230469 C 26.765293 18.220075 26.758359 18.207505 26.748047 18.197266 C 26.737183 18.186486 26.725804 18.178519 26.714844 18.167969 C 26.705061 18.15791 26.697484 18.146633 26.6875 18.136719 C 26.67804 18.127332 26.667737 18.120541 26.658203 18.111328 C 26.646218 18.098906 26.637289 18.084469 26.625 18.072266 C 26.61209 18.059456 26.59703 18.051548 26.583984 18.039062 C 26.575126 18.029985 26.569569 18.018725 26.560547 18.009766 C 26.548983 17.998292 26.53511 17.991683 26.523438 17.980469 C 26.512994 17.969705 26.506766 17.955911 26.496094 17.945312 C 26.484897 17.934202 26.472237 17.926882 26.460938 17.916016 C 26.450175 17.90491 26.442647 17.891789 26.431641 17.880859 C 26.4198 17.869111 26.406485 17.861085 26.394531 17.849609 C 26.383803 17.838541 26.376205 17.825347 26.365234 17.814453 C 26.353364 17.802675 26.34011 17.794707 26.328125 17.783203 C 26.317397 17.772134 26.309799 17.758941 26.298828 17.748047 C 26.286958 17.736269 26.273703 17.728301 26.261719 17.716797 C 26.250956 17.705692 26.243428 17.69257 26.232422 17.681641 C 26.220217 17.66953 26.205686 17.662212 26.193359 17.650391 C 26.182252 17.638915 26.17543 17.62457 26.164062 17.613281 C 26.152192 17.601503 26.138938 17.593535 26.126953 17.582031 C 26.115559 17.570247 26.107371 17.556508 26.095703 17.544922 C 26.083191 17.532507 26.06928 17.523829 26.056641 17.511719 C 26.045283 17.499974 26.037021 17.486158 26.025391 17.474609 C 26.012847 17.462164 25.998999 17.453546 25.986328 17.441406 C 25.974971 17.429661 25.966708 17.415846 25.955078 17.404297 C 25.942496 17.391813 25.928726 17.38327 25.916016 17.371094 C 25.904658 17.359349 25.896396 17.345533 25.884766 17.333984 C 25.871856 17.321175 25.856795 17.313267 25.84375 17.300781 C 25.832049 17.288666 25.824491 17.273626 25.8125 17.261719 C 25.799243 17.248565 25.784884 17.239375 25.771484 17.226562 C 25.760127 17.214818 25.751865 17.201002 25.740234 17.189453 C 25.727691 17.177007 25.713843 17.16839 25.701172 17.15625 C 25.689149 17.143786 25.680298 17.129431 25.667969 17.117188 C 25.654785 17.104107 25.640278 17.094775 25.626953 17.082031 C 25.61493 17.069568 25.60608 17.055212 25.59375 17.042969 C 25.580534 17.029855 25.566093 17.020587 25.552734 17.007812 C 25.540711 16.995349 25.531861 16.980993 25.519531 16.96875 C 25.505676 16.955003 25.490573 16.945015 25.476562 16.931641 C 25.464578 16.919218 25.455649 16.904782 25.443359 16.892578 C 25.429776 16.8791 25.414123 16.870541 25.400391 16.857422 C 25.388063 16.844628 25.379838 16.828968 25.367188 16.816406 C 25.353604 16.802929 25.337952 16.794369 25.324219 16.78125 C 25.311853 16.768415 25.303707 16.752837 25.291016 16.740234 C 25.276796 16.726125 25.260478 16.716842 25.246094 16.703125 C 25.233766 16.690331 25.225541 16.674671 25.212891 16.662109 C 25.199001 16.648328 25.183968 16.638407 25.169922 16.625 C 25.157311 16.611899 25.147714 16.596842 25.134766 16.583984 C 25.122222 16.571539 25.108374 16.562921 25.095703 16.550781 C 25.081507 16.535946 25.071269 16.518432 25.056641 16.503906 C 25.041038 16.488425 25.023612 16.477899 25.007812 16.462891 C 24.996419 16.451107 24.988231 16.437368 24.976562 16.425781 C 24.963686 16.413005 24.948558 16.405033 24.935547 16.392578 C 24.921011 16.377369 24.911473 16.358634 24.896484 16.34375 C 24.880209 16.327601 24.862193 16.316416 24.845703 16.300781 C 24.834309 16.288997 24.826121 16.275258 24.814453 16.263672 C 24.799562 16.248896 24.782649 16.238954 24.767578 16.224609 C 24.754585 16.211092 24.745774 16.1949 24.732422 16.181641 C 24.719239 16.16856 24.704731 16.159228 24.691406 16.146484 C 24.676591 16.130966 24.665678 16.112836 24.650391 16.097656 C 24.634115 16.081507 24.616099 16.070322 24.599609 16.054688 C 24.587633 16.042259 24.578687 16.027835 24.566406 16.015625 C 24.552858 16.002182 24.537135 15.993555 24.523438 15.980469 C 24.508283 15.964576 24.49807 15.945226 24.482422 15.929688 C 24.465473 15.91287 24.446868 15.901025 24.429688 15.884766 C 24.417664 15.872302 24.408814 15.857946 24.396484 15.845703 C 24.380882 15.830222 24.363456 15.819696 24.347656 15.804688 C 24.334081 15.790534 24.324516 15.773637 24.310547 15.759766 C 24.295618 15.744952 24.278782 15.735084 24.263672 15.720703 C 24.249431 15.705819 24.239285 15.688401 24.224609 15.673828 C 24.208681 15.658024 24.189961 15.648124 24.173828 15.632812 C 24.159913 15.618286 24.151048 15.600167 24.136719 15.585938 C 24.121116 15.570456 24.10369 15.55993 24.087891 15.544922 C 24.07365 15.530038 24.063503 15.51262 24.048828 15.498047 C 24.034572 15.483901 24.018327 15.474688 24.003906 15.460938 C 23.988136 15.44436 23.977245 15.424396 23.960938 15.408203 C 23.943316 15.390718 23.924123 15.37821 23.90625 15.361328 C 23.893599 15.348184 23.884085 15.333213 23.871094 15.320312 C 23.856567 15.305899 23.840869 15.295254 23.826172 15.28125 C 23.810123 15.264362 23.797856 15.245005 23.78125 15.228516 C 23.763261 15.210667 23.742859 15.198861 23.724609 15.181641 C 23.711616 15.168123 23.702806 15.151931 23.689453 15.138672 C 23.673178 15.122523 23.655162 15.111338 23.638672 15.095703 C 23.623856 15.080185 23.612943 15.062055 23.597656 15.046875 C 23.581381 15.030726 23.563365 15.019541 23.546875 15.003906 C 23.532013 14.988337 23.521196 14.970308 23.505859 14.955078 C 23.488953 14.938303 23.470262 14.926376 23.453125 14.910156 C 23.438263 14.894587 23.427446 14.876558 23.412109 14.861328 C 23.395467 14.844815 23.376241 14.834334 23.359375 14.818359 C 23.344174 14.802415 23.334058 14.783167 23.318359 14.767578 C 23.30343 14.752765 23.286594 14.742896 23.271484 14.728516 C 23.254486 14.710565 23.242235 14.689377 23.224609 14.671875 C 23.207661 14.655058 23.189056 14.643212 23.171875 14.626953 C 23.156442 14.610751 23.144853 14.592007 23.128906 14.576172 C 23.109571 14.556987 23.087996 14.543849 23.068359 14.525391 C 23.054784 14.511237 23.045219 14.49434 23.03125 14.480469 C 23.014249 14.4636 22.99575 14.451854 22.978516 14.435547 C 22.963034 14.419291 22.951545 14.400652 22.935547 14.384766 C 22.917969 14.367324 22.898687 14.354732 22.880859 14.337891 C 22.865377 14.321634 22.853889 14.302996 22.837891 14.287109 C 22.819948 14.269306 22.799453 14.257412 22.78125 14.240234 C 22.765479 14.223657 22.754589 14.203693 22.738281 14.1875 C 22.721956 14.171301 22.704041 14.160212 22.6875 14.144531 C 22.670501 14.126581 22.658251 14.105393 22.640625 14.087891 C 22.622636 14.070042 22.602234 14.058236 22.583984 14.041016 C 22.568214 14.024438 22.557323 14.004475 22.541016 13.988281 C 22.521681 13.969097 22.500105 13.955958 22.480469 13.9375 C 22.465606 13.92193 22.45479 13.903902 22.439453 13.888672 C 22.421465 13.870823 22.401062 13.859017 22.382812 13.841797 C 22.366427 13.824534 22.354857 13.803957 22.337891 13.787109 C 22.319902 13.76926 22.2995 13.757455 22.28125 13.740234 C 22.264813 13.722914 22.253349 13.702449 22.236328 13.685547 C 22.217714 13.667077 22.196628 13.654515 22.177734 13.636719 C 22.161349 13.619455 22.149779 13.598879 22.132812 13.582031 C 22.114151 13.563514 22.093161 13.551043 22.074219 13.533203 C 22.057833 13.51594 22.046263 13.495364 22.029297 13.478516 C 22.011308 13.460667 21.990906 13.448861 21.972656 13.431641 C 21.955605 13.413631 21.943464 13.392559 21.925781 13.375 C 21.907167 13.35653 21.886081 13.343968 21.867188 13.326172 C 21.850136 13.308162 21.837995 13.28709 21.820312 13.269531 C 21.801698 13.251062 21.780613 13.2385 21.761719 13.220703 C 21.744667 13.202693 21.732526 13.181622 21.714844 13.164062 C 21.695558 13.144926 21.673883 13.131695 21.654297 13.113281 C 21.637298 13.095331 21.625048 13.074143 21.607422 13.056641 C 21.588087 13.037456 21.566511 13.024318 21.546875 13.005859 C 21.529876 12.987909 21.517626 12.966721 21.5 12.949219 C 21.481338 12.930702 21.460349 12.918231 21.441406 12.900391 C 21.423741 12.88169 21.410922 12.860013 21.392578 12.841797 C 21.372621 12.821994 21.350356 12.808091 21.330078 12.789062 C 21.313079 12.771112 21.300829 12.749924 21.283203 12.732422 C 21.263868 12.713237 21.242292 12.700099 21.222656 12.681641 C 21.205046 12.663002 21.192113 12.641204 21.173828 12.623047 C 21.154493 12.603862 21.132917 12.590724 21.113281 12.572266 C 21.095616 12.553565 21.082797 12.531888 21.064453 12.513672 C 21.044496 12.493869 21.022231 12.479966 21.001953 12.460938 C 20.984288 12.442236 20.971469 12.42056 20.953125 12.402344 C 20.934511 12.383874 20.913425 12.371312 20.894531 12.353516 C 20.875372 12.333117 20.861761 12.308887 20.841797 12.289062 C 20.820076 12.26751 20.795538 12.253057 20.773438 12.232422 C 20.757001 12.215102 20.745537 12.194637 20.728516 12.177734 C 20.708141 12.157518 20.684771 12.14441 20.664062 12.125 C 20.646119 12.105983 20.63388 12.082969 20.615234 12.064453 C 20.595226 12.044601 20.573065 12.030793 20.552734 12.011719 C 20.534458 11.992325 20.520959 11.970045 20.501953 11.951172 C 20.481324 11.930703 20.458472 11.916126 20.4375 11.896484 C 20.419224 11.877091 20.405724 11.85481 20.386719 11.835938 C 20.366344 11.815721 20.342975 11.802613 20.322266 11.783203 C 20.303656 11.763431 20.290851 11.739935 20.271484 11.720703 C 20.250184 11.699568 20.226744 11.684316 20.205078 11.664062 C 20.186859 11.644734 20.173241 11.622327 20.154297 11.603516 C 20.134903 11.584273 20.113447 11.571247 20.09375 11.552734 C 20.073986 11.531643 20.059686 11.506807 20.039062 11.486328 C 20.015995 11.46344 19.990291 11.447635 19.966797 11.425781 C 19.949798 11.407831 19.937548 11.386643 19.919922 11.369141 C 19.900587 11.349956 19.879011 11.336818 19.859375 11.318359 C 19.839007 11.296574 19.824017 11.271134 19.802734 11.25 C 19.78138 11.228812 19.758049 11.213662 19.736328 11.193359 C 19.717501 11.17334 19.703197 11.150326 19.683594 11.130859 C 19.660527 11.107971 19.634822 11.092167 19.611328 11.070312 C 19.593718 11.051673 19.580785 11.029876 19.5625 11.011719 C 19.540779 10.990166 19.516241 10.975714 19.494141 10.955078 C 19.474981 10.93468 19.461371 10.91045 19.441406 10.890625 C 19.419311 10.868702 19.395535 10.853006 19.373047 10.832031 C 19.35422 10.812012 19.339916 10.788997 19.320312 10.769531 C 19.298958 10.748343 19.275627 10.733193 19.253906 10.712891 C 19.234487 10.692168 19.219467 10.66857 19.199219 10.648438 C 19.177247 10.626636 19.15322 10.610707 19.130859 10.589844 C 19.111365 10.569062 19.096501 10.545577 19.076172 10.525391 C 19.055543 10.504922 19.03269 10.490345 19.011719 10.470703 C 18.99075 10.448223 18.975067 10.422179 18.953125 10.400391 C 18.929385 10.376835 18.903099 10.360351 18.878906 10.337891 C 18.86063 10.318497 18.847131 10.296217 18.828125 10.277344 C 18.805788 10.25518 18.78055 10.239944 18.757812 10.21875 C 18.737987 10.197589 18.723815 10.172889 18.703125 10.152344 C 18.680116 10.129514 18.654293 10.113598 18.630859 10.091797 C 18.611095 10.070706 18.596795 10.04587 18.576172 10.025391 C 18.553777 10.00317 18.528657 9.9880425 18.505859 9.9667969 C 18.485544 9.9450714 18.470445 9.919515 18.449219 9.8984375 C 18.426081 9.8754798 18.40052 9.8598081 18.376953 9.8378906 C 18.357189 9.8167994 18.342889 9.7919637 18.322266 9.7714844 C 18.301218 9.7506 18.277264 9.7368205 18.255859 9.7167969 C 18.233963 9.6932382 18.218275 9.6653797 18.195312 9.6425781 C 18.170899 9.6183543 18.144032 9.6011906 18.119141 9.578125 C 18.100255 9.5580383 18.086073 9.5351547 18.066406 9.515625 C 18.042726 9.4921286 18.016318 9.4755317 17.992188 9.453125 C 17.97182 9.4313398 17.95683 9.4058995 17.935547 9.3847656 C 17.914193 9.3635773 17.890861 9.3484273 17.869141 9.328125 C 17.846974 9.3042506 17.829901 9.2770039 17.806641 9.2539062 C 17.783207 9.2306542 17.756296 9.2155443 17.732422 9.1933594 C 17.711725 9.1711936 17.697425 9.1445392 17.675781 9.1230469 C 17.650695 9.0981552 17.623247 9.0803093 17.597656 9.0566406 C 17.578162 9.0358593 17.563297 9.0123741 17.542969 8.9921875 C 17.519229 8.9686316 17.492942 8.9521482 17.46875 8.9296875 C 17.447781 8.9072071 17.432098 8.8811635 17.410156 8.859375 C 17.386722 8.836123 17.359812 8.821013 17.335938 8.7988281 C 17.314575 8.7758909 17.299718 8.7487805 17.277344 8.7265625 C 17.252992 8.7023997 17.225999 8.6851198 17.201172 8.6621094 C 17.180203 8.639629 17.16452 8.6135853 17.142578 8.5917969 C 17.118471 8.567877 17.090979 8.5520874 17.066406 8.5292969 C 17.045109 8.5064353 17.030115 8.4791782 17.007812 8.4570312 C 16.984072 8.4334753 16.957786 8.416992 16.933594 8.3945312 C 16.911958 8.3712767 16.895721 8.3447817 16.873047 8.3222656 C 16.84833 8.2977407 16.820128 8.2811502 16.794922 8.2578125 C 16.773624 8.2349509 16.758631 8.2076938 16.736328 8.1855469 C 16.712221 8.161627 16.684729 8.1458374 16.660156 8.1230469 C 16.638193 8.09941 16.622645 8.071703 16.599609 8.0488281 C 16.576542 8.0259401 16.550838 8.0101353 16.527344 7.9882812 C 16.504255 7.9633249 16.487171 7.934267 16.462891 7.9101562 C 16.438111 7.8855685 16.410038 7.8690976 16.384766 7.8457031 C 16.362869 7.8221445 16.347181 7.7942859 16.324219 7.7714844 C 16.297419 7.7448929 16.267608 7.7263675 16.240234 7.7011719 C 16.219867 7.6793866 16.204876 7.6539464 16.183594 7.6328125 C 16.160527 7.6099244 16.134822 7.5941197 16.111328 7.5722656 C 16.087646 7.5466087 16.069861 7.5169528 16.044922 7.4921875 C 16.019835 7.4672958 15.992387 7.44945 15.966797 7.4257812 C 15.94463 7.4019069 15.927557 7.3746601 15.904297 7.3515625 C 15.877131 7.3246071 15.846115 7.3067712 15.818359 7.28125 C 15.797662 7.2590842 15.783362 7.2324298 15.761719 7.2109375 C 15.736265 7.1856818 15.707612 7.1685279 15.681641 7.1445312 C 15.659147 7.1202744 15.642762 7.0918155 15.619141 7.0683594 C 15.593687 7.0431037 15.565034 7.0259498 15.539062 7.0019531 C 15.516569 6.9776962 15.500184 6.9492374 15.476562 6.9257812 C 15.452822 6.9022253 15.426536 6.885742 15.402344 6.8632812 C 15.37807 6.8369225 15.359583 6.8066699 15.333984 6.78125 C 15.308225 6.7556904 15.280197 6.7371607 15.253906 6.7128906 C 15.231143 6.6883175 15.213373 6.660471 15.189453 6.6367188 C 15.161614 6.6090955 15.130021 6.5905702 15.101562 6.5644531 C 15.080265 6.5415915 15.065272 6.5143344 15.042969 6.4921875 C 15.018862 6.4682676 14.99137 6.4524781 14.966797 6.4296875 C 14.9422 6.4029439 14.924397 6.3714815 14.898438 6.3457031 C 14.872311 6.3197796 14.843079 6.3019408 14.816406 6.2773438 C 14.793318 6.2523874 14.776234 6.2233294 14.751953 6.1992188 C 14.723807 6.1712916 14.69284 6.1513877 14.664062 6.125 C 14.642494 6.1018232 14.626117 6.0751774 14.603516 6.0527344 C 14.576716 6.0261429 14.546905 6.0076176 14.519531 5.9824219 C 14.496443 5.9574656 14.479359 5.9284076 14.455078 5.9042969 C 13.971954 5.4249232 13.392608 5.1722968 12.822266 5.1503906 z "
       id="path25473"
       clip-path="url(#clipPath26373)" />
    <path
       style="fill:none"
       inkscape:connector-curvature="0"
       id="path4"
       d="m 3.9999777,4.0333382 12.0000003,0 0,11.9333328 -12.0000003,0 z" />
    <path
       d="m 18.999978,19.033339 12,0 0,11.933333 -12,0 z"
       id="path9754"
       inkscape:connector-curvature="0"
       style="fill:none" />
    <rect
       y="8.0675735"
       x="4.4194174"
       height="8.207489"
       width="11.743023"
       id="rect5844"
       style="opacity:0.96300001;fill:#37474f;fill-opacity:0;stroke:none;stroke-width:1.25;stroke-linecap:round;stroke-linejoin:round;stroke-miterlimit:4;stroke-dasharray:none;stroke-opacity:1" />
    <g
       id="g22408"
       transform="matrix(0.01782531,0,0,0.01782531,4.9999783,5.0000053)" />
    <g
       id="g22410"
       transform="matrix(0.01782531,0,0,0.01782531,4.9999783,5.0000053)" />
    <g
       id="g22412"
       transform="matrix(0.01782531,0,0,0.01782531,4.9999783,5.0000053)" />
    <g
       id="g22414"
       transform="matrix(0.01782531,0,0,0.01782531,4.9999783,5.0000053)" />
    <g
       id="g22416"
       transform="matrix(0.01782531,0,0,0.01782531,4.9999783,5.0000053)" />
    <g
       id="g22418"
       transform="matrix(0.01782531,0,0,0.01782531,4.9999783,5.0000053)" />
    <g
       id="g22420"
       transform="matrix(0.01782531,0,0,0.01782531,4.9999783,5.0000053)" />
    <g
       id="g22422"
       transform="matrix(0.01782531,0,0,0.01782531,4.9999783,5.0000053)" />
    <g
       id="g22424"
       transform="matrix(0.01782531,0,0,0.01782531,4.9999783,5.0000053)" />
    <g
       id="g22426"
       transform="matrix(0.01782531,0,0,0.01782531,4.9999783,5.0000053)" />
    <g
       id="g22428"
       transform="matrix(0.01782531,0,0,0.01782531,4.9999783,5.0000053)" />
    <g
       id="g22430"
       transform="matrix(0.01782531,0,0,0.01782531,4.9999783,5.0000053)" />
    <g
       id="g22432"
       transform="matrix(0.01782531,0,0,0.01782531,4.9999783,5.0000053)" />
    <g
       id="g22434"
       transform="matrix(0.01782531,0,0,0.01782531,4.9999783,5.0000053)" />
    <g
       id="g22436"
       transform="matrix(0.01782531,0,0,0.01782531,4.9999783,5.0000053)" />
    <g
       id="g22472"
       transform="matrix(0.01782531,0,0,0.01782531,19.999978,20.000005)" />
    <g
       id="g22474"
       transform="matrix(0.01782531,0,0,0.01782531,19.999978,20.000005)" />
    <g
       id="g22476"
       transform="matrix(0.01782531,0,0,0.01782531,19.999978,20.000005)" />
    <g
       id="g22478"
       transform="matrix(0.01782531,0,0,0.01782531,19.999978,20.000005)" />
    <g
       id="g22480"
       transform="matrix(0.01782531,0,0,0.01782531,19.999978,20.000005)" />
    <g
       id="g22482"
       transform="matrix(0.01782531,0,0,0.01782531,19.999978,20.000005)" />
    <g
       id="g22484"
       transform="matrix(0.01782531,0,0,0.01782531,19.999978,20.000005)" />
    <g
       id="g22486"
       transform="matrix(0.01782531,0,0,0.01782531,19.999978,20.000005)" />
    <g
       id="g22488"
       transform="matrix(0.01782531,0,0,0.01782531,19.999978,20.000005)" />
    <g
       id="g22490"
       transform="matrix(0.01782531,0,0,0.01782531,19.999978,20.000005)" />
    <g
       id="g22492"
       transform="matrix(0.01782531,0,0,0.01782531,19.999978,20.000005)" />
    <g
       id="g22494"
       transform="matrix(0.01782531,0,0,0.01782531,19.999978,20.000005)" />
    <g
       id="g22496"
       transform="matrix(0.01782531,0,0,0.01782531,19.999978,20.000005)" />
    <g
       id="g22498"
       transform="matrix(0.01782531,0,0,0.01782531,19.999978,20.000005)" />
    <g
       id="g22500"
       transform="matrix(0.01782531,0,0,0.01782531,19.999978,20.000005)" />
    <path
       d="m 8.6622314,12.933885 -0.5059985,0.502499 c -0.4386238,0.434749 -1.1519968,0.435124 -1.5903706,0 C 6.3551129,13.22726 6.2393632,12.94951 6.2393632,12.654261 c 0,-0.295249 0.1158747,-0.573123 0.3263741,-0.782248 L 8.4282321,10.024144 C 8.814231,9.6413947 9.540354,9.0777713 10.069603,9.6026448 10.312477,9.8438941 10.704726,9.8422691 10.94585,9.5995198 11.187099,9.3567705 11.185599,8.9643966 10.942725,8.7233973 10.043103,7.8306498 8.7134813,7.9956493 7.5554845,9.1446461 L 5.6928648,10.992641 c -0.4468738,0.443624 -0.6928731,1.033622 -0.6928731,1.66162 0,0.627999 0.2459993,1.217872 0.6929981,1.661496 0.4598737,0.456248 1.063747,0.684248 1.6678703,0.684248 0.6042483,0 1.2083716,-0.228 1.6684953,-0.684498 L 9.535729,13.812883 C 9.7784783,13.571884 9.7798533,13.179635 9.538604,12.93676 9.2977297,12.694136 8.9051058,12.692761 8.6622314,12.933885 Z M 14.306716,5.7555306 C 13.340468,4.7967833 11.989472,4.7447834 11.094975,5.6322809 l -0.630749,0.6261233 c -0.242874,0.2411243 -0.244374,0.6332482 -0.0031,0.8761225 0.24125,0.2428743 0.633499,0.2442493 0.876373,0.00312 l 0.630498,-0.6257482 c 0.463374,-0.4601237 1.070122,-0.2693743 1.465871,0.1232496 0.210999,0.2091244 0.326874,0.4869987 0.326874,0.7822478 0,0.2953742 -0.116,0.5732484 -0.326624,0.7823728 l -1.987119,1.9712443 c -0.908623,0.901498 -1.334872,0.478374 -1.5167461,0.297874 -0.2428743,-0.241124 -0.6349982,-0.239624 -0.8762476,0.0031 -0.2412493,0.24275 -0.2397493,0.635124 0.00313,0.876123 0.4171239,0.413999 0.8932475,0.619248 1.3923707,0.619248 0.611124,0 1.256622,-0.307749 1.87037,-0.917122 l 1.98712,-1.9712447 c 0.446748,-0.4436238 0.692998,-1.0337471 0.692998,-1.6617454 0,-0.6277482 -0.24625,-1.2178716 -0.693248,-1.6617453 z"
       style="fill:#eeeeee"
       id="path24424" />
    <g
       transform="matrix(0.12499965,0,0,0.12499965,4.9999917,5.0000327)"
       id="g24426" />
    <g
       transform="matrix(0.12499965,0,0,0.12499965,4.9999917,5.0000327)"
       id="g24428" />
    <g
       transform="matrix(0.12499965,0,0,0.12499965,4.9999917,5.0000327)"
       id="g24430" />
    <g
       transform="matrix(0.12499965,0,0,0.12499965,4.9999917,5.0000327)"
       id="g24432" />
    <g
       transform="matrix(0.12499965,0,0,0.12499965,4.9999917,5.0000327)"
       id="g24434" />
    <g
       transform="matrix(0.12499965,0,0,0.12499965,4.9999917,5.0000327)"
       id="g24436" />
    <g
       transform="matrix(0.12499965,0,0,0.12499965,4.9999917,5.0000327)"
       id="g24438" />
    <g
       transform="matrix(0.12499965,0,0,0.12499965,4.9999917,5.0000327)"
       id="g24440" />
    <g
       transform="matrix(0.12499965,0,0,0.12499965,4.9999917,5.0000327)"
       id="g24442" />
    <g
       transform="matrix(0.12499965,0,0,0.12499965,4.9999917,5.0000327)"
       id="g24444" />
    <g
       transform="matrix(0.12499965,0,0,0.12499965,4.9999917,5.0000327)"
       id="g24446" />
    <g
       transform="matrix(0.12499965,0,0,0.12499965,4.9999917,5.0000327)"
       id="g24448" />
    <g
       transform="matrix(0.12499965,0,0,0.12499965,4.9999917,5.0000327)"
       id="g24450" />
    <g
       transform="matrix(0.12499965,0,0,0.12499965,4.9999917,5.0000327)"
       id="g24452" />
    <g
       transform="matrix(0.12499965,0,0,0.12499965,4.9999917,5.0000327)"
       id="g24454" />
  </g>
</svg>
