<?xml version="1.0" encoding="UTF-8" standalone="no"?>
<!-- Created with Inkscape (http://www.inkscape.org/) -->

<svg
   xmlns:dc="http://purl.org/dc/elements/1.1/"
   xmlns:cc="http://creativecommons.org/ns#"
   xmlns:rdf="http://www.w3.org/1999/02/22-rdf-syntax-ns#"
   xmlns:svg="http://www.w3.org/2000/svg"
   xmlns="http://www.w3.org/2000/svg"
   xmlns:xlink="http://www.w3.org/1999/xlink"
   xmlns:sodipodi="http://sodipodi.sourceforge.net/DTD/sodipodi-0.dtd"
   xmlns:inkscape="http://www.inkscape.org/namespaces/inkscape"
   sodipodi:docname="Fahrplan.svg"
   inkscape:version="0.91 r13725"
   version="1.1"
   id="svg2"
   viewBox="0 0 20 20"
   height="5.6444445mm"
   width="5.6444445mm"
   inkscape:export-filename="/home/juergen/Schreibtisch/qdad.png"
   inkscape:export-xdpi="648"
   inkscape:export-ydpi="648">
  <sodipodi:namedview
     inkscape:snap-to-guides="false"
     inkscape:snap-grids="false"
     inkscape:window-maximized="1"
     inkscape:window-y="0"
     inkscape:window-x="0"
     inkscape:window-height="726"
     inkscape:window-width="1366"
     inkscape:guide-bbox="true"
     showguides="true"
     fit-margin-bottom="0"
     fit-margin-right="0"
     fit-margin-left="0"
     fit-margin-top="0"
     showgrid="true"
     inkscape:current-layer="layer2"
     inkscape:document-units="px"
     inkscape:cy="8.5875196"
     inkscape:cx="-0.67813441"
     inkscape:zoom="15.839192"
     inkscape:pageshadow="2"
     inkscape:pageopacity="0.0"
     borderopacity="1.0"
     bordercolor="#666666"
     pagecolor="#ffffff"
     id="base">
    <inkscape:grid
       type="xygrid"
       id="grid4138" />
    <sodipodi:guide
       position="10,18"
       orientation="0,1"
       id="guide4140" />
    <sodipodi:guide
       position="10,2"
       orientation="0,1"
       id="guide4142" />
    <sodipodi:guide
       position="2,10"
       orientation="1,0"
       id="guide4144" />
    <sodipodi:guide
       position="0,0"
       orientation="0,20"
       id="guide4146" />
    <sodipodi:guide
       position="20,0"
       orientation="-20,0"
       id="guide4148" />
    <sodipodi:guide
       position="20,20"
       orientation="0,-20"
       id="guide4150" />
    <sodipodi:guide
       position="0,20"
       orientation="20,0"
       id="guide4152" />
    <sodipodi:guide
       position="18,10"
       orientation="1,0"
       id="guide4154" />
    <sodipodi:guide
       position="10,10"
       orientation="-0.70710678,0.70710678"
       id="guide4156" />
    <sodipodi:guide
       position="10,10"
       orientation="0.70710678,0.70710678"
       id="guide4158" />
    <sodipodi:guide
       position="4,10"
       orientation="1,0"
       id="guide4160" />
    <sodipodi:guide
       position="16,10"
       orientation="1,0"
       id="guide4162" />
    <sodipodi:guide
       position="10,16"
       orientation="0,1"
       id="guide4164" />
    <sodipodi:guide
       position="10,4"
       orientation="0,1"
       id="guide4166" />
    <sodipodi:guide
       position="10,15"
       orientation="0,1"
       id="guide4168" />
    <sodipodi:guide
       position="10,5"
       orientation="0,1"
       id="guide4170" />
    <sodipodi:guide
       position="5,10"
       orientation="1,0"
       id="guide4172" />
    <sodipodi:guide
       position="15,10"
       orientation="1,0"
       id="guide4174" />
  </sodipodi:namedview>
  <defs
     id="defs4">
    <linearGradient
       inkscape:collect="always"
       id="linearGradient7664">
      <stop
         style="stop-color:#000000;stop-opacity:1;"
         offset="0"
         id="stop7666" />
      <stop
         style="stop-color:#000000;stop-opacity:0;"
         offset="1"
         id="stop7668" />
    </linearGradient>
    <clipPath
       id="clipPath12478"
       clipPathUnits="userSpaceOnUse">
      <circle
         r="10"
         cy="10.000005"
         cx="9.9999781"
         id="circle12480"
         style="opacity:1;fill:#2196f3;fill-opacity:1;stroke:none;stroke-width:0.05069799;stroke-miterlimit:4;stroke-dasharray:none;stroke-opacity:1" />
    </clipPath>
    <clipPath
       clipPathUnits="userSpaceOnUse"
       id="clipPath13251">
      <circle
         r="10"
         cy="10.000005"
         cx="9.9999781"
         id="circle13253"
         style="opacity:1;fill:#2196f3;fill-opacity:1;stroke:none;stroke-width:0.05069799;stroke-miterlimit:4;stroke-dasharray:none;stroke-opacity:1"
         inkscape:export-filename="/home/juergen/path4136.png"
         inkscape:export-xdpi="648"
         inkscape:export-ydpi="648" />
    </clipPath>
    <clipPath
       id="clipPath5054"
       clipPathUnits="userSpaceOnUse">
      <circle
         r="10"
         cy="10.000005"
         cx="9.9999781"
         id="circle5056"
         style="opacity:1;fill:#2196f3;fill-opacity:1;stroke:none;stroke-width:0.05069799;stroke-miterlimit:4;stroke-dasharray:none;stroke-opacity:1"
         inkscape:export-filename="/home/juergen/path4136.png"
         inkscape:export-xdpi="648"
         inkscape:export-ydpi="648" />
    </clipPath>
    <clipPath
       clipPathUnits="userSpaceOnUse"
       id="clipPath5119">
      <circle
         r="10"
         cy="10.000005"
         cx="9.9999781"
         id="circle5121"
         style="opacity:1;fill:#2196f3;fill-opacity:1;stroke:none;stroke-width:0.05069799;stroke-miterlimit:4;stroke-dasharray:none;stroke-opacity:1"
         inkscape:export-filename="/home/juergen/path4136.png"
         inkscape:export-xdpi="648"
         inkscape:export-ydpi="648" />
    </clipPath>
    <clipPath
       id="clipPath6096"
       clipPathUnits="userSpaceOnUse">
      <circle
         r="10"
         cy="10.000005"
         cx="9.9999781"
         id="circle6098"
         style="opacity:1;fill:#4caf50;fill-opacity:1;stroke:none;stroke-width:0.05069799;stroke-miterlimit:4;stroke-dasharray:none;stroke-opacity:1"
         inkscape:export-filename="/home/juergen/path4136.png"
         inkscape:export-xdpi="648"
         inkscape:export-ydpi="648" />
    </clipPath>
    <linearGradient
       inkscape:collect="always"
       xlink:href="#linearGradient7664"
       id="linearGradient7670"
       x1="10"
       y1="10"
       x2="20"
       y2="20"
       gradientUnits="userSpaceOnUse" />
    <clipPath
       clipPathUnits="userSpaceOnUse"
       id="clipPath7681">
      <circle
         r="10"
         cy="10.000005"
         cx="9.9999781"
         id="circle7683"
         style="opacity:1;fill:#ffeb3b;fill-opacity:1;stroke:none;stroke-width:0.05069799;stroke-miterlimit:4;stroke-dasharray:none;stroke-opacity:1"
         inkscape:export-filename="/home/juergen/path4136.png"
         inkscape:export-xdpi="648"
         inkscape:export-ydpi="648" />
    </clipPath>
  </defs>
  <metadata
     id="metadata7">
    <rdf:RDF>
      <cc:Work
         rdf:about="">
        <dc:format>image/svg+xml</dc:format>
        <dc:type
           rdf:resource="http://purl.org/dc/dcmitype/StillImage" />
        <dc:title />
      </cc:Work>
    </rdf:RDF>
  </metadata>
  <g
     inkscape:label="Hintergrund"
     inkscape:groupmode="layer"
     id="layer1"
     transform="translate(1058.1428,-861.93365)">
    <circle
       inkscape:export-ydpi="648"
       inkscape:export-xdpi="648"
       inkscape:export-filename="/home/juergen/Schreibtisch/qqq.png"
       style="opacity:1;fill:#ffeb3b;fill-opacity:1;stroke:none;stroke-width:0.05069799;stroke-miterlimit:4;stroke-dasharray:none;stroke-opacity:1"
       id="path4136"
       cx="-1048.1428"
       cy="871.93365"
       r="10" />
  </g>
  <g
     style="display:inline"
     inkscape:groupmode="layer"
     id="layer2"
     inkscape:label="Icon">
    <path
       d="m 3.9999777,4.0333382 12.0000003,0 0,11.9333328 -12.0000003,0 z"
       id="path4"
       inkscape:connector-curvature="0"
       style="fill:none" />
    <path
       style="fill:none"
       inkscape:connector-curvature="0"
       id="path9754"
       d="m 18.999978,19.033339 12,0 0,11.933333 -12,0 z" />
    <path
       inkscape:connector-curvature="0"
       d="m 12.499978,13.000005 c -0.3,0 -0.5,-0.2 -0.5,-0.5 0,-0.3 0.2,-0.5 0.5,-0.5 0.3,0 0.5,0.2 0.5,0.5 0,0.3 -0.2,0.5 -0.5,0.5 m -5.1500003,-3.6500002 0.15,-1.7 c 0,-0.35 0.3,-0.65 0.65,-0.65 l 3.6500003,0 c 0.4,0 0.7,0.3 0.7,0.65 l 0.15,1.65 c 0,0.3500001 -0.3,0.6500001 -0.65,0.6500001 l -4.0000003,0 c -0.35,0.05 -0.65,-0.25 -0.65,-0.6000001 m 0.15,3.6500002 c -0.3,0 -0.5,-0.2 -0.5,-0.5 0,-0.3 0.2,-0.5 0.5,-0.5 0.3,0 0.5,0.2 0.5,0.5 0,0.3 -0.2,0.5 -0.5,0.5 M 13.499978,7.0000048 a 1,1 0 0 0 -1,-1 l -1,0 a 1,1 0 0 0 -1,-1 l -1.0000003,0 a 1,1 0 0 0 -1,1 l -1,0 a 1,1 0 0 0 -1,1 l -0.5,6.0000002 a 1,1 0 0 0 1,1 l 1,0 -0.5,1 5.0500003,0 -0.5,-1 0.95,0 a 1,1 0 0 0 1,-1 l -0.5,-6.0000002 z"
       id="path6767" />
    <path
       d="M 9.6484375 5.1484375 C 9.383221 5.1484375 9.1289427 5.2538699 8.9414062 5.4414062 C 8.7538698 5.6289426 8.6484375 5.883221 8.6484375 6.1484375 L 7.6484375 6.1484375 C 7.383221 6.1484375 7.1289426 6.2538699 6.9414062 6.4414062 C 6.7538699 6.6289426 6.6484375 6.883221 6.6484375 7.1484375 L 6.1484375 13.148438 C 6.1484375 13.413654 6.2538699 13.667933 6.4414062 13.855469 C 6.4671921 13.881255 6.5030832 13.891444 6.53125 13.914062 C 6.5538683 13.942229 6.5640579 13.97812 6.5898438 14.003906 C 6.6152393 14.029302 6.6500273 14.040176 6.6777344 14.0625 C 6.7003266 14.090626 6.710577 14.126593 6.7363281 14.152344 C 6.762656 14.178672 6.7993182 14.189866 6.828125 14.212891 C 6.8499546 14.239833 6.8600215 14.274084 6.8847656 14.298828 C 6.9097708 14.323833 6.9434548 14.335394 6.9707031 14.357422 C 6.9927313 14.38467 7.0042917 14.418354 7.0292969 14.443359 C 7.0546924 14.468755 7.0894804 14.479629 7.1171875 14.501953 C 7.1395115 14.52966 7.1503857 14.564448 7.1757812 14.589844 C 7.2007864 14.614849 7.2344704 14.626409 7.2617188 14.648438 C 7.283747 14.675686 7.2953073 14.70937 7.3203125 14.734375 C 7.3450567 14.759119 7.3793079 14.769186 7.40625 14.791016 C 7.4280796 14.817958 7.4381465 14.852209 7.4628906 14.876953 C 7.487635 14.901697 7.5218858 14.911764 7.5488281 14.933594 C 7.5706577 14.960536 7.5807246 14.994787 7.6054688 15.019531 C 7.6285199 15.042582 7.6605807 15.051741 7.6855469 15.072266 L 7.6484375 15.148438 L 7.7382812 15.148438 C 7.7422423 15.152536 7.7440095 15.158072 7.7480469 15.162109 C 7.7727912 15.186854 7.8089952 15.198873 7.8359375 15.220703 C 7.8359375 15.220703 7.8359375 15.222656 7.8359375 15.222656 L 7.796875 15.296875 L 7.8847656 15.296875 C 7.8870843 15.29924 7.8882806 15.302343 7.890625 15.304688 C 7.9149786 15.329041 7.9481247 15.339797 7.9746094 15.361328 C 7.9772579 15.364586 7.97973 15.367866 7.9824219 15.371094 L 7.9453125 15.445312 L 8.03125 15.445312 C 8.0549525 15.469015 8.0875571 15.47897 8.1132812 15.5 C 8.1183476 15.506232 8.1217284 15.513412 8.1269531 15.519531 L 8.0917969 15.591797 L 8.1816406 15.591797 C 8.2028762 15.612432 8.2311036 15.622087 8.2539062 15.640625 C 8.2604694 15.648698 8.2646557 15.658133 8.2714844 15.666016 L 8.2363281 15.736328 L 8.328125 15.736328 C 8.3467065 15.754127 8.3708603 15.763085 8.390625 15.779297 C 8.4001471 15.790999 8.4059367 15.805107 8.4160156 15.816406 L 8.3828125 15.882812 L 8.4765625 15.882812 C 8.4928814 15.898007 8.5140494 15.905926 8.53125 15.919922 C 8.5420196 15.933051 8.5490739 15.948323 8.5605469 15.960938 L 8.5273438 16.027344 L 8.6269531 16.027344 C 8.6393228 16.038532 8.6551079 16.044173 8.6679688 16.054688 C 8.6811418 16.070801 8.6888966 16.090132 8.703125 16.105469 L 8.6699219 16.169922 L 8.7714844 16.169922 C 8.7817633 16.179036 8.7940769 16.184704 8.8046875 16.193359 C 8.819394 16.211288 8.8277361 16.233041 8.84375 16.25 L 8.8125 16.3125 L 8.9179688 16.3125 C 8.9247452 16.31837 8.9325359 16.322451 8.9394531 16.328125 C 8.9568232 16.349301 8.9671382 16.374718 8.9863281 16.394531 L 8.9550781 16.455078 L 9.0644531 16.455078 C 9.0676708 16.457786 9.0709703 16.460226 9.0742188 16.462891 C 9.0940204 16.487031 9.1047912 16.516704 9.1269531 16.539062 L 9.0976562 16.597656 L 9.2109375 16.597656 C 9.2314624 16.622623 9.2406208 16.654683 9.2636719 16.677734 C 9.2647136 16.678776 9.2665323 16.678651 9.2675781 16.679688 L 9.2382812 16.738281 L 9.3476562 16.738281 C 9.366537 16.760841 9.3755166 16.789579 9.3964844 16.810547 C 9.3992191 16.813282 9.403487 16.813707 9.40625 16.816406 L 9.3769531 16.876953 L 9.484375 16.876953 C 9.5018884 16.897579 9.5100222 16.924085 9.5292969 16.943359 C 9.5350273 16.94909 9.5429745 16.951455 9.5488281 16.957031 L 9.5175781 17.017578 L 9.6210938 17.017578 C 9.6366085 17.035478 9.6432962 17.059312 9.6601562 17.076172 C 9.6672897 17.083305 9.6782231 17.084902 9.6855469 17.091797 L 9.6542969 17.154297 L 9.7578125 17.154297 C 9.7719523 17.170386 9.7777314 17.191794 9.7929688 17.207031 C 9.8024756 17.216538 9.8163289 17.219434 9.8261719 17.228516 L 9.7929688 17.292969 L 9.8925781 17.292969 C 9.9043433 17.306049 9.9093724 17.323435 9.921875 17.335938 C 9.9337262 17.347789 9.9505199 17.352092 9.9628906 17.363281 L 9.9296875 17.429688 L 10.027344 17.429688 C 10.037603 17.44093 10.041925 17.455987 10.052734 17.466797 C 10.066669 17.480731 10.086913 17.485029 10.101562 17.498047 L 10.066406 17.566406 L 10.162109 17.566406 C 10.170238 17.575139 10.173175 17.587238 10.181641 17.595703 C 10.197529 17.611592 10.219514 17.618118 10.236328 17.632812 L 10.201172 17.701172 L 10.294922 17.701172 C 10.300867 17.707433 10.302473 17.716535 10.308594 17.722656 C 10.326566 17.740628 10.351944 17.74723 10.371094 17.763672 L 10.335938 17.835938 L 10.425781 17.835938 C 10.429742 17.840036 10.431509 17.845572 10.435547 17.849609 C 10.456427 17.87049 10.485353 17.879627 10.507812 17.898438 L 10.470703 17.970703 L 10.558594 17.970703 C 10.560273 17.972407 10.560807 17.974869 10.5625 17.976562 C 10.584509 17.998571 10.616866 18.009589 10.640625 18.029297 L 10.603516 18.103516 L 10.689453 18.103516 C 10.710811 18.124874 10.740663 18.133152 10.763672 18.152344 C 10.767287 18.156702 10.769744 18.161714 10.773438 18.166016 L 10.736328 18.236328 L 10.826172 18.236328 C 10.843714 18.253374 10.868098 18.259772 10.886719 18.275391 C 10.893096 18.283099 10.895722 18.29325 10.902344 18.300781 L 10.869141 18.369141 L 10.960938 18.369141 C 10.976538 18.383873 10.997248 18.39067 11.013672 18.404297 C 11.021529 18.413686 11.026934 18.424473 11.035156 18.433594 L 11 18.5 L 11.097656 18.5 C 11.109278 18.510663 11.124654 18.515327 11.136719 18.525391 C 11.146783 18.537456 11.151445 18.552831 11.162109 18.564453 L 11.128906 18.628906 L 11.228516 18.628906 C 11.238054 18.637485 11.249936 18.64221 11.259766 18.650391 C 11.272004 18.664933 11.277902 18.683378 11.291016 18.697266 L 11.259766 18.759766 L 11.365234 18.759766 C 11.369522 18.763479 11.374562 18.765896 11.378906 18.769531 C 11.394151 18.787747 11.401359 18.810937 11.417969 18.828125 L 11.388672 18.888672 L 11.498047 18.888672 C 11.498047 18.888672 11.5 18.890625 11.5 18.890625 C 11.517356 18.911364 11.5258 18.937633 11.544922 18.957031 L 11.515625 19.015625 L 11.625 19.015625 C 11.642831 19.036695 11.650257 19.064319 11.669922 19.083984 L 11.642578 19.142578 L 11.748047 19.142578 C 11.764165 19.161288 11.771481 19.185543 11.789062 19.203125 C 11.792058 19.206121 11.795799 19.207984 11.798828 19.210938 L 11.769531 19.269531 L 11.873047 19.269531 C 11.886628 19.284899 11.891664 19.305727 11.90625 19.320312 C 11.912371 19.326433 11.921473 19.328039 11.927734 19.333984 L 11.896484 19.396484 L 11.994141 19.396484 C 12.00586 19.409507 12.010987 19.427003 12.023438 19.439453 C 12.031868 19.447883 12.044039 19.450889 12.052734 19.458984 L 12.021484 19.521484 L 12.119141 19.521484 C 12.128222 19.531327 12.131118 19.545181 12.140625 19.554688 C 12.151435 19.565497 12.166492 19.569819 12.177734 19.580078 L 12.144531 19.644531 L 12.240234 19.644531 C 12.247761 19.652573 12.249999 19.664061 12.257812 19.671875 C 12.270966 19.685029 12.288942 19.690788 12.302734 19.703125 L 12.269531 19.769531 L 12.361328 19.769531 C 12.366286 19.774707 12.367968 19.78203 12.373047 19.787109 C 12.388935 19.802998 12.410921 19.809524 12.427734 19.824219 L 12.392578 19.892578 L 12.482422 19.892578 C 12.485122 19.895341 12.485547 19.899609 12.488281 19.902344 C 12.505863 19.919925 12.530118 19.927241 12.548828 19.943359 L 12.513672 20.013672 L 12.599609 20.013672 C 12.599609 20.013672 12.601562 20.015625 12.601562 20.015625 C 12.621228 20.03529 12.650805 20.044669 12.671875 20.0625 C 12.671875 20.0625 12.671875 20.064453 12.671875 20.064453 L 12.634766 20.134766 L 12.722656 20.134766 C 12.740394 20.152154 12.76435 20.159861 12.783203 20.175781 C 12.785925 20.178987 12.788251 20.182373 12.791016 20.185547 L 12.755859 20.255859 L 12.847656 20.255859 C 12.861491 20.269039 12.880039 20.274803 12.894531 20.287109 C 12.900685 20.294356 12.903784 20.303462 12.910156 20.310547 L 12.876953 20.376953 L 12.974609 20.376953 C 12.98407 20.385634 12.996103 20.390154 13.005859 20.398438 C 13.014735 20.40889 13.019966 20.421527 13.029297 20.431641 L 12.996094 20.496094 L 13.097656 20.496094 C 13.102988 20.500848 13.109811 20.503182 13.115234 20.507812 C 13.126594 20.521191 13.132426 20.537962 13.144531 20.550781 L 13.113281 20.613281 L 13.21875 20.613281 C 13.220548 20.614839 13.222802 20.615644 13.224609 20.617188 C 13.238454 20.633493 13.244817 20.654453 13.259766 20.669922 L 13.230469 20.730469 L 13.337891 20.730469 C 13.35338 20.748509 13.360105 20.772065 13.376953 20.789062 L 13.347656 20.847656 L 13.451172 20.847656 C 13.465312 20.863746 13.471091 20.885153 13.486328 20.900391 C 13.488673 20.902735 13.491775 20.903931 13.494141 20.90625 L 13.464844 20.964844 L 13.564453 20.964844 C 13.576218 20.977924 13.581247 20.99531 13.59375 21.007812 C 13.598439 21.012501 13.604604 21.014946 13.609375 21.019531 L 13.580078 21.080078 L 13.677734 21.080078 C 13.687407 21.09062 13.691014 21.105076 13.701172 21.115234 C 13.708595 21.122658 13.718933 21.125648 13.726562 21.132812 L 13.695312 21.195312 L 13.789062 21.195312 C 13.796227 21.202942 13.799217 21.21328 13.806641 21.220703 C 13.816408 21.230471 13.829721 21.234822 13.839844 21.244141 L 13.808594 21.308594 L 13.900391 21.308594 C 13.905349 21.31377 13.90703 21.321093 13.912109 21.326172 C 13.924612 21.338674 13.941998 21.343704 13.955078 21.355469 L 13.921875 21.421875 L 14.009766 21.421875 C 14.012084 21.42424 14.013281 21.427343 14.015625 21.429688 C 14.030862 21.444925 14.05227 21.450704 14.068359 21.464844 L 14.035156 21.535156 L 14.121094 21.535156 C 14.138458 21.552425 14.165136 21.560325 14.183594 21.576172 C 14.183594 21.576172 14.183594 21.578125 14.183594 21.578125 L 14.146484 21.646484 L 14.236328 21.646484 C 14.250077 21.659771 14.268791 21.665319 14.283203 21.677734 C 14.285949 21.680922 14.288226 21.684344 14.291016 21.6875 L 14.257812 21.757812 L 14.353516 21.757812 C 14.36292 21.766566 14.375064 21.770939 14.384766 21.779297 C 14.390974 21.786504 14.393963 21.795691 14.400391 21.802734 L 14.367188 21.867188 L 14.466797 21.867188 C 14.472098 21.871982 14.478982 21.874234 14.484375 21.878906 C 14.49399 21.890098 14.497672 21.90522 14.507812 21.916016 L 14.476562 21.976562 L 14.578125 21.976562 C 14.581274 21.979332 14.58471 21.981649 14.587891 21.984375 C 14.599055 21.99722 14.605327 22.013077 14.617188 22.025391 L 14.585938 22.085938 L 14.689453 22.085938 C 14.702989 22.101339 14.708115 22.122097 14.722656 22.136719 L 14.693359 22.193359 L 14.794922 22.193359 C 14.80703 22.206866 14.811326 22.225388 14.824219 22.238281 C 14.826302 22.240365 14.829931 22.240124 14.832031 22.242188 L 14.800781 22.300781 L 14.898438 22.300781 C 14.90811 22.311323 14.911717 22.325779 14.921875 22.335938 C 14.926954 22.341017 14.934277 22.342698 14.939453 22.347656 L 14.908203 22.408203 L 15.001953 22.408203 C 15.00851 22.415147 15.010806 22.424868 15.017578 22.431641 C 15.025392 22.439454 15.03688 22.441692 15.044922 22.449219 L 15.013672 22.513672 L 15.105469 22.513672 C 15.109805 22.518173 15.110807 22.524869 15.115234 22.529297 C 15.126044 22.540106 15.141101 22.544428 15.152344 22.554688 L 15.119141 22.619141 L 15.205078 22.619141 C 15.206751 22.620837 15.207298 22.623314 15.208984 22.625 C 15.222472 22.638488 15.241701 22.643621 15.255859 22.65625 L 15.222656 22.722656 L 15.310547 22.722656 C 15.324831 22.736737 15.346309 22.742733 15.361328 22.755859 L 15.326172 22.826172 L 15.417969 22.826172 C 15.42901 22.836691 15.443615 22.841599 15.455078 22.851562 C 15.457849 22.854733 15.460077 22.85819 15.462891 22.861328 L 15.429688 22.929688 L 15.527344 22.929688 C 15.53329 22.935144 15.540811 22.93806 15.546875 22.943359 C 15.553138 22.950526 15.556018 22.959795 15.5625 22.966797 L 15.53125 23.03125 L 15.632812 23.03125 C 15.635001 23.033191 15.638421 23.033236 15.640625 23.035156 C 15.649791 23.045621 15.652478 23.060203 15.662109 23.070312 L 15.632812 23.132812 L 15.734375 23.132812 C 15.746039 23.145968 15.751268 23.163199 15.763672 23.175781 L 15.734375 23.234375 L 15.832031 23.234375 C 15.84229 23.245618 15.846612 23.260675 15.857422 23.271484 C 15.858725 23.272787 15.860019 23.274096 15.861328 23.275391 L 15.833984 23.333984 L 15.929688 23.333984 C 15.937214 23.342026 15.939452 23.353514 15.947266 23.361328 C 15.951303 23.365366 15.956839 23.367133 15.960938 23.371094 L 15.931641 23.431641 L 16.023438 23.431641 C 16.028396 23.436817 16.030077 23.44414 16.035156 23.449219 C 16.043621 23.457684 16.055721 23.460622 16.064453 23.46875 L 16.03125 23.53125 L 16.119141 23.53125 C 16.12082 23.532954 16.121354 23.535416 16.123047 23.537109 C 16.134247 23.548309 16.150445 23.551891 16.162109 23.5625 L 16.128906 23.628906 L 16.216797 23.628906 C 16.228724 23.640664 16.24537 23.645157 16.257812 23.65625 L 16.224609 23.724609 L 16.316406 23.724609 C 16.326118 23.733861 16.339571 23.737271 16.349609 23.746094 C 16.352156 23.748975 16.352887 23.753005 16.355469 23.755859 L 16.322266 23.822266 L 16.419922 23.822266 C 16.423443 23.825479 16.428078 23.82692 16.431641 23.830078 C 16.437901 23.837198 16.440789 23.84656 16.447266 23.853516 L 16.416016 23.916016 L 16.517578 23.916016 C 16.517578 23.916016 16.519531 23.917969 16.519531 23.917969 C 16.528644 23.928247 16.533404 23.941241 16.542969 23.951172 L 16.511719 24.011719 L 16.609375 24.011719 C 16.619634 24.022962 16.623956 24.038019 16.634766 24.048828 L 16.605469 24.105469 L 16.701172 24.105469 C 16.708699 24.113511 16.710936 24.124999 16.71875 24.132812 C 16.722136 24.136199 16.727039 24.137293 16.730469 24.140625 L 16.699219 24.199219 L 16.791016 24.199219 C 16.795351 24.20372 16.796354 24.210416 16.800781 24.214844 C 16.806902 24.220965 16.816004 24.222571 16.822266 24.228516 L 16.791016 24.291016 L 16.876953 24.291016 C 16.878626 24.292712 16.879173 24.295189 16.880859 24.296875 C 16.890975 24.306991 16.90552 24.310678 16.916016 24.320312 L 16.882812 24.382812 L 16.970703 24.382812 C 16.981345 24.393245 16.996762 24.396343 17.007812 24.40625 L 16.974609 24.474609 L 17.068359 24.474609 C 17.074648 24.480515 17.083419 24.482553 17.089844 24.488281 C 17.093013 24.491836 17.094432 24.496486 17.097656 24.5 L 17.064453 24.564453 L 17.164062 24.564453 C 17.165154 24.565435 17.166873 24.565429 17.167969 24.566406 C 17.175283 24.57461 17.177943 24.585768 17.185547 24.59375 L 17.154297 24.654297 L 17.251953 24.654297 C 17.259617 24.662695 17.263513 24.673482 17.271484 24.681641 L 17.242188 24.742188 L 17.335938 24.742188 C 17.343102 24.749817 17.346092 24.760155 17.353516 24.767578 C 17.355209 24.769271 17.357671 24.769805 17.359375 24.771484 L 17.330078 24.830078 L 17.419922 24.830078 C 17.423883 24.834177 17.42565 24.839713 17.429688 24.84375 C 17.434767 24.848829 17.44209 24.850511 17.447266 24.855469 L 17.417969 24.917969 L 17.503906 24.917969 C 17.503906 24.917969 17.505859 24.919922 17.505859 24.919922 C 17.514325 24.928387 17.526424 24.931325 17.535156 24.939453 L 17.503906 25.003906 L 17.59375 25.003906 C 17.602344 25.012211 17.614191 25.015472 17.623047 25.023438 L 17.589844 25.089844 L 17.685547 25.089844 C 17.689043 25.09308 17.693728 25.094474 17.697266 25.097656 C 17.701065 25.10188 17.703155 25.107163 17.707031 25.111328 L 17.675781 25.175781 L 17.773438 25.175781 C 17.779865 25.182825 17.782419 25.192344 17.789062 25.199219 L 17.759766 25.259766 L 17.853516 25.259766 C 17.86068 25.267395 17.86367 25.277733 17.871094 25.285156 L 17.841797 25.341797 L 17.931641 25.341797 C 17.935602 25.345896 17.937369 25.351431 17.941406 25.355469 C 17.945444 25.359506 17.950979 25.361273 17.955078 25.365234 L 17.925781 25.425781 L 18.011719 25.425781 C 18.020184 25.434246 18.032283 25.437184 18.041016 25.445312 L 18.007812 25.507812 L 18.099609 25.507812 C 18.105847 25.513787 18.114719 25.515687 18.121094 25.521484 L 18.087891 25.587891 L 18.185547 25.587891 C 18.187303 25.589502 18.18964 25.590199 18.191406 25.591797 C 18.195587 25.596419 18.196899 25.602871 18.201172 25.607422 L 18.169922 25.669922 L 18.265625 25.669922 C 18.271127 25.675833 18.27364 25.683664 18.279297 25.689453 L 18.25 25.75 L 18.341797 25.75 C 18.346133 25.754502 18.347135 25.761197 18.351562 25.765625 C 18.353256 25.767318 18.355718 25.767852 18.357422 25.769531 L 18.328125 25.828125 L 18.416016 25.828125 C 18.417052 25.829171 18.416927 25.83099 18.417969 25.832031 C 18.423699 25.837762 18.431646 25.840127 18.4375 25.845703 L 18.40625 25.90625 L 18.496094 25.90625 C 18.502308 25.912255 18.511226 25.914094 18.517578 25.919922 L 18.484375 25.984375 L 18.582031 25.984375 C 18.583112 25.985367 18.584852 25.985341 18.585938 25.986328 C 18.588528 25.989176 18.589171 25.993273 18.591797 25.996094 L 18.560547 26.060547 L 18.65625 26.060547 C 18.660515 26.065104 18.661658 26.071688 18.666016 26.076172 L 18.636719 26.136719 L 18.726562 26.136719 C 18.729895 26.140148 18.730989 26.145051 18.734375 26.148438 C 18.736719 26.150782 18.739822 26.151978 18.742188 26.154297 L 18.712891 26.212891 L 18.798828 26.212891 C 18.804311 26.218343 18.812764 26.219297 18.818359 26.224609 L 18.787109 26.287109 L 18.880859 26.287109 C 18.884328 26.290384 18.891021 26.293654 18.894531 26.296875 L 18.861328 26.361328 L 18.957031 26.361328 C 18.959657 26.364149 18.960229 26.3683 18.962891 26.371094 L 18.933594 26.433594 L 19.023438 26.433594 C 19.027756 26.438077 19.028793 26.444809 19.033203 26.449219 C 19.033203 26.449219 19.035156 26.451172 19.035156 26.451172 L 19.005859 26.505859 L 19.091797 26.505859 C 19.096486 26.510548 19.10265 26.512992 19.107422 26.517578 L 19.078125 26.578125 L 19.171875 26.578125 C 19.174279 26.580395 19.177264 26.581741 19.179688 26.583984 L 19.148438 26.648438 L 19.242188 26.648438 C 19.24445 26.650847 19.245758 26.653861 19.248047 26.65625 L 19.21875 26.71875 L 19.308594 26.71875 C 19.311293 26.721513 19.311718 26.725781 19.314453 26.728516 C 19.315495 26.729557 19.317314 26.729432 19.318359 26.730469 L 19.289062 26.789062 L 19.376953 26.789062 C 19.379712 26.791767 19.383932 26.792252 19.386719 26.794922 L 19.357422 26.857422 L 19.451172 26.857422 C 19.451172 26.857422 19.453125 26.857422 19.453125 26.857422 C 19.455121 26.859573 19.455015 26.863099 19.457031 26.865234 L 19.425781 26.925781 L 19.515625 26.925781 C 19.517925 26.928161 19.519159 26.931234 19.521484 26.933594 L 19.492188 26.992188 L 19.578125 26.992188 C 19.580866 26.994914 19.585121 26.995356 19.587891 26.998047 L 19.558594 27.058594 L 19.652344 27.058594 C 19.653414 27.059599 19.655175 27.059547 19.65625 27.060547 L 19.625 27.125 L 19.714844 27.125 C 19.716505 27.126719 19.717076 27.129151 19.71875 27.130859 L 19.689453 27.189453 L 19.777344 27.189453 C 19.779048 27.191133 19.781488 27.191693 19.783203 27.193359 L 19.753906 27.253906 L 19.847656 27.253906 C 19.848914 27.255245 19.850297 27.25648 19.851562 27.257812 L 19.818359 27.318359 L 19.90625 27.318359 C 19.907538 27.319674 19.90886 27.320958 19.910156 27.322266 L 19.880859 27.380859 L 19.970703 27.380859 C 19.970703 27.380859 19.972656 27.380859 19.972656 27.380859 L 19.941406 27.441406 L 20.03125 27.441406 C 20.032263 27.442464 20.032185 27.444259 20.033203 27.445312 L 20.003906 27.503906 L 20.091797 27.503906 C 20.091797 27.503906 20.09375 27.503906 20.09375 27.503906 C 20.09375 27.503906 20.09375 27.505859 20.09375 27.505859 L 20.064453 27.564453 L 20.152344 27.564453 L 20.123047 27.623047 L 20.208984 27.623047 C 20.208984 27.623047 20.210938 27.625 20.210938 27.625 C 20.210938 27.625 20.212891 27.626953 20.212891 27.626953 L 20.183594 27.683594 L 20.269531 27.683594 L 20.240234 27.740234 L 20.326172 27.740234 C 20.326172 27.740234 20.328125 27.740234 20.328125 27.740234 C 20.328125 27.740234 20.328125 27.742188 20.328125 27.742188 L 20.298828 27.798828 L 20.382812 27.798828 L 20.355469 27.855469 L 20.441406 27.855469 L 20.412109 27.912109 L 20.494141 27.912109 L 20.466797 27.966797 L 20.548828 27.966797 L 20.521484 28.021484 L 20.603516 28.021484 L 20.576172 28.076172 L 20.65625 28.076172 L 20.628906 28.128906 L 20.707031 28.128906 L 20.681641 28.181641 L 20.757812 28.181641 L 20.732422 28.232422 L 20.808594 28.232422 L 20.783203 28.283203 L 20.859375 28.283203 L 20.833984 28.333984 L 20.90625 28.333984 L 20.882812 28.382812 L 20.957031 28.382812 L 20.931641 28.431641 L 21.001953 28.431641 L 20.978516 28.478516 L 21.050781 28.478516 L 21.027344 28.527344 L 21.09375 28.527344 L 21.072266 28.572266 L 21.142578 28.572266 L 21.119141 28.619141 L 21.1875 28.619141 L 21.164062 28.664062 L 21.228516 28.664062 L 21.207031 28.707031 L 21.273438 28.707031 L 21.251953 28.751953 L 21.3125 28.751953 L 21.292969 28.792969 L 21.357422 28.792969 L 21.335938 28.835938 L 21.398438 28.835938 L 21.376953 28.876953 L 21.4375 28.876953 L 21.417969 28.917969 L 21.476562 28.917969 L 21.457031 28.957031 L 21.515625 28.957031 L 21.496094 28.996094 L 21.554688 28.996094 L 21.535156 29.035156 L 21.589844 29.035156 L 21.572266 29.072266 L 21.628906 29.072266 L 21.609375 29.109375 L 21.662109 29.109375 L 21.644531 29.144531 L 21.697266 29.144531 L 21.679688 29.179688 L 21.732422 29.179688 L 21.714844 29.214844 L 21.765625 29.214844 L 21.748047 29.248047 L 21.796875 29.248047 L 21.78125 29.28125 L 21.832031 29.28125 L 21.814453 29.314453 L 21.861328 29.314453 L 21.845703 29.345703 L 21.890625 29.345703 L 21.875 29.375 L 21.921875 29.375 L 21.90625 29.40625 L 21.949219 29.40625 L 21.935547 29.435547 L 21.976562 29.435547 L 21.962891 29.464844 L 22.005859 29.464844 L 21.992188 29.492188 L 22.033203 29.492188 L 22.019531 29.519531 L 22.058594 29.519531 L 22.044922 29.544922 L 22.082031 29.544922 L 22.070312 29.570312 L 22.109375 29.570312 L 22.095703 29.595703 L 22.130859 29.595703 L 22.119141 29.619141 L 22.154297 29.619141 L 22.142578 29.642578 L 22.177734 29.642578 L 22.166016 29.666016 L 22.199219 29.666016 L 22.1875 29.6875 L 22.21875 29.6875 L 22.208984 29.708984 L 22.238281 29.708984 L 22.228516 29.728516 L 22.257812 29.728516 L 22.248047 29.748047 L 22.277344 29.748047 L 22.267578 29.767578 L 22.294922 29.767578 L 22.285156 29.787109 L 22.310547 29.787109 L 22.302734 29.802734 L 22.328125 29.802734 L 22.320312 29.820312 L 22.34375 29.820312 L 22.335938 29.835938 L 22.359375 29.835938 L 22.351562 29.851562 L 22.371094 29.851562 L 22.365234 29.865234 L 22.386719 29.865234 L 22.378906 29.878906 L 22.398438 29.878906 L 22.392578 29.892578 L 22.410156 29.892578 L 22.404297 29.904297 L 22.421875 29.904297 L 22.416016 29.916016 L 22.433594 29.916016 L 22.427734 29.927734 L 22.441406 29.927734 L 22.4375 29.9375 L 22.453125 29.9375 L 22.447266 29.947266 L 22.458984 29.947266 L 22.455078 29.955078 L 22.466797 29.955078 L 22.462891 29.962891 L 22.474609 29.962891 L 22.470703 29.970703 L 22.480469 29.970703 L 22.476562 29.976562 L 22.484375 29.976562 L 22.482422 29.982422 L 22.488281 29.982422 L 22.486328 29.986328 L 22.492188 29.986328 L 22.490234 29.990234 L 22.496094 29.990234 L 22.494141 29.994141 L 22.496094 29.994141 L 22.496094 29.996094 L 22.5 29.996094 L 22.5 29.998047 L 22.5 30 L 27.548828 30 L 27.546875 29.998047 L 27.546875 29.996094 L 27.048828 29 L 28 29 C 28.265216 29 28.519494 28.894567 28.707031 28.707031 C 28.894567 28.519494 29 28.265216 29 28 L 28.5 22 C 28.5 21.86647 28.47233 21.736116 28.421875 21.615234 C 28.421875 21.615234 28.419922 21.613281 28.419922 21.613281 C 28.37019 21.495036 28.299497 21.385434 28.207031 21.292969 C 28.205338 21.291276 28.202876 21.290742 28.201172 21.289062 C 28.201172 21.289062 28.201172 21.287109 28.201172 21.287109 C 28.201172 21.287109 28.199219 21.285156 28.199219 21.285156 C 28.199219 21.285156 28.197266 21.283203 28.197266 21.283203 C 28.197266 21.283203 28.195312 21.28125 28.195312 21.28125 C 28.195312 21.28125 28.193359 21.279297 28.193359 21.279297 C 28.193359 21.279297 28.191406 21.277344 28.191406 21.277344 C 28.191406 21.277344 28.189453 21.275391 28.189453 21.275391 C 28.188411 21.274349 28.186593 21.274474 28.185547 21.273438 C 28.18451 21.272392 28.184635 21.270573 28.183594 21.269531 C 28.182552 21.26849 28.180733 21.268615 28.179688 21.267578 C 28.178651 21.266532 28.178776 21.264714 28.177734 21.263672 C 28.176432 21.262369 28.175137 21.26106 28.173828 21.259766 C 28.172533 21.258456 28.171225 21.257162 28.169922 21.255859 C 28.168619 21.254557 28.167325 21.253248 28.166016 21.251953 C 28.164721 21.250644 28.163412 21.24935 28.162109 21.248047 C 28.160807 21.246744 28.159512 21.245435 28.158203 21.244141 C 28.156908 21.242831 28.1556 21.241537 28.154297 21.240234 C 28.152604 21.238541 28.150141 21.238008 28.148438 21.236328 C 28.146758 21.234624 28.146224 21.232162 28.144531 21.230469 C 28.142838 21.228776 28.140376 21.228242 28.138672 21.226562 C 28.136992 21.224859 28.136459 21.222396 28.134766 21.220703 C 28.132682 21.21862 28.129053 21.21886 28.126953 21.216797 C 28.12489 21.214697 28.12513 21.211068 28.123047 21.208984 C 28.120964 21.206901 28.117334 21.207141 28.115234 21.205078 C 28.113171 21.202978 28.113411 21.199349 28.111328 21.197266 C 28.109245 21.195182 28.105615 21.195422 28.103516 21.193359 C 28.101453 21.19126 28.101693 21.18763 28.099609 21.185547 C 28.097265 21.183202 28.094162 21.182006 28.091797 21.179688 C 28.089478 21.177322 28.088282 21.174219 28.085938 21.171875 C 28.083593 21.169531 28.08049 21.168334 28.078125 21.166016 C 28.075806 21.16365 28.07461 21.160548 28.072266 21.158203 C 28.069921 21.155859 28.066818 21.154662 28.064453 21.152344 C 28.062134 21.149979 28.060938 21.146876 28.058594 21.144531 C 28.055859 21.141797 28.051591 21.141372 28.048828 21.138672 C 28.046128 21.135909 28.045703 21.131641 28.042969 21.128906 C 28.040234 21.126172 28.035966 21.125747 28.033203 21.123047 C 28.030503 21.120284 28.030078 21.116016 28.027344 21.113281 C 28.024348 21.110286 28.020608 21.108422 28.017578 21.105469 C 28.014637 21.102453 28.012748 21.098686 28.009766 21.095703 C 28.007682 21.09362 28.004053 21.09386 28.001953 21.091797 C 27.998258 21.087982 27.997902 21.081886 27.994141 21.078125 C 27.99012 21.074105 27.98455 21.072304 27.980469 21.068359 C 27.97815 21.065994 27.976954 21.062891 27.974609 21.060547 C 27.972265 21.058202 27.969162 21.057006 27.966797 21.054688 C 27.962852 21.050606 27.961052 21.045036 27.957031 21.041016 C 27.952622 21.036606 27.945889 21.035569 27.941406 21.03125 C 27.938707 21.028487 27.938282 21.024219 27.935547 21.021484 C 27.932161 21.018098 27.927257 21.017004 27.923828 21.013672 C 27.920496 21.010243 27.919402 21.005339 27.916016 21.001953 C 27.912239 20.998177 27.906174 20.99785 27.902344 20.994141 C 27.898634 20.99031 27.898308 20.984245 27.894531 20.980469 C 27.890755 20.976692 27.88469 20.976366 27.880859 20.972656 C 27.87715 20.968826 27.876823 20.962761 27.873047 20.958984 C 27.869009 20.954947 27.863474 20.95318 27.859375 20.949219 C 27.855414 20.94512 27.853647 20.939584 27.849609 20.935547 C 27.845572 20.931509 27.840036 20.929742 27.835938 20.925781 C 27.831976 20.921682 27.830209 20.916147 27.826172 20.912109 C 27.822134 20.908072 27.816599 20.906305 27.8125 20.902344 C 27.808539 20.898245 27.806772 20.892709 27.802734 20.888672 C 27.798307 20.884244 27.791611 20.883242 27.787109 20.878906 C 27.782774 20.874405 27.781772 20.867709 27.777344 20.863281 C 27.772916 20.858854 27.76622 20.857851 27.761719 20.853516 C 27.757383 20.849014 27.756381 20.842318 27.751953 20.837891 C 27.747525 20.833463 27.74083 20.832461 27.736328 20.828125 C 27.731992 20.823623 27.73099 20.816928 27.726562 20.8125 C 27.721874 20.807811 27.715709 20.805367 27.710938 20.800781 C 27.706352 20.79601 27.703908 20.789845 27.699219 20.785156 C 27.695181 20.781119 27.689646 20.779352 27.685547 20.775391 C 27.679993 20.769562 27.677581 20.761566 27.671875 20.755859 C 27.666169 20.750153 27.658172 20.747741 27.652344 20.742188 C 27.648383 20.738089 27.646616 20.732553 27.642578 20.728516 C 27.637499 20.723437 27.630176 20.721755 27.625 20.716797 C 27.620042 20.711621 27.61836 20.704298 27.613281 20.699219 C 27.607812 20.693749 27.599332 20.692829 27.59375 20.6875 C 27.588442 20.681941 27.587479 20.673416 27.582031 20.667969 C 27.576952 20.66289 27.569629 20.661208 27.564453 20.65625 C 27.559495 20.651074 27.557813 20.643751 27.552734 20.638672 C 27.548046 20.633983 27.541881 20.631539 27.537109 20.626953 C 27.530944 20.620447 27.527839 20.611823 27.521484 20.605469 C 27.51513 20.599114 27.506506 20.596009 27.5 20.589844 C 27.495414 20.585072 27.49297 20.578908 27.488281 20.574219 C 27.482551 20.568488 27.474604 20.566123 27.46875 20.560547 C 27.463174 20.554693 27.460809 20.546746 27.455078 20.541016 C 27.449348 20.535285 27.4414 20.53292 27.435547 20.527344 C 27.429971 20.52149 27.427605 20.513543 27.421875 20.507812 C 27.415754 20.501692 27.406652 20.500086 27.400391 20.494141 C 27.394446 20.487879 27.39284 20.478777 27.386719 20.472656 C 27.380598 20.466535 27.371496 20.464929 27.365234 20.458984 C 27.359289 20.452723 27.357683 20.443621 27.351562 20.4375 C 27.345442 20.431379 27.336339 20.429773 27.330078 20.423828 C 27.324133 20.417567 27.322527 20.408465 27.316406 20.402344 C 27.310024 20.395962 27.301456 20.392909 27.294922 20.386719 C 27.288731 20.380184 27.285679 20.371616 27.279297 20.365234 C 27.272915 20.358853 27.264347 20.3558 27.257812 20.349609 C 27.251622 20.343075 27.248569 20.334507 27.242188 20.328125 C 27.235443 20.321381 27.225664 20.31903 27.21875 20.3125 C 27.212193 20.305556 27.209897 20.295835 27.203125 20.289062 C 27.196353 20.28229 27.186631 20.279994 27.179688 20.273438 C 27.173131 20.266494 27.170835 20.256772 27.164062 20.25 C 27.15729 20.243228 27.147569 20.240932 27.140625 20.234375 C 27.134068 20.227431 27.131772 20.21771 27.125 20.210938 C 27.117838 20.203775 27.106964 20.202234 27.099609 20.195312 C 27.092688 20.187958 27.091147 20.177084 27.083984 20.169922 C 27.076822 20.162759 27.065948 20.161218 27.058594 20.154297 C 27.051672 20.146943 27.050131 20.136069 27.042969 20.128906 C 27.035545 20.121483 27.025208 20.118493 27.017578 20.111328 C 27.010414 20.103699 27.007423 20.093361 27 20.085938 C 26.993618 20.079556 26.98505 20.076503 26.978516 20.070312 C 26.970779 20.062031 26.967025 20.051009 26.958984 20.042969 C 26.950554 20.034539 26.938383 20.031533 26.929688 20.023438 C 26.923131 20.016494 26.920835 20.006772 26.914062 20 C 26.906639 19.992576 26.896301 19.989586 26.888672 19.982422 C 26.881507 19.974792 26.878517 19.964455 26.871094 19.957031 C 26.86328 19.949217 26.851792 19.94698 26.84375 19.939453 C 26.836223 19.931411 26.833986 19.919923 26.826172 19.912109 C 26.818097 19.904035 26.807146 19.900346 26.798828 19.892578 C 26.79106 19.88426 26.787372 19.873309 26.779297 19.865234 C 26.772134 19.858072 26.761261 19.856531 26.753906 19.849609 C 26.745453 19.8405 26.743194 19.827179 26.734375 19.818359 C 26.725297 19.809281 26.71251 19.805566 26.703125 19.796875 C 26.69596 19.789246 26.69297 19.778908 26.685547 19.771484 C 26.677472 19.76341 26.666521 19.759721 26.658203 19.751953 C 26.650435 19.743635 26.646747 19.732684 26.638672 19.724609 C 26.630207 19.716144 26.618107 19.713206 26.609375 19.705078 C 26.601247 19.696346 26.598309 19.684246 26.589844 19.675781 C 26.581379 19.667316 26.569279 19.664378 26.560547 19.65625 C 26.552419 19.647518 26.549481 19.635418 26.541016 19.626953 C 26.53216 19.618098 26.518913 19.615908 26.509766 19.607422 C 26.501279 19.598274 26.49909 19.585027 26.490234 19.576172 C 26.481379 19.567316 26.468132 19.565127 26.458984 19.556641 C 26.450498 19.547493 26.448309 19.534246 26.439453 19.525391 C 26.430598 19.516535 26.417351 19.514346 26.408203 19.505859 C 26.399717 19.496712 26.397527 19.483465 26.388672 19.474609 C 26.379594 19.465531 26.366807 19.461816 26.357422 19.453125 C 26.348696 19.443699 26.345054 19.430991 26.335938 19.421875 C 26.326821 19.412759 26.314113 19.409116 26.304688 19.400391 C 26.295962 19.390965 26.29232 19.378257 26.283203 19.369141 C 26.273735 19.359673 26.259801 19.356702 26.25 19.347656 C 26.240919 19.337813 26.238022 19.32396 26.228516 19.314453 C 26.219009 19.304946 26.205156 19.30205 26.195312 19.292969 C 26.186231 19.283126 26.183335 19.269273 26.173828 19.259766 C 26.164321 19.250259 26.150468 19.247363 26.140625 19.238281 C 26.131544 19.228438 26.128648 19.214585 26.119141 19.205078 C 26.109373 19.19531 26.09606 19.190959 26.085938 19.181641 C 26.076619 19.171518 26.072268 19.158205 26.0625 19.148438 C 26.052732 19.13867 26.039419 19.134319 26.029297 19.125 C 26.019978 19.114877 26.015627 19.101565 26.005859 19.091797 C 25.995701 19.081639 25.981245 19.078032 25.970703 19.068359 C 25.961069 19.057863 25.957382 19.043319 25.947266 19.033203 C 25.937498 19.023435 25.924185 19.019084 25.914062 19.009766 C 25.904744 18.999643 25.900393 18.98633 25.890625 18.976562 C 25.880076 18.966014 25.864477 18.963149 25.853516 18.953125 C 25.843491 18.942164 25.840627 18.926564 25.830078 18.916016 C 25.81992 18.905857 25.805463 18.90225 25.794922 18.892578 C 25.78525 18.882037 25.781643 18.86758 25.771484 18.857422 C 25.760936 18.846873 25.745336 18.844009 25.734375 18.833984 C 25.724351 18.823023 25.721486 18.807424 25.710938 18.796875 C 25.700128 18.786065 25.685071 18.781743 25.673828 18.771484 C 25.66361 18.76029 25.659202 18.745139 25.648438 18.734375 C 25.637889 18.723826 25.622289 18.720962 25.611328 18.710938 C 25.601304 18.699976 25.598439 18.684377 25.587891 18.673828 C 25.577081 18.663019 25.562024 18.658697 25.550781 18.648438 C 25.540522 18.637195 25.5362 18.622138 25.525391 18.611328 C 25.514237 18.600174 25.497943 18.596505 25.486328 18.585938 C 25.475719 18.574273 25.472137 18.558075 25.460938 18.546875 C 25.449738 18.535675 25.43354 18.532093 25.421875 18.521484 C 25.411266 18.50982 25.407684 18.493622 25.396484 18.482422 C 25.385285 18.471222 25.369086 18.46764 25.357422 18.457031 C 25.346813 18.445367 25.343231 18.429169 25.332031 18.417969 C 25.32057 18.406508 25.304916 18.401467 25.292969 18.390625 C 25.282127 18.378678 25.277086 18.363023 25.265625 18.351562 C 25.254164 18.340102 25.23851 18.335061 25.226562 18.324219 C 25.215721 18.312272 25.21068 18.296617 25.199219 18.285156 C 25.187758 18.273695 25.172103 18.268654 25.160156 18.257812 C 25.149314 18.245865 25.144273 18.230211 25.132812 18.21875 C 25.120961 18.206899 25.104168 18.202595 25.091797 18.191406 C 25.080608 18.179035 25.076304 18.162242 25.064453 18.150391 C 25.052602 18.138539 25.035808 18.134236 25.023438 18.123047 C 25.012249 18.110676 25.007945 18.093883 24.996094 18.082031 C 24.983852 18.06979 24.96592 18.066222 24.953125 18.054688 C 24.94159 18.041892 24.938023 18.02396 24.925781 18.011719 C 24.91354 17.999477 24.895608 17.99591 24.882812 17.984375 C 24.871278 17.97158 24.86771 17.953648 24.855469 17.941406 C 24.843227 17.929165 24.825295 17.925597 24.8125 17.914062 C 24.800965 17.901267 24.797398 17.883335 24.785156 17.871094 C 24.772654 17.858591 24.755267 17.853562 24.742188 17.841797 C 24.730422 17.828717 24.725393 17.811331 24.712891 17.798828 C 24.700388 17.786326 24.683002 17.781296 24.669922 17.769531 C 24.658157 17.756451 24.653128 17.739065 24.640625 17.726562 C 24.628122 17.71406 24.610736 17.709031 24.597656 17.697266 C 24.585891 17.684186 24.580862 17.666799 24.568359 17.654297 C 24.555466 17.641404 24.536944 17.637109 24.523438 17.625 C 24.511329 17.611494 24.507034 17.592971 24.494141 17.580078 C 24.481248 17.567185 24.462725 17.56289 24.449219 17.550781 C 24.43711 17.537275 24.432815 17.518752 24.419922 17.505859 C 24.406768 17.492705 24.388792 17.486947 24.375 17.474609 C 24.362663 17.460817 24.356904 17.442841 24.34375 17.429688 C 24.330596 17.416534 24.31262 17.410775 24.298828 17.398438 C 24.286491 17.384645 24.280732 17.36667 24.267578 17.353516 C 24.254424 17.340362 24.236448 17.334603 24.222656 17.322266 C 24.210319 17.308474 24.20456 17.290498 24.191406 17.277344 C 24.177862 17.2638 24.158752 17.258772 24.144531 17.246094 C 24.131853 17.231874 24.126825 17.212763 24.113281 17.199219 C 24.099737 17.185675 24.080627 17.180647 24.066406 17.167969 C 24.053728 17.153748 24.0487 17.134638 24.035156 17.121094 C 24.021612 17.10755 24.002502 17.102522 23.988281 17.089844 C 23.975603 17.075624 23.970575 17.056513 23.957031 17.042969 C 23.943097 17.029034 23.922853 17.024736 23.908203 17.011719 C 23.895185 16.997069 23.890888 16.976825 23.876953 16.962891 C 23.863409 16.949346 23.844298 16.944319 23.830078 16.931641 C 23.816549 16.916339 23.811401 16.895385 23.796875 16.880859 C 23.782349 16.866334 23.761395 16.861185 23.746094 16.847656 C 23.733416 16.833436 23.728388 16.814325 23.714844 16.800781 C 23.700648 16.786586 23.680953 16.780822 23.666016 16.767578 C 23.652772 16.752641 23.647008 16.732946 23.632812 16.71875 C 23.618227 16.704164 23.597399 16.699128 23.582031 16.685547 C 23.568502 16.670245 23.563354 16.649291 23.548828 16.634766 C 23.534633 16.62057 23.514937 16.614806 23.5 16.601562 C 23.486756 16.586625 23.480992 16.56693 23.466797 16.552734 C 23.452601 16.538539 23.432906 16.532775 23.417969 16.519531 C 23.403883 16.503512 23.397987 16.481971 23.382812 16.466797 C 23.367597 16.451581 23.346144 16.445762 23.330078 16.431641 C 23.316834 16.416704 23.311071 16.397008 23.296875 16.382812 C 23.282028 16.367966 23.261751 16.361462 23.246094 16.347656 C 23.232288 16.331999 23.225784 16.311722 23.210938 16.296875 C 23.19609 16.282028 23.175813 16.275524 23.160156 16.261719 C 23.146351 16.246062 23.139847 16.225785 23.125 16.210938 C 23.109763 16.1957 23.088355 16.189921 23.072266 16.175781 C 23.058126 16.159692 23.052347 16.138284 23.037109 16.123047 C 23.021872 16.10781 23.000465 16.10203 22.984375 16.087891 C 22.970235 16.071801 22.964456 16.050394 22.949219 16.035156 C 22.933981 16.019919 22.912574 16.01414 22.896484 16 C 22.882344 15.983911 22.876565 15.962503 22.861328 15.947266 C 22.845701 15.931638 22.823164 15.926582 22.806641 15.912109 C 22.792168 15.895586 22.787112 15.873049 22.771484 15.857422 C 22.755857 15.841794 22.73332 15.836739 22.716797 15.822266 C 22.702324 15.805742 22.697268 15.783206 22.681641 15.767578 C 22.665752 15.75169 22.643767 15.745164 22.626953 15.730469 C 22.612258 15.713655 22.605732 15.69167 22.589844 15.675781 C 22.573955 15.659893 22.55197 15.653367 22.535156 15.638672 C 22.520461 15.621858 22.513936 15.599873 22.498047 15.583984 C 22.482158 15.568096 22.460173 15.56157 22.443359 15.546875 C 22.428665 15.530061 22.422139 15.508076 22.40625 15.492188 C 22.389971 15.475909 22.366859 15.470103 22.349609 15.455078 C 22.334584 15.437829 22.328779 15.414716 22.3125 15.398438 C 22.296221 15.382158 22.273109 15.376354 22.255859 15.361328 C 22.240834 15.344079 22.235029 15.320967 22.21875 15.304688 C 22.202861 15.288799 22.180876 15.282273 22.164062 15.267578 C 22.148548 15.249679 22.14186 15.225845 22.125 15.208984 C 22.10814 15.192124 22.084306 15.185437 22.066406 15.169922 C 22.051711 15.153108 22.045185 15.131123 22.029297 15.115234 C 22.012366 15.098304 21.988681 15.091746 21.970703 15.076172 C 21.955129 15.058194 21.948571 15.034508 21.931641 15.017578 C 21.915101 15.001038 21.892541 14.993761 21.875 14.978516 C 21.859754 14.960974 21.852477 14.938415 21.835938 14.921875 C 21.819007 14.904945 21.795322 14.898386 21.777344 14.882812 C 21.76177 14.864834 21.755212 14.841149 21.738281 14.824219 C 21.720961 14.806898 21.696151 14.801057 21.677734 14.785156 C 21.661834 14.76674 21.655993 14.74193 21.638672 14.724609 C 21.621742 14.707679 21.598056 14.701121 21.580078 14.685547 C 21.564504 14.667569 21.557946 14.643884 21.541016 14.626953 C 21.524085 14.610023 21.5004 14.603464 21.482422 14.587891 C 21.466041 14.568824 21.459304 14.543288 21.441406 14.525391 C 21.423459 14.507443 21.398029 14.500797 21.378906 14.484375 C 21.363333 14.466397 21.356774 14.442712 21.339844 14.425781 C 21.322262 14.4082 21.298007 14.400884 21.279297 14.384766 C 21.263179 14.366055 21.255863 14.3418 21.238281 14.324219 C 21.2207 14.306637 21.196444 14.299321 21.177734 14.283203 C 21.161616 14.264493 21.1543 14.240238 21.136719 14.222656 C 21.118747 14.204684 21.093369 14.198083 21.074219 14.181641 C 21.057777 14.162491 21.051175 14.137113 21.033203 14.119141 C 21.015231 14.101169 20.989853 14.094567 20.970703 14.078125 C 20.954261 14.058975 20.94766 14.033597 20.929688 14.015625 C 20.911716 13.997653 20.886338 13.991052 20.867188 13.974609 C 20.850745 13.955459 20.844144 13.930081 20.826172 13.912109 C 20.807939 13.893876 20.783117 13.885799 20.763672 13.869141 C 20.747014 13.849696 20.738936 13.824874 20.720703 13.806641 C 20.70247 13.788408 20.677648 13.78033 20.658203 13.763672 C 20.641545 13.744227 20.633467 13.719405 20.615234 13.701172 C 20.596611 13.682548 20.570668 13.675183 20.550781 13.658203 C 20.533801 13.638317 20.526436 13.612373 20.507812 13.59375 C 20.489189 13.575127 20.463246 13.567761 20.443359 13.550781 C 20.42638 13.530895 20.419014 13.504952 20.400391 13.486328 C 20.381767 13.467705 20.355824 13.460339 20.335938 13.443359 C 20.318958 13.423473 20.311592 13.39753 20.292969 13.378906 C 20.273955 13.359892 20.246892 13.353238 20.226562 13.335938 C 20.209262 13.315608 20.202607 13.288545 20.183594 13.269531 C 20.16458 13.250518 20.137517 13.243863 20.117188 13.226562 C 20.099887 13.206233 20.093232 13.17917 20.074219 13.160156 C 20.055205 13.141143 20.028142 13.134488 20.007812 13.117188 C 19.990512 13.096858 19.983858 13.069795 19.964844 13.050781 C 19.945569 13.031506 19.919063 13.023373 19.898438 13.005859 C 19.880924 12.985234 19.87279 12.958728 19.853516 12.939453 C 19.834241 12.920178 19.807735 12.912045 19.787109 12.894531 C 19.769596 12.873906 19.761462 12.8474 19.742188 12.828125 C 19.722522 12.80846 19.694898 12.801034 19.673828 12.783203 C 19.655997 12.762133 19.648571 12.734509 19.628906 12.714844 C 19.609241 12.695179 19.581617 12.687753 19.560547 12.669922 C 19.542716 12.648852 19.53529 12.621228 19.515625 12.601562 C 19.49596 12.581897 19.468336 12.574472 19.447266 12.556641 C 19.429434 12.535571 19.422009 12.507946 19.402344 12.488281 C 19.382418 12.468355 19.355352 12.459449 19.333984 12.441406 C 19.315942 12.420039 19.307036 12.392973 19.287109 12.373047 C 19.267183 12.353121 19.240118 12.344215 19.21875 12.326172 C 19.200707 12.304804 19.191801 12.277739 19.171875 12.257812 C 19.151559 12.237496 19.123376 12.229295 19.101562 12.210938 C 19.083205 12.189124 19.075004 12.160941 19.054688 12.140625 C 19.035413 12.12135 19.008907 12.113216 18.988281 12.095703 C 18.96947 12.073243 18.960334 12.044318 18.939453 12.023438 C 18.918183 12.002168 18.888142 11.993731 18.865234 11.974609 C 18.847403 11.953539 18.839978 11.925915 18.820312 11.90625 C 18.799996 11.885934 18.771814 11.877733 18.75 11.859375 C 18.731642 11.837561 18.723441 11.809379 18.703125 11.789062 C 18.682418 11.768356 18.65312 11.760859 18.630859 11.742188 C 18.612188 11.719927 18.604691 11.690629 18.583984 11.669922 C 18.563104 11.649041 18.534179 11.639905 18.511719 11.621094 C 18.492838 11.598534 18.483858 11.569796 18.462891 11.548828 C 18.441923 11.52786 18.413185 11.518881 18.390625 11.5 C 18.371744 11.47744 18.362765 11.448702 18.341797 11.427734 C 18.320829 11.406767 18.292091 11.397787 18.269531 11.378906 C 18.25065 11.356346 18.241671 11.327608 18.220703 11.306641 C 18.199735 11.285673 18.170998 11.276693 18.148438 11.257812 C 18.129557 11.235252 18.120577 11.206515 18.099609 11.185547 C 18.078251 11.164189 18.048399 11.155911 18.025391 11.136719 C 18.006199 11.11371 17.997921 11.083858 17.976562 11.0625 C 17.954553 11.040491 17.92415 11.031427 17.900391 11.011719 C 17.881269 10.988812 17.872832 10.95877 17.851562 10.9375 C 17.830204 10.916142 17.800352 10.907864 17.777344 10.888672 C 17.758152 10.865663 17.749874 10.835811 17.728516 10.814453 C 17.706897 10.792834 17.677606 10.783071 17.654297 10.763672 C 17.634898 10.740363 17.625135 10.711072 17.603516 10.689453 C 17.581506 10.667444 17.551103 10.65838 17.527344 10.638672 C 17.507636 10.614912 17.498572 10.584509 17.476562 10.5625 C 17.454553 10.54049 17.42415 10.531427 17.400391 10.511719 C 17.380755 10.488065 17.371527 10.457465 17.349609 10.435547 C 17.3276 10.413537 17.297197 10.404474 17.273438 10.384766 C 17.253729 10.361006 17.244666 10.330603 17.222656 10.308594 C 17.200647 10.286584 17.170244 10.277521 17.146484 10.257812 C 17.126776 10.234053 17.117713 10.20365 17.095703 10.181641 C 17.073303 10.159241 17.041789 10.150875 17.017578 10.130859 C 16.997563 10.106648 16.989197 10.075134 16.966797 10.052734 C 16.944136 10.030074 16.913185 10.02022 16.888672 10 C 16.868452 9.9754867 16.858598 9.9445358 16.835938 9.921875 C 16.813538 9.8994752 16.782023 9.8911092 16.757812 9.8710938 C 16.737797 9.8468828 16.729431 9.8153685 16.707031 9.7929688 C 16.685022 9.7709593 16.654619 9.7618957 16.630859 9.7421875 C 16.609905 9.7165779 16.599776 9.6837604 16.576172 9.6601562 C 16.553153 9.6371369 16.521023 9.6279221 16.496094 9.6074219 C 16.475874 9.5829086 16.46602 9.5519576 16.443359 9.5292969 C 16.420308 9.5062458 16.388248 9.4970874 16.363281 9.4765625 C 16.342756 9.4515963 16.333598 9.4195355 16.310547 9.3964844 C 16.287496 9.3734333 16.255435 9.3642749 16.230469 9.34375 C 16.209944 9.3187838 16.200785 9.286723 16.177734 9.2636719 C 16.154422 9.2403598 16.122926 9.2297123 16.097656 9.2089844 C 16.076928 9.1837148 16.066281 9.1522184 16.042969 9.1289062 C 16.019657 9.1055941 15.98816 9.0949466 15.962891 9.0742188 C 15.942163 9.0489491 15.931515 9.0174528 15.908203 8.9941406 C 15.884891 8.9708285 15.853395 8.960181 15.828125 8.9394531 C 15.807397 8.9141835 15.79675 8.8826871 15.773438 8.859375 C 15.749735 8.8356725 15.71713 8.8257177 15.691406 8.8046875 C 15.670376 8.7789633 15.660421 8.7463587 15.636719 8.7226562 C 15.613016 8.6989538 15.580412 8.6889989 15.554688 8.6679688 C 15.533657 8.6422446 15.523703 8.60964 15.5 8.5859375 C 15.476949 8.5628864 15.444888 8.553728 15.419922 8.5332031 C 15.39817 8.506381 15.387923 8.4719075 15.363281 8.4472656 C 15.338639 8.4226238 15.304166 8.4123765 15.277344 8.390625 C 15.256819 8.3656588 15.24766 8.333598 15.224609 8.3105469 C 15.200255 8.2861931 15.16711 8.2754375 15.140625 8.2539062 C 15.119094 8.2274213 15.108338 8.1942757 15.083984 8.1699219 C 15.059892 8.1458291 15.02618 8.1365654 15 8.1152344 C 14.978669 8.0890546 14.969405 8.0553428 14.945312 8.03125 C 14.920959 8.0068962 14.887813 7.9961407 14.861328 7.9746094 C 14.839797 7.9481245 14.829041 7.9149788 14.804688 7.890625 C 14.779943 7.8658808 14.745692 7.855814 14.71875 7.8339844 C 14.69692 7.8070423 14.686854 7.772791 14.662109 7.7480469 C 14.637365 7.7233027 14.603114 7.7132358 14.576172 7.6914062 C 14.554342 7.6644642 14.544275 7.6302129 14.519531 7.6054688 C 14.494787 7.5807246 14.460536 7.5706577 14.433594 7.5488281 C 14.411764 7.521886 14.401697 7.4876348 14.376953 7.4628906 C 14.352209 7.4381465 14.317958 7.4280796 14.291016 7.40625 C 14.269186 7.3793079 14.259119 7.3450567 14.234375 7.3203125 C 14.20937 7.2953073 14.175686 7.283747 14.148438 7.2617188 C 14.126409 7.2344704 14.114849 7.2007864 14.089844 7.1757812 C 14.064448 7.1503857 14.02966 7.1395115 14.001953 7.1171875 C 13.979629 7.0894804 13.968755 7.0546924 13.943359 7.0292969 C 13.918354 7.0042917 13.88467 6.9927313 13.857422 6.9707031 C 13.835394 6.9434548 13.823833 6.9097708 13.798828 6.8847656 C 13.773433 6.8593701 13.738645 6.8484959 13.710938 6.8261719 C 13.688613 6.7984648 13.677739 6.7636768 13.652344 6.7382812 C 13.627054 6.7129911 13.592036 6.7019318 13.564453 6.6796875 C 13.541639 6.6512127 13.529953 6.6158906 13.503906 6.5898438 C 13.47812 6.5640579 13.442229 6.5538683 13.414062 6.53125 C 13.391444 6.5030832 13.381255 6.4671921 13.355469 6.4414062 C 13.167933 6.2538699 12.913654 6.1484375 12.648438 6.1484375 L 12.048828 6.1484375 C 12.03469 6.1356501 12.01673 6.1290936 12.001953 6.1171875 C 11.979629 6.0894807 11.968755 6.0546922 11.943359 6.0292969 C 11.917964 6.0039014 11.883176 5.9930271 11.855469 5.9707031 C 11.833639 5.9437608 11.823573 5.90951 11.798828 5.8847656 C 11.773433 5.8593701 11.738645 5.8484959 11.710938 5.8261719 C 11.688613 5.7984648 11.677739 5.7636768 11.652344 5.7382812 C 11.627054 5.7129911 11.592036 5.7019318 11.564453 5.6796875 C 11.541639 5.6512127 11.529953 5.6158906 11.503906 5.5898438 C 11.47812 5.5640579 11.442229 5.5538683 11.414062 5.53125 C 11.391444 5.5030832 11.381255 5.4671921 11.355469 5.4414062 C 11.167933 5.2538699 10.913654 5.1484375 10.648438 5.1484375 L 9.6484375 5.1484375 z "
       id="path6823"
       style="fill-opacity:1;fill:url(#linearGradient7670);opacity:0.2"
       clip-path="url(#clipPath7681)" />
    <path
       style="fill:#ffffff;fill-rule:evenodd;stroke:none;stroke-width:1px;stroke-linecap:butt;stroke-linejoin:miter;stroke-opacity:1"
       d="m 6.8185296,10.403551 6.3765884,0.06313 -0.441942,-3.9143407 -5.9346464,0 z"
       id="path7672"
       inkscape:connector-curvature="0" />
    <ellipse
       ry="0.91545075"
       rx="0.82074893"
       cy="12.329154"
       cx="12.374369"
       id="ellipse7676"
       style="opacity:1;fill:#fafafa;fill-opacity:1;stroke:none;stroke-width:2;stroke-miterlimit:4;stroke-dasharray:none;stroke-opacity:1" />
    <ellipse
       style="opacity:1;fill:#fafafa;fill-opacity:1;stroke:none;stroke-width:2;stroke-miterlimit:4;stroke-dasharray:none;stroke-opacity:1"
       id="path7674"
       cx="7.5761442"
       cy="12.455423"
       rx="0.82074893"
       ry="0.91545075" />
    <path
       style="fill:#4caf50"
       id="path6776"
       d="m 12.499978,13.000005 c -0.3,0 -0.5,-0.2 -0.5,-0.5 0,-0.3 0.2,-0.5 0.5,-0.5 0.3,0 0.5,0.2 0.5,0.5 0,0.3 -0.2,0.5 -0.5,0.5 m -5.1500004,-3.6500003 0.15,-1.7 c 0,-0.35 0.3,-0.65 0.65,-0.65 l 3.6500004,0 c 0.4,0 0.7,0.3 0.7,0.65 l 0.15,1.65 c 0,0.3500001 -0.3,0.6500001 -0.65,0.6500001 l -4.0000004,0 c -0.35,0.05 -0.65,-0.25 -0.65,-0.6000001 m 0.15,3.6500003 c -0.3,0 -0.5,-0.2 -0.5,-0.5 0,-0.3 0.2,-0.5 0.5,-0.5 0.3,0 0.5,0.2 0.5,0.5 0,0.3 -0.2,0.5 -0.5,0.5 M 13.499978,7.0000047 a 1,1 0 0 0 -1,-1 l -1,0 a 1,1 0 0 0 -1,-1 l -1.0000005,0 a 1,1 0 0 0 -0.9999999,1 l -1,0 a 1,1 0 0 0 -1,1 l -0.5,6.0000003 a 1,1 0 0 0 1,1 l 1,0 -0.5,1 5.0500004,0 -0.5,-1 0.95,0 a 1,1 0 0 0 1,-1 l -0.5,-6.0000003 z"
       inkscape:connector-curvature="0" />
  </g>
</svg>
