<?xml version="1.0" encoding="UTF-8" standalone="no"?>
<!-- Created with Inkscape (http://www.inkscape.org/) -->

<svg
   xmlns:dc="http://purl.org/dc/elements/1.1/"
   xmlns:cc="http://creativecommons.org/ns#"
   xmlns:rdf="http://www.w3.org/1999/02/22-rdf-syntax-ns#"
   xmlns:svg="http://www.w3.org/2000/svg"
   xmlns="http://www.w3.org/2000/svg"
   xmlns:xlink="http://www.w3.org/1999/xlink"
   xmlns:sodipodi="http://sodipodi.sourceforge.net/DTD/sodipodi-0.dtd"
   xmlns:inkscape="http://www.inkscape.org/namespaces/inkscape"
   sodipodi:docname="FBreader.svg"
   inkscape:version="0.91 r13725"
   version="1.1"
   id="svg2"
   viewBox="0 0 20 20"
   height="5.6444445mm"
   width="5.6444445mm"
   inkscape:export-filename="/home/juergen/Schreibtisch/qdad.png"
   inkscape:export-xdpi="648"
   inkscape:export-ydpi="648">
  <sodipodi:namedview
     inkscape:snap-to-guides="true"
     inkscape:snap-grids="true"
     inkscape:window-maximized="1"
     inkscape:window-y="0"
     inkscape:window-x="0"
     inkscape:window-height="726"
     inkscape:window-width="1366"
     inkscape:guide-bbox="true"
     showguides="true"
     fit-margin-bottom="0"
     fit-margin-right="0"
     fit-margin-left="0"
     fit-margin-top="0"
     showgrid="true"
     inkscape:current-layer="layer2"
     inkscape:document-units="px"
     inkscape:cy="12.679398"
     inkscape:cx="-3.6097144"
     inkscape:zoom="15.839192"
     inkscape:pageshadow="2"
     inkscape:pageopacity="0.0"
     borderopacity="1.0"
     bordercolor="#666666"
     pagecolor="#ffffff"
     id="base">
    <inkscape:grid
       type="xygrid"
       id="grid4138" />
    <sodipodi:guide
       position="10,18"
       orientation="0,1"
       id="guide4140" />
    <sodipodi:guide
       position="10,2"
       orientation="0,1"
       id="guide4142" />
    <sodipodi:guide
       position="2,10"
       orientation="1,0"
       id="guide4144" />
    <sodipodi:guide
       position="0,0"
       orientation="0,20"
       id="guide4146" />
    <sodipodi:guide
       position="20,0"
       orientation="-20,0"
       id="guide4148" />
    <sodipodi:guide
       position="20,20"
       orientation="0,-20"
       id="guide4150" />
    <sodipodi:guide
       position="0,20"
       orientation="20,0"
       id="guide4152" />
    <sodipodi:guide
       position="18,10"
       orientation="1,0"
       id="guide4154" />
    <sodipodi:guide
       position="10,10"
       orientation="-0.70710678,0.70710678"
       id="guide4156" />
    <sodipodi:guide
       position="10,10"
       orientation="0.70710678,0.70710678"
       id="guide4158" />
    <sodipodi:guide
       position="4,10"
       orientation="1,0"
       id="guide4160" />
    <sodipodi:guide
       position="16,10"
       orientation="1,0"
       id="guide4162" />
    <sodipodi:guide
       position="10,16"
       orientation="0,1"
       id="guide4164" />
    <sodipodi:guide
       position="10,4"
       orientation="0,1"
       id="guide4166" />
    <sodipodi:guide
       position="10,15"
       orientation="0,1"
       id="guide4168" />
    <sodipodi:guide
       position="10,5"
       orientation="0,1"
       id="guide4170" />
    <sodipodi:guide
       position="5,10"
       orientation="1,0"
       id="guide4172" />
    <sodipodi:guide
       position="15,10"
       orientation="1,0"
       id="guide4174" />
  </sodipodi:namedview>
  <defs
     id="defs4">
    <linearGradient
       inkscape:collect="always"
       id="linearGradient5138">
      <stop
         style="stop-color:#000000;stop-opacity:1;"
         offset="0"
         id="stop5140" />
      <stop
         style="stop-color:#000000;stop-opacity:0;"
         offset="1"
         id="stop5142" />
    </linearGradient>
    <clipPath
       id="clipPath12478"
       clipPathUnits="userSpaceOnUse">
      <circle
         r="10"
         cy="10.000005"
         cx="9.9999781"
         id="circle12480"
         style="opacity:1;fill:#2196f3;fill-opacity:1;stroke:none;stroke-width:0.05069799;stroke-miterlimit:4;stroke-dasharray:none;stroke-opacity:1" />
    </clipPath>
    <clipPath
       clipPathUnits="userSpaceOnUse"
       id="clipPath13251">
      <circle
         r="10"
         cy="10.000005"
         cx="9.9999781"
         id="circle13253"
         style="opacity:1;fill:#2196f3;fill-opacity:1;stroke:none;stroke-width:0.05069799;stroke-miterlimit:4;stroke-dasharray:none;stroke-opacity:1"
         inkscape:export-filename="/home/juergen/path4136.png"
         inkscape:export-xdpi="648"
         inkscape:export-ydpi="648" />
    </clipPath>
    <clipPath
       id="clipPath5054"
       clipPathUnits="userSpaceOnUse">
      <circle
         r="10"
         cy="10.000005"
         cx="9.9999781"
         id="circle5056"
         style="opacity:1;fill:#2196f3;fill-opacity:1;stroke:none;stroke-width:0.05069799;stroke-miterlimit:4;stroke-dasharray:none;stroke-opacity:1"
         inkscape:export-filename="/home/juergen/path4136.png"
         inkscape:export-xdpi="648"
         inkscape:export-ydpi="648" />
    </clipPath>
    <linearGradient
       inkscape:collect="always"
       xlink:href="#linearGradient5138"
       id="linearGradient5144"
       x1="10"
       y1="10"
       x2="20"
       y2="20"
       gradientUnits="userSpaceOnUse" />
    <clipPath
       clipPathUnits="userSpaceOnUse"
       id="clipPath5149">
      <circle
         r="10"
         cy="10.000005"
         cx="9.9999781"
         id="circle5151"
         style="opacity:1;fill:#3f51b5;fill-opacity:1;stroke:none;stroke-width:0.05069799;stroke-miterlimit:4;stroke-dasharray:none;stroke-opacity:1"
         inkscape:export-filename="/home/juergen/Schreibtisch/qqq.png"
         inkscape:export-xdpi="648"
         inkscape:export-ydpi="648" />
    </clipPath>
  </defs>
  <metadata
     id="metadata7">
    <rdf:RDF>
      <cc:Work
         rdf:about="">
        <dc:format>image/svg+xml</dc:format>
        <dc:type
           rdf:resource="http://purl.org/dc/dcmitype/StillImage" />
        <dc:title />
      </cc:Work>
    </rdf:RDF>
  </metadata>
  <g
     inkscape:label="Hintergrund"
     inkscape:groupmode="layer"
     id="layer1"
     transform="translate(1058.1428,-861.93365)">
    <circle
       inkscape:export-ydpi="648"
       inkscape:export-xdpi="648"
       inkscape:export-filename="/home/juergen/Schreibtisch/qqq.png"
       style="opacity:1;fill:#00bcd4;fill-opacity:1;stroke:none;stroke-width:0.05069799;stroke-miterlimit:4;stroke-dasharray:none;stroke-opacity:1"
       id="path4136"
       cx="-1048.1428"
       cy="871.93365"
       r="10" />
  </g>
  <g
     style="display:inline"
     inkscape:groupmode="layer"
     id="layer2"
     inkscape:label="Icon">
    <path
       d="m 3.9999777,4.0333382 12.0000003,0 0,11.9333328 -12.0000003,0 z"
       id="path4"
       inkscape:connector-curvature="0"
       style="fill:none" />
    <path
       style="fill:none"
       inkscape:connector-curvature="0"
       id="path9754"
       d="m 18.999978,19.033339 12,0 0,11.933333 -12,0 z" />
    <path
       inkscape:connector-curvature="0"
       d="m 9.4444222,13.333338 0,-5.5555554 A 1.1111111,1.1111111 0 0 0 8.3333111,6.6666715 l -2.2222222,0 0,5.5555555 2.2222222,0 a 1.1111111,1.1111111 0 0 1 1.1111111,1.111111 m 1.1111108,-5.5555554 0,5.5555554 a 1.1111111,1.1111111 0 0 1 1.111111,-1.111111 l 2.222223,0 0,-5.5555555 -2.222223,0 a 1.1111111,1.1111111 0 0 0 -1.111111,1.1111111 m 4.444445,5.5555554 -3.333334,0 a 1.1111111,1.1111111 0 0 0 -1.111111,1.111111 l -1.1111108,0 A 1.1111111,1.1111111 0 0 0 8.3333111,13.333338 l -3.3333334,0 0,-7.7777777 3.3333334,0 a 1.1111111,1.1111111 0 0 1 1.1111111,1.1111112 l 1.1111108,0 a 1.1111111,1.1111111 0 0 1 1.111111,-1.1111112 l 3.333334,0 0,7.7777777 z"
       id="path4238" />
    <path
       d="M 5.1484375 5.7050781 L 5.1484375 13.482422 L 5.296875 13.482422 L 5.296875 13.630859 L 5.4453125 13.630859 L 5.4453125 13.777344 L 5.5917969 13.777344 L 5.5917969 13.923828 L 5.7363281 13.923828 L 5.7363281 14.070312 L 5.8828125 14.070312 L 5.8828125 14.214844 L 6.0273438 14.214844 L 6.0273438 14.359375 L 6.1699219 14.359375 L 6.1699219 14.503906 L 6.3125 14.503906 L 6.3125 14.646484 L 6.4550781 14.646484 L 6.4550781 14.789062 L 6.5976562 14.789062 L 6.5976562 14.929688 L 6.7382812 14.929688 L 6.7382812 15.070312 L 6.8769531 15.070312 L 6.8769531 15.210938 L 7.0175781 15.210938 L 7.0175781 15.349609 L 7.1542969 15.349609 L 7.1542969 15.488281 L 7.2929688 15.488281 L 7.2929688 15.626953 L 7.4296875 15.626953 L 7.4296875 15.763672 L 7.5664062 15.763672 L 7.5664062 15.900391 L 7.7011719 15.900391 L 7.7011719 16.035156 L 7.8359375 16.035156 L 7.8359375 16.169922 L 7.9707031 16.169922 L 7.9707031 16.304688 L 8.1035156 16.304688 L 8.1035156 16.4375 L 8.2363281 16.4375 L 8.2363281 16.570312 L 8.3691406 16.570312 L 8.3691406 16.701172 L 8.5 16.701172 L 8.5 16.832031 L 8.6289062 16.832031 L 8.6289062 16.962891 L 8.7597656 16.962891 L 8.7597656 17.091797 L 8.8886719 17.091797 L 8.8886719 17.220703 L 9.015625 17.220703 L 9.015625 17.349609 L 9.1425781 17.349609 L 9.1425781 17.476562 L 9.2695312 17.476562 L 9.2695312 17.603516 L 9.3964844 17.603516 L 9.3964844 17.728516 L 9.5214844 17.728516 L 9.5214844 17.853516 L 9.6445312 17.853516 L 9.6445312 17.978516 L 9.7695312 17.978516 L 9.7695312 18.101562 L 9.8925781 18.101562 L 9.8925781 18.224609 L 10.013672 18.224609 L 10.013672 18.347656 L 10.134766 18.347656 L 10.134766 18.46875 L 10.255859 18.46875 L 10.255859 18.589844 L 10.376953 18.589844 L 10.376953 18.708984 L 10.496094 18.708984 L 10.496094 18.828125 L 10.613281 18.828125 L 10.613281 18.947266 L 10.730469 18.947266 L 10.730469 19.064453 L 10.847656 19.064453 L 10.847656 19.181641 L 10.964844 19.181641 L 10.964844 19.298828 L 11.080078 19.298828 L 11.080078 19.414062 L 11.195312 19.414062 L 11.195312 19.527344 L 11.308594 19.527344 L 11.308594 19.642578 L 11.421875 19.642578 L 11.421875 19.755859 L 11.535156 19.755859 L 11.535156 19.867188 L 11.646484 19.867188 L 11.646484 19.980469 L 11.757812 19.980469 L 11.757812 20.089844 L 11.867188 20.089844 L 11.867188 20.201172 L 11.976562 20.201172 L 11.976562 20.310547 L 12.085938 20.310547 L 12.085938 20.419922 L 12.193359 20.419922 L 12.193359 20.527344 L 12.300781 20.527344 L 12.300781 20.634766 L 12.408203 20.634766 L 12.408203 20.740234 L 12.513672 20.740234 L 12.513672 20.847656 L 12.619141 20.847656 L 12.619141 20.951172 L 12.722656 20.951172 L 12.722656 21.056641 L 12.826172 21.056641 L 12.826172 21.160156 L 12.929688 21.160156 L 12.929688 21.263672 L 13.03125 21.263672 L 13.03125 21.365234 L 13.132812 21.365234 L 13.132812 21.466797 L 13.234375 21.466797 L 13.234375 21.566406 L 13.333984 21.566406 L 13.333984 21.666016 L 13.431641 21.666016 L 13.431641 21.765625 L 13.53125 21.765625 L 13.53125 21.863281 L 13.628906 21.863281 L 13.628906 21.960938 L 13.724609 21.960938 L 13.724609 22.058594 L 13.822266 22.058594 L 13.822266 22.154297 L 13.916016 22.154297 L 13.916016 22.25 L 14.011719 22.25 L 14.011719 22.345703 L 14.105469 22.345703 L 14.105469 22.439453 L 14.199219 22.439453 L 14.199219 22.53125 L 14.291016 22.53125 L 14.291016 22.625 L 14.382812 22.625 L 14.382812 22.716797 L 14.474609 22.716797 L 14.474609 22.806641 L 14.564453 22.806641 L 14.564453 22.896484 L 14.654297 22.896484 L 14.654297 22.986328 L 14.742188 22.986328 L 14.742188 23.076172 L 14.830078 23.076172 L 14.830078 23.164062 L 14.917969 23.164062 L 14.917969 23.25 L 15.003906 23.25 L 15.003906 23.337891 L 15.089844 23.337891 L 15.089844 23.423828 L 15.175781 23.423828 L 15.175781 23.507812 L 15.259766 23.507812 L 15.259766 23.591797 L 15.341797 23.591797 L 15.341797 23.675781 L 15.425781 23.675781 L 15.425781 23.759766 L 15.507812 23.759766 L 15.507812 23.841797 L 15.587891 23.841797 L 15.587891 23.921875 L 15.669922 23.921875 L 15.669922 24.001953 L 15.75 24.001953 L 15.75 24.082031 L 15.828125 24.082031 L 15.828125 24.162109 L 15.90625 24.162109 L 15.90625 24.240234 L 15.984375 24.240234 L 15.984375 24.318359 L 16.060547 24.318359 L 16.060547 24.394531 L 16.136719 24.394531 L 16.136719 24.470703 L 16.212891 24.470703 L 16.212891 24.546875 L 16.287109 24.546875 L 16.287109 24.621094 L 16.361328 24.621094 L 16.361328 24.695312 L 16.433594 24.695312 L 16.433594 24.767578 L 16.505859 24.767578 L 16.505859 24.839844 L 16.578125 24.839844 L 16.578125 24.912109 L 16.648438 24.912109 L 16.648438 24.982422 L 16.71875 24.982422 L 16.71875 25.052734 L 16.789062 25.052734 L 16.789062 25.123047 L 16.857422 25.123047 L 16.857422 25.191406 L 16.925781 25.191406 L 16.925781 25.257812 L 16.992188 25.257812 L 16.992188 25.326172 L 17.058594 25.326172 L 17.058594 25.392578 L 17.125 25.392578 L 17.125 25.458984 L 17.189453 25.458984 L 17.189453 25.523438 L 17.253906 25.523438 L 17.253906 25.587891 L 17.318359 25.587891 L 17.318359 25.650391 L 17.380859 25.650391 L 17.380859 25.712891 L 17.441406 25.712891 L 17.441406 25.775391 L 17.503906 25.775391 L 17.503906 25.835938 L 17.564453 25.835938 L 17.564453 25.896484 L 17.623047 25.896484 L 17.623047 25.957031 L 17.683594 25.957031 L 17.683594 26.015625 L 17.740234 26.015625 L 17.740234 26.074219 L 17.798828 26.074219 L 17.798828 26.132812 L 17.855469 26.132812 L 17.855469 26.189453 L 17.912109 26.189453 L 17.912109 26.244141 L 17.966797 26.244141 L 17.966797 26.300781 L 18.021484 26.300781 L 18.021484 26.355469 L 18.076172 26.355469 L 18.076172 26.408203 L 18.128906 26.408203 L 18.128906 26.460938 L 18.181641 26.460938 L 18.181641 26.513672 L 18.232422 26.513672 L 18.232422 26.566406 L 18.283203 26.566406 L 18.283203 26.617188 L 18.333984 26.617188 L 18.333984 26.666016 L 18.382812 26.666016 L 18.382812 26.716797 L 18.431641 26.716797 L 18.431641 26.765625 L 18.478516 26.765625 L 18.478516 26.8125 L 18.527344 26.8125 L 18.527344 26.859375 L 18.572266 26.859375 L 18.572266 26.90625 L 18.619141 26.90625 L 18.619141 26.951172 L 18.664062 26.951172 L 18.664062 26.996094 L 18.707031 26.996094 L 18.707031 27.041016 L 18.751953 27.041016 L 18.751953 27.083984 L 18.792969 27.083984 L 18.792969 27.126953 L 18.835938 27.126953 L 18.835938 27.169922 L 18.876953 27.169922 L 18.876953 27.210938 L 18.917969 27.210938 L 18.917969 27.25 L 18.957031 27.25 L 18.957031 27.291016 L 18.996094 27.291016 L 18.996094 27.330078 L 19.035156 27.330078 L 19.035156 27.367188 L 19.072266 27.367188 L 19.072266 27.404297 L 19.109375 27.404297 L 19.109375 27.441406 L 19.144531 27.441406 L 19.144531 27.478516 L 19.179688 27.478516 L 19.179688 27.513672 L 19.214844 27.513672 L 19.214844 27.546875 L 19.248047 27.546875 L 19.248047 27.582031 L 19.28125 27.582031 L 19.28125 27.615234 L 19.314453 27.615234 L 19.314453 27.646484 L 19.345703 27.646484 L 19.345703 27.677734 L 19.375 27.677734 L 19.375 27.708984 L 19.40625 27.708984 L 19.40625 27.740234 L 19.435547 27.740234 L 19.435547 27.769531 L 19.462891 27.769531 L 19.462891 27.796875 L 19.492188 27.796875 L 19.492188 27.824219 L 19.519531 27.824219 L 19.519531 27.851562 L 19.544922 27.851562 L 19.544922 27.878906 L 19.570312 27.878906 L 19.570312 27.904297 L 19.595703 27.904297 L 19.595703 27.929688 L 19.619141 27.929688 L 19.619141 27.953125 L 19.642578 27.953125 L 19.642578 27.976562 L 19.666016 27.976562 L 19.666016 28 L 19.6875 28 L 19.6875 28.021484 L 19.708984 28.021484 L 19.708984 28.042969 L 19.728516 28.042969 L 19.728516 28.0625 L 19.748047 28.0625 L 19.748047 28.082031 L 19.767578 28.082031 L 19.767578 28.101562 L 19.785156 28.101562 L 19.785156 28.119141 L 19.802734 28.119141 L 19.802734 28.136719 L 19.820312 28.136719 L 19.820312 28.154297 L 19.835938 28.154297 L 19.835938 28.169922 L 19.851562 28.169922 L 19.851562 28.185547 L 19.865234 28.185547 L 19.865234 28.199219 L 19.878906 28.199219 L 19.878906 28.212891 L 19.892578 28.212891 L 19.892578 28.226562 L 19.904297 28.226562 L 19.904297 28.238281 L 19.916016 28.238281 L 19.916016 28.25 L 19.927734 28.25 L 19.927734 28.259766 L 19.9375 28.259766 L 19.9375 28.271484 L 19.947266 28.271484 L 19.947266 28.279297 L 19.955078 28.279297 L 19.955078 28.289062 L 19.962891 28.289062 L 19.962891 28.296875 L 19.970703 28.296875 L 19.970703 28.302734 L 19.976562 28.302734 L 19.976562 28.310547 L 19.982422 28.310547 L 19.982422 28.314453 L 19.986328 28.314453 L 19.986328 28.320312 L 19.990234 28.320312 L 19.990234 28.324219 L 19.994141 28.324219 L 19.994141 28.328125 L 19.996094 28.328125 L 19.996094 28.330078 L 19.998047 28.330078 L 19.998047 28.332031 L 20 28.332031 L 23.332031 28.332031 C 23.340301 28.332031 23.347242 28.335758 23.355469 28.335938 C 23.355685 28.344962 23.361328 28.352252 23.361328 28.361328 L 23.394531 28.361328 C 23.39508 28.375671 23.402344 28.387866 23.402344 28.402344 L 23.433594 28.402344 C 23.434094 28.416035 23.441406 28.427593 23.441406 28.441406 L 23.470703 28.441406 C 23.47116 28.454502 23.478516 28.465309 23.478516 28.478516 L 23.507812 28.478516 C 23.50827 28.491622 23.515625 28.502407 23.515625 28.515625 L 23.544922 28.515625 C 23.545379 28.528721 23.552734 28.539527 23.552734 28.552734 L 23.582031 28.552734 C 23.582484 28.565774 23.589844 28.576694 23.589844 28.589844 L 23.617188 28.589844 C 23.617596 28.60223 23.625 28.612514 23.625 28.625 L 23.652344 28.625 C 23.652706 28.636662 23.658203 28.646453 23.658203 28.658203 L 23.685547 28.658203 C 23.685956 28.67059 23.693359 28.680873 23.693359 28.693359 L 23.720703 28.693359 C 23.721061 28.70496 23.726562 28.714875 23.726562 28.726562 L 23.751953 28.726562 C 23.752275 28.737556 23.757812 28.746741 23.757812 28.757812 L 23.783203 28.757812 C 23.783525 28.768817 23.789062 28.77798 23.789062 28.789062 L 23.814453 28.789062 C 23.814775 28.800056 23.820312 28.809241 23.820312 28.820312 L 23.84375 28.820312 C 23.844035 28.830658 23.849609 28.839195 23.849609 28.849609 L 23.873047 28.849609 C 23.873332 28.859955 23.878906 28.868492 23.878906 28.878906 L 23.902344 28.878906 C 23.902628 28.889243 23.908203 28.897798 23.908203 28.908203 L 23.929688 28.908203 C 23.929937 28.91789 23.935547 28.9258 23.935547 28.935547 L 23.957031 28.935547 C 23.95728 28.945226 23.962891 28.953152 23.962891 28.962891 L 23.984375 28.962891 C 23.984622 28.972528 23.990234 28.980538 23.990234 28.990234 L 24.009766 28.990234 C 24.00998 28.999216 24.015625 29.006592 24.015625 29.015625 L 24.035156 29.015625 C 24.035371 29.024606 24.041016 29.031983 24.041016 29.041016 L 24.060547 29.041016 C 24.060725 29.049207 24.064453 29.056219 24.064453 29.064453 L 24.083984 29.064453 C 24.084163 29.072645 24.087891 29.079656 24.087891 29.087891 L 24.105469 29.087891 C 24.105621 29.095465 24.109375 29.101764 24.109375 29.109375 L 24.128906 29.109375 C 24.129084 29.117567 24.132812 29.124578 24.132812 29.132812 L 24.150391 29.132812 C 24.150541 29.140347 24.154297 29.146726 24.154297 29.154297 L 24.169922 29.154297 C 24.170048 29.161203 24.173828 29.166891 24.173828 29.173828 L 24.189453 29.173828 C 24.18958 29.180735 24.193359 29.186423 24.193359 29.193359 L 24.208984 29.193359 C 24.20911 29.200236 24.212891 29.205984 24.212891 29.212891 L 24.226562 29.212891 C 24.226666 29.219136 24.230469 29.224198 24.230469 29.230469 L 24.244141 29.230469 C 24.244244 29.236714 24.248047 29.241777 24.248047 29.248047 L 24.261719 29.248047 C 24.261821 29.254265 24.265625 29.259382 24.265625 29.265625 L 24.277344 29.265625 C 24.277426 29.271185 24.28125 29.275671 24.28125 29.28125 L 24.292969 29.28125 C 24.293051 29.28681 24.296875 29.291296 24.296875 29.296875 L 24.308594 29.296875 C 24.308654 29.301642 24.310547 29.305766 24.310547 29.310547 L 24.322266 29.310547 C 24.322326 29.315334 24.324219 29.319417 24.324219 29.324219 L 24.335938 29.324219 C 24.335998 29.328985 24.337891 29.33311 24.337891 29.337891 L 24.347656 29.337891 C 24.347701 29.341997 24.349609 29.345492 24.349609 29.349609 L 24.359375 29.349609 C 24.35942 29.353716 24.361328 29.357211 24.361328 29.361328 L 24.369141 29.361328 C 24.369172 29.364792 24.371094 29.367622 24.371094 29.371094 L 24.378906 29.371094 C 24.378938 29.374558 24.380859 29.377388 24.380859 29.380859 L 24.388672 29.380859 C 24.388704 29.38432 24.390625 29.387157 24.390625 29.390625 L 24.398438 29.390625 C 24.398469 29.394071 24.400391 29.396937 24.400391 29.400391 L 24.40625 29.400391 C 24.406271 29.403175 24.408203 29.405413 24.408203 29.408203 L 24.412109 29.408203 C 24.412121 29.410336 24.414062 29.411927 24.414062 29.414062 L 24.417969 29.414062 C 24.417981 29.416196 24.419922 29.417786 24.419922 29.419922 L 24.423828 29.419922 C 24.42384 29.422055 24.425781 29.423645 24.425781 29.425781 L 24.429688 29.425781 C 24.429699 29.427904 24.431641 29.429515 24.431641 29.431641 L 24.435547 29.431641 C 24.435552 29.432967 24.435547 29.434219 24.435547 29.435547 L 24.439453 29.435547 C 24.439458 29.436873 24.439453 29.438126 24.439453 29.439453 L 24.441406 29.439453 C 24.441406 29.439453 24.441406 29.441406 24.441406 29.441406 C 24.441406 29.441406 24.443359 29.441406 24.443359 29.441406 C 24.443359 29.441406 24.443359 29.443359 24.443359 29.443359 L 25.554688 29.443359 C 25.554688 29.136534 25.679788 28.859275 25.880859 28.658203 C 26.08184 28.457805 26.359773 28.332031 26.666016 28.332031 L 29.998047 28.332031 L 30 28.332031 L 30 20.554688 C 30 20.554688 29.998049 20.554687 29.998047 20.554688 C 29.998045 20.554688 29.996098 20.554687 29.996094 20.554688 L 29.996094 20.552734 C 29.996094 20.552734 29.992197 20.552734 29.992188 20.552734 L 29.992188 20.548828 C 29.992187 20.548828 29.988291 20.548828 29.988281 20.548828 L 29.988281 20.546875 C 29.988281 20.546875 29.984385 20.546875 29.984375 20.546875 L 29.984375 20.542969 C 29.984374 20.542969 29.978537 20.542969 29.978516 20.542969 L 29.978516 20.537109 C 29.978514 20.537109 29.970741 20.537109 29.970703 20.537109 L 29.970703 20.53125 C 29.970701 20.53125 29.962929 20.53125 29.962891 20.53125 L 29.962891 20.525391 C 29.962888 20.525391 29.955118 20.525391 29.955078 20.525391 L 29.955078 20.517578 C 29.955074 20.517578 29.945374 20.517578 29.945312 20.517578 L 29.945312 20.509766 C 29.945307 20.509766 29.935609 20.509766 29.935547 20.509766 L 29.935547 20.501953 C 29.935539 20.501953 29.923918 20.501953 29.923828 20.501953 L 29.923828 20.492188 C 29.923818 20.492188 29.910279 20.492187 29.910156 20.492188 L 29.910156 20.482422 C 29.910146 20.482422 29.89853 20.482422 29.898438 20.482422 L 29.898438 20.472656 C 29.898423 20.472656 29.884891 20.472656 29.884766 20.472656 L 29.884766 20.460938 C 29.884747 20.460938 29.869305 20.460937 29.869141 20.460938 L 29.869141 20.449219 C 29.86912 20.449219 29.853682 20.449219 29.853516 20.449219 L 29.853516 20.435547 C 29.85349 20.435547 29.836148 20.435547 29.835938 20.435547 L 29.835938 20.421875 C 29.835908 20.421875 29.818573 20.421875 29.818359 20.421875 L 29.818359 20.40625 C 29.818327 20.40625 29.800999 20.40625 29.800781 20.40625 L 29.800781 20.392578 C 29.800742 20.392578 29.781518 20.392578 29.78125 20.392578 L 29.78125 20.375 C 29.781202 20.375 29.76009 20.375 29.759766 20.375 L 29.759766 20.359375 C 29.759713 20.359375 29.73861 20.359374 29.738281 20.359375 L 29.738281 20.341797 C 29.738224 20.341797 29.71713 20.341796 29.716797 20.341797 L 29.716797 20.324219 C 29.716729 20.324219 29.693756 20.324218 29.693359 20.324219 L 29.693359 20.304688 C 29.693286 20.304688 29.670324 20.304687 29.669922 20.304688 L 29.669922 20.285156 C 29.669837 20.285156 29.645002 20.285155 29.644531 20.285156 L 29.644531 20.263672 C 29.644439 20.263672 29.619618 20.263671 29.619141 20.263672 L 29.619141 20.244141 C 29.619034 20.244141 29.592351 20.244139 29.591797 20.244141 L 29.591797 20.220703 C 29.591683 20.220703 29.565015 20.220702 29.564453 20.220703 L 29.564453 20.199219 C 29.564323 20.199219 29.5358 20.199217 29.535156 20.199219 L 29.535156 20.175781 C 29.535017 20.175781 29.506512 20.175779 29.505859 20.175781 L 29.505859 20.150391 C 29.505701 20.150391 29.475352 20.150388 29.474609 20.150391 L 29.474609 20.126953 C 29.474442 20.126953 29.444112 20.126951 29.443359 20.126953 L 29.443359 20.101562 C 29.443181 20.101562 29.412873 20.10156 29.412109 20.101562 L 29.412109 20.074219 C 29.411909 20.074219 29.379768 20.074215 29.378906 20.074219 L 29.378906 20.046875 C 29.378682 20.046875 29.344715 20.046871 29.34375 20.046875 L 29.34375 20.019531 C 29.343526 20.019531 29.311432 20.019528 29.310547 20.019531 L 29.310547 19.990234 C 29.310283 19.990234 29.274527 19.99023 29.273438 19.990234 L 29.273438 19.960938 C 29.27316 19.960938 29.237433 19.960932 29.236328 19.960938 L 29.236328 19.931641 C 29.236036 19.931641 29.200338 19.931635 29.199219 19.931641 L 29.199219 19.900391 C 29.198895 19.900391 29.161395 19.900384 29.160156 19.900391 L 29.160156 19.869141 C 29.159817 19.869141 29.12235 19.869134 29.121094 19.869141 L 29.121094 19.835938 C 29.120738 19.835938 29.083304 19.835931 29.082031 19.835938 L 29.082031 19.804688 C 29.081621 19.804688 29.040581 19.804679 29.039062 19.804688 L 29.039062 19.769531 C 29.038653 19.769531 28.999468 19.769523 28.998047 19.769531 L 28.998047 19.736328 C 28.997602 19.736328 28.956616 19.736319 28.955078 19.736328 L 28.955078 19.699219 C 28.954592 19.699219 28.911835 19.699208 28.910156 19.699219 L 28.910156 19.664062 C 28.909671 19.664062 28.868768 19.664052 28.867188 19.664062 L 28.865234 19.626953 C 28.864728 19.626953 28.823866 19.626942 28.822266 19.626953 L 28.820312 19.589844 C 28.819762 19.589844 28.777133 19.589831 28.775391 19.589844 L 28.773438 19.550781 C 28.772839 19.550781 28.72846 19.550767 28.726562 19.550781 L 28.724609 19.511719 C 28.723987 19.511719 28.679656 19.511704 28.677734 19.511719 L 28.675781 19.472656 C 28.675133 19.472656 28.630855 19.472641 28.628906 19.472656 L 28.626953 19.431641 C 28.626252 19.431641 28.580236 19.431623 28.578125 19.431641 L 28.576172 19.390625 C 28.575444 19.390625 28.52948 19.390607 28.527344 19.390625 L 28.525391 19.349609 C 28.524606 19.349609 28.476916 19.349589 28.474609 19.349609 L 28.472656 19.306641 C 28.471841 19.306641 28.424214 19.30662 28.421875 19.306641 L 28.419922 19.263672 C 28.419078 19.263672 28.371508 19.26365 28.369141 19.263672 L 28.367188 19.21875 C 28.366247 19.21875 28.315201 19.220677 28.3125 19.220703 L 28.310547 19.173828 C 28.309606 19.173828 28.260395 19.173803 28.257812 19.173828 L 28.255859 19.128906 C 28.254851 19.128906 28.203941 19.130831 28.201172 19.130859 L 28.199219 19.082031 C 28.198138 19.082031 28.145549 19.083953 28.142578 19.083984 L 28.140625 19.035156 C 28.139507 19.035156 28.086995 19.037077 28.083984 19.037109 L 28.082031 18.986328 C 28.080876 18.986328 28.028436 18.988248 28.025391 18.988281 L 28.023438 18.9375 C 28.022204 18.9375 27.968096 18.939416 27.964844 18.939453 L 27.962891 18.888672 C 27.961617 18.888672 27.907592 18.890587 27.904297 18.890625 L 27.902344 18.837891 C 27.90103 18.837891 27.847082 18.839804 27.84375 18.839844 L 27.839844 18.787109 C 27.838488 18.787109 27.784626 18.789022 27.78125 18.789062 L 27.777344 18.736328 C 27.7759 18.736328 27.720393 18.738236 27.716797 18.738281 L 27.712891 18.683594 C 27.711401 18.683594 27.655986 18.6855 27.652344 18.685547 L 27.648438 18.630859 C 27.646855 18.630859 27.589809 18.632761 27.585938 18.632812 L 27.582031 18.576172 C 27.5804 18.576172 27.523453 18.578072 27.519531 18.578125 L 27.515625 18.521484 C 27.513892 18.521484 27.45534 18.523379 27.451172 18.523438 L 27.447266 18.466797 C 27.445481 18.466797 27.387034 18.46869 27.382812 18.46875 L 27.378906 18.410156 C 27.377016 18.410156 27.316969 18.412044 27.3125 18.412109 L 27.308594 18.353516 C 27.306649 18.353516 27.246713 18.355401 27.242188 18.355469 L 27.238281 18.296875 C 27.23628 18.296875 27.176457 18.298758 27.171875 18.298828 L 27.167969 18.238281 C 27.165914 18.238281 27.106192 18.240163 27.101562 18.240234 L 27.095703 18.179688 C 27.09359 18.179688 27.033985 18.181567 27.029297 18.181641 L 27.023438 18.119141 C 27.021202 18.119141 26.96004 18.121013 26.955078 18.121094 L 26.949219 18.058594 C 26.94686 18.058594 26.884141 18.060459 26.878906 18.060547 L 26.873047 17.998047 C 26.870688 17.998047 26.809773 17.999915 26.804688 18 L 26.798828 17.935547 C 26.796271 17.935547 26.732154 17.937402 26.726562 17.9375 L 26.720703 17.873047 C 26.718146 17.873047 26.655829 17.874904 26.650391 17.875 L 26.644531 17.810547 C 26.641764 17.810547 26.576275 17.812391 26.570312 17.8125 L 26.564453 17.746094 C 26.56176 17.746094 26.499712 17.747946 26.494141 17.748047 L 26.486328 17.679688 C 26.48349 17.679688 26.419937 17.683484 26.414062 17.683594 L 26.40625 17.615234 C 26.403261 17.615234 26.338218 17.619021 26.332031 17.619141 L 26.324219 17.548828 C 26.321154 17.548828 26.25626 17.552612 26.25 17.552734 L 26.242188 17.480469 C 26.238964 17.480469 26.1726 17.484242 26.166016 17.484375 L 26.158203 17.412109 C 26.15498 17.412109 26.090406 17.415886 26.083984 17.416016 L 26.076172 17.34375 C 26.072701 17.34375 26.005043 17.347509 25.998047 17.347656 L 25.990234 17.275391 C 25.986767 17.275391 25.92088 17.279153 25.914062 17.279297 L 25.904297 17.205078 C 25.900742 17.205078 25.835035 17.208836 25.828125 17.208984 L 25.818359 17.134766 C 25.814632 17.134766 25.747475 17.138513 25.740234 17.138672 L 25.730469 17.0625 C 25.726648 17.0625 25.659682 17.066242 25.652344 17.066406 L 25.642578 16.990234 C 25.638668 16.990234 25.571876 16.993972 25.564453 16.994141 L 25.552734 16.916016 C 25.548734 16.916016 25.482116 16.919749 25.474609 16.919922 L 25.462891 16.84375 C 25.458696 16.84375 25.390682 16.84747 25.382812 16.847656 L 25.371094 16.767578 C 25.366803 16.767578 25.298974 16.771294 25.291016 16.771484 L 25.279297 16.693359 C 25.274797 16.693359 25.205614 16.69706 25.197266 16.697266 L 25.185547 16.617188 C 25.181055 16.617188 25.113624 16.620893 25.105469 16.621094 L 25.091797 16.539062 C 25.087087 16.539062 25.018319 16.544705 25.009766 16.544922 L 24.996094 16.462891 C 24.991274 16.462891 24.922728 16.468528 24.914062 16.46875 L 24.900391 16.384766 C 24.895458 16.384766 24.827139 16.390396 24.818359 16.390625 L 24.804688 16.304688 C 24.799655 16.304688 24.731516 16.310313 24.722656 16.310547 L 24.707031 16.224609 C 24.701884 16.224609 24.633975 16.230229 24.625 16.230469 L 24.609375 16.144531 C 24.603993 16.144531 24.53477 16.150133 24.525391 16.150391 L 24.509766 16.0625 C 24.504143 16.0625 24.43362 16.068084 24.423828 16.068359 L 24.408203 15.980469 C 24.402707 15.980469 24.335484 15.986069 24.326172 15.986328 L 24.308594 15.898438 C 24.302725 15.898438 24.23268 15.904007 24.222656 15.904297 L 24.205078 15.814453 C 24.199207 15.814453 24.130946 15.820028 24.121094 15.820312 L 24.103516 15.730469 C 24.097394 15.730469 24.027838 15.736024 24.017578 15.736328 L 23.998047 15.644531 C 23.991925 15.644531 23.924149 15.650092 23.914062 15.650391 L 23.894531 15.560547 C 23.888285 15.560547 23.820744 15.5661 23.810547 15.566406 L 23.789062 15.472656 C 23.782532 15.472656 23.713785 15.48014 23.703125 15.480469 L 23.681641 15.386719 C 23.67497 15.386719 23.6065 15.394194 23.595703 15.394531 L 23.574219 15.298828 C 23.567406 15.298828 23.499215 15.306295 23.488281 15.306641 L 23.464844 15.208984 C 23.457887 15.208984 23.389978 15.216442 23.378906 15.216797 L 23.355469 15.119141 C 23.348377 15.119141 23.280718 15.126591 23.269531 15.126953 L 23.246094 15.029297 C 23.238853 15.029297 23.171486 15.036738 23.160156 15.037109 L 23.134766 14.939453 C 23.127374 14.939453 23.0603 14.946885 23.048828 14.947266 L 23.023438 14.847656 C 23.015905 14.847656 22.949093 14.85508 22.9375 14.855469 L 22.910156 14.753906 C 22.902297 14.753906 22.834356 14.761302 22.822266 14.761719 L 22.794922 14.662109 C 22.787255 14.662109 22.722469 14.669531 22.710938 14.669922 L 22.681641 14.566406 C 22.673471 14.566406 22.606117 14.573783 22.59375 14.574219 L 22.564453 14.472656 C 22.556474 14.472656 22.492289 14.480059 22.480469 14.480469 L 22.449219 14.376953 C 22.440886 14.376953 22.375626 14.386279 22.363281 14.386719 L 22.330078 14.28125 C 22.321757 14.28125 22.25825 14.290584 22.246094 14.291016 L 22.212891 14.183594 C 22.204417 14.183594 22.141191 14.192918 22.128906 14.193359 L 22.09375 14.085938 C 22.084911 14.085938 22.020622 14.095231 22.007812 14.095703 L 21.972656 13.988281 C 21.963846 13.988281 21.901265 13.997584 21.888672 13.998047 L 21.851562 13.888672 C 21.842786 13.888672 21.781907 13.897985 21.769531 13.898438 L 21.730469 13.789062 C 21.721522 13.789062 21.660968 13.798365 21.648438 13.798828 L 21.607422 13.6875 C 21.598089 13.6875 21.536503 13.696769 21.523438 13.697266 L 21.482422 13.587891 C 21.473126 13.587891 21.413237 13.597171 21.400391 13.597656 L 21.357422 13.484375 C 21.347936 13.484375 21.288419 13.493643 21.275391 13.494141 L 21.232422 13.382812 C 21.222768 13.382812 21.163558 13.39207 21.150391 13.392578 L 21.105469 13.279297 C 21.096079 13.279297 21.039923 13.288588 21.027344 13.289062 L 20.978516 13.173828 C 20.968715 13.173828 20.911562 13.183084 20.898438 13.183594 L 20.849609 13.068359 C 20.839867 13.068359 20.784375 13.077629 20.771484 13.078125 L 20.720703 12.962891 C 20.710779 12.962891 20.65563 12.972148 20.642578 12.972656 L 20.589844 12.857422 C 20.579981 12.857422 20.526494 12.866693 20.513672 12.867188 L 20.458984 12.75 C 20.446162 12.75 20.400375 12.756991 20.382812 12.757812 L 20.326172 12.640625 C 20.313123 12.640625 20.267746 12.647598 20.25 12.648438 L 20.193359 12.533203 C 20.180467 12.533203 20.136425 12.540207 20.119141 12.541016 L 20.060547 12.423828 C 20.047819 12.423828 20.00511 12.430863 19.988281 12.431641 L 19.925781 12.3125 C 19.912886 12.3125 19.870437 12.319525 19.853516 12.320312 L 19.789062 12.201172 C 19.77629 12.201172 19.735302 12.208222 19.71875 12.208984 L 19.652344 12.089844 C 19.639756 12.089844 19.600086 12.096925 19.583984 12.097656 L 19.515625 11.978516 C 19.50287 11.978516 19.463468 11.985587 19.447266 11.986328 L 19.376953 11.865234 C 19.364747 11.865234 19.327729 11.870423 19.3125 11.871094 L 19.238281 11.75 C 19.225882 11.75 19.189207 11.75713 19.173828 11.757812 L 19.097656 11.634766 C 19.085476 11.634766 19.050085 11.641927 19.035156 11.642578 L 18.957031 11.519531 C 18.945073 11.519531 18.910973 11.526724 18.896484 11.527344 L 18.888672 11.515625 L 18.888672 11.458984 L 18.759766 11.353516 L 18.759766 11.263672 L 18.628906 11.162109 L 18.628906 11.066406 L 18.5 10.970703 L 18.5 10.869141 L 18.369141 10.775391 L 18.369141 10.669922 L 18.236328 10.580078 L 18.236328 10.470703 L 18.103516 10.384766 L 18.103516 10.269531 L 17.970703 10.189453 L 17.970703 10.066406 L 17.835938 9.9882812 L 17.835938 9.8632812 L 17.701172 9.7890625 L 17.701172 9.6582031 L 17.566406 9.5898438 L 17.566406 9.453125 L 17.429688 9.3867188 L 17.429688 9.2460938 L 17.292969 9.1835938 L 17.292969 9.0371094 L 17.154297 8.9785156 L 17.154297 8.828125 L 17.017578 8.7753906 L 17.017578 8.6171875 L 16.876953 8.5664062 L 16.876953 8.40625 L 16.738281 8.359375 L 16.738281 8.1933594 L 16.597656 8.1503906 L 16.597656 7.9804688 L 16.455078 7.9414062 L 16.455078 7.765625 L 16.3125 7.7304688 L 16.3125 7.5488281 L 16.169922 7.5175781 L 16.169922 7.3320312 L 16.027344 7.3046875 L 16.027344 7.1152344 L 15.882812 7.0898438 L 15.882812 6.8945312 L 15.736328 6.8730469 L 15.736328 6.6738281 L 15.591797 6.65625 L 15.591797 6.453125 L 15.445312 6.4394531 L 15.445312 6.2304688 L 15.296875 6.2207031 L 15.296875 6.0058594 L 15.148438 5.9980469 L 15.148438 5.78125 L 11.847656 5.7050781 C 11.240098 5.7050781 10.714844 6.1971286 10.714844 6.8046875 C 10.711044 6.8046875 10.345567 6.8095752 10.021484 6.8125 C 10.020502 6.8115131 10.020515 6.8095771 10.019531 6.8085938 C 9.9975983 6.7826248 9.9637526 6.7716299 9.9394531 6.7480469 C 9.9145243 6.7192941 9.8974818 6.6826381 9.8710938 6.65625 C 9.8484718 6.6301857 9.8140463 6.6192906 9.7890625 6.5957031 C 9.7644185 6.5669178 9.7490914 6.5303414 9.7226562 6.5039062 C 9.6991506 6.477561 9.664564 6.4651416 9.6386719 6.4414062 C 9.6141642 6.4123911 9.5989159 6.3762597 9.5722656 6.3496094 C 9.5492224 6.3244942 9.5154257 6.3136862 9.4902344 6.2910156 C 9.4647989 6.2602145 9.450064 6.2215484 9.421875 6.1933594 C 9.3980474 6.1681142 9.3638584 6.1574599 9.3378906 6.1347656 C 9.312822 6.1040424 9.299628 6.065253 9.2714844 6.0371094 C 9.0651789 5.8247131 8.7802727 5.7050781 8.4824219 5.7050781 L 5.1484375 5.7050781 z "
       id="path4299"
       style="fill-opacity:1;fill:url(#linearGradient5144);opacity:0.2"
       clip-path="url(#clipPath5149)" />
    <path
       inkscape:connector-curvature="0"
       id="path4249"
       d="m 5.619,6.17354 0,6.50285 2.7779,-0.0631 0.8207,0.69448 0.9471,0.37881 0.8207,-0.37881 0.5051,-0.31567 2.7779,-0.25254 L 14.3314,5.8579 11.1116,6.2367 10.354,7.24685 9.7858,7.12059 8.7125,6.29984 Z"
       style="fill:#cddc39;fill-rule:evenodd;stroke:none;stroke-width:1px;stroke-linecap:butt;stroke-linejoin:miter;stroke-opacity:1" />
    <path
       style="fill:#ffffff"
       id="path4247"
       d="m 9.4444222,13.333338 0,-5.5555554 A 1.1111111,1.1111111 0 0 0 8.3333111,6.6666715 l -2.2222222,0 0,5.5555555 2.2222222,0 a 1.1111111,1.1111111 0 0 1 1.1111111,1.111111 m 1.1111108,-5.5555554 0,5.5555554 a 1.1111111,1.1111111 0 0 1 1.111111,-1.111111 l 2.222223,0 0,-5.5555555 -2.222223,0 a 1.1111111,1.1111111 0 0 0 -1.111111,1.1111111 m 4.444445,5.5555554 -3.333334,0 a 1.1111111,1.1111111 0 0 0 -1.111111,1.111111 l -1.1111108,0 A 1.1111111,1.1111111 0 0 0 8.3333111,13.333338 l -3.3333334,0 0,-7.7777777 3.3333334,0 a 1.1111111,1.1111111 0 0 1 1.1111111,1.1111112 l 1.1111108,0 a 1.1111111,1.1111111 0 0 1 1.111111,-1.1111112 l 3.333334,0 0,7.7777777 z"
       inkscape:connector-curvature="0" />
  </g>
</svg>
