<?xml version="1.0" encoding="UTF-8" standalone="no"?>
<!-- Created with Inkscape (http://www.inkscape.org/) -->

<svg
   xmlns:dc="http://purl.org/dc/elements/1.1/"
   xmlns:cc="http://creativecommons.org/ns#"
   xmlns:rdf="http://www.w3.org/1999/02/22-rdf-syntax-ns#"
   xmlns:svg="http://www.w3.org/2000/svg"
   xmlns="http://www.w3.org/2000/svg"
   xmlns:xlink="http://www.w3.org/1999/xlink"
   xmlns:sodipodi="http://sodipodi.sourceforge.net/DTD/sodipodi-0.dtd"
   xmlns:inkscape="http://www.inkscape.org/namespaces/inkscape"
   width="5.6444445mm"
   height="5.6444445mm"
   viewBox="0 0 20 20"
   id="svg2"
   version="1.1"
   inkscape:version="0.91 r13725"
   sodipodi:docname="PDF.svg"
   inkscape:export-filename="/home/juergen/Desktop/ic_launcher.png"
   inkscape:export-xdpi="864"
   inkscape:export-ydpi="864">
  <sodipodi:namedview
     id="base"
     pagecolor="#ffffff"
     bordercolor="#666666"
     borderopacity="1.0"
     inkscape:pageopacity="0.0"
     inkscape:pageshadow="2"
     inkscape:zoom="15.839192"
     inkscape:cx="1.1380327"
     inkscape:cy="8.4295847"
     inkscape:document-units="px"
     inkscape:current-layer="layer1"
     showgrid="false"
     fit-margin-top="0"
     fit-margin-left="0"
     fit-margin-right="0"
     fit-margin-bottom="0"
     showguides="true"
     inkscape:guide-bbox="true"
     inkscape:window-width="1366"
     inkscape:window-height="744"
     inkscape:window-x="0"
     inkscape:window-y="24"
     inkscape:window-maximized="1"
     inkscape:snap-grids="false"
     inkscape:snap-to-guides="false"
     inkscape:snap-page="false">
    <inkscape:grid
       type="xygrid"
       id="grid4138" />
    <sodipodi:guide
       position="10,18"
       orientation="0,1"
       id="guide4140" />
    <sodipodi:guide
       position="10,2"
       orientation="0,1"
       id="guide4142" />
    <sodipodi:guide
       position="2,10"
       orientation="1,0"
       id="guide4144" />
    <sodipodi:guide
       position="0,0"
       orientation="0,20"
       id="guide4146" />
    <sodipodi:guide
       position="20,0"
       orientation="-20,0"
       id="guide4148" />
    <sodipodi:guide
       position="20,20"
       orientation="0,-20"
       id="guide4150" />
    <sodipodi:guide
       position="0,20"
       orientation="20,0"
       id="guide4152" />
    <sodipodi:guide
       position="18,10"
       orientation="1,0"
       id="guide4154" />
    <sodipodi:guide
       position="10,10"
       orientation="-0.70710678,0.70710678"
       id="guide4156" />
    <sodipodi:guide
       position="4,10"
       orientation="1,0"
       id="guide4160" />
    <sodipodi:guide
       position="16,10"
       orientation="1,0"
       id="guide4162" />
    <sodipodi:guide
       position="10,16"
       orientation="0,1"
       id="guide4164" />
    <sodipodi:guide
       position="10,4"
       orientation="0,1"
       id="guide4166" />
    <sodipodi:guide
       position="10,15"
       orientation="0,1"
       id="guide4168" />
    <sodipodi:guide
       position="10,5"
       orientation="0,1"
       id="guide4170" />
    <sodipodi:guide
       position="5,10"
       orientation="1,0"
       id="guide4172" />
    <sodipodi:guide
       position="15,10"
       orientation="1,0"
       id="guide4174" />
  </sodipodi:namedview>
  <defs
     id="defs4">
    <linearGradient
       inkscape:collect="always"
       id="linearGradient5168">
      <stop
         style="stop-color:#000000;stop-opacity:0.2"
         offset="0"
         id="stop5170" />
      <stop
         style="stop-color:#000000;stop-opacity:0;"
         offset="1"
         id="stop5172" />
    </linearGradient>
    <clipPath
       id="clipPath12478"
       clipPathUnits="userSpaceOnUse">
      <circle
         r="10"
         cy="10.000005"
         cx="9.9999781"
         id="circle12480"
         style="opacity:1;fill:#2196f3;fill-opacity:1;stroke:none;stroke-width:0.05069799;stroke-miterlimit:4;stroke-dasharray:none;stroke-opacity:1" />
    </clipPath>
    <clipPath
       clipPathUnits="userSpaceOnUse"
       id="clipPath5790">
      <circle
         r="10"
         cy="10.000005"
         cx="9.9999781"
         id="circle5792"
         style="opacity:1;fill:#2196f3;fill-opacity:1;stroke:none;stroke-width:0.05069799;stroke-miterlimit:4;stroke-dasharray:none;stroke-opacity:1"
         inkscape:export-filename="/home/juergen/path4136.png"
         inkscape:export-xdpi="648"
         inkscape:export-ydpi="648" />
    </clipPath>
    <clipPath
       id="clipPath5055"
       clipPathUnits="userSpaceOnUse">
      <circle
         r="10"
         cy="10.000005"
         cx="9.9999781"
         id="circle5057"
         style="opacity:1;fill:#2196f3;fill-opacity:1;stroke:none;stroke-width:0.05069799;stroke-miterlimit:4;stroke-dasharray:none;stroke-opacity:1"
         inkscape:export-filename="/home/juergen/path4136.png"
         inkscape:export-xdpi="648"
         inkscape:export-ydpi="648" />
    </clipPath>
    <clipPath
       clipPathUnits="userSpaceOnUse"
       id="clipPath5119">
      <circle
         r="10"
         cy="10.000005"
         cx="9.9999781"
         id="circle5121"
         style="opacity:1;fill:#2196f3;fill-opacity:1;stroke:none;stroke-width:0.05069799;stroke-miterlimit:4;stroke-dasharray:none;stroke-opacity:1"
         inkscape:export-filename="/home/juergen/Schreibtisch/path4136.png"
         inkscape:export-xdpi="648"
         inkscape:export-ydpi="648" />
    </clipPath>
    <clipPath
       id="clipPath5194"
       clipPathUnits="userSpaceOnUse">
      <circle
         r="10"
         cy="10.000005"
         cx="9.9999781"
         id="circle5196"
         style="opacity:1;fill:#cddc39;fill-opacity:1;stroke:none;stroke-width:0.05069799;stroke-miterlimit:4;stroke-dasharray:none;stroke-opacity:1"
         inkscape:export-filename="/home/juergen/Schreibtisch/path4136.png"
         inkscape:export-xdpi="648"
         inkscape:export-ydpi="648" />
    </clipPath>
    <clipPath
       clipPathUnits="userSpaceOnUse"
       id="clipPath6175">
      <circle
         r="10"
         cy="10.000005"
         cx="9.9999781"
         id="circle6177"
         style="opacity:1;fill:#f44336;fill-opacity:1;stroke:none;stroke-width:0.05069799;stroke-miterlimit:4;stroke-dasharray:none;stroke-opacity:1"
         inkscape:export-filename="/home/juergen/Schreibtisch/path4136.png"
         inkscape:export-xdpi="648"
         inkscape:export-ydpi="648" />
    </clipPath>
    <clipPath
       id="clipPath7176"
       clipPathUnits="userSpaceOnUse">
      <circle
         r="10"
         cy="10.000005"
         cx="9.9999781"
         id="circle7178"
         style="opacity:1;fill:#9c27b0;fill-opacity:1;stroke:none;stroke-width:0.05069799;stroke-miterlimit:4;stroke-dasharray:none;stroke-opacity:1"
         inkscape:export-filename="/home/juergen/Schreibtisch/path4136.png"
         inkscape:export-xdpi="648"
         inkscape:export-ydpi="648" />
    </clipPath>
    <clipPath
       clipPathUnits="userSpaceOnUse"
       id="clipPath8165">
      <circle
         r="10"
         cy="10.000005"
         cx="9.9999781"
         id="circle8167"
         style="opacity:1;fill:#ffc107;fill-opacity:1;stroke:none;stroke-width:0.05069799;stroke-miterlimit:4;stroke-dasharray:none;stroke-opacity:1"
         inkscape:export-filename="/home/juergen/Schreibtisch/path4136.png"
         inkscape:export-xdpi="648"
         inkscape:export-ydpi="648" />
    </clipPath>
    <clipPath
       id="clipPath9162"
       clipPathUnits="userSpaceOnUse">
      <circle
         r="10"
         cy="10.000005"
         cx="9.9999781"
         id="circle9164"
         style="opacity:1;fill:#ff9800;fill-opacity:1;stroke:none;stroke-width:0.05069799;stroke-miterlimit:4;stroke-dasharray:none;stroke-opacity:1"
         inkscape:export-filename="/home/juergen/Schreibtisch/path4136.png"
         inkscape:export-xdpi="648"
         inkscape:export-ydpi="648" />
    </clipPath>
    <clipPath
       clipPathUnits="userSpaceOnUse"
       id="clipPath5147">
      <circle
         r="10"
         cy="10.000005"
         cx="9.9999781"
         id="circle5149"
         style="opacity:1;fill:#ff9800;fill-opacity:1;stroke:none;stroke-width:0.05069799;stroke-miterlimit:4;stroke-dasharray:none;stroke-opacity:1"
         inkscape:export-filename="/home/juergen/Schreibtisch/path4136.png"
         inkscape:export-xdpi="648"
         inkscape:export-ydpi="648" />
    </clipPath>
    <clipPath
       id="clipPath6144"
       clipPathUnits="userSpaceOnUse">
      <circle
         r="10"
         cy="10.000005"
         cx="9.9999781"
         id="circle6146"
         style="opacity:1;fill:#e91e63;fill-opacity:1;stroke:none;stroke-width:0.05069799;stroke-miterlimit:4;stroke-dasharray:none;stroke-opacity:1"
         inkscape:export-filename="/home/juergen/Schreibtisch/path4136.png"
         inkscape:export-xdpi="648"
         inkscape:export-ydpi="648" />
    </clipPath>
    <clipPath
       clipPathUnits="userSpaceOnUse"
       id="clipPath7143">
      <circle
         r="10"
         cy="10.000005"
         cx="9.9999781"
         id="circle7145"
         style="opacity:1;fill:#ffeb3b;fill-opacity:1;stroke:none;stroke-width:0.05069799;stroke-miterlimit:4;stroke-dasharray:none;stroke-opacity:1"
         inkscape:export-filename="/home/juergen/Schreibtisch/path4136.png"
         inkscape:export-xdpi="648"
         inkscape:export-ydpi="648" />
    </clipPath>
    <clipPath
       id="clipPath8148"
       clipPathUnits="userSpaceOnUse">
      <circle
         r="10"
         cy="10.000005"
         cx="9.9999781"
         id="circle8150"
         style="opacity:1;fill:#9c27b0;fill-opacity:1;stroke:none;stroke-width:0.05069799;stroke-miterlimit:4;stroke-dasharray:none;stroke-opacity:1"
         inkscape:export-filename="/home/juergen/Schreibtisch/path4136.png"
         inkscape:export-xdpi="648"
         inkscape:export-ydpi="648" />
    </clipPath>
    <linearGradient
       inkscape:collect="always"
       xlink:href="#linearGradient5168"
       id="linearGradient5174"
       x1="10"
       y1="10"
       x2="20"
       y2="20"
       gradientUnits="userSpaceOnUse" />
    <clipPath
       clipPathUnits="userSpaceOnUse"
       id="clipPath5179">
      <circle
         r="10"
         cy="10.000005"
         cx="9.9999781"
         id="circle5181"
         style="opacity:1;fill:#f44336;fill-opacity:1;stroke:none;stroke-width:0.05069799;stroke-miterlimit:4;stroke-dasharray:none;stroke-opacity:1"
         inkscape:export-filename="/home/juergen/Schreibtisch/path4136.png"
         inkscape:export-xdpi="648"
         inkscape:export-ydpi="648" />
    </clipPath>
  </defs>
  <metadata
     id="metadata7">
    <rdf:RDF>
      <cc:Work
         rdf:about="">
        <dc:format>image/svg+xml</dc:format>
        <dc:type
           rdf:resource="http://purl.org/dc/dcmitype/StillImage" />
        <dc:title />
      </cc:Work>
    </rdf:RDF>
  </metadata>
  <g
     inkscape:label="Hintergrund"
     inkscape:groupmode="layer"
     id="layer1"
     transform="translate(1058.1428,-861.93365)">
    <circle
       inkscape:export-ydpi="863.99994"
       inkscape:export-xdpi="863.99994"
       inkscape:export-filename="/home/juergen/Desktop/ic_launcher.png"
       style="opacity:1;fill:#3f51b5;fill-opacity:1;stroke:none;stroke-width:0.05069799;stroke-miterlimit:4;stroke-dasharray:none;stroke-opacity:1"
       id="path4136"
       cx="-1048.1428"
       cy="871.93365"
       r="10" />
  </g>
  <g
     style="display:inline"
     inkscape:groupmode="layer"
     id="layer2"
     inkscape:label="Icon">
    <path
       d="M 7 5 L 6.2929688 5.2929688 C 6.1120253 5.4737775 6.0002185 5.7240435 6 6 L 6 14 C 6 14.295024 6.1335124 14.55287 6.3378906 14.736328 C 6.3615543 14.762559 6.3857952 14.785003 6.4121094 14.808594 C 6.4351865 14.834053 6.4587801 14.855961 6.484375 14.878906 C 6.5075989 14.904668 6.5308343 14.927979 6.5566406 14.951172 C 6.5799521 14.976975 6.6049421 14.99828 6.6308594 15.021484 C 6.6544629 15.047697 6.6787784 15.070223 6.7050781 15.09375 C 6.7287025 15.119859 6.7529776 15.142603 6.7792969 15.166016 C 6.8016634 15.190662 6.8248202 15.212148 6.8496094 15.234375 C 6.8728129 15.260182 6.8960194 15.283473 6.921875 15.306641 C 6.9451129 15.332429 6.9701914 15.353822 6.9960938 15.376953 C 7.019677 15.403215 7.0439591 15.425718 7.0703125 15.449219 C 7.0939172 15.475374 7.1181579 15.4981 7.1445312 15.521484 C 7.1662197 15.545444 7.1888548 15.566269 7.2128906 15.587891 C 7.2375691 15.615589 7.2632282 15.639462 7.2910156 15.664062 C 7.3130821 15.688468 7.3368044 15.708515 7.3613281 15.730469 C 7.3857492 15.757837 7.4100086 15.782335 7.4375 15.806641 C 7.4601905 15.831755 7.4844503 15.852512 7.5097656 15.875 C 7.5327196 15.900516 7.5563615 15.922509 7.5820312 15.945312 C 7.6051671 15.971196 7.6283623 15.994479 7.6542969 16.017578 C 7.6774814 16.043446 7.7025175 16.064831 7.7285156 16.087891 C 7.7519843 16.114169 7.7763537 16.136781 7.8027344 16.160156 C 7.8256226 16.185652 7.8493454 16.207736 7.875 16.230469 C 7.8981646 16.256443 7.9212262 16.279623 7.9472656 16.302734 C 7.9700628 16.328225 7.9939443 16.350337 8.0195312 16.373047 C 8.0426326 16.398901 8.0677664 16.420382 8.09375 16.443359 C 8.1171927 16.469692 8.1415277 16.492282 8.1679688 16.515625 C 8.1908324 16.541171 8.2145222 16.563238 8.2402344 16.585938 C 8.2632748 16.611857 8.2865229 16.635207 8.3125 16.658203 C 8.3361922 16.68478 8.3618746 16.707 8.3886719 16.730469 C 8.4106088 16.754934 8.4343837 16.775069 8.4589844 16.796875 C 8.4832437 16.824322 8.5075673 16.848923 8.5351562 16.873047 C 8.5567915 16.89721 8.5792532 16.91791 8.6035156 16.939453 C 8.6279962 16.967267 8.6537116 16.99125 8.6816406 17.015625 C 8.7037941 17.040389 8.7270132 17.062006 8.7519531 17.083984 C 8.7749881 17.109927 8.8000794 17.131408 8.8261719 17.154297 C 8.8491243 17.180248 8.8724138 17.20367 8.8984375 17.226562 C 8.9214266 17.252495 8.9465792 17.274026 8.9726562 17.296875 C 8.995667 17.322935 9.0187813 17.346199 9.0449219 17.369141 C 9.0675661 17.39471 9.0915055 17.416914 9.1171875 17.439453 C 9.1401918 17.465456 9.1652461 17.486915 9.1914062 17.509766 C 9.214374 17.535849 9.2375175 17.559121 9.2636719 17.582031 C 9.2866283 17.608024 9.3117458 17.629535 9.3378906 17.652344 C 9.3611832 17.678825 9.3854973 17.70144 9.4121094 17.724609 C 9.4348283 17.750289 9.4585022 17.772396 9.484375 17.794922 C 9.5072549 17.820963 9.5305107 17.844384 9.5566406 17.867188 C 9.5802271 17.89397 9.605769 17.916135 9.6328125 17.939453 C 9.6542992 17.963696 9.6768119 17.984483 9.7011719 18.005859 C 9.7254531 18.033777 9.7512437 18.057877 9.7792969 18.082031 C 9.8007538 18.106267 9.8232936 18.127102 9.8476562 18.148438 C 9.8719525 18.176429 9.8976501 18.200444 9.9257812 18.224609 C 9.9477899 18.249512 9.9709855 18.271168 9.9960938 18.292969 C 10.019208 18.319345 10.043723 18.342335 10.070312 18.365234 C 10.093231 18.3914 10.118171 18.412824 10.144531 18.435547 C 10.166583 18.46068 10.189586 18.481972 10.214844 18.503906 C 10.238933 18.531725 10.263021 18.556162 10.291016 18.580078 C 10.313378 18.6055 10.337595 18.626348 10.363281 18.648438 C 10.385875 18.674272 10.409511 18.69636 10.435547 18.71875 C 10.458673 18.745394 10.482973 18.768032 10.509766 18.791016 C 10.532564 18.817117 10.555677 18.840743 10.582031 18.863281 C 10.604498 18.889103 10.628331 18.911266 10.654297 18.933594 C 10.67712 18.959861 10.702053 18.981279 10.728516 19.003906 C 10.751595 19.030594 10.775884 19.053251 10.802734 19.076172 C 10.82584 19.102719 10.850079 19.125676 10.876953 19.148438 C 10.898907 19.173583 10.921892 19.195077 10.947266 19.216797 C 10.970874 19.244201 10.995785 19.267662 11.023438 19.291016 C 11.045042 19.315795 11.068778 19.336012 11.09375 19.357422 C 11.117659 19.385354 11.141771 19.409907 11.169922 19.433594 C 11.191781 19.458701 11.214874 19.480356 11.240234 19.501953 C 11.262325 19.527597 11.286754 19.548314 11.3125 19.570312 C 11.336339 19.598282 11.360498 19.622851 11.388672 19.646484 C 11.410231 19.671341 11.433924 19.691538 11.458984 19.712891 C 11.482694 19.740757 11.507083 19.76556 11.535156 19.789062 C 11.557323 19.814683 11.581493 19.835581 11.607422 19.857422 C 11.630035 19.883736 11.653095 19.907366 11.679688 19.929688 C 11.702352 19.956153 11.727194 19.97759 11.753906 20 C 11.776295 20.026097 11.799812 20.048198 11.826172 20.070312 C 11.848642 20.096734 11.871885 20.12023 11.898438 20.142578 C 11.921619 20.169771 11.947075 20.192026 11.974609 20.214844 C 11.996334 20.240128 12.019374 20.261754 12.044922 20.283203 C 12.068249 20.310766 12.093245 20.334395 12.121094 20.357422 C 12.142777 20.382702 12.165845 20.404393 12.191406 20.425781 C 12.214804 20.453514 12.23954 20.476925 12.267578 20.5 C 12.288658 20.524648 12.311111 20.545504 12.335938 20.566406 C 12.359156 20.59424 12.384166 20.617501 12.412109 20.640625 C 12.434902 20.667496 12.459055 20.690533 12.486328 20.712891 C 12.507628 20.737889 12.531404 20.758243 12.556641 20.779297 C 12.580172 20.807559 12.604303 20.832192 12.632812 20.855469 C 12.654361 20.880839 12.677466 20.902585 12.703125 20.923828 C 12.7263 20.951564 12.751234 20.97522 12.779297 20.998047 C 12.800859 21.023485 12.82385 21.045186 12.849609 21.066406 C 12.871943 21.093109 12.896874 21.114646 12.923828 21.136719 C 12.946382 21.163847 12.970701 21.186651 12.998047 21.208984 C 13.02038 21.235639 13.043293 21.25931 13.070312 21.28125 C 13.092545 21.307893 13.117585 21.329653 13.144531 21.351562 C 13.167058 21.378511 13.191359 21.401786 13.21875 21.423828 C 13.240256 21.449467 13.263093 21.471037 13.289062 21.492188 C 13.312101 21.520147 13.336916 21.543756 13.365234 21.566406 C 13.386357 21.591649 13.410019 21.611992 13.435547 21.632812 C 13.45786 21.660138 13.480374 21.684815 13.507812 21.707031 C 13.53048 21.734553 13.556057 21.757074 13.583984 21.779297 C 13.60551 21.805318 13.627996 21.828379 13.654297 21.849609 C 13.676674 21.876853 13.702844 21.89796 13.730469 21.919922 C 13.7517 21.945698 13.774782 21.96728 13.800781 21.988281 C 13.82209 22.014652 13.844795 22.037165 13.871094 22.058594 C 13.891926 22.083917 13.913929 22.106322 13.939453 22.126953 C 13.960111 22.15261 13.982429 22.174297 14.007812 22.195312 C 14.007812 22.195312 14.007812 22.197266 14.007812 22.197266 C 14.02969 22.224823 14.052859 22.249163 14.080078 22.271484 C 14.101612 22.298311 14.123809 22.321888 14.150391 22.34375 C 14.172354 22.371329 14.195434 22.395542 14.222656 22.417969 C 14.244762 22.445373 14.267643 22.469894 14.294922 22.492188 C 14.315395 22.517374 14.336482 22.539643 14.361328 22.560547 C 14.383828 22.588927 14.407648 22.613608 14.435547 22.636719 C 14.457194 22.663399 14.479417 22.687023 14.505859 22.708984 C 14.527606 22.735994 14.549573 22.760939 14.576172 22.783203 C 14.598067 22.810228 14.621714 22.833184 14.648438 22.855469 C 14.670609 22.882881 14.693616 22.907098 14.720703 22.929688 C 14.741929 22.955665 14.763424 22.978348 14.789062 23 C 14.8121 23.028612 14.835004 23.054654 14.863281 23.078125 C 14.883848 23.103019 14.905106 23.125528 14.929688 23.146484 C 14.952937 23.175315 14.977377 23.200911 15.005859 23.224609 C 15.026906 23.250023 15.049059 23.271599 15.074219 23.292969 C 15.096807 23.320753 15.119087 23.346066 15.146484 23.369141 C 15.168918 23.396311 15.191718 23.420731 15.21875 23.443359 C 15.239786 23.468633 15.262093 23.490357 15.287109 23.511719 C 15.310338 23.540176 15.333176 23.566224 15.361328 23.589844 C 15.382106 23.614731 15.40315 23.637052 15.427734 23.658203 C 15.451172 23.686886 15.475544 23.712481 15.503906 23.736328 C 15.524677 23.761124 15.545816 23.783549 15.570312 23.804688 C 15.593244 23.832685 15.616967 23.857392 15.644531 23.880859 C 15.666544 23.907216 15.688707 23.93083 15.714844 23.953125 C 15.737391 23.980308 15.76023 24.004415 15.787109 24.027344 C 15.80918 24.053715 15.831282 24.077245 15.857422 24.099609 C 15.879573 24.126204 15.901486 24.151252 15.927734 24.173828 C 15.949087 24.199331 15.970983 24.222315 15.996094 24.244141 C 16.019734 24.272736 16.043995 24.298217 16.072266 24.322266 C 16.093787 24.34767 16.11541 24.370815 16.140625 24.392578 C 16.162956 24.419166 16.18657 24.44218 16.212891 24.464844 C 16.23557 24.491933 16.258375 24.516002 16.285156 24.539062 C 16.306772 24.564635 16.328243 24.587394 16.353516 24.609375 C 16.377094 24.637616 16.399778 24.663565 16.427734 24.6875 C 16.448784 24.712218 16.469705 24.734468 16.494141 24.755859 C 16.517855 24.78425 16.542236 24.80988 16.570312 24.833984 C 16.591351 24.858624 16.612358 24.880968 16.636719 24.902344 C 16.659979 24.930139 16.683545 24.954768 16.710938 24.978516 C 16.733235 25.004705 16.755269 25.028223 16.78125 25.050781 C 16.804026 25.077703 16.82689 25.101861 16.853516 25.125 C 16.876388 25.151796 16.899105 25.176184 16.925781 25.199219 C 16.94687 25.223778 16.967901 25.246162 16.992188 25.267578 C 17.015165 25.294861 17.037612 25.320246 17.064453 25.34375 C 17.087 25.370164 17.110546 25.393171 17.136719 25.416016 C 17.159203 25.442437 17.180948 25.467344 17.207031 25.490234 C 17.229627 25.516665 17.253117 25.539598 17.279297 25.5625 C 17.301833 25.588916 17.323519 25.613792 17.349609 25.636719 C 17.371314 25.662046 17.393004 25.684899 17.417969 25.707031 C 17.441978 25.735344 17.466127 25.760781 17.494141 25.785156 C 17.515295 25.809589 17.536378 25.832048 17.560547 25.853516 C 17.584546 25.881746 17.608784 25.907281 17.636719 25.931641 C 17.657972 25.956154 17.678875 25.978435 17.703125 26 C 17.727177 26.028225 17.751355 26.053726 17.779297 26.078125 C 17.80113 26.103255 17.822713 26.126375 17.847656 26.148438 C 17.869452 26.173706 17.891106 26.196534 17.916016 26.21875 C 17.94007 26.246896 17.964331 26.272468 17.992188 26.296875 C 18.013478 26.321319 18.034407 26.343639 18.058594 26.365234 C 18.082758 26.393469 18.106821 26.418844 18.134766 26.443359 C 18.156043 26.46774 18.177046 26.490141 18.201172 26.511719 C 18.224734 26.53919 18.248283 26.563898 18.275391 26.587891 C 18.297943 26.613803 18.319985 26.637367 18.345703 26.660156 C 18.368456 26.686447 18.390033 26.711257 18.416016 26.734375 C 18.438812 26.760608 18.462283 26.783563 18.488281 26.806641 C 18.510984 26.832808 18.532725 26.857803 18.558594 26.880859 C 18.580447 26.905948 18.602195 26.928934 18.626953 26.951172 C 18.651184 26.979269 18.675309 27.004728 18.703125 27.029297 C 18.725101 27.054313 18.746642 27.077422 18.771484 27.099609 C 18.794319 27.125775 18.817814 27.148765 18.84375 27.171875 C 18.866583 27.198112 18.888133 27.222899 18.914062 27.246094 C 18.935986 27.271171 18.957673 27.294101 18.982422 27.316406 C 19.006697 27.344431 19.030845 27.369926 19.058594 27.394531 C 19.080051 27.418879 19.100897 27.441147 19.125 27.462891 C 19.149261 27.490848 19.173489 27.516427 19.201172 27.541016 C 19.222614 27.565307 19.243529 27.58765 19.267578 27.609375 C 19.291343 27.636728 19.314787 27.66138 19.341797 27.685547 C 19.364525 27.711363 19.38648 27.734859 19.412109 27.757812 C 19.434752 27.783666 19.456894 27.807059 19.482422 27.830078 C 19.50567 27.856612 19.528419 27.880736 19.554688 27.904297 C 19.577571 27.930371 19.599211 27.955299 19.625 27.978516 C 19.647618 28.004193 19.669885 28.02787 19.695312 28.050781 C 19.71828 28.076839 19.741734 28.099825 19.767578 28.123047 C 19.790492 28.149114 19.812117 28.17401 19.837891 28.197266 C 19.860893 28.223339 19.884303 28.246269 19.910156 28.269531 C 19.933106 28.295598 19.954687 28.320468 19.980469 28.34375 C 20.003506 28.369823 20.026874 28.392727 20.052734 28.416016 C 20.075735 28.442105 20.097238 28.466908 20.123047 28.490234 C 20.145079 28.515124 20.16682 28.538166 20.191406 28.560547 C 20.215851 28.588407 20.23998 28.613918 20.267578 28.638672 C 20.289159 28.662887 20.310001 28.685182 20.333984 28.707031 C 20.358466 28.734891 20.38255 28.760374 20.410156 28.785156 C 20.431691 28.809288 20.452664 28.831712 20.476562 28.853516 C 20.500093 28.880268 20.522439 28.90574 20.548828 28.929688 C 20.572436 28.956259 20.596619 28.980123 20.623047 29.003906 C 20.644619 29.02804 20.66555 29.050427 20.689453 29.072266 C 20.713982 29.100102 20.73805 29.125554 20.765625 29.150391 C 20.787182 29.174477 20.808174 29.196929 20.832031 29.21875 C 20.855591 29.245448 20.877956 29.270954 20.904297 29.294922 C 20.927409 29.320879 20.95082 29.343824 20.976562 29.367188 C 20.999626 29.393143 21.021196 29.418024 21.046875 29.441406 C 21.069988 29.467322 21.093429 29.49032 21.119141 29.513672 C 21.142158 29.539532 21.163863 29.564563 21.189453 29.587891 C 21.211591 29.612682 21.233314 29.635733 21.257812 29.658203 C 21.440573 29.864562 21.701108 30 22 30 L 28 30 C 28.265216 30 28.519494 29.894567 28.707031 29.707031 C 28.894567 29.519494 29 29.265216 29 29 L 29 23 L 28.925781 22.925781 L 28.910156 22.910156 L 28.851562 22.851562 L 28.820312 22.820312 L 28.775391 22.775391 L 28.730469 22.730469 L 28.701172 22.701172 L 28.642578 22.642578 L 28.626953 22.626953 L 28.552734 22.552734 L 28.478516 22.478516 L 28.462891 22.462891 L 28.402344 22.402344 L 28.373047 22.373047 L 28.328125 22.328125 L 28.283203 22.283203 L 28.253906 22.253906 L 28.193359 22.193359 L 28.179688 22.179688 L 28.103516 22.105469 L 28.103516 22.103516 L 28.029297 22.029297 L 28.015625 22.015625 L 27.955078 21.955078 L 27.925781 21.925781 L 27.880859 21.880859 L 27.835938 21.835938 L 27.806641 21.806641 L 27.746094 21.746094 L 27.730469 21.730469 L 27.65625 21.65625 L 27.582031 21.582031 L 27.566406 21.566406 L 27.507812 21.507812 L 27.478516 21.478516 L 27.433594 21.433594 L 27.388672 21.388672 L 27.357422 21.357422 L 27.298828 21.298828 L 27.283203 21.283203 L 27.208984 21.208984 L 27.134766 21.134766 L 27.119141 21.119141 L 27.060547 21.060547 L 27.029297 21.029297 L 26.984375 20.984375 L 26.939453 20.939453 L 26.910156 20.910156 L 26.851562 20.851562 L 26.835938 20.835938 L 26.761719 20.761719 L 26.6875 20.6875 L 26.671875 20.671875 L 26.611328 20.611328 L 26.582031 20.582031 L 26.537109 20.537109 L 26.492188 20.492188 L 26.462891 20.462891 L 26.402344 20.402344 L 26.388672 20.388672 L 26.314453 20.314453 L 26.3125 20.3125 L 26.238281 20.238281 L 26.224609 20.224609 L 26.164062 20.164062 L 26.134766 20.134766 L 26.089844 20.089844 L 26.044922 20.044922 L 26.015625 20.015625 L 26 20 L 25.955078 19.955078 L 25.939453 19.939453 L 25.865234 19.865234 L 25.791016 19.791016 L 25.775391 19.775391 L 25.716797 19.716797 L 25.6875 19.6875 L 25.642578 19.642578 L 25.597656 19.597656 L 25.566406 19.566406 L 25.507812 19.507812 L 25.492188 19.492188 L 25.417969 19.417969 L 25.34375 19.34375 L 25.328125 19.328125 L 25.269531 19.269531 L 25.238281 19.238281 L 25.193359 19.193359 L 25.148438 19.148438 L 25.119141 19.119141 L 25.060547 19.060547 L 25.044922 19.044922 L 24.970703 18.970703 L 24.894531 18.896484 L 24.880859 18.880859 L 24.820312 18.822266 L 24.820312 18.820312 L 24.791016 18.791016 L 24.746094 18.746094 L 24.701172 18.701172 L 24.671875 18.671875 L 24.611328 18.611328 L 24.597656 18.597656 L 24.523438 18.523438 L 24.521484 18.521484 L 24.447266 18.447266 L 24.433594 18.433594 L 24.373047 18.373047 L 24.34375 18.34375 L 24.298828 18.298828 L 24.253906 18.253906 L 24.224609 18.224609 L 24.164062 18.164062 L 24.148438 18.148438 L 24.074219 18.074219 L 24 18 L 23.984375 17.984375 L 23.925781 17.925781 L 23.896484 17.896484 L 23.851562 17.851562 L 23.806641 17.806641 L 23.775391 17.775391 L 23.716797 17.716797 L 23.701172 17.701172 L 23.626953 17.626953 L 23.552734 17.552734 L 23.537109 17.537109 L 23.478516 17.478516 L 23.447266 17.447266 L 23.402344 17.402344 L 23.357422 17.357422 L 23.328125 17.328125 L 23.269531 17.269531 L 23.253906 17.253906 L 23.179688 17.179688 L 23.103516 17.103516 L 23.089844 17.089844 L 23.029297 17.029297 L 23 17 L 22.955078 16.955078 L 22.910156 16.910156 L 22.880859 16.880859 L 22.820312 16.820312 L 22.806641 16.806641 L 22.732422 16.732422 L 22.730469 16.730469 L 22.65625 16.65625 L 22.642578 16.642578 L 22.582031 16.582031 L 22.552734 16.552734 L 22.507812 16.507812 L 22.462891 16.462891 L 22.433594 16.433594 L 22.373047 16.373047 L 22.357422 16.357422 L 22.283203 16.283203 L 22.208984 16.208984 L 22.193359 16.193359 L 22.134766 16.134766 L 22.105469 16.105469 L 22.060547 16.060547 L 22.015625 16.015625 L 21.984375 15.984375 L 21.925781 15.925781 L 21.910156 15.910156 L 21.835938 15.835938 L 21.761719 15.761719 L 21.746094 15.746094 L 21.6875 15.6875 L 21.65625 15.65625 L 21.611328 15.611328 L 21.566406 15.568359 L 21.537109 15.537109 L 21.478516 15.478516 L 21.462891 15.462891 L 21.388672 15.388672 L 21.3125 15.3125 L 21.298828 15.298828 L 21.238281 15.238281 L 21.208984 15.208984 L 21.164062 15.164062 L 21.119141 15.119141 L 21.089844 15.089844 L 21.029297 15.029297 L 21.015625 15.015625 L 20.941406 14.941406 L 20.939453 14.939453 L 20.865234 14.865234 L 20.851562 14.851562 L 20.791016 14.791016 L 20.761719 14.761719 L 20.716797 14.716797 L 20.671875 14.671875 L 20.642578 14.642578 L 20.582031 14.582031 L 20.566406 14.566406 L 20.492188 14.492188 L 20.417969 14.417969 L 20.402344 14.402344 L 20.34375 14.34375 L 20.314453 14.314453 L 20.269531 14.269531 L 20.224609 14.224609 L 20.193359 14.193359 L 20.134766 14.134766 L 20.119141 14.119141 L 20.044922 14.044922 L 19.970703 13.970703 L 19.955078 13.955078 L 19.894531 13.896484 L 19.867188 13.867188 L 19.865234 13.865234 L 19.863281 13.863281 L 19.820312 13.822266 L 19.820312 13.820312 L 19.777344 13.777344 L 19.746094 13.746094 L 19.6875 13.6875 L 19.671875 13.671875 L 19.597656 13.597656 L 19.521484 13.521484 L 19.507812 13.507812 L 19.447266 13.447266 L 19.417969 13.417969 L 19.373047 13.373047 L 19.328125 13.328125 L 19.298828 13.298828 L 19.238281 13.238281 L 19.224609 13.224609 L 19.150391 13.150391 L 19.148438 13.148438 L 19.074219 13.074219 L 19.060547 13.060547 L 19 13 L 18.970703 12.970703 L 18.925781 12.925781 L 18.880859 12.880859 L 18.851562 12.851562 L 18.791016 12.791016 L 18.775391 12.775391 L 18.701172 12.701172 L 18.626953 12.626953 L 18.611328 12.611328 L 18.552734 12.552734 L 18.523438 12.523438 L 18.478516 12.478516 L 18.433594 12.433594 L 18.402344 12.402344 L 18.34375 12.34375 L 18.328125 12.328125 L 18.253906 12.253906 L 18.179688 12.179688 L 18.164062 12.164062 L 18.103516 12.103516 L 18.074219 12.074219 L 18.029297 12.029297 L 17.986328 11.986328 L 17.955078 11.955078 L 17.896484 11.896484 L 17.880859 11.880859 L 17.806641 11.806641 L 17.730469 11.730469 L 17.716797 11.716797 L 17.65625 11.65625 L 17.626953 11.626953 L 17.582031 11.582031 L 17.537109 11.537109 L 17.507812 11.507812 L 17.447266 11.447266 L 17.433594 11.433594 L 17.359375 11.359375 L 17.357422 11.357422 L 17.283203 11.283203 L 17.269531 11.269531 L 17.208984 11.208984 L 17.179688 11.179688 L 17.134766 11.134766 L 17.089844 11.089844 L 17.060547 11.060547 L 17 11 L 16.984375 10.984375 L 16.910156 10.910156 L 16.835938 10.835938 L 16.820312 10.820312 L 16.761719 10.761719 L 16.732422 10.732422 L 16.6875 10.6875 L 16.642578 10.642578 L 16.611328 10.611328 L 16.552734 10.552734 L 16.537109 10.537109 L 16.462891 10.462891 L 16.388672 10.388672 L 16.373047 10.373047 L 16.3125 10.3125 L 16.283203 10.283203 L 16.238281 10.238281 L 16.195312 10.195312 L 16.164062 10.164062 L 16.105469 10.105469 L 16.089844 10.089844 L 16.015625 10.015625 L 15.939453 9.9394531 L 15.925781 9.9257812 L 15.865234 9.8652344 L 15.835938 9.8359375 L 15.791016 9.7910156 L 15.746094 9.7460938 L 15.716797 9.7167969 L 15.65625 9.65625 L 15.642578 9.6425781 L 15.568359 9.5683594 L 15.566406 9.5664062 L 15.492188 9.4921875 L 15.478516 9.4785156 L 15.417969 9.4179688 L 15.388672 9.3886719 L 15.34375 9.34375 L 15.298828 9.2988281 L 15.269531 9.2695312 L 15.208984 9.2089844 L 15.193359 9.1933594 L 15.119141 9.1191406 L 15.044922 9.0449219 L 15.029297 9.03125 L 15.029297 9.0292969 L 15.027344 9.0292969 L 14.970703 8.9707031 L 14.941406 8.9414062 L 14.894531 8.8964844 L 14.884766 8.8867188 L 14.878906 8.8808594 L 14.851562 8.8515625 L 14.820312 8.8222656 L 14.820312 8.8203125 L 14.761719 8.7617188 L 14.746094 8.7460938 L 14.671875 8.671875 L 14.597656 8.5976562 L 14.582031 8.5820312 L 14.521484 8.5214844 L 14.492188 8.4921875 L 14.447266 8.4472656 L 14.404297 8.4042969 L 14.373047 8.3730469 L 14.314453 8.3144531 L 14.298828 8.2988281 L 14.224609 8.2246094 L 14.148438 8.1484375 L 14.134766 8.1347656 L 14.074219 8.0742188 L 14.044922 8.0449219 L 14 8 L 13.955078 7.9550781 L 13.865234 7.8652344 L 13.777344 7.7773438 L 13.6875 7.6875 L 13.597656 7.5976562 L 13.507812 7.5078125 L 13.417969 7.4179688 L 13.328125 7.328125 L 13.240234 7.2402344 L 13.238281 7.2382812 L 13.150391 7.1503906 L 13.060547 7.0605469 L 12.970703 6.9707031 L 12.880859 6.8808594 L 12.791016 6.7910156 L 12.701172 6.7011719 L 12.613281 6.6132812 L 12.523438 6.5234375 L 12.433594 6.4335938 L 12.34375 6.34375 L 12.253906 6.2539062 L 12.164062 6.1640625 L 12.074219 6.0742188 L 11.986328 5.9863281 L 11.896484 5.8964844 L 11.894531 5.8964844 L 11.806641 5.8066406 L 11.716797 5.7167969 L 11.626953 5.6269531 L 11.537109 5.5371094 L 11.449219 5.4492188 L 11.447266 5.4472656 L 11.373047 5.3730469 L 11.359375 5.359375 L 11.298828 5.2988281 L 11.269531 5.2695312 L 11.224609 5.2246094 L 11.179688 5.1796875 L 11.148438 5.1484375 L 11.089844 5.0898438 L 11.074219 5.0742188 L 11 5 L 7 5 z "
       id="path4305"
       style="fill-opacity:1;fill:url(#linearGradient5174)"
       clip-path="url(#clipPath5179)" />
    <path
       d="m 3.9999777,4.0333382 12.0000003,0 0,11.9333328 -12.0000003,0 z"
       id="path4"
       inkscape:connector-curvature="0"
       style="fill:none" />
    <path
       style="fill:#fafafa;fill-rule:evenodd;stroke:none;stroke-width:1px;stroke-linecap:butt;stroke-linejoin:miter;stroke-opacity:1"
       d="M 7.3236059,14.633565 13.51079,12.297587 13.573925,8.1938422 10.480333,5.2896536 7.0710678,6.1735371 6.1240498,13.307739 Z"
       id="path4191"
       inkscape:connector-curvature="0" />
    <path
       inkscape:connector-curvature="0"
       d="m 10.499978,8.5000047 2.75,0 -2.75,-2.7499999 0,2.7499999 m -3.5000003,-3.4999999 4.0000003,0 3,2.9999999 0,6.0000003 a 1,1 0 0 1 -1,1 l -6.0000003,0 c -0.555,0 -1,-0.45 -1,-1 l 0,-8.0000003 a 1,1 0 0 1 1,-0.9999999 m 2.465,5.2200002 c 0.205,0.45 0.465,0.82 0.7650003,1.075 l 0.205,0.16 c -0.4350003,0.08 -1.0350003,0.22 -1.6700003,0.465 l 0,0 -0.055,0.02 0.25,-0.52 c 0.225,-0.435 0.39,-0.83 0.505,-1.2 m 3.2400003,1.905 c 0.09,-0.09 0.135,-0.205 0.14,-0.33 0.015,-0.1 -0.01,-0.195 -0.06,-0.275 -0.145,-0.235 -0.52,-0.345 -1.14,-0.345 l -0.645,0.035 -0.435,-0.29 c -0.315,-0.26 -0.6000003,-0.715 -0.8000003,-1.2800003 l 0.02,-0.07 c 0.165,-0.665 0.3200003,-1.47 -0.01,-1.8 -0.08,-0.08 -0.19,-0.12 -0.305,-0.12 l -0.12,0 c -0.185,0 -0.35,0.195 -0.395,0.385 -0.185,0.665 -0.075,1.03 0.11,1.635 l 0,0.005 c -0.125,0.4400003 -0.285,0.9500003 -0.54,1.4650003 l -0.48,0.9 -0.445,0.245 c -0.6,0.375 -0.885,0.795 -0.94,1.06 -0.02,0.095 -0.01,0.18 0.025,0.27 l 0.015,0.025 0.24,0.155 0.22,0.055 c 0.405,0 0.865,-0.475 1.485,-1.535 l 0.09,-0.035 c 0.515,-0.165 1.155,-0.28 2.0150003,-0.375 0.515,0.255 1.12,0.37 1.5,0.37 0.22,0 0.37,-0.055 0.455,-0.15 m -0.205,-0.355 0.045,0.055 c -0.005,0.05 -0.02,0.055 -0.045,0.065 l -0.02,0 -0.095,0.01 c -0.23,0 -0.585,-0.095 -0.95,-0.255 0.045,-0.05 0.065,-0.05 0.115,-0.05 0.7,0 0.9,0.125 0.95,0.175 m -4.5850003,0.73 c -0.325,0.595 -0.62,0.925 -0.845,1 0.025,-0.19 0.25,-0.52 0.605,-0.845 l 0.24,-0.155 m 1.51,-3.4550003 c -0.115,-0.45 -0.12,-0.815 -0.035,-1.025 l 0.035,-0.06 0.075,0.025 c 0.085,0.12 0.095,0.28 0.045,0.55 l -0.015,0.08 -0.08,0.41 -0.025,0.02 z"
       id="path4237"
       style="fill:#ff4081;fill-opacity:1" />
    <path
       style="fill:none"
       inkscape:connector-curvature="0"
       id="path9754"
       d="m 18.999978,19.033339 12,0 0,11.933333 -12,0 z" />
  </g>
</svg>
