<?xml version="1.0" encoding="UTF-8" standalone="no"?>
<!-- Created with Inkscape (http://www.inkscape.org/) -->

<svg
   xmlns:dc="http://purl.org/dc/elements/1.1/"
   xmlns:cc="http://creativecommons.org/ns#"
   xmlns:rdf="http://www.w3.org/1999/02/22-rdf-syntax-ns#"
   xmlns:svg="http://www.w3.org/2000/svg"
   xmlns="http://www.w3.org/2000/svg"
   xmlns:xlink="http://www.w3.org/1999/xlink"
   xmlns:sodipodi="http://sodipodi.sourceforge.net/DTD/sodipodi-0.dtd"
   xmlns:inkscape="http://www.inkscape.org/namespaces/inkscape"
   width="5.6444445mm"
   height="5.6444445mm"
   viewBox="0 0 20 20"
   id="svg2"
   version="1.1"
   inkscape:version="0.91 r13725"
   sodipodi:docname="SMS.svg"
   inkscape:export-filename="/home/juergen/Schreibtisch/Icons/Email.svg.png"
   inkscape:export-xdpi="648"
   inkscape:export-ydpi="648">
  <sodipodi:namedview
     id="base"
     pagecolor="#ffffff"
     bordercolor="#666666"
     borderopacity="1.0"
     inkscape:pageopacity="0.0"
     inkscape:pageshadow="2"
     inkscape:zoom="11.2"
     inkscape:cx="6.594025"
     inkscape:cy="12.286174"
     inkscape:document-units="px"
     inkscape:current-layer="layer2"
     showgrid="false"
     fit-margin-top="0"
     fit-margin-left="0"
     fit-margin-right="0"
     fit-margin-bottom="0"
     showguides="true"
     inkscape:guide-bbox="true"
     inkscape:window-width="1366"
     inkscape:window-height="726"
     inkscape:window-x="0"
     inkscape:window-y="0"
     inkscape:window-maximized="1"
     inkscape:snap-grids="true"
     inkscape:snap-to-guides="true">
    <inkscape:grid
       type="xygrid"
       id="grid4138" />
    <sodipodi:guide
       position="10,18"
       orientation="0,1"
       id="guide4140" />
    <sodipodi:guide
       position="10,2"
       orientation="0,1"
       id="guide4142" />
    <sodipodi:guide
       position="2,10"
       orientation="1,0"
       id="guide4144" />
    <sodipodi:guide
       position="0,0"
       orientation="0,20"
       id="guide4146" />
    <sodipodi:guide
       position="20,0"
       orientation="-20,0"
       id="guide4148" />
    <sodipodi:guide
       position="20,20"
       orientation="0,-20"
       id="guide4150" />
    <sodipodi:guide
       position="0,20"
       orientation="20,0"
       id="guide4152" />
    <sodipodi:guide
       position="18,10"
       orientation="1,0"
       id="guide4154" />
    <sodipodi:guide
       position="10,10"
       orientation="-0.70710678,0.70710678"
       id="guide4156" />
    <sodipodi:guide
       position="4,10"
       orientation="1,0"
       id="guide4160" />
    <sodipodi:guide
       position="16,10"
       orientation="1,0"
       id="guide4162" />
    <sodipodi:guide
       position="10,16"
       orientation="0,1"
       id="guide4164" />
    <sodipodi:guide
       position="10,4"
       orientation="0,1"
       id="guide4166" />
    <sodipodi:guide
       position="10,15"
       orientation="0,1"
       id="guide4168" />
    <sodipodi:guide
       position="10,5"
       orientation="0,1"
       id="guide4170" />
    <sodipodi:guide
       position="5,10"
       orientation="1,0"
       id="guide4172" />
    <sodipodi:guide
       position="15,10"
       orientation="1,0"
       id="guide4174" />
  </sodipodi:namedview>
  <defs
     id="defs4">
    <linearGradient
       inkscape:collect="always"
       id="linearGradient6183">
      <stop
         style="stop-color:#000000;stop-opacity:1;"
         offset="0"
         id="stop6185" />
      <stop
         style="stop-color:#000000;stop-opacity:0;"
         offset="1"
         id="stop6187" />
    </linearGradient>
    <clipPath
       id="clipPath12478"
       clipPathUnits="userSpaceOnUse">
      <circle
         r="10"
         cy="10.000005"
         cx="9.9999781"
         id="circle12480"
         style="opacity:1;fill:#2196f3;fill-opacity:1;stroke:none;stroke-width:0.05069799;stroke-miterlimit:4;stroke-dasharray:none;stroke-opacity:1" />
    </clipPath>
    <clipPath
       clipPathUnits="userSpaceOnUse"
       id="clipPath5790">
      <circle
         r="10"
         cy="10.000005"
         cx="9.9999781"
         id="circle5792"
         style="opacity:1;fill:#2196f3;fill-opacity:1;stroke:none;stroke-width:0.05069799;stroke-miterlimit:4;stroke-dasharray:none;stroke-opacity:1"
         inkscape:export-filename="/home/juergen/path4136.png"
         inkscape:export-xdpi="648"
         inkscape:export-ydpi="648" />
    </clipPath>
    <clipPath
       id="clipPath5055"
       clipPathUnits="userSpaceOnUse">
      <circle
         r="10"
         cy="10.000005"
         cx="9.9999781"
         id="circle5057"
         style="opacity:1;fill:#2196f3;fill-opacity:1;stroke:none;stroke-width:0.05069799;stroke-miterlimit:4;stroke-dasharray:none;stroke-opacity:1"
         inkscape:export-filename="/home/juergen/path4136.png"
         inkscape:export-xdpi="648"
         inkscape:export-ydpi="648" />
    </clipPath>
    <clipPath
       clipPathUnits="userSpaceOnUse"
       id="clipPath5119">
      <circle
         r="10"
         cy="10.000005"
         cx="9.9999781"
         id="circle5121"
         style="opacity:1;fill:#2196f3;fill-opacity:1;stroke:none;stroke-width:0.05069799;stroke-miterlimit:4;stroke-dasharray:none;stroke-opacity:1"
         inkscape:export-filename="/home/juergen/Schreibtisch/path4136.png"
         inkscape:export-xdpi="648"
         inkscape:export-ydpi="648" />
    </clipPath>
    <clipPath
       id="clipPath5194"
       clipPathUnits="userSpaceOnUse">
      <circle
         r="10"
         cy="10.000005"
         cx="9.9999781"
         id="circle5196"
         style="opacity:1;fill:#cddc39;fill-opacity:1;stroke:none;stroke-width:0.05069799;stroke-miterlimit:4;stroke-dasharray:none;stroke-opacity:1"
         inkscape:export-filename="/home/juergen/Schreibtisch/path4136.png"
         inkscape:export-xdpi="648"
         inkscape:export-ydpi="648" />
    </clipPath>
    <clipPath
       clipPathUnits="userSpaceOnUse"
       id="clipPath6175">
      <circle
         r="10"
         cy="10.000005"
         cx="9.9999781"
         id="circle6177"
         style="opacity:1;fill:#f44336;fill-opacity:1;stroke:none;stroke-width:0.05069799;stroke-miterlimit:4;stroke-dasharray:none;stroke-opacity:1"
         inkscape:export-filename="/home/juergen/Schreibtisch/path4136.png"
         inkscape:export-xdpi="648"
         inkscape:export-ydpi="648" />
    </clipPath>
    <clipPath
       id="clipPath7176"
       clipPathUnits="userSpaceOnUse">
      <circle
         r="10"
         cy="10.000005"
         cx="9.9999781"
         id="circle7178"
         style="opacity:1;fill:#9c27b0;fill-opacity:1;stroke:none;stroke-width:0.05069799;stroke-miterlimit:4;stroke-dasharray:none;stroke-opacity:1"
         inkscape:export-filename="/home/juergen/Schreibtisch/path4136.png"
         inkscape:export-xdpi="648"
         inkscape:export-ydpi="648" />
    </clipPath>
    <clipPath
       clipPathUnits="userSpaceOnUse"
       id="clipPath8165">
      <circle
         r="10"
         cy="10.000005"
         cx="9.9999781"
         id="circle8167"
         style="opacity:1;fill:#ffc107;fill-opacity:1;stroke:none;stroke-width:0.05069799;stroke-miterlimit:4;stroke-dasharray:none;stroke-opacity:1"
         inkscape:export-filename="/home/juergen/Schreibtisch/path4136.png"
         inkscape:export-xdpi="648"
         inkscape:export-ydpi="648" />
    </clipPath>
    <clipPath
       id="clipPath9162"
       clipPathUnits="userSpaceOnUse">
      <circle
         r="10"
         cy="10.000005"
         cx="9.9999781"
         id="circle9164"
         style="opacity:1;fill:#ff9800;fill-opacity:1;stroke:none;stroke-width:0.05069799;stroke-miterlimit:4;stroke-dasharray:none;stroke-opacity:1"
         inkscape:export-filename="/home/juergen/Schreibtisch/path4136.png"
         inkscape:export-xdpi="648"
         inkscape:export-ydpi="648" />
    </clipPath>
    <clipPath
       clipPathUnits="userSpaceOnUse"
       id="clipPath10753">
      <circle
         r="10"
         cy="10.000005"
         cx="9.9999781"
         id="circle10755"
         style="opacity:1;fill:#607d8b;fill-opacity:1;stroke:none;stroke-width:0.05069799;stroke-miterlimit:4;stroke-dasharray:none;stroke-opacity:1"
         inkscape:export-filename="/home/juergen/Schreibtisch/path4136.png"
         inkscape:export-xdpi="648"
         inkscape:export-ydpi="648" />
    </clipPath>
    <clipPath
       id="clipPath5153"
       clipPathUnits="userSpaceOnUse">
      <circle
         r="10"
         cy="10.000005"
         cx="9.9999781"
         id="circle5155"
         style="opacity:1;fill:#2196f3;fill-opacity:1;stroke:none;stroke-width:0.05069799;stroke-miterlimit:4;stroke-dasharray:none;stroke-opacity:1"
         inkscape:export-filename="/home/juergen/Schreibtisch/path4136.png"
         inkscape:export-xdpi="648"
         inkscape:export-ydpi="648" />
    </clipPath>
    <clipPath
       clipPathUnits="userSpaceOnUse"
       id="clipPath6152">
      <circle
         r="10"
         cy="10.000005"
         cx="9.9999781"
         id="circle6154"
         style="opacity:1;fill:#2196f3;fill-opacity:1;stroke:none;stroke-width:0.05069799;stroke-miterlimit:4;stroke-dasharray:none;stroke-opacity:1"
         inkscape:export-filename="/home/juergen/Schreibtisch/path4136.png"
         inkscape:export-xdpi="648"
         inkscape:export-ydpi="648" />
    </clipPath>
    <clipPath
       id="clipPath7155"
       clipPathUnits="userSpaceOnUse">
      <circle
         r="10"
         cy="10.000005"
         cx="9.9999781"
         id="circle7157"
         style="opacity:1;fill:#2196f3;fill-opacity:1;stroke:none;stroke-width:0.05069799;stroke-miterlimit:4;stroke-dasharray:none;stroke-opacity:1"
         inkscape:export-filename="/home/juergen/Schreibtisch/path4136.png"
         inkscape:export-xdpi="648"
         inkscape:export-ydpi="648" />
    </clipPath>
    <clipPath
       clipPathUnits="userSpaceOnUse"
       id="clipPath8162">
      <circle
         r="10"
         cy="10.000005"
         cx="9.9999781"
         id="circle8164"
         style="opacity:1;fill:#2196f3;fill-opacity:1;stroke:none;stroke-width:0.05069799;stroke-miterlimit:4;stroke-dasharray:none;stroke-opacity:1"
         inkscape:export-filename="/home/juergen/Schreibtisch/path4136.png"
         inkscape:export-xdpi="648"
         inkscape:export-ydpi="648" />
    </clipPath>
    <clipPath
       id="clipPath5177"
       clipPathUnits="userSpaceOnUse">
      <circle
         r="10"
         cy="10.000005"
         cx="9.9999781"
         id="circle5179"
         style="opacity:1;fill:#8bc34a;fill-opacity:1;stroke:none;stroke-width:0.05069799;stroke-miterlimit:4;stroke-dasharray:none;stroke-opacity:1"
         inkscape:export-filename="/home/juergen/Schreibtisch/path4136.png"
         inkscape:export-xdpi="648"
         inkscape:export-ydpi="648" />
    </clipPath>
    <linearGradient
       inkscape:collect="always"
       xlink:href="#linearGradient6183"
       id="linearGradient6189"
       x1="10"
       y1="10"
       x2="20"
       y2="20"
       gradientUnits="userSpaceOnUse" />
    <clipPath
       clipPathUnits="userSpaceOnUse"
       id="clipPath6194">
      <circle
         r="10"
         cy="10.000005"
         cx="9.9999781"
         id="circle6196"
         style="opacity:1;fill:#4caf50;fill-opacity:1;stroke:none;stroke-width:0.05069799;stroke-miterlimit:4;stroke-dasharray:none;stroke-opacity:1"
         inkscape:export-filename="/home/juergen/Schreibtisch/path4136.png"
         inkscape:export-xdpi="648"
         inkscape:export-ydpi="648" />
    </clipPath>
  </defs>
  <metadata
     id="metadata7">
    <rdf:RDF>
      <cc:Work
         rdf:about="">
        <dc:format>image/svg+xml</dc:format>
        <dc:type
           rdf:resource="http://purl.org/dc/dcmitype/StillImage" />
        <dc:title></dc:title>
      </cc:Work>
    </rdf:RDF>
  </metadata>
  <g
     inkscape:label="Hintergrund"
     inkscape:groupmode="layer"
     id="layer1"
     transform="translate(1058.1428,-861.93365)">
    <circle
       inkscape:export-ydpi="648"
       inkscape:export-xdpi="648"
       inkscape:export-filename="/home/juergen/Schreibtisch/path4136.png"
       style="opacity:1;fill:#4caf50;fill-opacity:1;stroke:none;stroke-width:0.05069799;stroke-miterlimit:4;stroke-dasharray:none;stroke-opacity:1"
       id="path4136"
       cx="-1048.1428"
       cy="871.93365"
       r="10" />
  </g>
  <g
     style="display:inline"
     inkscape:groupmode="layer"
     id="layer2"
     inkscape:label="Icon">
    <path
       d="M 10.148438 5.1484375 C 7.3984377 5.1484375 5.1484375 7.2184375 5.1484375 9.7734375 C 5.1484375 11.046762 5.7060423 12.197814 6.6054688 13.035156 C 6.6579905 13.088475 6.7085377 13.142353 6.7636719 13.193359 C 6.8122722 13.242397 6.8593359 13.292775 6.9101562 13.339844 C 6.932205 13.362091 6.9520994 13.386357 6.9746094 13.408203 L 7.0039062 15.148438 L 7.1484375 15.070312 L 7.1523438 15.296875 L 7.2949219 15.21875 L 7.2988281 15.445312 L 7.4414062 15.367188 L 7.4453125 15.591797 L 7.5878906 15.513672 L 7.5917969 15.736328 L 7.7324219 15.660156 L 7.7363281 15.882812 L 7.8769531 15.806641 L 7.8808594 16.027344 L 8.0214844 15.951172 L 8.0253906 16.169922 L 8.1640625 16.09375 L 8.1679688 16.3125 L 8.3066406 16.236328 L 8.3105469 16.455078 L 8.4472656 16.380859 L 8.4511719 16.597656 L 8.5878906 16.523438 L 8.5917969 16.738281 L 8.7285156 16.664062 L 8.7324219 16.876953 L 8.8671875 16.802734 L 8.8710938 17.017578 L 9.0058594 16.943359 L 9.0097656 17.154297 L 9.1445312 17.080078 L 9.1484375 17.292969 L 9.28125 17.220703 L 9.2851562 17.429688 L 9.4179688 17.357422 L 9.421875 17.566406 L 9.5527344 17.494141 L 9.5566406 17.701172 L 9.6875 17.628906 L 9.6914062 17.835938 L 9.8222656 17.763672 L 9.8261719 17.970703 L 9.9550781 17.900391 L 9.9589844 18.103516 L 10.087891 18.033203 L 10.091797 18.236328 L 10.21875 18.166016 L 10.222656 18.369141 L 10.349609 18.298828 L 10.353516 18.5 L 10.480469 18.429688 L 10.484375 18.628906 L 10.609375 18.560547 L 10.613281 18.759766 L 10.738281 18.691406 L 10.742188 18.888672 L 10.867188 18.820312 L 10.871094 19.015625 L 10.994141 18.947266 L 10.998047 19.142578 L 11.121094 19.074219 L 11.125 19.269531 L 11.246094 19.203125 L 11.25 19.396484 L 11.373047 19.328125 L 11.376953 19.521484 L 11.496094 19.457031 L 11.5 19.644531 L 11.621094 19.578125 L 11.625 19.769531 L 11.742188 19.705078 L 11.746094 19.892578 L 11.865234 19.826172 L 11.869141 20.013672 L 11.986328 19.949219 L 11.990234 20.134766 L 12.107422 20.070312 L 12.111328 20.255859 L 12.226562 20.193359 L 12.230469 20.376953 L 12.345703 20.314453 L 12.349609 20.496094 L 12.464844 20.433594 L 12.46875 20.613281 L 12.583984 20.550781 L 12.585938 20.730469 L 12.701172 20.667969 L 12.703125 20.847656 L 12.816406 20.785156 L 12.820312 20.964844 L 12.931641 20.904297 L 12.935547 21.080078 L 13.046875 21.019531 L 13.048828 21.195312 L 13.160156 21.134766 L 13.164062 21.308594 L 13.273438 21.248047 L 13.277344 21.421875 L 13.386719 21.363281 L 13.388672 21.535156 L 13.498047 21.474609 L 13.501953 21.646484 L 13.609375 21.587891 L 13.611328 21.757812 L 13.720703 21.699219 L 13.722656 21.867188 L 13.830078 21.808594 L 13.832031 21.976562 L 13.939453 21.917969 L 13.941406 22.085938 L 14.046875 22.029297 L 14.048828 22.193359 L 14.154297 22.136719 L 14.15625 22.300781 L 14.261719 22.244141 L 14.263672 22.408203 L 14.367188 22.351562 L 14.369141 22.513672 L 14.470703 22.458984 L 14.472656 22.619141 L 14.576172 22.5625 L 14.578125 22.722656 L 14.679688 22.667969 L 14.681641 22.826172 L 14.783203 22.771484 L 14.785156 22.929688 L 14.884766 22.875 L 14.886719 23.03125 L 14.986328 22.976562 L 14.988281 23.132812 L 15.085938 23.080078 L 15.087891 23.234375 L 15.185547 23.181641 L 15.1875 23.333984 L 15.285156 23.28125 L 15.287109 23.431641 L 15.384766 23.378906 L 15.386719 23.53125 L 15.482422 23.478516 L 15.484375 23.628906 L 15.578125 23.578125 L 15.580078 23.724609 L 15.673828 23.673828 L 15.675781 23.822266 L 15.769531 23.771484 L 15.771484 23.916016 L 15.865234 23.865234 L 15.867188 24.011719 L 15.958984 23.962891 L 15.960938 24.105469 L 16.052734 24.056641 L 16.054688 24.199219 L 16.144531 24.150391 L 16.146484 24.291016 L 16.236328 24.242188 L 16.238281 24.382812 L 16.326172 24.335938 L 16.328125 24.474609 L 16.417969 24.425781 L 16.419922 24.564453 L 16.505859 24.517578 L 16.507812 24.654297 L 16.595703 24.607422 L 16.597656 24.742188 L 16.683594 24.695312 L 16.685547 24.830078 L 16.771484 24.783203 L 16.773438 24.917969 L 16.857422 24.873047 L 16.859375 25.003906 L 16.943359 24.958984 L 16.945312 25.089844 L 17.027344 25.044922 L 17.029297 25.175781 L 17.111328 25.130859 L 17.113281 25.259766 L 17.195312 25.214844 L 17.197266 25.341797 L 17.279297 25.296875 L 17.28125 25.425781 L 17.361328 25.382812 L 17.363281 25.507812 L 17.441406 25.464844 L 17.443359 25.587891 L 17.521484 25.544922 L 17.523438 25.669922 L 17.601562 25.626953 L 17.603516 25.75 L 17.681641 25.707031 L 17.683594 25.828125 L 17.759766 25.787109 L 17.761719 25.90625 L 17.837891 25.865234 L 17.839844 25.984375 L 17.914062 25.943359 L 17.916016 26.060547 L 17.990234 26.019531 L 17.992188 26.136719 L 18.066406 26.095703 L 18.068359 26.212891 L 18.140625 26.173828 L 18.142578 26.287109 L 18.214844 26.248047 L 18.216797 26.361328 L 18.287109 26.322266 L 18.289062 26.433594 L 18.359375 26.394531 L 18.361328 26.505859 L 18.431641 26.466797 L 18.433594 26.578125 L 18.501953 26.541016 L 18.503906 26.648438 L 18.572266 26.611328 L 18.574219 26.71875 L 18.642578 26.681641 L 18.644531 26.789062 L 18.710938 26.751953 L 18.712891 26.857422 L 18.779297 26.820312 L 18.78125 26.925781 L 18.845703 26.890625 L 18.847656 26.992188 L 18.912109 26.957031 L 18.914062 27.058594 L 18.978516 27.023438 L 18.980469 27.125 L 19.042969 27.089844 L 19.044922 27.189453 L 19.107422 27.15625 L 19.109375 27.253906 L 19.169922 27.220703 L 19.171875 27.318359 L 19.232422 27.285156 L 19.234375 27.380859 L 19.294922 27.347656 L 19.296875 27.441406 L 19.357422 27.408203 L 19.359375 27.503906 L 19.417969 27.472656 L 19.419922 27.564453 L 19.476562 27.533203 L 19.478516 27.623047 L 19.535156 27.591797 L 19.537109 27.683594 L 19.59375 27.652344 L 19.595703 27.740234 L 19.652344 27.708984 L 19.654297 27.798828 L 19.708984 27.769531 L 19.710938 27.855469 L 19.763672 27.826172 L 19.765625 27.912109 L 19.820312 27.882812 L 19.822266 27.966797 L 19.875 27.9375 L 19.876953 28.021484 L 19.927734 27.994141 L 19.929688 28.076172 L 19.980469 28.048828 L 19.982422 28.128906 L 20.033203 28.101562 L 20.035156 28.181641 L 20.085938 28.154297 L 20.087891 28.232422 L 20.136719 28.205078 L 20.138672 28.283203 L 20.185547 28.257812 L 20.1875 28.333984 L 20.236328 28.306641 L 20.238281 28.382812 L 20.285156 28.357422 L 20.287109 28.431641 L 20.332031 28.40625 L 20.333984 28.478516 L 20.378906 28.453125 L 20.380859 28.527344 L 20.425781 28.501953 L 20.427734 28.572266 L 20.470703 28.548828 L 20.472656 28.619141 L 20.515625 28.595703 L 20.517578 28.664062 L 20.560547 28.640625 L 20.5625 28.707031 L 20.603516 28.683594 L 20.605469 28.751953 L 20.646484 28.728516 L 20.648438 28.792969 L 20.689453 28.769531 L 20.691406 28.835938 L 20.730469 28.814453 L 20.732422 28.876953 L 20.769531 28.855469 L 20.771484 28.917969 L 20.810547 28.896484 L 20.8125 28.957031 L 20.849609 28.935547 L 20.851562 28.996094 L 20.888672 28.976562 L 20.888672 29.035156 L 20.925781 29.013672 L 20.927734 29.072266 L 20.962891 29.052734 L 20.962891 29.109375 L 21 29.089844 L 21 29.144531 L 21.035156 29.125 L 21.035156 29.179688 L 21.070312 29.160156 L 21.070312 29.214844 L 21.103516 29.197266 L 21.103516 29.248047 L 21.136719 29.230469 L 21.136719 29.28125 L 21.167969 29.265625 L 21.167969 29.314453 L 21.199219 29.296875 L 21.199219 29.345703 L 21.230469 29.328125 L 21.230469 29.375 L 21.261719 29.359375 L 21.261719 29.40625 L 21.291016 29.390625 L 21.291016 29.435547 L 21.318359 29.421875 L 21.318359 29.464844 L 21.347656 29.449219 L 21.347656 29.492188 L 21.373047 29.478516 L 21.373047 29.519531 L 21.400391 29.505859 L 21.400391 29.544922 L 21.425781 29.53125 L 21.425781 29.570312 L 21.451172 29.556641 L 21.451172 29.595703 L 21.474609 29.583984 L 21.474609 29.619141 L 21.498047 29.607422 L 21.498047 29.642578 L 21.521484 29.630859 L 21.521484 29.666016 L 21.542969 29.654297 L 21.542969 29.6875 L 21.564453 29.675781 L 21.564453 29.708984 L 21.583984 29.699219 L 21.583984 29.728516 L 21.603516 29.71875 L 21.603516 29.748047 L 21.623047 29.738281 L 21.623047 29.767578 L 21.640625 29.757812 L 21.640625 29.787109 L 21.658203 29.777344 L 21.658203 29.802734 L 21.675781 29.792969 L 21.675781 29.820312 L 21.691406 29.8125 L 21.691406 29.835938 L 21.707031 29.828125 L 21.707031 29.851562 L 21.720703 29.84375 L 21.720703 29.865234 L 21.734375 29.857422 L 21.734375 29.878906 L 21.748047 29.871094 L 21.748047 29.892578 L 21.759766 29.886719 L 21.759766 29.904297 L 21.771484 29.898438 L 21.771484 29.916016 L 21.78125 29.910156 L 21.78125 29.927734 L 21.792969 29.921875 L 21.792969 29.9375 L 21.800781 29.933594 L 21.800781 29.947266 L 21.810547 29.941406 L 21.810547 29.955078 L 21.818359 29.951172 L 21.818359 29.962891 L 21.824219 29.958984 L 21.824219 29.970703 L 21.832031 29.966797 L 21.832031 29.976562 L 21.835938 29.974609 L 21.835938 29.982422 L 21.841797 29.978516 L 21.841797 29.986328 L 21.845703 29.984375 L 21.845703 29.990234 L 21.849609 29.988281 L 21.849609 29.994141 L 21.851562 29.992188 L 21.851562 29.996094 L 21.853516 29.994141 L 21.853516 29.998047 L 21.855469 29.996094 L 21.855469 30 L 23.580078 29.060547 L 23.578125 29.058594 C 24.029109 29.181276 24.504951 29.25 25 29.25 C 26.03062 29.25 26.991012 28.957029 27.789062 28.458984 C 28.055176 28.292783 28.302734 28.10375 28.529297 27.894531 C 29.436212 27.057574 30 25.903033 30 24.625 C 30 23.98625 29.859375 23.377578 29.605469 22.824219 C 29.605127 22.823473 29.603858 22.823012 29.603516 22.822266 C 29.476769 22.546478 29.322225 22.284385 29.142578 22.039062 C 29.14205 22.038341 29.141153 22.037831 29.140625 22.037109 C 29.140339 22.036719 29.140911 22.035546 29.140625 22.035156 C 29.094513 21.972187 29.031739 21.922037 28.982422 21.861328 C 28.901072 21.761368 28.814242 21.665709 28.724609 21.572266 C 28.690678 21.536892 28.662021 21.497285 28.626953 21.462891 C 28.59183 21.428442 28.565533 21.386956 28.529297 21.353516 C 28.529297 21.353516 28.527344 21.351562 28.527344 21.351562 C 28.526928 21.351178 28.52776 21.349994 28.527344 21.349609 C 28.526677 21.348995 28.526058 21.34827 28.525391 21.347656 C 28.523014 21.345461 28.51996 21.343987 28.517578 21.341797 C 28.515864 21.340198 28.513436 21.335581 28.511719 21.333984 C 28.510388 21.332757 28.509145 21.331304 28.507812 21.330078 C 28.507812 21.330078 28.505859 21.328125 28.505859 21.328125 C 28.504526 21.326895 28.503288 21.325447 28.501953 21.324219 C 28.501953 21.324219 28.5 21.322266 28.5 21.322266 C 28.497968 21.320374 28.494223 21.316342 28.492188 21.314453 C 28.490151 21.312566 28.488369 21.310478 28.486328 21.308594 C 28.486328 21.308594 28.484375 21.306641 28.484375 21.306641 C 28.482338 21.304753 28.480556 21.302666 28.478516 21.300781 C 28.468732 21.291643 28.45713 21.280547 28.447266 21.271484 C 28.443197 21.267701 28.439629 21.263536 28.435547 21.259766 C 28.431473 21.255978 28.425963 21.251822 28.421875 21.248047 C 28.412742 21.239482 28.405688 21.229203 28.396484 21.220703 C 28.388356 21.213132 28.381232 21.204785 28.373047 21.197266 C 28.371006 21.195374 28.369232 21.193294 28.367188 21.191406 C 28.35801 21.182849 28.349092 21.174507 28.339844 21.166016 C 28.329683 21.156497 28.320796 21.146156 28.310547 21.136719 C 28.304412 21.131011 28.299136 21.124819 28.292969 21.119141 C 28.286166 21.112804 28.280279 21.105909 28.273438 21.099609 C 28.268338 21.09486 28.262934 21.088714 28.257812 21.083984 C 28.247323 21.074186 28.239098 21.062446 28.228516 21.052734 C 28.225119 21.04958 28.222157 21.046115 28.21875 21.042969 C 28.21875 21.042969 28.216797 21.041016 28.216797 21.041016 C 28.205616 21.030566 28.194881 21.020117 28.183594 21.009766 C 28.177476 21.00408 28.172165 20.997844 28.166016 20.992188 C 28.160242 20.986804 28.156193 20.979967 28.150391 20.974609 C 28.150391 20.974609 28.148438 20.972656 28.148438 20.972656 C 28.136587 20.961568 28.125251 20.950431 28.113281 20.939453 C 28.106482 20.933128 28.100588 20.926211 28.09375 20.919922 C 28.087294 20.913895 28.082663 20.906385 28.076172 20.900391 C 28.064027 20.889 28.053287 20.876508 28.041016 20.865234 C 28.02985 20.854811 28.019084 20.84431 28.007812 20.833984 C 28.002713 20.829235 27.999262 20.823089 27.994141 20.818359 C 27.981323 20.806325 27.969989 20.793155 27.957031 20.78125 C 27.945188 20.770181 27.933837 20.759005 27.921875 20.748047 C 27.916101 20.742663 27.912052 20.735827 27.90625 20.730469 C 27.892771 20.717799 27.880822 20.703933 27.867188 20.691406 C 27.855992 20.680931 27.845286 20.670533 27.833984 20.660156 C 27.821119 20.648111 27.809881 20.634962 27.796875 20.623047 C 27.78872 20.615434 27.781649 20.60717 27.773438 20.599609 C 27.75792 20.585031 27.744239 20.569076 27.728516 20.554688 C 27.720074 20.546806 27.713581 20.537122 27.705078 20.529297 C 27.690933 20.516001 27.678378 20.501419 27.664062 20.488281 C 27.651912 20.476899 27.641183 20.464391 27.628906 20.453125 C 27.616095 20.44111 27.604748 20.427901 27.591797 20.416016 C 27.578602 20.403641 27.566077 20.391143 27.552734 20.378906 C 27.539195 20.366201 27.527367 20.352404 27.513672 20.339844 C 27.500133 20.327139 27.488305 20.313342 27.474609 20.300781 C 27.461077 20.288082 27.449236 20.274273 27.435547 20.261719 C 27.421341 20.248373 27.408909 20.23389 27.394531 20.220703 C 27.378344 20.205496 27.364067 20.188828 27.347656 20.173828 C 27.336834 20.16369 27.327328 20.152624 27.316406 20.142578 C 27.298219 20.125432 27.282143 20.106727 27.263672 20.089844 C 27.25152 20.078447 27.240794 20.065968 27.228516 20.054688 C 27.211664 20.038801 27.196783 20.021521 27.179688 20.005859 C 27.162472 19.989667 27.146375 19.972989 27.128906 19.957031 C 27.116402 19.945297 27.106388 19.931533 27.09375 19.919922 C 27.074526 19.901778 27.056651 19.883085 27.037109 19.865234 C 27.023938 19.85286 27.01332 19.838409 27 19.826172 C 26.981815 19.80899 26.965735 19.790357 26.947266 19.773438 C 26.930406 19.757544 26.915541 19.740278 26.898438 19.724609 C 26.880927 19.708103 26.865429 19.690092 26.847656 19.673828 C 26.830137 19.657313 26.814657 19.639319 26.796875 19.623047 C 26.779356 19.606532 26.763876 19.588538 26.746094 19.572266 C 26.728565 19.55574 26.713105 19.537766 26.695312 19.521484 C 26.67714 19.504333 26.661034 19.485639 26.642578 19.46875 C 26.624385 19.451579 26.608321 19.432924 26.589844 19.416016 C 26.571 19.398211 26.554305 19.378851 26.535156 19.361328 C 26.516313 19.343524 26.499617 19.324163 26.480469 19.306641 C 26.461261 19.288492 26.443353 19.269809 26.423828 19.251953 C 26.404261 19.233454 26.387083 19.213507 26.367188 19.195312 C 26.345646 19.174946 26.326628 19.15281 26.304688 19.132812 C 26.288485 19.117538 26.27424 19.101004 26.257812 19.085938 C 26.234284 19.063615 26.21346 19.039459 26.189453 19.017578 C 26.172302 19.001391 26.158029 18.982751 26.140625 18.966797 C 26.118485 18.945782 26.098735 18.922968 26.076172 18.902344 C 26.05366 18.881025 26.032713 18.858806 26.009766 18.837891 C 25.991578 18.820706 25.975503 18.802078 25.957031 18.785156 C 25.934181 18.763454 25.913926 18.740036 25.890625 18.71875 C 25.867382 18.696724 25.845974 18.673939 25.822266 18.652344 C 25.802028 18.63321 25.784262 18.612559 25.763672 18.59375 C 25.743132 18.574264 25.725982 18.552354 25.705078 18.533203 C 25.678937 18.508318 25.65564 18.48137 25.628906 18.457031 C 25.608083 18.437333 25.589556 18.415838 25.568359 18.396484 C 25.546851 18.376068 25.527768 18.354032 25.505859 18.333984 C 25.48103 18.310349 25.458957 18.284862 25.433594 18.261719 C 25.410076 18.239383 25.38923 18.215254 25.365234 18.193359 C 25.340031 18.169422 25.316768 18.144524 25.291016 18.121094 C 25.268812 18.100054 25.249191 18.077288 25.226562 18.056641 C 25.202386 18.033653 25.180932 18.00885 25.15625 17.986328 C 25.132059 17.963325 25.110635 17.938552 25.085938 17.916016 C 25.061105 17.892377 25.039039 17.866896 25.013672 17.84375 C 24.990152 17.82136 24.969312 17.797338 24.945312 17.775391 C 24.918173 17.749482 24.894967 17.720632 24.867188 17.695312 C 24.841702 17.671052 24.819017 17.644835 24.792969 17.621094 C 24.765799 17.59523 24.7407 17.568242 24.712891 17.542969 C 24.688691 17.519984 24.667284 17.495174 24.642578 17.472656 C 24.618118 17.449346 24.597245 17.423223 24.572266 17.400391 C 24.542486 17.371913 24.514926 17.342219 24.484375 17.314453 C 24.459518 17.290817 24.437501 17.26533 24.412109 17.242188 C 24.386605 17.217852 24.363961 17.191783 24.337891 17.167969 C 24.309057 17.140378 24.283464 17.110908 24.253906 17.083984 C 24.225101 17.056484 24.199448 17.026835 24.169922 17 C 24.14509 16.976335 24.123023 16.950907 24.097656 16.927734 C 24.067908 16.899237 24.042239 16.86763 24.011719 16.839844 C 23.981936 16.811395 23.954382 16.781643 23.923828 16.753906 C 23.898713 16.729971 23.877225 16.703119 23.851562 16.679688 C 23.821522 16.650894 23.794501 16.619865 23.763672 16.591797 C 23.73453 16.563927 23.707616 16.535001 23.677734 16.507812 C 23.646957 16.478363 23.619493 16.446658 23.587891 16.417969 C 23.561731 16.393009 23.538473 16.366209 23.511719 16.341797 C 23.478342 16.30975 23.448414 16.27529 23.414062 16.244141 C 23.385939 16.217307 23.360841 16.18831 23.332031 16.162109 C 23.303258 16.134561 23.277543 16.105009 23.248047 16.078125 C 23.216362 16.047703 23.188813 16.013989 23.15625 15.984375 C 23.125171 15.954586 23.096376 15.923543 23.064453 15.894531 C 23.03239 15.863816 23.003663 15.83067 22.970703 15.800781 C 22.940904 15.772283 22.913385 15.742629 22.882812 15.714844 C 22.853044 15.686292 22.827419 15.654792 22.796875 15.626953 C 22.761835 15.593232 22.729476 15.55812 22.693359 15.525391 C 22.664524 15.497797 22.638936 15.468332 22.609375 15.441406 C 22.573994 15.407337 22.542339 15.370949 22.505859 15.337891 C 22.476762 15.310016 22.451711 15.279147 22.421875 15.251953 C 22.386208 15.21759 22.35319 15.181773 22.316406 15.148438 C 22.286005 15.119281 22.259725 15.087007 22.228516 15.058594 C 22.193853 15.025198 22.162672 14.989457 22.126953 14.957031 C 22.092277 14.923698 22.06112 14.887832 22.025391 14.855469 C 21.994682 14.826002 21.96708 14.794333 21.935547 14.765625 C 21.900256 14.731585 21.868418 14.695142 21.832031 14.662109 C 21.797994 14.629351 21.767476 14.594323 21.732422 14.5625 C 21.696085 14.527491 21.662496 14.490973 21.625 14.457031 C 21.593559 14.426841 21.56551 14.394629 21.533203 14.365234 C 21.494958 14.328281 21.461409 14.287722 21.421875 14.251953 C 21.38844 14.219831 21.35668 14.187471 21.322266 14.15625 C 21.288256 14.123462 21.259636 14.086541 21.224609 14.054688 C 21.187382 14.018697 21.153685 13.98018 21.115234 13.945312 C 21.079275 13.910628 21.046862 13.873483 21.009766 13.839844 C 20.972133 13.803545 20.937315 13.765621 20.898438 13.730469 C 20.863731 13.697066 20.832638 13.661336 20.796875 13.628906 C 20.76157 13.594814 20.729763 13.558475 20.693359 13.525391 C 20.653463 13.486753 20.617474 13.445548 20.576172 13.408203 C 20.540449 13.373783 20.507547 13.338076 20.470703 13.304688 C 20.435022 13.270209 20.403991 13.232667 20.367188 13.199219 C 20.327689 13.160923 20.292832 13.11906 20.251953 13.082031 C 20.214057 13.045394 20.179788 13.006176 20.140625 12.970703 C 20.101079 12.932472 20.064362 12.892432 20.023438 12.855469 C 19.986802 12.820129 19.953832 12.782301 19.916016 12.748047 C 19.878749 12.711975 19.845135 12.673618 19.806641 12.638672 C 19.766134 12.599354 19.72946 12.557515 19.6875 12.519531 C 19.648254 12.481523 19.612873 12.441054 19.572266 12.404297 C 19.531719 12.365029 19.495124 12.323088 19.453125 12.285156 C 19.414854 12.248157 19.379406 12.20964 19.339844 12.173828 C 19.299953 12.135152 19.263955 12.094024 19.222656 12.056641 C 19.184395 12.019541 19.150885 11.97927 19.111328 11.943359 C 19.069499 11.902661 19.031665 11.859585 18.988281 11.820312 C 18.945786 11.77906 18.907376 11.735095 18.863281 11.695312 C 18.824065 11.657354 18.788621 11.616789 18.748047 11.580078 C 18.706566 11.539791 18.668007 11.497871 18.625 11.458984 C 18.585448 11.42059 18.550704 11.37892 18.509766 11.341797 C 18.466699 11.29985 18.42753 11.255278 18.382812 11.214844 C 18.339333 11.172591 18.299062 11.128603 18.253906 11.087891 C 18.214666 11.049844 18.179275 11.009452 18.138672 10.972656 C 18.094601 10.929704 18.055566 10.883163 18.009766 10.841797 C 17.966309 10.799566 17.925991 10.755535 17.880859 10.714844 C 17.83968 10.674872 17.802448 10.632343 17.759766 10.59375 C 17.716306 10.551419 17.676 10.507587 17.630859 10.466797 C 17.589043 10.426085 17.553138 10.381083 17.509766 10.341797 C 17.464782 10.297882 17.423742 10.251245 17.376953 10.208984 C 17.331577 10.164788 17.289394 10.118687 17.242188 10.076172 C 17.201019 10.036164 17.163767 9.9937057 17.121094 9.9550781 C 17.075775 9.9108092 17.035434 9.8629013 16.988281 9.8203125 C 16.943517 9.7766575 16.902019 9.731471 16.855469 9.6894531 C 16.8091 9.6442099 16.767035 9.5962193 16.71875 9.5527344 C 16.676902 9.5120173 16.639108 9.4689774 16.595703 9.4296875 C 16.547437 9.3824314 16.503476 9.3324549 16.453125 9.2871094 C 16.409385 9.2445053 16.369661 9.1992459 16.324219 9.1582031 C 16.279221 9.1142239 16.238213 9.0677131 16.191406 9.0253906 C 16.142493 8.9775015 16.097928 8.926786 16.046875 8.8808594 C 16.003756 8.8388578 15.964695 8.7943909 15.919922 8.7539062 C 15.870379 8.7053445 15.82518 8.6539683 15.773438 8.6074219 C 15.730077 8.5651396 15.691521 8.5192627 15.646484 8.4785156 C 15.596617 8.4296045 15.550145 8.3788994 15.498047 8.3320312 C 15.453684 8.2887216 15.413307 8.2428727 15.367188 8.2011719 C 15.318329 8.1532267 15.273657 8.1026248 15.222656 8.0566406 C 15.173351 8.0083628 15.127652 7.9583926 15.076172 7.9121094 C 15.029785 7.8667936 14.98776 7.8189455 14.939453 7.7753906 C 14.890918 7.7278159 14.847522 7.6765005 14.796875 7.6308594 C 14.750565 7.5854899 14.708389 7.5377517 14.660156 7.4941406 C 14.609341 7.4441555 14.562906 7.391609 14.509766 7.34375 C 14.459603 7.2945808 14.413745 7.2424152 14.361328 7.1953125 C 14.31505 7.1500301 14.272804 7.1021217 14.224609 7.0585938 C 14.173849 7.0086679 14.127298 6.9560077 14.074219 6.9082031 C 14.023008 6.8579439 13.975439 6.8059153 13.921875 6.7578125 C 13.873576 6.71052 13.829684 6.6606136 13.779297 6.6152344 C 12.865656 5.7175496 11.579432 5.1484375 10.148438 5.1484375 z "
       id="path5324"
       style="fill-opacity:1;fill:url(#linearGradient6189);opacity:0.2"
       clip-path="url(#clipPath6194)" />
    <path
       d="m 3.9999777,4.0333382 12.0000003,0 0,11.9333328 -12.0000003,0 z"
       id="path4"
       inkscape:connector-curvature="0"
       style="fill:none" />
    <path
       style="fill:none"
       inkscape:connector-curvature="0"
       id="path9754"
       d="m 18.999978,19.033339 12,0 0,11.933333 -12,0 z" />
    <path
       inkscape:connector-curvature="0"
       d="m 9.9999777,5.0000048 c -2.75,0 -5,2.0699999 -5,4.6249999 0,1.4400003 0.71,2.7250003 1.825,3.5750003 l 0.03,1.8 1.725,-0.94 -0.015,-0.005 c 0.455,0.125 0.935,0.195 1.435,0.195 2.7500003,0 5.0000003,-2.07 5.0000003,-4.6250003 0,-2.555 -2.25,-4.6249999 -5.0000003,-4.6249999 m 0.5150003,6.2050002 -1.2450003,-1.3150003 -2.52,1.3150003 2.69,-2.8150003 1.2900003,1.235 2.425,-1.235 -2.64,2.8150003 z"
       id="path5252"
       style="fill:#ffffff" />
  </g>
</svg>
